M48
;Layer_Color=9474304
;FILE_FORMAT=2:5
INCH,LZ
;TYPE=PLATED
T1F00S00C0.01181
T2F00S00C0.02756
T3F00S00C0.02953
T4F00S00C0.03000
T5F00S00C0.03543
T6F00S00C0.04331
T7F00S00C0.12598
%
T01
X0003Y0024
X00585Y00175
X0061Y0016
Y0019693
X0064Y00175
Y0054
X0145038Y0058181
X0126Y001
X0247Y0051
X024Y0070031
X023
X022
X021
X0214Y0087
X0232Y0106
X0212Y0134417
X0228Y0173841
X0241Y0164
X024Y0209
X0228
X0206Y0208
X0196583Y0177231
X0252Y02135
X026Y021574
X0274284Y0206716
X0309Y0206
X0309717Y0168
X0301Y0154303
X0309717Y0143
X0323Y0134
X0334059Y014195
X034407Y0156
X0335192Y0168
X0323Y0177628
Y0156
X0274Y0099
X0162976Y0109819
X0136303Y0113
X012474Y0116
X0108Y0097291
X0087538Y0098847
X0093Y0066
X0095788Y0068051
Y0063933
X0098Y0066
X0049Y0073
X0065Y0137
X0077Y0144
X007402Y0162
X0081418Y0162
X008489Y0171819
X0089Y0174
X0072
X0069Y0165051
Y0158949
X0063981Y0162
X0058Y0172
X0043Y0177
X0065Y019
X0067Y0201437
X0075717Y0211653
X0061575Y0215819
X0041Y0216
X0036843Y0218347
X0083Y0189
X0092Y015084
X0097Y0153
X0102
X0104Y0136
X0147Y0086291
X0143Y0082291
X017Y0064
X0168043Y0169496
X0172Y0205047
X0027Y013
X0329Y0253693
T02
X0029646Y0147904
Y0155778
Y0193563
Y0201437
T03
X0015Y0033
X0025
X0035
T04
X011Y004
X012
X013
X014
X015
X016
X017
X018
X02
X021
X022
X023
X024
X025
X019Y023
X018
X0164
X0154
X0144
X0134
X0124
X0114
X0104
X0094
X0084
X0074
X02
X021
X022
X023
X024
X025
T05
X0281Y0019
X0291
X0301
X0311
X0321
X0331
X0341
X0351
X0361
X0260551Y0129803
X0250551
Y0139803
X0260551
Y0149803
X0250551
X0040795Y0099
X0015205
T06
X0202Y0185
X0212
X0222
X0232
X0242
X0252
X0262
X0192
X0182
X0172
X0162
X0152
X0142
X0132
X0122
X0112
T07
X0055Y004
X026Y006
Y017
X006Y023
M30
