G04*
G04 #@! TF.GenerationSoftware,Altium Limited,Altium Designer,20.1.14 (287)*
G04*
G04 Layer_Color=65535*
%FSLAX25Y25*%
%MOIN*%
G70*
G04*
G04 #@! TF.SameCoordinates,0E931F91-B317-41B1-A8FB-8677B043815F*
G04*
G04*
G04 #@! TF.FilePolarity,Positive*
G04*
G01*
G75*
%ADD10C,0.00984*%
%ADD11C,0.00787*%
%ADD12C,0.02362*%
%ADD13C,0.00500*%
%ADD14C,0.01575*%
%ADD15C,0.01000*%
%ADD16C,0.00600*%
%ADD17R,0.00803X0.05118*%
%ADD18R,0.05118X0.00803*%
G36*
X352200Y92400D02*
X352100D01*
Y92500D01*
X352200D01*
Y92400D01*
D02*
G37*
G36*
X352900Y92400D02*
X352800D01*
Y92500D01*
X352900D01*
Y92400D01*
D02*
G37*
G36*
X353000Y92400D02*
X352900D01*
Y92500D01*
X353000D01*
Y92400D01*
D02*
G37*
G36*
X352300Y92400D02*
X352200D01*
Y92500D01*
X352300D01*
Y92400D01*
D02*
G37*
G36*
X352800Y92400D02*
X353100D01*
Y92300D01*
X353400D01*
Y92200D01*
X353600D01*
Y92100D01*
X353800D01*
Y92000D01*
X353900D01*
Y91900D01*
X354000D01*
Y91800D01*
X354100D01*
Y91700D01*
X354200D01*
Y91600D01*
X354300D01*
Y91500D01*
Y91400D01*
X354400D01*
Y91300D01*
X354500D01*
Y91200D01*
Y91100D01*
X354600D01*
Y91000D01*
Y90900D01*
Y90800D01*
Y90700D01*
X354700D01*
Y90600D01*
Y90500D01*
Y90400D01*
Y90300D01*
Y90200D01*
Y90100D01*
Y90000D01*
Y89900D01*
Y89800D01*
Y89700D01*
Y89600D01*
Y89500D01*
Y89400D01*
Y89300D01*
Y89200D01*
X354600D01*
Y89100D01*
X354700D01*
Y89000D01*
X354600D01*
Y88900D01*
Y88800D01*
X354500D01*
Y88700D01*
Y88600D01*
Y88500D01*
X354400D01*
Y88400D01*
Y88300D01*
X354300D01*
Y88200D01*
X354200D01*
Y88100D01*
Y88000D01*
X354100D01*
Y87900D01*
X354000D01*
Y87800D01*
X353900D01*
Y87700D01*
X353800D01*
Y87600D01*
X353700D01*
Y87500D01*
X353600D01*
Y87400D01*
X353500D01*
Y87300D01*
X353400D01*
Y87200D01*
X353300D01*
Y87100D01*
X353100D01*
Y87000D01*
X353000D01*
Y86900D01*
X352800D01*
Y86800D01*
X352700D01*
Y86700D01*
X352600D01*
Y86600D01*
X352400D01*
Y86500D01*
X352300D01*
Y86400D01*
X352200D01*
Y86300D01*
X352100D01*
Y86200D01*
X352000D01*
Y86100D01*
X351900D01*
Y86000D01*
X351700D01*
Y85900D01*
X351600D01*
Y85800D01*
X351500D01*
Y85700D01*
X351300D01*
Y85600D01*
X351200D01*
Y85500D01*
X351100D01*
Y85400D01*
X351000D01*
Y85300D01*
X350900D01*
Y85200D01*
X350800D01*
Y85100D01*
X350700D01*
Y85000D01*
X350600D01*
Y84900D01*
X350500D01*
Y84800D01*
Y84700D01*
X350400D01*
Y84600D01*
X350300D01*
Y84500D01*
X350200D01*
Y84400D01*
X350100D01*
Y84300D01*
X350000D01*
Y84200D01*
Y84100D01*
X349900D01*
Y84000D01*
X349800D01*
Y83900D01*
X349700D01*
Y83800D01*
Y83700D01*
X349600D01*
Y83600D01*
Y83500D01*
X349500D01*
Y83400D01*
Y83300D01*
X349400D01*
Y83200D01*
Y83100D01*
X349500D01*
Y83000D01*
X349300D01*
Y82900D01*
Y82800D01*
Y82700D01*
X349200D01*
Y82600D01*
Y82500D01*
Y82400D01*
Y82300D01*
Y82200D01*
Y82100D01*
X349100D01*
Y82000D01*
Y81900D01*
Y81800D01*
X349200D01*
Y81700D01*
Y81600D01*
Y81500D01*
Y81400D01*
Y81300D01*
X349300D01*
Y81200D01*
Y81100D01*
X349400D01*
Y81000D01*
X349500D01*
Y80900D01*
X349600D01*
Y80800D01*
X349900D01*
Y80700D01*
X350500D01*
Y80800D01*
X350700D01*
Y80900D01*
X350900D01*
Y81000D01*
X351200D01*
Y81100D01*
X351500D01*
Y81200D01*
X351900D01*
Y81300D01*
X352500D01*
Y81400D01*
X354300D01*
Y81300D01*
X354900D01*
Y81200D01*
X355300D01*
Y81100D01*
X355600D01*
Y81000D01*
X355900D01*
Y80900D01*
X356100D01*
Y80800D01*
X356300D01*
Y80700D01*
X356500D01*
Y80600D01*
X356800D01*
Y80500D01*
X357000D01*
Y80400D01*
X357100D01*
Y80300D01*
X357300D01*
Y80200D01*
X357500D01*
Y80100D01*
X357600D01*
Y80000D01*
X357800D01*
Y79900D01*
X357900D01*
Y79800D01*
X358000D01*
Y79700D01*
X358100D01*
Y79600D01*
X358200D01*
Y79500D01*
X358300D01*
Y79400D01*
X358400D01*
Y79300D01*
X358500D01*
Y79200D01*
X358600D01*
Y79100D01*
X358700D01*
Y79000D01*
X358800D01*
Y78900D01*
X358900D01*
Y78800D01*
X359000D01*
Y78700D01*
Y78600D01*
X359100D01*
Y78500D01*
X359200D01*
Y78400D01*
X359300D01*
Y78300D01*
X359600D01*
Y78400D01*
X360100D01*
Y78500D01*
X361000D01*
Y78400D01*
X361300D01*
Y78300D01*
X361500D01*
Y78200D01*
Y78100D01*
Y78000D01*
Y77900D01*
X361400D01*
Y77800D01*
X361200D01*
Y77700D01*
X361300D01*
Y77600D01*
X361500D01*
Y77500D01*
X361700D01*
Y77400D01*
X362000D01*
Y77300D01*
X362200D01*
Y77200D01*
X362300D01*
Y77100D01*
X362400D01*
Y77000D01*
Y76900D01*
X362500D01*
Y76800D01*
Y76700D01*
X362600D01*
Y76600D01*
X362500D01*
Y76500D01*
X362100D01*
Y76400D01*
Y76300D01*
Y76200D01*
Y76100D01*
Y76000D01*
Y75900D01*
X361200D01*
Y76000D01*
X360900D01*
Y76100D01*
X360700D01*
Y76200D01*
X360200D01*
Y76100D01*
X360000D01*
Y76000D01*
X359900D01*
Y75900D01*
X359800D01*
Y75800D01*
Y75700D01*
X359700D01*
Y75600D01*
X359600D01*
Y75500D01*
X359500D01*
Y75400D01*
X359400D01*
Y75300D01*
Y75200D01*
X359300D01*
Y75100D01*
X359200D01*
Y75000D01*
X359100D01*
Y74900D01*
X359000D01*
Y74800D01*
X358900D01*
Y74700D01*
X358800D01*
Y74600D01*
X358700D01*
Y74500D01*
X358500D01*
Y74400D01*
X358400D01*
Y74300D01*
X358300D01*
Y74200D01*
X358100D01*
Y74100D01*
X357900D01*
Y74000D01*
X357700D01*
Y73900D01*
X357400D01*
Y73800D01*
X357200D01*
Y73700D01*
X357000D01*
Y73600D01*
X356700D01*
Y73500D01*
X356300D01*
Y73400D01*
X355800D01*
Y73300D01*
X355400D01*
Y73200D01*
X354900D01*
Y73100D01*
X354400D01*
Y73000D01*
X354300D01*
Y72900D01*
Y72800D01*
Y72700D01*
Y72600D01*
Y72500D01*
X354200D01*
Y72400D01*
Y72300D01*
Y72200D01*
Y72100D01*
Y72000D01*
Y71900D01*
Y71800D01*
Y71700D01*
Y71600D01*
Y71500D01*
Y71400D01*
Y71300D01*
Y71200D01*
Y71100D01*
Y71000D01*
Y70900D01*
Y70800D01*
Y70700D01*
Y70600D01*
Y70500D01*
Y70400D01*
Y70300D01*
Y70200D01*
Y70100D01*
Y70000D01*
Y69900D01*
Y69800D01*
Y69700D01*
Y69600D01*
Y69500D01*
Y69400D01*
Y69300D01*
Y69200D01*
Y69100D01*
Y69000D01*
Y68900D01*
Y68800D01*
Y68700D01*
Y68600D01*
Y68500D01*
Y68400D01*
Y68300D01*
Y68200D01*
Y68100D01*
Y68000D01*
Y67900D01*
Y67800D01*
Y67700D01*
Y67600D01*
Y67500D01*
Y67400D01*
Y67300D01*
Y67200D01*
Y67100D01*
X354300D01*
Y67000D01*
Y66900D01*
Y66800D01*
Y66700D01*
Y66600D01*
Y66500D01*
Y66400D01*
Y66300D01*
Y66200D01*
X354400D01*
Y66100D01*
X354500D01*
Y66000D01*
X354600D01*
Y65900D01*
X354700D01*
Y65800D01*
X354900D01*
Y65700D01*
X355000D01*
Y65600D01*
X355100D01*
Y65500D01*
X355000D01*
Y65600D01*
X354800D01*
Y65700D01*
X354500D01*
Y65800D01*
X354300D01*
Y65700D01*
Y65600D01*
Y65500D01*
Y65400D01*
Y65300D01*
X354200D01*
Y65200D01*
Y65100D01*
Y65000D01*
Y64900D01*
Y64800D01*
Y64700D01*
Y64600D01*
Y64500D01*
Y64400D01*
Y64300D01*
Y64200D01*
Y64100D01*
Y64000D01*
Y63900D01*
Y63800D01*
Y63700D01*
Y63600D01*
Y63500D01*
Y63400D01*
Y63300D01*
Y63200D01*
Y63100D01*
Y63000D01*
Y62900D01*
Y62800D01*
Y62700D01*
Y62600D01*
Y62500D01*
Y62400D01*
Y62300D01*
Y62200D01*
Y62100D01*
Y62000D01*
Y61900D01*
Y61800D01*
Y61700D01*
Y61600D01*
Y61500D01*
Y61400D01*
Y61300D01*
Y61200D01*
Y61100D01*
Y61000D01*
Y60900D01*
Y60800D01*
Y60700D01*
X354300D01*
Y60600D01*
X354200D01*
Y60500D01*
Y60400D01*
X353500D01*
Y60300D01*
X353100D01*
Y60400D01*
X353200D01*
Y60500D01*
X353300D01*
Y60600D01*
X353700D01*
Y60700D01*
X354000D01*
Y60800D01*
Y60900D01*
Y61000D01*
Y61100D01*
Y61200D01*
Y61300D01*
Y61400D01*
X354100D01*
Y61500D01*
Y61600D01*
Y61700D01*
Y61800D01*
Y61900D01*
Y62000D01*
Y62100D01*
Y62200D01*
Y62300D01*
Y62400D01*
Y62500D01*
Y62600D01*
Y62700D01*
Y62800D01*
Y62900D01*
Y63000D01*
Y63100D01*
Y63200D01*
Y63300D01*
Y63400D01*
Y63500D01*
Y63600D01*
Y63700D01*
Y63800D01*
Y63900D01*
Y64000D01*
Y64100D01*
Y64200D01*
Y64300D01*
Y64400D01*
Y64500D01*
Y64600D01*
Y64700D01*
Y64800D01*
Y64900D01*
Y65000D01*
Y65100D01*
Y65200D01*
Y65300D01*
Y65400D01*
Y65500D01*
X354000D01*
Y65600D01*
Y65700D01*
Y65800D01*
Y65900D01*
Y66000D01*
Y66100D01*
X353900D01*
Y66200D01*
X353700D01*
Y66300D01*
X353600D01*
Y66400D01*
X353500D01*
Y66500D01*
X353300D01*
Y66600D01*
X353200D01*
Y66700D01*
X353400D01*
Y66600D01*
X353800D01*
Y66500D01*
X353900D01*
Y66600D01*
Y66700D01*
X354000D01*
Y66800D01*
Y66900D01*
Y67000D01*
Y67100D01*
Y67200D01*
X354100D01*
Y67300D01*
Y67400D01*
Y67500D01*
Y67600D01*
Y67700D01*
Y67800D01*
Y67900D01*
Y68000D01*
Y68100D01*
Y68200D01*
Y68300D01*
Y68400D01*
Y68500D01*
Y68600D01*
Y68700D01*
Y68800D01*
Y68900D01*
Y69000D01*
Y69100D01*
Y69200D01*
Y69300D01*
Y69400D01*
Y69500D01*
Y69600D01*
Y69700D01*
Y69800D01*
Y69900D01*
Y70000D01*
Y70100D01*
Y70200D01*
Y70300D01*
Y70400D01*
Y70500D01*
Y70600D01*
Y70700D01*
Y70800D01*
Y70900D01*
Y71000D01*
Y71100D01*
Y71200D01*
Y71300D01*
Y71400D01*
Y71500D01*
Y71600D01*
Y71700D01*
Y71800D01*
Y71900D01*
Y72000D01*
Y72100D01*
Y72200D01*
Y72300D01*
Y72400D01*
X354000D01*
Y72500D01*
Y72600D01*
Y72700D01*
Y72800D01*
Y72900D01*
X353900D01*
Y73000D01*
X353700D01*
Y72900D01*
X353600D01*
Y72800D01*
X353500D01*
Y72700D01*
X353400D01*
Y72600D01*
Y72500D01*
X353300D01*
Y72400D01*
X353200D01*
Y72300D01*
X353100D01*
Y72200D01*
X353000D01*
Y72100D01*
X352900D01*
Y72000D01*
Y71900D01*
X352800D01*
Y71800D01*
X352700D01*
Y71700D01*
X352600D01*
Y71600D01*
Y71500D01*
X352500D01*
Y71400D01*
X352400D01*
Y71300D01*
Y71200D01*
X352300D01*
Y71100D01*
X352200D01*
Y71000D01*
X352100D01*
Y70900D01*
Y70800D01*
X352000D01*
Y70700D01*
X351900D01*
Y70600D01*
X351800D01*
Y70500D01*
Y70400D01*
X351700D01*
Y70300D01*
X351600D01*
Y70200D01*
X351500D01*
Y70100D01*
Y70000D01*
X351400D01*
Y69900D01*
X351300D01*
Y69800D01*
X351200D01*
Y69700D01*
Y69600D01*
X351100D01*
Y69500D01*
X351000D01*
Y69400D01*
X350900D01*
Y69300D01*
Y69200D01*
X350800D01*
Y69100D01*
X350700D01*
Y69000D01*
X350800D01*
Y68900D01*
X350700D01*
Y69000D01*
X350600D01*
Y68900D01*
Y68800D01*
X350500D01*
Y68700D01*
Y68600D01*
X350400D01*
Y68500D01*
Y68400D01*
X350500D01*
Y68300D01*
X350600D01*
Y68200D01*
X350700D01*
Y68100D01*
X350800D01*
Y68000D01*
X351100D01*
Y67900D01*
X351200D01*
Y68000D01*
X351300D01*
Y67900D01*
Y67800D01*
X351500D01*
Y67700D01*
X351600D01*
Y67600D01*
X351700D01*
Y67500D01*
X351900D01*
Y67400D01*
X352200D01*
Y67300D01*
X352300D01*
Y67400D01*
X352400D01*
Y67300D01*
Y67200D01*
X352500D01*
Y67100D01*
X352600D01*
Y67000D01*
X352700D01*
Y66900D01*
X352600D01*
Y67000D01*
X352300D01*
Y67100D01*
X352100D01*
Y67200D01*
X352000D01*
Y67300D01*
X351900D01*
Y67400D01*
X351700D01*
Y67500D01*
X351400D01*
Y67600D01*
X351200D01*
Y67700D01*
X351000D01*
Y67800D01*
X350900D01*
Y67900D01*
X350800D01*
Y68000D01*
X350600D01*
Y68100D01*
X350300D01*
Y68200D01*
X350200D01*
Y68300D01*
X350100D01*
Y68400D01*
Y68500D01*
Y68600D01*
Y68700D01*
X350200D01*
Y68800D01*
X350300D01*
Y68900D01*
Y69000D01*
X350400D01*
Y69100D01*
X350500D01*
Y69200D01*
Y69300D01*
X350600D01*
Y69400D01*
X350700D01*
Y69500D01*
X350800D01*
Y69600D01*
Y69700D01*
X350900D01*
Y69800D01*
X351000D01*
Y69900D01*
X351100D01*
Y70000D01*
Y70100D01*
X351200D01*
Y70200D01*
X351300D01*
Y70300D01*
Y70400D01*
X351400D01*
Y70500D01*
X351500D01*
Y70600D01*
X351600D01*
Y70700D01*
Y70800D01*
X351700D01*
Y70900D01*
X351800D01*
Y71000D01*
X351900D01*
Y71100D01*
Y71200D01*
X352000D01*
Y71300D01*
X352100D01*
Y71400D01*
X352200D01*
Y71500D01*
Y71600D01*
X352300D01*
Y71700D01*
X352400D01*
Y71800D01*
X352500D01*
Y71900D01*
Y72000D01*
X352600D01*
Y72100D01*
X352700D01*
Y72200D01*
X352800D01*
Y72300D01*
Y72400D01*
X352900D01*
Y72500D01*
X353000D01*
Y72600D01*
Y72700D01*
X353100D01*
Y72800D01*
X353200D01*
Y72900D01*
Y73000D01*
Y73100D01*
X352600D01*
Y73200D01*
X352000D01*
Y73300D01*
X351600D01*
Y73400D01*
X351200D01*
Y73500D01*
X350800D01*
Y73600D01*
X350600D01*
Y73700D01*
X350300D01*
Y73800D01*
X350000D01*
Y73900D01*
X349800D01*
Y74000D01*
X349600D01*
Y74100D01*
X349400D01*
Y74200D01*
X349300D01*
Y74300D01*
X349100D01*
Y74400D01*
X349000D01*
Y74500D01*
X348800D01*
Y74600D01*
X348700D01*
Y74700D01*
X348600D01*
Y74800D01*
X348500D01*
Y74900D01*
X348400D01*
Y75000D01*
X348300D01*
Y75100D01*
X348200D01*
Y75200D01*
X348100D01*
Y75300D01*
X348000D01*
Y75400D01*
X347900D01*
Y75500D01*
X347800D01*
Y75600D01*
X347700D01*
Y75700D01*
Y75800D01*
X347600D01*
Y75900D01*
X347500D01*
Y76000D01*
Y76100D01*
Y76200D01*
X347400D01*
Y76300D01*
Y76400D01*
X347300D01*
Y76500D01*
Y76600D01*
X347200D01*
Y76700D01*
Y76800D01*
X347100D01*
Y76900D01*
Y77000D01*
Y77100D01*
X347000D01*
Y77200D01*
Y77300D01*
Y77400D01*
X346900D01*
Y77500D01*
Y77600D01*
Y77700D01*
X346800D01*
Y77800D01*
Y77900D01*
Y78000D01*
Y78100D01*
X346700D01*
Y78200D01*
Y78300D01*
Y78400D01*
Y78500D01*
Y78600D01*
X346600D01*
Y78700D01*
Y78800D01*
Y78900D01*
Y79000D01*
Y79100D01*
Y79200D01*
Y79300D01*
Y79400D01*
Y79500D01*
Y79600D01*
Y79700D01*
Y79800D01*
Y79900D01*
Y80000D01*
Y80100D01*
X346700D01*
Y80200D01*
Y80300D01*
Y80400D01*
Y80500D01*
Y80600D01*
Y80700D01*
X346800D01*
Y80800D01*
Y80900D01*
Y81000D01*
Y81100D01*
Y81200D01*
Y81300D01*
X346900D01*
Y81400D01*
Y81500D01*
Y81600D01*
X347000D01*
Y81700D01*
Y81800D01*
Y81900D01*
Y82000D01*
X347100D01*
Y82100D01*
Y82200D01*
Y82300D01*
X347200D01*
Y82400D01*
Y82500D01*
Y82600D01*
X347300D01*
Y82700D01*
Y82800D01*
X347400D01*
Y82900D01*
Y83000D01*
X347500D01*
Y83100D01*
Y83200D01*
X347600D01*
Y83300D01*
Y83400D01*
X347700D01*
Y83500D01*
Y83600D01*
X347800D01*
Y83700D01*
Y83800D01*
X347900D01*
Y83900D01*
Y84000D01*
X348000D01*
Y84100D01*
Y84200D01*
X348100D01*
Y84300D01*
X348200D01*
Y84400D01*
Y84500D01*
X348300D01*
Y84600D01*
X348400D01*
Y84700D01*
Y84800D01*
X348500D01*
Y84900D01*
X348600D01*
Y85000D01*
X348700D01*
Y85100D01*
X348800D01*
Y85200D01*
X348900D01*
Y85300D01*
X349000D01*
Y85400D01*
X349100D01*
Y85500D01*
X349200D01*
Y85600D01*
X349300D01*
Y85700D01*
X349400D01*
Y85800D01*
X349500D01*
Y85900D01*
X349600D01*
Y86000D01*
X349700D01*
Y86100D01*
X349800D01*
Y86200D01*
X349900D01*
Y86300D01*
X350000D01*
Y86400D01*
X350100D01*
Y86500D01*
X350200D01*
Y86600D01*
X350300D01*
Y86700D01*
X350400D01*
Y86800D01*
X350500D01*
Y86900D01*
X350600D01*
Y87000D01*
X350700D01*
Y87100D01*
X350900D01*
Y87200D01*
X351000D01*
Y87300D01*
X351100D01*
Y87400D01*
X351200D01*
Y87500D01*
Y87600D01*
X351400D01*
Y87700D01*
X351500D01*
Y87800D01*
X351600D01*
Y87900D01*
X351700D01*
Y88000D01*
X351800D01*
Y88100D01*
X351900D01*
Y88200D01*
X352000D01*
Y88300D01*
X352100D01*
Y88400D01*
X352200D01*
Y88500D01*
Y88600D01*
X352300D01*
Y88700D01*
Y88800D01*
X352400D01*
Y88900D01*
Y89000D01*
Y89100D01*
X352300D01*
Y89200D01*
X352100D01*
Y89300D01*
X351500D01*
Y89200D01*
X351200D01*
Y89100D01*
X351000D01*
Y89200D01*
X350400D01*
Y89300D01*
Y89400D01*
X350300D01*
Y89300D01*
X350200D01*
Y89400D01*
Y89500D01*
Y89600D01*
Y89700D01*
Y89800D01*
Y89900D01*
Y90000D01*
Y90100D01*
X350100D01*
Y90200D01*
Y90300D01*
X350200D01*
Y90400D01*
X350000D01*
Y90500D01*
Y90600D01*
X349900D01*
Y90700D01*
Y90800D01*
X349800D01*
Y90900D01*
X349900D01*
Y90800D01*
X350000D01*
Y90900D01*
Y91000D01*
Y91100D01*
X349900D01*
Y91200D01*
X350100D01*
Y91300D01*
X350200D01*
Y91400D01*
X350300D01*
Y91500D01*
X350400D01*
Y91600D01*
X350500D01*
Y91700D01*
X350600D01*
Y91800D01*
Y91900D01*
X350900D01*
Y92000D01*
Y92100D01*
X351100D01*
Y92200D01*
X351300D01*
Y92300D01*
X351600D01*
Y92400D01*
X351700D01*
Y92300D01*
X351800D01*
Y92400D01*
X352000D01*
Y92500D01*
X352100D01*
Y92400D01*
X352300D01*
Y92500D01*
X352800D01*
Y92400D01*
D02*
G37*
G36*
X351800Y92300D02*
X351700D01*
Y92400D01*
X351800D01*
Y92300D01*
D02*
G37*
G36*
X353200Y92300D02*
X353100D01*
Y92400D01*
X353200D01*
Y92300D01*
D02*
G37*
G36*
X353300Y92300D02*
X353200D01*
Y92400D01*
X353300D01*
Y92300D01*
D02*
G37*
G36*
X353500Y92200D02*
X353400D01*
Y92300D01*
X353500D01*
Y92200D01*
D02*
G37*
G36*
X353700Y92100D02*
X353600D01*
Y92200D01*
X353700D01*
Y92100D01*
D02*
G37*
G36*
X354000Y91900D02*
X353900D01*
Y92000D01*
X354000D01*
Y91900D01*
D02*
G37*
G36*
X350900Y91900D02*
X350800D01*
Y92000D01*
X350900D01*
Y91900D01*
D02*
G37*
G36*
X354099Y91801D02*
X354001D01*
Y91899D01*
X354099D01*
Y91801D01*
D02*
G37*
G36*
X354199Y91701D02*
X354101D01*
Y91799D01*
X354199D01*
Y91701D01*
D02*
G37*
G36*
X350600Y91700D02*
X350500D01*
Y91800D01*
X350600D01*
Y91700D01*
D02*
G37*
G36*
X350500Y91600D02*
X350400D01*
Y91700D01*
X350500D01*
Y91600D01*
D02*
G37*
G36*
X354300Y91600D02*
X354200D01*
Y91700D01*
X354300D01*
Y91600D01*
D02*
G37*
G36*
X350400Y91500D02*
X350300D01*
Y91600D01*
X350400D01*
Y91500D01*
D02*
G37*
G36*
X354400Y91400D02*
X354300D01*
Y91500D01*
X354400D01*
Y91400D01*
D02*
G37*
G36*
X350300D02*
X350200D01*
Y91500D01*
X350300D01*
Y91400D01*
D02*
G37*
G36*
X350200Y91300D02*
X350100D01*
Y91400D01*
X350200D01*
Y91300D01*
D02*
G37*
G36*
X354500Y91300D02*
X354400D01*
Y91400D01*
X354500D01*
Y91300D01*
D02*
G37*
G36*
X350100Y91200D02*
X350000D01*
Y91300D01*
X350100D01*
Y91200D01*
D02*
G37*
G36*
X354599Y91101D02*
X354501D01*
Y91199D01*
X354599D01*
Y91101D01*
D02*
G37*
G36*
X349891Y91009D02*
X349809D01*
Y91091D01*
X349891D01*
Y91009D01*
D02*
G37*
G36*
X349995Y91005D02*
X349904D01*
Y91096D01*
X349995D01*
Y91005D01*
D02*
G37*
G36*
X349998Y90902D02*
X349902D01*
Y90998D01*
X349998D01*
Y90902D01*
D02*
G37*
G36*
X348698D02*
X348602D01*
Y90998D01*
X348698D01*
Y90902D01*
D02*
G37*
G36*
X349898Y90902D02*
X349802D01*
Y90998D01*
X349898D01*
Y90902D01*
D02*
G37*
G36*
X348200Y90900D02*
X348100D01*
Y91000D01*
X348200D01*
Y90900D01*
D02*
G37*
G36*
X348900Y90900D02*
X349000D01*
Y90800D01*
X349100D01*
Y90700D01*
X349200D01*
Y90600D01*
Y90500D01*
X349300D01*
Y90400D01*
Y90300D01*
X349400D01*
Y90200D01*
Y90100D01*
Y90000D01*
X349300D01*
Y89900D01*
X349400D01*
Y89800D01*
X349500D01*
Y89700D01*
Y89600D01*
Y89500D01*
Y89400D01*
Y89300D01*
Y89200D01*
Y89100D01*
Y89000D01*
X349400D01*
Y89100D01*
Y89200D01*
X349300D01*
Y89100D01*
Y89000D01*
X349400D01*
Y88900D01*
X349300D01*
Y89000D01*
X349200D01*
Y88900D01*
X349300D01*
Y88800D01*
X349200D01*
Y88900D01*
X349100D01*
Y88800D01*
X349000D01*
Y88700D01*
Y88600D01*
X348800D01*
Y88500D01*
X348700D01*
Y88600D01*
X348600D01*
Y88500D01*
X348500D01*
Y88400D01*
X348400D01*
Y88500D01*
X348300D01*
Y88400D01*
X348000D01*
Y88300D01*
X347800D01*
Y88200D01*
X347700D01*
Y88100D01*
X347600D01*
Y88000D01*
X347500D01*
Y87900D01*
X347400D01*
Y87800D01*
Y87700D01*
X347300D01*
Y87600D01*
Y87500D01*
X347200D01*
Y87400D01*
X347100D01*
Y87300D01*
X347000D01*
Y87200D01*
X346700D01*
Y87300D01*
X346600D01*
Y87400D01*
X346500D01*
Y87500D01*
Y87600D01*
Y87700D01*
Y87800D01*
X346400D01*
Y87900D01*
Y88000D01*
Y88100D01*
Y88200D01*
X346300D01*
Y88300D01*
Y88400D01*
Y88500D01*
Y88600D01*
X346400D01*
Y88700D01*
Y88800D01*
Y88900D01*
Y89000D01*
X346500D01*
Y89100D01*
Y89200D01*
Y89300D01*
Y89400D01*
X346600D01*
Y89500D01*
Y89600D01*
X346700D01*
Y89700D01*
Y89800D01*
X346800D01*
Y89900D01*
X346900D01*
Y90000D01*
Y90100D01*
X347000D01*
Y90200D01*
X347100D01*
Y90300D01*
X347200D01*
Y90400D01*
X347300D01*
Y90500D01*
X347400D01*
Y90600D01*
X347500D01*
Y90700D01*
X347700D01*
Y90800D01*
X347900D01*
Y90900D01*
X348000D01*
Y91000D01*
X348100D01*
Y90900D01*
X348200D01*
Y91000D01*
X348600D01*
Y90900D01*
X348700D01*
Y91000D01*
X348900D01*
Y90900D01*
D02*
G37*
G36*
X349997Y90803D02*
X349903D01*
Y90897D01*
X349997D01*
Y90803D01*
D02*
G37*
G36*
X354700Y90800D02*
X354600D01*
Y90900D01*
X354700D01*
Y90800D01*
D02*
G37*
G36*
X347900D02*
X347800D01*
Y90900D01*
X347900D01*
Y90800D01*
D02*
G37*
G36*
X347699Y90701D02*
X347601D01*
Y90799D01*
X347699D01*
Y90701D01*
D02*
G37*
G36*
X354700Y90700D02*
X354600D01*
Y90800D01*
X354700D01*
Y90700D01*
D02*
G37*
G36*
X347400Y90500D02*
X347300D01*
Y90600D01*
X347400D01*
Y90500D01*
D02*
G37*
G36*
X347297Y90403D02*
X347203D01*
Y90497D01*
X347297D01*
Y90403D01*
D02*
G37*
G36*
X354800Y90400D02*
X354700D01*
Y90500D01*
X354800D01*
Y90400D01*
D02*
G37*
G36*
X347197Y90303D02*
X347103D01*
Y90397D01*
X347197D01*
Y90303D01*
D02*
G37*
G36*
X354800Y90300D02*
X354700D01*
Y90400D01*
X354800D01*
Y90300D01*
D02*
G37*
G36*
X350200Y90300D02*
X350100D01*
Y90400D01*
X350200D01*
Y90300D01*
D02*
G37*
G36*
X347097Y90203D02*
X347003D01*
Y90297D01*
X347097D01*
Y90203D01*
D02*
G37*
G36*
X354800Y90200D02*
X354700D01*
Y90300D01*
X354800D01*
Y90200D01*
D02*
G37*
G36*
X346999Y90101D02*
X346901D01*
Y90199D01*
X346999D01*
Y90101D01*
D02*
G37*
G36*
X354800Y90100D02*
X354700D01*
Y90200D01*
X354800D01*
Y90100D01*
D02*
G37*
G36*
Y90000D02*
X354700D01*
Y90100D01*
X354800D01*
Y90000D01*
D02*
G37*
G36*
X346898Y89902D02*
X346802D01*
Y89998D01*
X346898D01*
Y89902D01*
D02*
G37*
G36*
X349399Y89901D02*
X349301D01*
Y89999D01*
X349399D01*
Y89901D01*
D02*
G37*
G36*
X354800Y89900D02*
X354700D01*
Y90000D01*
X354800D01*
Y89900D01*
D02*
G37*
G36*
X346799Y89801D02*
X346701D01*
Y89899D01*
X346799D01*
Y89801D01*
D02*
G37*
G36*
X354800Y89800D02*
X354700D01*
Y89900D01*
X354800D01*
Y89800D01*
D02*
G37*
G36*
X354800Y89700D02*
X354700D01*
Y89800D01*
X354800D01*
Y89700D01*
D02*
G37*
G36*
X346699Y89601D02*
X346601D01*
Y89699D01*
X346699D01*
Y89601D01*
D02*
G37*
G36*
X354799Y89601D02*
X354701D01*
Y89699D01*
X354799D01*
Y89601D01*
D02*
G37*
G36*
X354800Y89500D02*
X354700D01*
Y89600D01*
X354800D01*
Y89500D01*
D02*
G37*
G36*
X346599Y89401D02*
X346501D01*
Y89499D01*
X346599D01*
Y89401D01*
D02*
G37*
G36*
X350399Y89301D02*
X350301D01*
Y89399D01*
X350399D01*
Y89301D01*
D02*
G37*
G36*
X350400Y89200D02*
X350300D01*
Y89300D01*
X350400D01*
Y89200D01*
D02*
G37*
G36*
X351700Y89200D02*
X351600D01*
Y89300D01*
X351700D01*
Y89200D01*
D02*
G37*
G36*
X351600D02*
X351500D01*
Y89300D01*
X351600D01*
Y89200D01*
D02*
G37*
G36*
X350494Y89106D02*
X350406D01*
Y89194D01*
X350494D01*
Y89106D01*
D02*
G37*
G36*
X350398Y89102D02*
X350302D01*
Y89198D01*
X350398D01*
Y89102D01*
D02*
G37*
G36*
X350598Y89102D02*
X350502D01*
Y89198D01*
X350598D01*
Y89102D01*
D02*
G37*
G36*
X350899Y89101D02*
X350801D01*
Y89199D01*
X350899D01*
Y89101D01*
D02*
G37*
G36*
X350699D02*
X350601D01*
Y89199D01*
X350699D01*
Y89101D01*
D02*
G37*
G36*
X350999Y89101D02*
X350901D01*
Y89199D01*
X350999D01*
Y89101D01*
D02*
G37*
G36*
X346499Y89101D02*
X346401D01*
Y89199D01*
X346499D01*
Y89101D01*
D02*
G37*
G36*
X350799Y89100D02*
X350701D01*
Y89200D01*
X350799D01*
Y89100D01*
D02*
G37*
G36*
X349399Y89100D02*
X349301D01*
Y89200D01*
X349399D01*
Y89100D01*
D02*
G37*
G36*
X354700Y89100D02*
X354600D01*
Y89200D01*
X354700D01*
Y89100D01*
D02*
G37*
G36*
X349397Y89003D02*
X349303D01*
Y89097D01*
X349397D01*
Y89003D01*
D02*
G37*
G36*
X346498Y89002D02*
X346402D01*
Y89098D01*
X346498D01*
Y89002D01*
D02*
G37*
G36*
X349299Y88901D02*
X349201D01*
Y88999D01*
X349299D01*
Y88901D01*
D02*
G37*
G36*
X349200Y88801D02*
X349100D01*
Y88899D01*
X349200D01*
Y88801D01*
D02*
G37*
G36*
X349098Y88702D02*
X349002D01*
Y88798D01*
X349098D01*
Y88702D01*
D02*
G37*
G36*
X354600Y88700D02*
X354500D01*
Y88800D01*
X354600D01*
Y88700D01*
D02*
G37*
G36*
X348700Y88500D02*
X348600D01*
Y88600D01*
X348700D01*
Y88500D01*
D02*
G37*
G36*
X348399Y88401D02*
X348301D01*
Y88499D01*
X348399D01*
Y88401D01*
D02*
G37*
G36*
X354500Y88400D02*
X354400D01*
Y88500D01*
X354500D01*
Y88400D01*
D02*
G37*
G36*
X352200Y88400D02*
X352100D01*
Y88500D01*
X352200D01*
Y88400D01*
D02*
G37*
G36*
X348100Y88300D02*
X348000D01*
Y88400D01*
X348100D01*
Y88300D01*
D02*
G37*
G36*
X347899Y88201D02*
X347801D01*
Y88299D01*
X347899D01*
Y88201D01*
D02*
G37*
G36*
X354400Y88200D02*
X354300D01*
Y88300D01*
X354400D01*
Y88200D01*
D02*
G37*
G36*
X354300Y88100D02*
X354200D01*
Y88200D01*
X354300D01*
Y88100D01*
D02*
G37*
G36*
X347800Y88100D02*
X347700D01*
Y88200D01*
X347800D01*
Y88100D01*
D02*
G37*
G36*
X354099Y87801D02*
X354000D01*
Y87900D01*
X354099D01*
Y87801D01*
D02*
G37*
G36*
X347500Y87800D02*
X347400D01*
Y87900D01*
X347500D01*
Y87800D01*
D02*
G37*
G36*
X346499Y87701D02*
X346401D01*
Y87799D01*
X346499D01*
Y87701D01*
D02*
G37*
G36*
X354000Y87700D02*
X353900D01*
Y87800D01*
X354000D01*
Y87700D01*
D02*
G37*
G36*
X346499Y87601D02*
X346401D01*
Y87699D01*
X346499D01*
Y87601D01*
D02*
G37*
G36*
X347399Y87601D02*
X347301D01*
Y87699D01*
X347399D01*
Y87601D01*
D02*
G37*
G36*
X353900Y87600D02*
X353800D01*
Y87700D01*
X353900D01*
Y87600D01*
D02*
G37*
G36*
X353800Y87500D02*
X353700D01*
Y87600D01*
X353800D01*
Y87500D01*
D02*
G37*
G36*
X347298Y87402D02*
X347202D01*
Y87498D01*
X347298D01*
Y87402D01*
D02*
G37*
G36*
X353700Y87400D02*
X353600D01*
Y87500D01*
X353700D01*
Y87400D01*
D02*
G37*
G36*
X351200Y87400D02*
X351100D01*
Y87500D01*
X351200D01*
Y87400D01*
D02*
G37*
G36*
X346597Y87303D02*
X346503D01*
Y87397D01*
X346597D01*
Y87303D01*
D02*
G37*
G36*
X347197Y87303D02*
X347103D01*
Y87397D01*
X347197D01*
Y87303D01*
D02*
G37*
G36*
X353600Y87300D02*
X353500D01*
Y87400D01*
X353600D01*
Y87300D01*
D02*
G37*
G36*
X351100Y87300D02*
X351000D01*
Y87400D01*
X351100D01*
Y87300D01*
D02*
G37*
G36*
X346694Y87206D02*
X346606D01*
Y87294D01*
X346694D01*
Y87206D01*
D02*
G37*
G36*
X347096Y87204D02*
X347004D01*
Y87296D01*
X347096D01*
Y87204D01*
D02*
G37*
G36*
X353500Y87200D02*
X353400D01*
Y87300D01*
X353500D01*
Y87200D01*
D02*
G37*
G36*
X351000Y87200D02*
X350900D01*
Y87300D01*
X351000D01*
Y87200D01*
D02*
G37*
G36*
X346988Y87112D02*
X346912D01*
Y87188D01*
X346988D01*
Y87112D01*
D02*
G37*
G36*
X346792Y87108D02*
X346708D01*
Y87191D01*
X346792D01*
Y87108D01*
D02*
G37*
G36*
X346892Y87108D02*
X346808D01*
Y87192D01*
X346892D01*
Y87108D01*
D02*
G37*
G36*
X353400Y87100D02*
X353300D01*
Y87200D01*
X353400D01*
Y87100D01*
D02*
G37*
G36*
X350900Y87100D02*
X350800D01*
Y87200D01*
X350900D01*
Y87100D01*
D02*
G37*
G36*
X353200Y87000D02*
X353100D01*
Y87100D01*
X353200D01*
Y87000D01*
D02*
G37*
G36*
X353100Y86900D02*
X353000D01*
Y87000D01*
X353100D01*
Y86900D01*
D02*
G37*
G36*
X352900Y86800D02*
X352800D01*
Y86900D01*
X352900D01*
Y86800D01*
D02*
G37*
G36*
X352800Y86700D02*
X352700D01*
Y86800D01*
X352800D01*
Y86700D01*
D02*
G37*
G36*
X352500Y86500D02*
X352400D01*
Y86600D01*
X352500D01*
Y86500D01*
D02*
G37*
G36*
X352400Y86400D02*
X352300D01*
Y86500D01*
X352400D01*
Y86400D01*
D02*
G37*
G36*
X350100Y86400D02*
X350000D01*
Y86500D01*
X350100D01*
Y86400D01*
D02*
G37*
G36*
X352300Y86300D02*
X352200D01*
Y86400D01*
X352300D01*
Y86300D01*
D02*
G37*
G36*
X350000D02*
X349900D01*
Y86400D01*
X350000D01*
Y86300D01*
D02*
G37*
G36*
X352200Y86200D02*
X352100D01*
Y86300D01*
X352200D01*
Y86200D01*
D02*
G37*
G36*
X349900Y86200D02*
X349800D01*
Y86300D01*
X349900D01*
Y86200D01*
D02*
G37*
G36*
X349800Y86100D02*
X349700D01*
Y86200D01*
X349800D01*
Y86100D01*
D02*
G37*
G36*
X352100Y86100D02*
X352000D01*
Y86200D01*
X352100D01*
Y86100D01*
D02*
G37*
G36*
X349700Y86000D02*
X349600D01*
Y86100D01*
X349700D01*
Y86000D01*
D02*
G37*
G36*
X349600Y85900D02*
X349500D01*
Y86000D01*
X349600D01*
Y85900D01*
D02*
G37*
G36*
X351800Y85900D02*
X351700D01*
Y86000D01*
X351800D01*
Y85900D01*
D02*
G37*
G36*
X349500Y85800D02*
X349400D01*
Y85900D01*
X349500D01*
Y85800D01*
D02*
G37*
G36*
X351700Y85800D02*
X351600D01*
Y85900D01*
X351700D01*
Y85800D01*
D02*
G37*
G36*
X349400Y85700D02*
X349300D01*
Y85800D01*
X349400D01*
Y85700D01*
D02*
G37*
G36*
X349300Y85600D02*
X349200D01*
Y85700D01*
X349300D01*
Y85600D01*
D02*
G37*
G36*
X351400Y85600D02*
X351300D01*
Y85700D01*
X351400D01*
Y85600D01*
D02*
G37*
G36*
X349200Y85500D02*
X349100D01*
Y85600D01*
X349200D01*
Y85500D01*
D02*
G37*
G36*
X351300Y85500D02*
X351200D01*
Y85600D01*
X351300D01*
Y85500D01*
D02*
G37*
G36*
X349100Y85400D02*
X349000D01*
Y85500D01*
X349100D01*
Y85400D01*
D02*
G37*
G36*
X351200Y85400D02*
X351100D01*
Y85500D01*
X351200D01*
Y85400D01*
D02*
G37*
G36*
X349000Y85300D02*
X348900D01*
Y85400D01*
X349000D01*
Y85300D01*
D02*
G37*
G36*
X351100Y85300D02*
X351000D01*
Y85400D01*
X351100D01*
Y85300D01*
D02*
G37*
G36*
X348900Y85201D02*
X348800D01*
Y85299D01*
X348900D01*
Y85201D01*
D02*
G37*
G36*
X351000Y85200D02*
X350900D01*
Y85300D01*
X351000D01*
Y85200D01*
D02*
G37*
G36*
X348799Y85101D02*
X348700D01*
Y85199D01*
X348799D01*
Y85101D01*
D02*
G37*
G36*
X350900Y85100D02*
X350800D01*
Y85200D01*
X350900D01*
Y85100D01*
D02*
G37*
G36*
X348699Y85001D02*
X348601D01*
Y85099D01*
X348699D01*
Y85001D01*
D02*
G37*
G36*
X350800Y85000D02*
X350700D01*
Y85100D01*
X350800D01*
Y85000D01*
D02*
G37*
G36*
X348599Y84901D02*
X348501D01*
Y84999D01*
X348599D01*
Y84901D01*
D02*
G37*
G36*
X350700Y84900D02*
X350600D01*
Y85000D01*
X350700D01*
Y84900D01*
D02*
G37*
G36*
X350600Y84800D02*
X350500D01*
Y84900D01*
X350600D01*
Y84800D01*
D02*
G37*
G36*
X348399Y84601D02*
X348301D01*
Y84699D01*
X348399D01*
Y84601D01*
D02*
G37*
G36*
X348298Y84502D02*
X348202D01*
Y84598D01*
X348298D01*
Y84502D01*
D02*
G37*
G36*
X350398Y84501D02*
X350302D01*
Y84598D01*
X350398D01*
Y84501D01*
D02*
G37*
G36*
X350299Y84401D02*
X350201D01*
Y84499D01*
X350299D01*
Y84401D01*
D02*
G37*
G36*
X350199Y84301D02*
X350101D01*
Y84399D01*
X350199D01*
Y84301D01*
D02*
G37*
G36*
X348200Y84300D02*
X348100D01*
Y84400D01*
X348200D01*
Y84300D01*
D02*
G37*
G36*
X348098Y84202D02*
X348002D01*
Y84298D01*
X348098D01*
Y84202D01*
D02*
G37*
G36*
X350100Y84200D02*
X350000D01*
Y84300D01*
X350100D01*
Y84200D01*
D02*
G37*
G36*
X347999Y84001D02*
X347901D01*
Y84099D01*
X347999D01*
Y84001D01*
D02*
G37*
G36*
X349899Y83902D02*
X349801D01*
Y83999D01*
X349899D01*
Y83902D01*
D02*
G37*
G36*
X347899Y83801D02*
X347801D01*
Y83899D01*
X347899D01*
Y83801D01*
D02*
G37*
G36*
X349800Y83800D02*
X349700D01*
Y83900D01*
X349800D01*
Y83800D01*
D02*
G37*
G36*
X347799Y83601D02*
X347701D01*
Y83699D01*
X347799D01*
Y83601D01*
D02*
G37*
G36*
X349699Y83601D02*
X349601D01*
Y83699D01*
X349699D01*
Y83601D01*
D02*
G37*
G36*
X349599Y83401D02*
X349501D01*
Y83499D01*
X349599D01*
Y83401D01*
D02*
G37*
G36*
X347699Y83401D02*
X347601D01*
Y83499D01*
X347699D01*
Y83401D01*
D02*
G37*
G36*
X347599Y83201D02*
X347501D01*
Y83299D01*
X347599D01*
Y83201D01*
D02*
G37*
G36*
X349500Y83200D02*
X349400D01*
Y83300D01*
X349500D01*
Y83200D01*
D02*
G37*
G36*
X349499Y83101D02*
X349401D01*
Y83199D01*
X349499D01*
Y83101D01*
D02*
G37*
G36*
X347499Y83001D02*
X347401D01*
Y83099D01*
X347499D01*
Y83001D01*
D02*
G37*
G36*
X349400Y82900D02*
X349300D01*
Y83000D01*
X349400D01*
Y82900D01*
D02*
G37*
G36*
X349398Y82802D02*
X349302D01*
Y82898D01*
X349398D01*
Y82802D01*
D02*
G37*
G36*
X347399Y82801D02*
X347301D01*
Y82899D01*
X347399D01*
Y82801D01*
D02*
G37*
G36*
X347298Y82602D02*
X347202D01*
Y82698D01*
X347298D01*
Y82602D01*
D02*
G37*
G36*
X349300Y82600D02*
X349200D01*
Y82700D01*
X349300D01*
Y82600D01*
D02*
G37*
G36*
X349299Y82501D02*
X349201D01*
Y82599D01*
X349299D01*
Y82501D01*
D02*
G37*
G36*
X349279Y82421D02*
X349221D01*
Y82479D01*
X349279D01*
Y82421D01*
D02*
G37*
G36*
X347199Y82301D02*
X347101D01*
Y82398D01*
X347199D01*
Y82301D01*
D02*
G37*
G36*
X347099Y82001D02*
X347001D01*
Y82099D01*
X347099D01*
Y82001D01*
D02*
G37*
G36*
X349200Y82000D02*
X349100D01*
Y82100D01*
X349200D01*
Y82000D01*
D02*
G37*
G36*
X349200Y81900D02*
X349100D01*
Y82000D01*
X349200D01*
Y81900D01*
D02*
G37*
G36*
X349200Y81800D02*
X349100D01*
Y81900D01*
X349200D01*
Y81800D01*
D02*
G37*
G36*
X346998Y81702D02*
X346902D01*
Y81798D01*
X346998D01*
Y81702D01*
D02*
G37*
G36*
X347000Y81600D02*
X346900D01*
Y81700D01*
X347000D01*
Y81600D01*
D02*
G37*
G36*
X353697Y81403D02*
X353603D01*
Y81497D01*
X353697D01*
Y81403D01*
D02*
G37*
G36*
X353197Y81403D02*
X353103D01*
Y81497D01*
X353197D01*
Y81403D01*
D02*
G37*
G36*
X353597Y81403D02*
X353503D01*
Y81497D01*
X353597D01*
Y81403D01*
D02*
G37*
G36*
X353297Y81403D02*
X353203D01*
Y81497D01*
X353297D01*
Y81403D01*
D02*
G37*
G36*
X353497Y81403D02*
X353403D01*
Y81497D01*
X353497D01*
Y81403D01*
D02*
G37*
G36*
X353397Y81403D02*
X353303D01*
Y81497D01*
X353397D01*
Y81403D01*
D02*
G37*
G36*
X346898Y81402D02*
X346802D01*
Y81498D01*
X346898D01*
Y81402D01*
D02*
G37*
G36*
X349299Y81401D02*
X349201D01*
Y81499D01*
X349299D01*
Y81401D01*
D02*
G37*
G36*
X352298Y81302D02*
X352202D01*
Y81398D01*
X352298D01*
Y81302D01*
D02*
G37*
G36*
X354598Y81302D02*
X354502D01*
Y81398D01*
X354598D01*
Y81302D01*
D02*
G37*
G36*
X352399Y81301D02*
X352301D01*
Y81399D01*
X352399D01*
Y81301D01*
D02*
G37*
G36*
X354499Y81300D02*
X354401D01*
Y81400D01*
X354499D01*
Y81300D01*
D02*
G37*
G36*
X346899D02*
X346801D01*
Y81400D01*
X346899D01*
Y81300D01*
D02*
G37*
G36*
X352500Y81300D02*
X352400D01*
Y81400D01*
X352500D01*
Y81300D01*
D02*
G37*
G36*
X354400Y81300D02*
X354300D01*
Y81400D01*
X354400D01*
Y81300D01*
D02*
G37*
G36*
X349300Y81300D02*
X349200D01*
Y81400D01*
X349300D01*
Y81300D01*
D02*
G37*
G36*
X351798Y81202D02*
X351702D01*
Y81298D01*
X351798D01*
Y81202D01*
D02*
G37*
G36*
X355098Y81202D02*
X355002D01*
Y81298D01*
X355098D01*
Y81202D01*
D02*
G37*
G36*
X351899Y81201D02*
X351801D01*
Y81299D01*
X351899D01*
Y81201D01*
D02*
G37*
G36*
X355000Y81200D02*
X354900D01*
Y81300D01*
X355000D01*
Y81200D01*
D02*
G37*
G36*
X355498Y81102D02*
X355402D01*
Y81198D01*
X355498D01*
Y81102D01*
D02*
G37*
G36*
X351499Y81101D02*
X351401D01*
Y81199D01*
X351499D01*
Y81101D01*
D02*
G37*
G36*
X355399Y81100D02*
X355300D01*
Y81200D01*
X355399D01*
Y81100D01*
D02*
G37*
G36*
X349400Y81100D02*
X349300D01*
Y81200D01*
X349400D01*
Y81100D01*
D02*
G37*
G36*
X355798Y81002D02*
X355702D01*
Y81098D01*
X355798D01*
Y81002D01*
D02*
G37*
G36*
X351199Y81001D02*
X351101D01*
Y81099D01*
X351199D01*
Y81001D01*
D02*
G37*
G36*
X355700Y81000D02*
X355600D01*
Y81100D01*
X355700D01*
Y81000D01*
D02*
G37*
G36*
X350898Y80902D02*
X350802D01*
Y80998D01*
X350898D01*
Y80902D01*
D02*
G37*
G36*
X346798Y80901D02*
X346702D01*
Y80998D01*
X346798D01*
Y80901D01*
D02*
G37*
G36*
X355998Y80901D02*
X355902D01*
Y80999D01*
X355998D01*
Y80901D01*
D02*
G37*
G36*
X349599Y80901D02*
X349501D01*
Y80999D01*
X349599D01*
Y80901D01*
D02*
G37*
G36*
X356199Y80801D02*
X356101D01*
Y80899D01*
X356199D01*
Y80801D01*
D02*
G37*
G36*
X350699Y80801D02*
X350601D01*
Y80899D01*
X350699D01*
Y80801D01*
D02*
G37*
G36*
X346799Y80800D02*
X346701D01*
Y80900D01*
X346799D01*
Y80800D01*
D02*
G37*
G36*
X349700Y80800D02*
X349600D01*
Y80900D01*
X349700D01*
Y80800D01*
D02*
G37*
G36*
X356399Y80701D02*
X356301D01*
Y80799D01*
X356399D01*
Y80701D01*
D02*
G37*
G36*
X350300Y80700D02*
X350201D01*
Y80800D01*
X350300D01*
Y80700D01*
D02*
G37*
G36*
X350200Y80700D02*
X350100D01*
Y80800D01*
X350200D01*
Y80700D01*
D02*
G37*
G36*
X350400Y80700D02*
X350300D01*
Y80800D01*
X350400D01*
Y80700D01*
D02*
G37*
G36*
X350100Y80700D02*
X350000D01*
Y80800D01*
X350100D01*
Y80700D01*
D02*
G37*
G36*
X350000Y80700D02*
X349900D01*
Y80800D01*
X350000D01*
Y80700D01*
D02*
G37*
G36*
X350500Y80700D02*
X350400D01*
Y80800D01*
X350500D01*
Y80700D01*
D02*
G37*
G36*
X346800Y80700D02*
X346700D01*
Y80800D01*
X346800D01*
Y80700D01*
D02*
G37*
G36*
X356698Y80602D02*
X356602D01*
Y80699D01*
X356698D01*
Y80602D01*
D02*
G37*
G36*
X356600Y80600D02*
X356500D01*
Y80700D01*
X356600D01*
Y80600D01*
D02*
G37*
G36*
X356899Y80501D02*
X356801D01*
Y80599D01*
X356899D01*
Y80501D01*
D02*
G37*
G36*
X357098Y80402D02*
X357002D01*
Y80498D01*
X357098D01*
Y80402D01*
D02*
G37*
G36*
X346698Y80302D02*
X346602D01*
Y80398D01*
X346698D01*
Y80302D01*
D02*
G37*
G36*
X357200Y80300D02*
X357100D01*
Y80400D01*
X357200D01*
Y80300D01*
D02*
G37*
G36*
X357399Y80201D02*
X357301D01*
Y80299D01*
X357399D01*
Y80201D01*
D02*
G37*
G36*
X346699Y80201D02*
X346601D01*
Y80299D01*
X346699D01*
Y80201D01*
D02*
G37*
G36*
X357598Y80102D02*
X357502D01*
Y80198D01*
X357598D01*
Y80102D01*
D02*
G37*
G36*
X346700Y80100D02*
X346600D01*
Y80200D01*
X346700D01*
Y80100D01*
D02*
G37*
G36*
X357699Y80001D02*
X357600D01*
Y80099D01*
X357699D01*
Y80001D01*
D02*
G37*
G36*
X357999Y79801D02*
X357901D01*
Y79899D01*
X357999D01*
Y79801D01*
D02*
G37*
G36*
X358099Y79701D02*
X358001D01*
Y79799D01*
X358099D01*
Y79701D01*
D02*
G37*
G36*
X358200Y79600D02*
X358100D01*
Y79700D01*
X358200D01*
Y79600D01*
D02*
G37*
G36*
X358300Y79500D02*
X358200D01*
Y79600D01*
X358300D01*
Y79500D01*
D02*
G37*
G36*
X358400Y79400D02*
X358300D01*
Y79500D01*
X358400D01*
Y79400D01*
D02*
G37*
G36*
X358500Y79300D02*
X358400D01*
Y79400D01*
X358500D01*
Y79300D01*
D02*
G37*
G36*
X358600Y79200D02*
X358500D01*
Y79300D01*
X358600D01*
Y79200D01*
D02*
G37*
G36*
X358699Y79101D02*
X358601D01*
Y79199D01*
X358699D01*
Y79101D01*
D02*
G37*
G36*
X358798Y79002D02*
X358702D01*
Y79098D01*
X358798D01*
Y79002D01*
D02*
G37*
G36*
X359100Y78600D02*
X359000D01*
Y78700D01*
X359100D01*
Y78600D01*
D02*
G37*
G36*
X346699Y78501D02*
X346601D01*
Y78599D01*
X346699D01*
Y78501D01*
D02*
G37*
G36*
X359200Y78500D02*
X359100D01*
Y78600D01*
X359200D01*
Y78500D01*
D02*
G37*
G36*
X359898Y78402D02*
X359802D01*
Y78498D01*
X359898D01*
Y78402D01*
D02*
G37*
G36*
X346698Y78402D02*
X346602D01*
Y78498D01*
X346698D01*
Y78402D01*
D02*
G37*
G36*
X361099Y78401D02*
X361001D01*
Y78499D01*
X361099D01*
Y78401D01*
D02*
G37*
G36*
X359999Y78401D02*
X359901D01*
Y78499D01*
X359999D01*
Y78401D01*
D02*
G37*
G36*
X360100Y78400D02*
X360000D01*
Y78500D01*
X360100D01*
Y78400D01*
D02*
G37*
G36*
X359300Y78400D02*
X359200D01*
Y78500D01*
X359300D01*
Y78400D01*
D02*
G37*
G36*
X361397Y78303D02*
X361303D01*
Y78397D01*
X361397D01*
Y78303D01*
D02*
G37*
G36*
X359600Y78300D02*
X359500D01*
Y78400D01*
X359600D01*
Y78300D01*
D02*
G37*
G36*
X359400Y78300D02*
X359300D01*
Y78400D01*
X359400D01*
Y78300D01*
D02*
G37*
G36*
X361595Y78205D02*
X361505D01*
Y78295D01*
X361595D01*
Y78205D01*
D02*
G37*
G36*
X361598Y78102D02*
X361502D01*
Y78198D01*
X361598D01*
Y78102D01*
D02*
G37*
G36*
X361693Y78007D02*
X361607D01*
Y78093D01*
X361693D01*
Y78007D01*
D02*
G37*
G36*
X346800Y78000D02*
X346700D01*
Y78100D01*
X346800D01*
Y78000D01*
D02*
G37*
G36*
X361600Y78000D02*
X361500D01*
Y78100D01*
X361600D01*
Y78000D01*
D02*
G37*
G36*
X346798Y77902D02*
X346702D01*
Y77998D01*
X346798D01*
Y77902D01*
D02*
G37*
G36*
X361599Y77901D02*
X361501D01*
Y77999D01*
X361599D01*
Y77901D01*
D02*
G37*
G36*
X361499Y77801D02*
X361401D01*
Y77899D01*
X361499D01*
Y77801D01*
D02*
G37*
G36*
X361299Y77701D02*
X361200D01*
Y77799D01*
X361299D01*
Y77701D01*
D02*
G37*
G36*
X361399Y77601D02*
X361301D01*
Y77699D01*
X361399D01*
Y77601D01*
D02*
G37*
G36*
X346899Y77601D02*
X346801D01*
Y77699D01*
X346899D01*
Y77601D01*
D02*
G37*
G36*
X346898Y77502D02*
X346802D01*
Y77598D01*
X346898D01*
Y77502D01*
D02*
G37*
G36*
X361599Y77501D02*
X361501D01*
Y77599D01*
X361599D01*
Y77501D01*
D02*
G37*
G36*
X361897Y77403D02*
X361803D01*
Y77497D01*
X361897D01*
Y77403D01*
D02*
G37*
G36*
X361800Y77400D02*
X361700D01*
Y77500D01*
X361800D01*
Y77400D01*
D02*
G37*
G36*
X362098Y77302D02*
X362002D01*
Y77398D01*
X362098D01*
Y77302D01*
D02*
G37*
G36*
X347000Y77300D02*
X346900D01*
Y77400D01*
X347000D01*
Y77300D01*
D02*
G37*
G36*
X346998Y77202D02*
X346902D01*
Y77298D01*
X346998D01*
Y77202D01*
D02*
G37*
G36*
X362396Y77104D02*
X362304D01*
Y77196D01*
X362396D01*
Y77104D01*
D02*
G37*
G36*
X347100Y77000D02*
X347000D01*
Y77100D01*
X347100D01*
Y77000D01*
D02*
G37*
G36*
X347098Y76902D02*
X347002D01*
Y76998D01*
X347098D01*
Y76902D01*
D02*
G37*
G36*
X362499Y76901D02*
X362401D01*
Y76999D01*
X362499D01*
Y76901D01*
D02*
G37*
G36*
X362597Y76803D02*
X362503D01*
Y76897D01*
X362597D01*
Y76803D01*
D02*
G37*
G36*
X347199Y76701D02*
X347101D01*
Y76798D01*
X347199D01*
Y76701D01*
D02*
G37*
G36*
X362599Y76701D02*
X362501D01*
Y76799D01*
X362599D01*
Y76701D01*
D02*
G37*
G36*
X362693Y76507D02*
X362607D01*
Y76593D01*
X362693D01*
Y76507D01*
D02*
G37*
G36*
X347299Y76501D02*
X347201D01*
Y76599D01*
X347299D01*
Y76501D01*
D02*
G37*
G36*
X362600Y76500D02*
X362500D01*
Y76600D01*
X362600D01*
Y76500D01*
D02*
G37*
G36*
X362595Y76405D02*
X362505D01*
Y76495D01*
X362595D01*
Y76405D01*
D02*
G37*
G36*
X362199Y76401D02*
X362101D01*
Y76499D01*
X362199D01*
Y76401D01*
D02*
G37*
G36*
X362299Y76401D02*
X362201D01*
Y76499D01*
X362299D01*
Y76401D01*
D02*
G37*
G36*
X362499Y76401D02*
X362401D01*
Y76499D01*
X362499D01*
Y76401D01*
D02*
G37*
G36*
X362400Y76400D02*
X362300D01*
Y76500D01*
X362400D01*
Y76400D01*
D02*
G37*
G36*
X347399Y76301D02*
X347301D01*
Y76399D01*
X347399D01*
Y76301D01*
D02*
G37*
G36*
X362198Y76102D02*
X362102D01*
Y76198D01*
X362198D01*
Y76102D01*
D02*
G37*
G36*
X360599Y76101D02*
X360501D01*
Y76199D01*
X360599D01*
Y76101D01*
D02*
G37*
G36*
X347500Y76100D02*
X347400D01*
Y76200D01*
X347500D01*
Y76100D01*
D02*
G37*
G36*
X360700Y76100D02*
X360600D01*
Y76200D01*
X360700D01*
Y76100D01*
D02*
G37*
G36*
X347498Y76002D02*
X347402D01*
Y76098D01*
X347498D01*
Y76002D01*
D02*
G37*
G36*
X362198Y76002D02*
X362102D01*
Y76099D01*
X362198D01*
Y76002D01*
D02*
G37*
G36*
X360899Y76001D02*
X360801D01*
Y76099D01*
X360899D01*
Y76001D01*
D02*
G37*
G36*
X362195Y75905D02*
X362105D01*
Y75995D01*
X362195D01*
Y75905D01*
D02*
G37*
G36*
X361098Y75902D02*
X361002D01*
Y75998D01*
X361098D01*
Y75902D01*
D02*
G37*
G36*
X361200Y75900D02*
X361100D01*
Y76000D01*
X361200D01*
Y75900D01*
D02*
G37*
G36*
X361998Y75802D02*
X361902D01*
Y75898D01*
X361998D01*
Y75802D01*
D02*
G37*
G36*
X361498Y75802D02*
X361402D01*
Y75898D01*
X361498D01*
Y75802D01*
D02*
G37*
G36*
X347598Y75802D02*
X347502D01*
Y75898D01*
X347598D01*
Y75802D01*
D02*
G37*
G36*
X361599Y75801D02*
X361501D01*
Y75899D01*
X361599D01*
Y75801D01*
D02*
G37*
G36*
X361899Y75801D02*
X361801D01*
Y75899D01*
X361899D01*
Y75801D01*
D02*
G37*
G36*
X361700Y75800D02*
X361600D01*
Y75900D01*
X361700D01*
Y75800D01*
D02*
G37*
G36*
X361800Y75800D02*
X361700D01*
Y75900D01*
X361800D01*
Y75800D01*
D02*
G37*
G36*
X347700Y75700D02*
X347600D01*
Y75800D01*
X347700D01*
Y75700D01*
D02*
G37*
G36*
X347798Y75502D02*
X347702D01*
Y75598D01*
X347798D01*
Y75502D01*
D02*
G37*
G36*
X347899Y75401D02*
X347801D01*
Y75499D01*
X347899D01*
Y75401D01*
D02*
G37*
G36*
X347999Y75301D02*
X347901D01*
Y75399D01*
X347999D01*
Y75301D01*
D02*
G37*
G36*
X348100Y75200D02*
X348000D01*
Y75300D01*
X348100D01*
Y75200D01*
D02*
G37*
G36*
X348200Y75100D02*
X348100D01*
Y75200D01*
X348200D01*
Y75100D01*
D02*
G37*
G36*
X348300Y75000D02*
X348200D01*
Y75100D01*
X348300D01*
Y75000D01*
D02*
G37*
G36*
X348399Y74901D02*
X348301D01*
Y74999D01*
X348399D01*
Y74901D01*
D02*
G37*
G36*
X348499Y74801D02*
X348401D01*
Y74899D01*
X348499D01*
Y74801D01*
D02*
G37*
G36*
X348599Y74701D02*
X348501D01*
Y74799D01*
X348599D01*
Y74701D01*
D02*
G37*
G36*
X348699Y74601D02*
X348601D01*
Y74699D01*
X348699D01*
Y74601D01*
D02*
G37*
G36*
X348798Y74502D02*
X348702D01*
Y74598D01*
X348798D01*
Y74502D01*
D02*
G37*
G36*
X349000Y74400D02*
X348900D01*
Y74500D01*
X349000D01*
Y74400D01*
D02*
G37*
G36*
X349098Y74302D02*
X349002D01*
Y74398D01*
X349098D01*
Y74302D01*
D02*
G37*
G36*
X349298Y74202D02*
X349202D01*
Y74298D01*
X349298D01*
Y74202D01*
D02*
G37*
G36*
X350599Y73601D02*
X350501D01*
Y73699D01*
X350599D01*
Y73601D01*
D02*
G37*
G36*
X354000Y72800D02*
X353900D01*
Y72900D01*
X354000D01*
Y72800D01*
D02*
G37*
G36*
X352998Y72501D02*
X352902D01*
Y72598D01*
X352998D01*
Y72501D01*
D02*
G37*
G36*
X354300Y72400D02*
X354200D01*
Y72500D01*
X354300D01*
Y72400D01*
D02*
G37*
G36*
X354300Y72300D02*
X354200D01*
Y72400D01*
X354300D01*
Y72300D01*
D02*
G37*
G36*
X354100Y72300D02*
X354000D01*
Y72400D01*
X354100D01*
Y72300D01*
D02*
G37*
G36*
X352799Y72201D02*
X352701D01*
Y72299D01*
X352799D01*
Y72201D01*
D02*
G37*
G36*
X354300Y72200D02*
X354200D01*
Y72300D01*
X354300D01*
Y72200D01*
D02*
G37*
G36*
X354100Y72200D02*
X354000D01*
Y72300D01*
X354100D01*
Y72200D01*
D02*
G37*
G36*
X352698Y72102D02*
X352602D01*
Y72198D01*
X352698D01*
Y72102D01*
D02*
G37*
G36*
X354300Y72100D02*
X354200D01*
Y72200D01*
X354300D01*
Y72100D01*
D02*
G37*
G36*
X353100Y72100D02*
X353000D01*
Y72200D01*
X353100D01*
Y72100D01*
D02*
G37*
G36*
X354100Y72100D02*
X354000D01*
Y72200D01*
X354100D01*
Y72100D01*
D02*
G37*
G36*
X354300Y72000D02*
X354200D01*
Y72100D01*
X354300D01*
Y72000D01*
D02*
G37*
G36*
X353000Y72000D02*
X352900D01*
Y72100D01*
X353000D01*
Y72000D01*
D02*
G37*
G36*
X354100Y72000D02*
X354000D01*
Y72100D01*
X354100D01*
Y72000D01*
D02*
G37*
G36*
X354300Y71900D02*
X354200D01*
Y72000D01*
X354300D01*
Y71900D01*
D02*
G37*
G36*
X354100Y71900D02*
X354000D01*
Y72000D01*
X354100D01*
Y71900D01*
D02*
G37*
G36*
X352499Y71801D02*
X352401D01*
Y71899D01*
X352499D01*
Y71801D01*
D02*
G37*
G36*
X354300Y71800D02*
X354200D01*
Y71900D01*
X354300D01*
Y71800D01*
D02*
G37*
G36*
X354100Y71800D02*
X354000D01*
Y71900D01*
X354100D01*
Y71800D01*
D02*
G37*
G36*
X352398Y71702D02*
X352302D01*
Y71798D01*
X352398D01*
Y71702D01*
D02*
G37*
G36*
X354300Y71700D02*
X354200D01*
Y71800D01*
X354300D01*
Y71700D01*
D02*
G37*
G36*
X352800Y71700D02*
X352700D01*
Y71800D01*
X352800D01*
Y71700D01*
D02*
G37*
G36*
X354100Y71700D02*
X354000D01*
Y71800D01*
X354100D01*
Y71700D01*
D02*
G37*
G36*
X354300Y71600D02*
X354200D01*
Y71700D01*
X354300D01*
Y71600D01*
D02*
G37*
G36*
X352700Y71600D02*
X352600D01*
Y71700D01*
X352700D01*
Y71600D01*
D02*
G37*
G36*
X354100Y71600D02*
X354000D01*
Y71700D01*
X354100D01*
Y71600D01*
D02*
G37*
G36*
X354300Y71500D02*
X354200D01*
Y71600D01*
X354300D01*
Y71500D01*
D02*
G37*
G36*
X354100Y71500D02*
X354000D01*
Y71600D01*
X354100D01*
Y71500D01*
D02*
G37*
G36*
X352199Y71401D02*
X352101D01*
Y71499D01*
X352199D01*
Y71401D01*
D02*
G37*
G36*
X354300Y71400D02*
X354200D01*
Y71500D01*
X354300D01*
Y71400D01*
D02*
G37*
G36*
X354100Y71400D02*
X354000D01*
Y71500D01*
X354100D01*
Y71400D01*
D02*
G37*
G36*
X352098Y71302D02*
X352002D01*
Y71398D01*
X352098D01*
Y71302D01*
D02*
G37*
G36*
X354300Y71300D02*
X354200D01*
Y71400D01*
X354300D01*
Y71300D01*
D02*
G37*
G36*
X352500Y71300D02*
X352400D01*
Y71400D01*
X352500D01*
Y71300D01*
D02*
G37*
G36*
X354100Y71300D02*
X354000D01*
Y71400D01*
X354100D01*
Y71300D01*
D02*
G37*
G36*
X354300Y71200D02*
X354200D01*
Y71300D01*
X354300D01*
Y71200D01*
D02*
G37*
G36*
X354100Y71200D02*
X354000D01*
Y71300D01*
X354100D01*
Y71200D01*
D02*
G37*
G36*
X354300Y71100D02*
X354200D01*
Y71200D01*
X354300D01*
Y71100D01*
D02*
G37*
G36*
X354100Y71100D02*
X354000D01*
Y71200D01*
X354100D01*
Y71100D01*
D02*
G37*
G36*
X351899Y71001D02*
X351801D01*
Y71099D01*
X351899D01*
Y71001D01*
D02*
G37*
G36*
X354300Y71000D02*
X354200D01*
Y71100D01*
X354300D01*
Y71000D01*
D02*
G37*
G36*
X352300Y71000D02*
X352200D01*
Y71100D01*
X352300D01*
Y71000D01*
D02*
G37*
G36*
X354100Y71000D02*
X354000D01*
Y71100D01*
X354100D01*
Y71000D01*
D02*
G37*
G36*
X351798Y70902D02*
X351702D01*
Y70998D01*
X351798D01*
Y70902D01*
D02*
G37*
G36*
X354300Y70900D02*
X354200D01*
Y71000D01*
X354300D01*
Y70900D01*
D02*
G37*
G36*
X352200Y70900D02*
X352100D01*
Y71000D01*
X352200D01*
Y70900D01*
D02*
G37*
G36*
X354100Y70900D02*
X354000D01*
Y71000D01*
X354100D01*
Y70900D01*
D02*
G37*
G36*
X354300Y70800D02*
X354200D01*
Y70900D01*
X354300D01*
Y70800D01*
D02*
G37*
G36*
X354100Y70800D02*
X354000D01*
Y70900D01*
X354100D01*
Y70800D01*
D02*
G37*
G36*
X354300Y70700D02*
X354200D01*
Y70800D01*
X354300D01*
Y70700D01*
D02*
G37*
G36*
X354100Y70700D02*
X354000D01*
Y70800D01*
X354100D01*
Y70700D01*
D02*
G37*
G36*
X351599Y70601D02*
X351501D01*
Y70699D01*
X351599D01*
Y70601D01*
D02*
G37*
G36*
X354300Y70600D02*
X354200D01*
Y70700D01*
X354300D01*
Y70600D01*
D02*
G37*
G36*
X352000Y70600D02*
X351900D01*
Y70700D01*
X352000D01*
Y70600D01*
D02*
G37*
G36*
X354100Y70600D02*
X354000D01*
Y70700D01*
X354100D01*
Y70600D01*
D02*
G37*
G36*
X351499Y70501D02*
X351401D01*
Y70599D01*
X351499D01*
Y70501D01*
D02*
G37*
G36*
X354300Y70500D02*
X354200D01*
Y70600D01*
X354300D01*
Y70500D01*
D02*
G37*
G36*
X351900Y70500D02*
X351800D01*
Y70600D01*
X351900D01*
Y70500D01*
D02*
G37*
G36*
X354100Y70500D02*
X354000D01*
Y70600D01*
X354100D01*
Y70500D01*
D02*
G37*
G36*
X354300Y70400D02*
X354200D01*
Y70500D01*
X354300D01*
Y70400D01*
D02*
G37*
G36*
X354100Y70400D02*
X354000D01*
Y70500D01*
X354100D01*
Y70400D01*
D02*
G37*
G36*
X354300Y70300D02*
X354200D01*
Y70400D01*
X354300D01*
Y70300D01*
D02*
G37*
G36*
X354100Y70300D02*
X354000D01*
Y70400D01*
X354100D01*
Y70300D01*
D02*
G37*
G36*
X351299Y70201D02*
X351201D01*
Y70299D01*
X351299D01*
Y70201D01*
D02*
G37*
G36*
X354300Y70200D02*
X354200D01*
Y70300D01*
X354300D01*
Y70200D01*
D02*
G37*
G36*
X351700Y70200D02*
X351600D01*
Y70300D01*
X351700D01*
Y70200D01*
D02*
G37*
G36*
X354100Y70200D02*
X354000D01*
Y70300D01*
X354100D01*
Y70200D01*
D02*
G37*
G36*
X354300Y70100D02*
X354200D01*
Y70200D01*
X354300D01*
Y70100D01*
D02*
G37*
G36*
X351600Y70100D02*
X351500D01*
Y70200D01*
X351600D01*
Y70100D01*
D02*
G37*
G36*
X354100Y70100D02*
X354000D01*
Y70200D01*
X354100D01*
Y70100D01*
D02*
G37*
G36*
X354300Y70000D02*
X354200D01*
Y70100D01*
X354300D01*
Y70000D01*
D02*
G37*
G36*
X354100Y70000D02*
X354000D01*
Y70100D01*
X354100D01*
Y70000D01*
D02*
G37*
G36*
X351099Y69901D02*
X351001D01*
Y69999D01*
X351099D01*
Y69901D01*
D02*
G37*
G36*
X354300Y69900D02*
X354200D01*
Y70000D01*
X354300D01*
Y69900D01*
D02*
G37*
G36*
X354100Y69900D02*
X354000D01*
Y70000D01*
X354100D01*
Y69900D01*
D02*
G37*
G36*
X350998Y69802D02*
X350902D01*
Y69898D01*
X350998D01*
Y69802D01*
D02*
G37*
G36*
X354300Y69800D02*
X354200D01*
Y69900D01*
X354300D01*
Y69800D01*
D02*
G37*
G36*
X351400Y69800D02*
X351300D01*
Y69900D01*
X351400D01*
Y69800D01*
D02*
G37*
G36*
X354100Y69800D02*
X354000D01*
Y69900D01*
X354100D01*
Y69800D01*
D02*
G37*
G36*
X354300Y69700D02*
X354200D01*
Y69800D01*
X354300D01*
Y69700D01*
D02*
G37*
G36*
X351300Y69700D02*
X351200D01*
Y69800D01*
X351300D01*
Y69700D01*
D02*
G37*
G36*
X354100Y69700D02*
X354000D01*
Y69800D01*
X354100D01*
Y69700D01*
D02*
G37*
G36*
X354300Y69600D02*
X354200D01*
Y69700D01*
X354300D01*
Y69600D01*
D02*
G37*
G36*
X354100Y69600D02*
X354000D01*
Y69700D01*
X354100D01*
Y69600D01*
D02*
G37*
G36*
X350799Y69501D02*
X350701D01*
Y69599D01*
X350799D01*
Y69501D01*
D02*
G37*
G36*
X354300Y69500D02*
X354200D01*
Y69600D01*
X354300D01*
Y69500D01*
D02*
G37*
G36*
X354100Y69500D02*
X354000D01*
Y69600D01*
X354100D01*
Y69500D01*
D02*
G37*
G36*
X350698Y69402D02*
X350602D01*
Y69498D01*
X350698D01*
Y69402D01*
D02*
G37*
G36*
X354300Y69400D02*
X354200D01*
Y69500D01*
X354300D01*
Y69400D01*
D02*
G37*
G36*
X351100Y69400D02*
X351000D01*
Y69500D01*
X351100D01*
Y69400D01*
D02*
G37*
G36*
X354100Y69400D02*
X354000D01*
Y69500D01*
X354100D01*
Y69400D01*
D02*
G37*
G36*
X354300Y69300D02*
X354200D01*
Y69400D01*
X354300D01*
Y69300D01*
D02*
G37*
G36*
X351000Y69300D02*
X350900D01*
Y69400D01*
X351000D01*
Y69300D01*
D02*
G37*
G36*
X354100Y69300D02*
X354000D01*
Y69400D01*
X354100D01*
Y69300D01*
D02*
G37*
G36*
X354300Y69200D02*
X354200D01*
Y69300D01*
X354300D01*
Y69200D01*
D02*
G37*
G36*
X354100Y69200D02*
X354000D01*
Y69300D01*
X354100D01*
Y69200D01*
D02*
G37*
G36*
X350498Y69102D02*
X350402D01*
Y69198D01*
X350498D01*
Y69102D01*
D02*
G37*
G36*
X354300Y69100D02*
X354200D01*
Y69200D01*
X354300D01*
Y69100D01*
D02*
G37*
G36*
X354100Y69100D02*
X354000D01*
Y69200D01*
X354100D01*
Y69100D01*
D02*
G37*
G36*
X354300Y69000D02*
X354200D01*
Y69100D01*
X354300D01*
Y69000D01*
D02*
G37*
G36*
X350800Y69000D02*
X350700D01*
Y69100D01*
X350800D01*
Y69000D01*
D02*
G37*
G36*
X354100Y69000D02*
X354000D01*
Y69100D01*
X354100D01*
Y69000D01*
D02*
G37*
G36*
X354300Y68900D02*
X354200D01*
Y69000D01*
X354300D01*
Y68900D01*
D02*
G37*
G36*
X350700Y68900D02*
X350600D01*
Y69000D01*
X350700D01*
Y68900D01*
D02*
G37*
G36*
X354100Y68900D02*
X354000D01*
Y69000D01*
X354100D01*
Y68900D01*
D02*
G37*
G36*
X350299Y68801D02*
X350201D01*
Y68899D01*
X350299D01*
Y68801D01*
D02*
G37*
G36*
X354300Y68800D02*
X354200D01*
Y68900D01*
X354300D01*
Y68800D01*
D02*
G37*
G36*
X354100Y68800D02*
X354000D01*
Y68900D01*
X354100D01*
Y68800D01*
D02*
G37*
G36*
X350198Y68702D02*
X350102D01*
Y68798D01*
X350198D01*
Y68702D01*
D02*
G37*
G36*
X354300Y68700D02*
X354200D01*
Y68800D01*
X354300D01*
Y68700D01*
D02*
G37*
G36*
X354100Y68700D02*
X354000D01*
Y68800D01*
X354100D01*
Y68700D01*
D02*
G37*
G36*
X354300Y68600D02*
X354200D01*
Y68700D01*
X354300D01*
Y68600D01*
D02*
G37*
G36*
X354100Y68600D02*
X354000D01*
Y68700D01*
X354100D01*
Y68600D01*
D02*
G37*
G36*
X350098Y68502D02*
X350002D01*
Y68598D01*
X350098D01*
Y68502D01*
D02*
G37*
G36*
X354300Y68500D02*
X354200D01*
Y68600D01*
X354300D01*
Y68500D01*
D02*
G37*
G36*
X354100Y68500D02*
X354000D01*
Y68600D01*
X354100D01*
Y68500D01*
D02*
G37*
G36*
X350098Y68402D02*
X350002D01*
Y68498D01*
X350098D01*
Y68402D01*
D02*
G37*
G36*
X354300Y68400D02*
X354200D01*
Y68500D01*
X354300D01*
Y68400D01*
D02*
G37*
G36*
X354100Y68400D02*
X354000D01*
Y68500D01*
X354100D01*
Y68400D01*
D02*
G37*
G36*
X350097Y68303D02*
X350003D01*
Y68397D01*
X350097D01*
Y68303D01*
D02*
G37*
G36*
X354300Y68300D02*
X354200D01*
Y68400D01*
X354300D01*
Y68300D01*
D02*
G37*
G36*
X354100Y68300D02*
X354000D01*
Y68400D01*
X354100D01*
Y68300D01*
D02*
G37*
G36*
X350199Y68201D02*
X350101D01*
Y68299D01*
X350199D01*
Y68201D01*
D02*
G37*
G36*
X354300Y68200D02*
X354200D01*
Y68300D01*
X354300D01*
Y68200D01*
D02*
G37*
G36*
X354100Y68200D02*
X354000D01*
Y68300D01*
X354100D01*
Y68200D01*
D02*
G37*
G36*
X350298Y68102D02*
X350202D01*
Y68198D01*
X350298D01*
Y68102D01*
D02*
G37*
G36*
X354300Y68100D02*
X354200D01*
Y68200D01*
X354300D01*
Y68100D01*
D02*
G37*
G36*
X350800Y68100D02*
X350700D01*
Y68200D01*
X350800D01*
Y68100D01*
D02*
G37*
G36*
X354100Y68100D02*
X354000D01*
Y68200D01*
X354100D01*
Y68100D01*
D02*
G37*
G36*
X350498Y68002D02*
X350402D01*
Y68098D01*
X350498D01*
Y68002D01*
D02*
G37*
G36*
X350600Y68000D02*
X350500D01*
Y68100D01*
X350600D01*
Y68000D01*
D02*
G37*
G36*
X354300Y68000D02*
X354200D01*
Y68100D01*
X354300D01*
Y68000D01*
D02*
G37*
G36*
X351000Y68000D02*
X350900D01*
Y68100D01*
X351000D01*
Y68000D01*
D02*
G37*
G36*
X350900D02*
X350800D01*
Y68100D01*
X350900D01*
Y68000D01*
D02*
G37*
G36*
X354100Y68000D02*
X354000D01*
Y68100D01*
X354100D01*
Y68000D01*
D02*
G37*
G36*
X350698Y67902D02*
X350602D01*
Y67998D01*
X350698D01*
Y67902D01*
D02*
G37*
G36*
X350800Y67900D02*
X350700D01*
Y68000D01*
X350800D01*
Y67900D01*
D02*
G37*
G36*
X354300Y67900D02*
X354200D01*
Y68000D01*
X354300D01*
Y67900D01*
D02*
G37*
G36*
X351200D02*
X351100D01*
Y68000D01*
X351200D01*
Y67900D01*
D02*
G37*
G36*
X354100Y67900D02*
X354000D01*
Y68000D01*
X354100D01*
Y67900D01*
D02*
G37*
G36*
X350899Y67801D02*
X350801D01*
Y67899D01*
X350899D01*
Y67801D01*
D02*
G37*
G36*
X351400Y67800D02*
X351300D01*
Y67900D01*
X351400D01*
Y67800D01*
D02*
G37*
G36*
X354300Y67800D02*
X354200D01*
Y67900D01*
X354300D01*
Y67800D01*
D02*
G37*
G36*
X354100Y67800D02*
X354000D01*
Y67900D01*
X354100D01*
Y67800D01*
D02*
G37*
G36*
X350999Y67701D02*
X350901D01*
Y67799D01*
X350999D01*
Y67701D01*
D02*
G37*
G36*
X354300Y67700D02*
X354200D01*
Y67800D01*
X354300D01*
Y67700D01*
D02*
G37*
G36*
X351600Y67700D02*
X351500D01*
Y67800D01*
X351600D01*
Y67700D01*
D02*
G37*
G36*
X354100Y67700D02*
X354000D01*
Y67800D01*
X354100D01*
Y67700D01*
D02*
G37*
G36*
X351199Y67601D02*
X351101D01*
Y67699D01*
X351199D01*
Y67601D01*
D02*
G37*
G36*
X354300Y67600D02*
X354200D01*
Y67700D01*
X354300D01*
Y67600D01*
D02*
G37*
G36*
X351700Y67600D02*
X351600D01*
Y67700D01*
X351700D01*
Y67600D01*
D02*
G37*
G36*
X354100Y67600D02*
X354000D01*
Y67700D01*
X354100D01*
Y67600D01*
D02*
G37*
G36*
X351399Y67501D02*
X351301D01*
Y67599D01*
X351399D01*
Y67501D01*
D02*
G37*
G36*
X354300Y67500D02*
X354200D01*
Y67600D01*
X354300D01*
Y67500D01*
D02*
G37*
G36*
X351800Y67500D02*
X351700D01*
Y67600D01*
X351800D01*
Y67500D01*
D02*
G37*
G36*
X351900Y67500D02*
X351800D01*
Y67600D01*
X351900D01*
Y67500D01*
D02*
G37*
G36*
X354100Y67500D02*
X354000D01*
Y67600D01*
X354100D01*
Y67500D01*
D02*
G37*
G36*
X351598Y67402D02*
X351502D01*
Y67498D01*
X351598D01*
Y67402D01*
D02*
G37*
G36*
X351699Y67400D02*
X351601D01*
Y67500D01*
X351699D01*
Y67400D01*
D02*
G37*
G36*
X354300Y67400D02*
X354200D01*
Y67500D01*
X354300D01*
Y67400D01*
D02*
G37*
G36*
X352000Y67400D02*
X351900D01*
Y67500D01*
X352000D01*
Y67400D01*
D02*
G37*
G36*
X352100Y67400D02*
X352000D01*
Y67500D01*
X352100D01*
Y67400D01*
D02*
G37*
G36*
X354100Y67400D02*
X354000D01*
Y67500D01*
X354100D01*
Y67400D01*
D02*
G37*
G36*
X351798Y67302D02*
X351702D01*
Y67398D01*
X351798D01*
Y67302D01*
D02*
G37*
G36*
X351900Y67300D02*
X351800D01*
Y67400D01*
X351900D01*
Y67300D01*
D02*
G37*
G36*
X354300Y67300D02*
X354200D01*
Y67400D01*
X354300D01*
Y67300D01*
D02*
G37*
G36*
X352300Y67300D02*
X352200D01*
Y67400D01*
X352300D01*
Y67300D01*
D02*
G37*
G36*
X354100Y67300D02*
X354000D01*
Y67400D01*
X354100D01*
Y67300D01*
D02*
G37*
G36*
X351999Y67201D02*
X351901D01*
Y67299D01*
X351999D01*
Y67201D01*
D02*
G37*
G36*
X352500Y67200D02*
X352400D01*
Y67300D01*
X352500D01*
Y67200D01*
D02*
G37*
G36*
X354300Y67200D02*
X354200D01*
Y67300D01*
X354300D01*
Y67200D01*
D02*
G37*
G36*
X354100Y67200D02*
X354000D01*
Y67300D01*
X354100D01*
Y67200D01*
D02*
G37*
G36*
X352099Y67101D02*
X352001D01*
Y67199D01*
X352099D01*
Y67101D01*
D02*
G37*
G36*
X354300Y67100D02*
X354200D01*
Y67200D01*
X354300D01*
Y67100D01*
D02*
G37*
G36*
X352600Y67100D02*
X352500D01*
Y67200D01*
X352600D01*
Y67100D01*
D02*
G37*
G36*
X352299Y67001D02*
X352201D01*
Y67099D01*
X352299D01*
Y67001D01*
D02*
G37*
G36*
X352700Y67000D02*
X352600D01*
Y67100D01*
X352700D01*
Y67000D01*
D02*
G37*
G36*
X352800Y67000D02*
X352700D01*
Y67100D01*
X352800D01*
Y67000D01*
D02*
G37*
G36*
X352499Y66901D02*
X352401D01*
Y66998D01*
X352499D01*
Y66901D01*
D02*
G37*
G36*
X352599Y66901D02*
X352501D01*
Y66999D01*
X352599D01*
Y66901D01*
D02*
G37*
G36*
X352900Y66900D02*
X352800D01*
Y67000D01*
X352900D01*
Y66900D01*
D02*
G37*
G36*
X353000Y66900D02*
X352900D01*
Y67000D01*
X353000D01*
Y66900D01*
D02*
G37*
G36*
X352800Y66900D02*
X352700D01*
Y67000D01*
X352800D01*
Y66900D01*
D02*
G37*
G36*
X352698Y66802D02*
X352602D01*
Y66898D01*
X352698D01*
Y66802D01*
D02*
G37*
G36*
X352799Y66801D02*
X352701D01*
Y66899D01*
X352799D01*
Y66801D01*
D02*
G37*
G36*
X353100Y66800D02*
X353000D01*
Y66900D01*
X353100D01*
Y66800D01*
D02*
G37*
G36*
X352900D02*
X352800D01*
Y66900D01*
X352900D01*
Y66800D01*
D02*
G37*
G36*
X353000Y66800D02*
X352900D01*
Y66900D01*
X353000D01*
Y66800D01*
D02*
G37*
G36*
X353200Y66800D02*
X353100D01*
Y66900D01*
X353200D01*
Y66800D01*
D02*
G37*
G36*
X352898Y66702D02*
X352802D01*
Y66798D01*
X352898D01*
Y66702D01*
D02*
G37*
G36*
X352999Y66701D02*
X352901D01*
Y66799D01*
X352999D01*
Y66701D01*
D02*
G37*
G36*
X353100Y66700D02*
X353000D01*
Y66800D01*
X353100D01*
Y66700D01*
D02*
G37*
G36*
X353300Y66700D02*
X353200D01*
Y66800D01*
X353300D01*
Y66700D01*
D02*
G37*
G36*
X354000Y66700D02*
X353900D01*
Y66800D01*
X354000D01*
Y66700D01*
D02*
G37*
G36*
X353400Y66700D02*
X353300D01*
Y66800D01*
X353400D01*
Y66700D01*
D02*
G37*
G36*
X353200Y66700D02*
X353100D01*
Y66800D01*
X353200D01*
Y66700D01*
D02*
G37*
G36*
X353098Y66602D02*
X353002D01*
Y66698D01*
X353098D01*
Y66602D01*
D02*
G37*
G36*
X353199Y66601D02*
X353101D01*
Y66699D01*
X353199D01*
Y66601D01*
D02*
G37*
G36*
X353500Y66600D02*
X353400D01*
Y66700D01*
X353500D01*
Y66600D01*
D02*
G37*
G36*
X353298Y66501D02*
X353202D01*
Y66598D01*
X353298D01*
Y66501D01*
D02*
G37*
G36*
X353398Y66402D02*
X353302D01*
Y66498D01*
X353398D01*
Y66402D01*
D02*
G37*
G36*
X353500Y66400D02*
X353400D01*
Y66500D01*
X353500D01*
Y66400D01*
D02*
G37*
G36*
X353599Y66301D02*
X353501D01*
Y66399D01*
X353599D01*
Y66301D01*
D02*
G37*
G36*
X354600Y66000D02*
X354500D01*
Y66100D01*
X354600D01*
Y66000D01*
D02*
G37*
G36*
X354700Y65900D02*
X354600D01*
Y66000D01*
X354700D01*
Y65900D01*
D02*
G37*
G36*
X354898Y65802D02*
X354802D01*
Y65898D01*
X354898D01*
Y65802D01*
D02*
G37*
G36*
X354800Y65800D02*
X354700D01*
Y65900D01*
X354800D01*
Y65800D01*
D02*
G37*
G36*
X354999Y65701D02*
X354901D01*
Y65799D01*
X354999D01*
Y65701D01*
D02*
G37*
G36*
X355198Y65602D02*
X355102D01*
Y65698D01*
X355198D01*
Y65602D01*
D02*
G37*
G36*
X354799Y65601D02*
X354701D01*
Y65699D01*
X354799D01*
Y65601D01*
D02*
G37*
G36*
X355099Y65601D02*
X355001D01*
Y65699D01*
X355099D01*
Y65601D01*
D02*
G37*
G36*
X354898Y65502D02*
X354802D01*
Y65598D01*
X354898D01*
Y65502D01*
D02*
G37*
G36*
X355298Y65501D02*
X355202D01*
Y65599D01*
X355298D01*
Y65501D01*
D02*
G37*
G36*
X354999Y65501D02*
X354901D01*
Y65599D01*
X354999D01*
Y65501D01*
D02*
G37*
G36*
X355200Y65500D02*
X355100D01*
Y65600D01*
X355200D01*
Y65500D01*
D02*
G37*
G36*
X355498Y65402D02*
X355402D01*
Y65498D01*
X355498D01*
Y65402D01*
D02*
G37*
G36*
X355099Y65402D02*
X355001D01*
Y65499D01*
X355099D01*
Y65402D01*
D02*
G37*
G36*
X355399Y65401D02*
X355301D01*
Y65499D01*
X355399D01*
Y65401D01*
D02*
G37*
G36*
X354100Y65400D02*
X354000D01*
Y65500D01*
X354100D01*
Y65400D01*
D02*
G37*
G36*
X355200Y65400D02*
X355100D01*
Y65500D01*
X355200D01*
Y65400D01*
D02*
G37*
G36*
X355198Y65302D02*
X355102D01*
Y65398D01*
X355198D01*
Y65302D01*
D02*
G37*
G36*
X355599Y65301D02*
X355501D01*
Y65399D01*
X355599D01*
Y65301D01*
D02*
G37*
G36*
X355299Y65301D02*
X355201D01*
Y65399D01*
X355299D01*
Y65301D01*
D02*
G37*
G36*
X354100Y65300D02*
X354000D01*
Y65400D01*
X354100D01*
Y65300D01*
D02*
G37*
G36*
X355500Y65300D02*
X355400D01*
Y65400D01*
X355500D01*
Y65300D01*
D02*
G37*
G36*
X355798Y65202D02*
X355702D01*
Y65298D01*
X355798D01*
Y65202D01*
D02*
G37*
G36*
X355399Y65201D02*
X355301D01*
Y65298D01*
X355399D01*
Y65201D01*
D02*
G37*
G36*
X355699Y65201D02*
X355601D01*
Y65299D01*
X355699D01*
Y65201D01*
D02*
G37*
G36*
X354100Y65200D02*
X354000D01*
Y65300D01*
X354100D01*
Y65200D01*
D02*
G37*
G36*
X354300Y65200D02*
X354200D01*
Y65300D01*
X354300D01*
Y65200D01*
D02*
G37*
G36*
X355498Y65102D02*
X355402D01*
Y65198D01*
X355498D01*
Y65102D01*
D02*
G37*
G36*
X355898Y65102D02*
X355802D01*
Y65198D01*
X355898D01*
Y65102D01*
D02*
G37*
G36*
X355599Y65101D02*
X355501D01*
Y65200D01*
X355599D01*
Y65101D01*
D02*
G37*
G36*
X354100Y65100D02*
X354000D01*
Y65200D01*
X354100D01*
Y65100D01*
D02*
G37*
G36*
X354300Y65100D02*
X354200D01*
Y65200D01*
X354300D01*
Y65100D01*
D02*
G37*
G36*
X355800Y65100D02*
X355700D01*
Y65200D01*
X355800D01*
Y65100D01*
D02*
G37*
G36*
X355999Y65001D02*
X355901D01*
Y65099D01*
X355999D01*
Y65001D01*
D02*
G37*
G36*
X355699D02*
X355601D01*
Y65099D01*
X355699D01*
Y65001D01*
D02*
G37*
G36*
X354100Y65000D02*
X354000D01*
Y65100D01*
X354100D01*
Y65000D01*
D02*
G37*
G36*
X354300Y65000D02*
X354200D01*
Y65100D01*
X354300D01*
Y65000D01*
D02*
G37*
G36*
X356198Y64902D02*
X356102D01*
Y64998D01*
X356198D01*
Y64902D01*
D02*
G37*
G36*
X355798Y64902D02*
X355702D01*
Y64998D01*
X355798D01*
Y64902D01*
D02*
G37*
G36*
X356099Y64900D02*
X356001D01*
Y65000D01*
X356099D01*
Y64900D01*
D02*
G37*
G36*
X354100Y64900D02*
X354000D01*
Y65000D01*
X354100D01*
Y64900D01*
D02*
G37*
G36*
X354300Y64900D02*
X354200D01*
Y65000D01*
X354300D01*
Y64900D01*
D02*
G37*
G36*
X355900Y64900D02*
X355800D01*
Y65000D01*
X355900D01*
Y64900D01*
D02*
G37*
G36*
X355898Y64802D02*
X355802D01*
Y64898D01*
X355898D01*
Y64802D01*
D02*
G37*
G36*
X356298Y64802D02*
X356202D01*
Y64899D01*
X356298D01*
Y64802D01*
D02*
G37*
G36*
X355999Y64801D02*
X355901D01*
Y64899D01*
X355999D01*
Y64801D01*
D02*
G37*
G36*
X354100Y64800D02*
X354000D01*
Y64900D01*
X354100D01*
Y64800D01*
D02*
G37*
G36*
X354300Y64800D02*
X354200D01*
Y64900D01*
X354300D01*
Y64800D01*
D02*
G37*
G36*
X356200Y64800D02*
X356100D01*
Y64900D01*
X356200D01*
Y64800D01*
D02*
G37*
G36*
X355300Y65400D02*
X355400D01*
Y65300D01*
X355600D01*
Y65200D01*
X355700D01*
Y65100D01*
X355900D01*
Y65000D01*
X356000D01*
Y64900D01*
X356100D01*
Y64800D01*
X356000D01*
Y64900D01*
X355900D01*
Y65000D01*
X355700D01*
Y65100D01*
X355600D01*
Y65200D01*
X355400D01*
Y65300D01*
X355300D01*
Y65400D01*
X355200D01*
Y65500D01*
X355300D01*
Y65400D01*
D02*
G37*
G36*
X356498Y64702D02*
X356402D01*
Y64798D01*
X356498D01*
Y64702D01*
D02*
G37*
G36*
X356099Y64701D02*
X356001D01*
Y64799D01*
X356099D01*
Y64701D01*
D02*
G37*
G36*
X356399Y64701D02*
X356301D01*
Y64799D01*
X356399D01*
Y64701D01*
D02*
G37*
G36*
X354100Y64700D02*
X354000D01*
Y64800D01*
X354100D01*
Y64700D01*
D02*
G37*
G36*
X354300Y64700D02*
X354200D01*
Y64800D01*
X354300D01*
Y64700D01*
D02*
G37*
G36*
X356200Y64700D02*
X356100D01*
Y64800D01*
X356200D01*
Y64700D01*
D02*
G37*
G36*
X356598Y64602D02*
X356502D01*
Y64698D01*
X356598D01*
Y64602D01*
D02*
G37*
G36*
X356198Y64602D02*
X356102D01*
Y64698D01*
X356198D01*
Y64602D01*
D02*
G37*
G36*
X356299Y64601D02*
X356201D01*
Y64699D01*
X356299D01*
Y64601D01*
D02*
G37*
G36*
X356499Y64601D02*
X356401D01*
Y64699D01*
X356499D01*
Y64601D01*
D02*
G37*
G36*
X354100Y64600D02*
X354000D01*
Y64700D01*
X354100D01*
Y64600D01*
D02*
G37*
G36*
X354300Y64600D02*
X354200D01*
Y64700D01*
X354300D01*
Y64600D01*
D02*
G37*
G36*
X356300Y64700D02*
X356400D01*
Y64600D01*
X356300D01*
Y64700D01*
X356200D01*
Y64800D01*
X356300D01*
Y64700D01*
D02*
G37*
G36*
X356697Y64503D02*
X356603D01*
Y64597D01*
X356697D01*
Y64503D01*
D02*
G37*
G36*
X356398Y64502D02*
X356302D01*
Y64598D01*
X356398D01*
Y64502D01*
D02*
G37*
G36*
X356599Y64501D02*
X356501D01*
Y64599D01*
X356599D01*
Y64501D01*
D02*
G37*
G36*
X356499Y64501D02*
X356401D01*
Y64599D01*
X356499D01*
Y64501D01*
D02*
G37*
G36*
X354100Y64500D02*
X354000D01*
Y64600D01*
X354100D01*
Y64500D01*
D02*
G37*
G36*
X354300Y64500D02*
X354200D01*
Y64600D01*
X354300D01*
Y64500D01*
D02*
G37*
G36*
X356797Y64403D02*
X356703D01*
Y64497D01*
X356797D01*
Y64403D01*
D02*
G37*
G36*
X356498Y64402D02*
X356402D01*
Y64498D01*
X356498D01*
Y64402D01*
D02*
G37*
G36*
X356598Y64402D02*
X356502D01*
Y64498D01*
X356598D01*
Y64402D01*
D02*
G37*
G36*
X356698Y64402D02*
X356602D01*
Y64498D01*
X356698D01*
Y64402D01*
D02*
G37*
G36*
X354100Y64400D02*
X354000D01*
Y64500D01*
X354100D01*
Y64400D01*
D02*
G37*
G36*
X354300Y64400D02*
X354200D01*
Y64500D01*
X354300D01*
Y64400D01*
D02*
G37*
G36*
X356697Y64303D02*
X356603D01*
Y64397D01*
X356697D01*
Y64303D01*
D02*
G37*
G36*
X356997Y64303D02*
X356903D01*
Y64397D01*
X356997D01*
Y64303D01*
D02*
G37*
G36*
X356898Y64302D02*
X356802D01*
Y64398D01*
X356898D01*
Y64302D01*
D02*
G37*
G36*
X356798Y64302D02*
X356702D01*
Y64398D01*
X356798D01*
Y64302D01*
D02*
G37*
G36*
X354100Y64300D02*
X354000D01*
Y64400D01*
X354100D01*
Y64300D01*
D02*
G37*
G36*
X354300Y64300D02*
X354200D01*
Y64400D01*
X354300D01*
Y64300D01*
D02*
G37*
G36*
X356797Y64203D02*
X356703D01*
Y64297D01*
X356797D01*
Y64203D01*
D02*
G37*
G36*
X357098Y64202D02*
X357002D01*
Y64298D01*
X357098D01*
Y64202D01*
D02*
G37*
G36*
X356899Y64201D02*
X356801D01*
Y64299D01*
X356899D01*
Y64201D01*
D02*
G37*
G36*
X356999Y64201D02*
X356901D01*
Y64299D01*
X356999D01*
Y64201D01*
D02*
G37*
G36*
X354100Y64200D02*
X354000D01*
Y64300D01*
X354100D01*
Y64200D01*
D02*
G37*
G36*
X354300Y64200D02*
X354200D01*
Y64300D01*
X354300D01*
Y64200D01*
D02*
G37*
G36*
X356898Y64102D02*
X356802D01*
Y64198D01*
X356898D01*
Y64102D01*
D02*
G37*
G36*
X357198Y64102D02*
X357102D01*
Y64198D01*
X357198D01*
Y64102D01*
D02*
G37*
G36*
X356999Y64101D02*
X356901D01*
Y64199D01*
X356999D01*
Y64101D01*
D02*
G37*
G36*
X357099Y64101D02*
X357001D01*
Y64199D01*
X357099D01*
Y64101D01*
D02*
G37*
G36*
X354100Y64100D02*
X354000D01*
Y64200D01*
X354100D01*
Y64100D01*
D02*
G37*
G36*
X354300Y64100D02*
X354200D01*
Y64200D01*
X354300D01*
Y64100D01*
D02*
G37*
G36*
X356998Y64002D02*
X356902D01*
Y64098D01*
X356998D01*
Y64002D01*
D02*
G37*
G36*
X357398Y64002D02*
X357302D01*
Y64098D01*
X357398D01*
Y64002D01*
D02*
G37*
G36*
X357098Y64002D02*
X357002D01*
Y64098D01*
X357098D01*
Y64002D01*
D02*
G37*
G36*
X357298Y64001D02*
X357202D01*
Y64099D01*
X357298D01*
Y64001D01*
D02*
G37*
G36*
X357199Y64001D02*
X357101D01*
Y64099D01*
X357199D01*
Y64001D01*
D02*
G37*
G36*
X354100Y64000D02*
X354000D01*
Y64100D01*
X354100D01*
Y64000D01*
D02*
G37*
G36*
X354300Y64000D02*
X354200D01*
Y64100D01*
X354300D01*
Y64000D01*
D02*
G37*
G36*
X357198Y63902D02*
X357102D01*
Y63998D01*
X357198D01*
Y63902D01*
D02*
G37*
G36*
X357498Y63902D02*
X357402D01*
Y63998D01*
X357498D01*
Y63902D01*
D02*
G37*
G36*
X357400Y63901D02*
X357300D01*
Y63999D01*
X357400D01*
Y63901D01*
D02*
G37*
G36*
X357299D02*
X357201D01*
Y63999D01*
X357299D01*
Y63901D01*
D02*
G37*
G36*
X354100Y63900D02*
X354000D01*
Y64000D01*
X354100D01*
Y63900D01*
D02*
G37*
G36*
X354300Y63900D02*
X354200D01*
Y64000D01*
X354300D01*
Y63900D01*
D02*
G37*
G36*
X357298Y63802D02*
X357202D01*
Y63898D01*
X357298D01*
Y63802D01*
D02*
G37*
G36*
X357599Y63801D02*
X357501D01*
Y63899D01*
X357599D01*
Y63801D01*
D02*
G37*
G36*
X354100Y63800D02*
X354000D01*
Y63900D01*
X354100D01*
Y63800D01*
D02*
G37*
G36*
X354300Y63800D02*
X354200D01*
Y63900D01*
X354300D01*
Y63800D01*
D02*
G37*
G36*
X357400Y63800D02*
X357300D01*
Y63900D01*
X357400D01*
Y63800D01*
D02*
G37*
G36*
X357798Y63702D02*
X357702D01*
Y63798D01*
X357798D01*
Y63702D01*
D02*
G37*
G36*
X357398Y63702D02*
X357302D01*
Y63798D01*
X357398D01*
Y63702D01*
D02*
G37*
G36*
X357699Y63700D02*
X357600D01*
Y63800D01*
X357699D01*
Y63700D01*
D02*
G37*
G36*
X354100Y63700D02*
X354000D01*
Y63800D01*
X354100D01*
Y63700D01*
D02*
G37*
G36*
X354300Y63700D02*
X354200D01*
Y63800D01*
X354300D01*
Y63700D01*
D02*
G37*
G36*
X357500Y63700D02*
X357400D01*
Y63800D01*
X357500D01*
Y63700D01*
D02*
G37*
G36*
X357498Y63602D02*
X357402D01*
Y63698D01*
X357498D01*
Y63602D01*
D02*
G37*
G36*
X357899Y63601D02*
X357801D01*
Y63699D01*
X357899D01*
Y63601D01*
D02*
G37*
G36*
X357600Y63600D02*
X357500D01*
Y63700D01*
X357600D01*
Y63600D01*
D02*
G37*
G36*
X354100Y63600D02*
X354000D01*
Y63700D01*
X354100D01*
Y63600D01*
D02*
G37*
G36*
X354300Y63600D02*
X354200D01*
Y63700D01*
X354300D01*
Y63600D01*
D02*
G37*
G36*
X358085Y63515D02*
X358015D01*
Y63585D01*
X358085D01*
Y63515D01*
D02*
G37*
G36*
X357700Y63500D02*
X357600D01*
Y63600D01*
X357700D01*
Y63500D01*
D02*
G37*
G36*
X354100D02*
X354000D01*
Y63600D01*
X354100D01*
Y63500D01*
D02*
G37*
G36*
X354300Y63500D02*
X354200D01*
Y63600D01*
X354300D01*
Y63500D01*
D02*
G37*
G36*
X358199Y63401D02*
X358101D01*
Y63499D01*
X358199D01*
Y63401D01*
D02*
G37*
G36*
X354100Y63400D02*
X354000D01*
Y63500D01*
X354100D01*
Y63400D01*
D02*
G37*
G36*
X354300Y63400D02*
X354200D01*
Y63500D01*
X354300D01*
Y63400D01*
D02*
G37*
G36*
X358298Y63302D02*
X358202D01*
Y63398D01*
X358298D01*
Y63302D01*
D02*
G37*
G36*
X354100Y63300D02*
X354000D01*
Y63400D01*
X354100D01*
Y63300D01*
D02*
G37*
G36*
X354300Y63300D02*
X354200D01*
Y63400D01*
X354300D01*
Y63300D01*
D02*
G37*
G36*
X357899Y63201D02*
X357801D01*
Y63299D01*
X357899D01*
Y63201D01*
D02*
G37*
G36*
X354100Y63200D02*
X354000D01*
Y63300D01*
X354100D01*
Y63200D01*
D02*
G37*
G36*
X354300Y63200D02*
X354200D01*
Y63300D01*
X354300D01*
Y63200D01*
D02*
G37*
G36*
X354100Y63100D02*
X354000D01*
Y63200D01*
X354100D01*
Y63100D01*
D02*
G37*
G36*
X354300Y63100D02*
X354200D01*
Y63200D01*
X354300D01*
Y63100D01*
D02*
G37*
G36*
X354100Y63000D02*
X354000D01*
Y63100D01*
X354100D01*
Y63000D01*
D02*
G37*
G36*
X354300Y63000D02*
X354200D01*
Y63100D01*
X354300D01*
Y63000D01*
D02*
G37*
G36*
X358299Y62901D02*
X358201D01*
Y62999D01*
X358299D01*
Y62901D01*
D02*
G37*
G36*
X354100Y62900D02*
X354000D01*
Y63000D01*
X354100D01*
Y62900D01*
D02*
G37*
G36*
X354300Y62900D02*
X354200D01*
Y63000D01*
X354300D01*
Y62900D01*
D02*
G37*
G36*
X354400Y63700D02*
Y63600D01*
Y63500D01*
Y63400D01*
Y63300D01*
Y63200D01*
Y63100D01*
Y63000D01*
Y62900D01*
X354300D01*
Y63000D01*
Y63100D01*
Y63200D01*
Y63300D01*
Y63400D01*
Y63500D01*
Y63600D01*
Y63700D01*
Y63800D01*
X354400D01*
Y63700D01*
D02*
G37*
G36*
X354100Y62800D02*
X354000D01*
Y62900D01*
X354100D01*
Y62800D01*
D02*
G37*
G36*
X354300Y62800D02*
X354200D01*
Y62900D01*
X354300D01*
Y62800D01*
D02*
G37*
G36*
X354100Y62700D02*
X354000D01*
Y62800D01*
X354100D01*
Y62700D01*
D02*
G37*
G36*
X354300Y62700D02*
X354200D01*
Y62800D01*
X354300D01*
Y62700D01*
D02*
G37*
G36*
X358097Y62603D02*
X358003D01*
Y62697D01*
X358097D01*
Y62603D01*
D02*
G37*
G36*
X354100Y62600D02*
X354000D01*
Y62700D01*
X354100D01*
Y62600D01*
D02*
G37*
G36*
X354300Y62600D02*
X354200D01*
Y62700D01*
X354300D01*
Y62600D01*
D02*
G37*
G36*
X354100Y62500D02*
X354000D01*
Y62600D01*
X354100D01*
Y62500D01*
D02*
G37*
G36*
X354300Y62500D02*
X354200D01*
Y62600D01*
X354300D01*
Y62500D01*
D02*
G37*
G36*
X357499Y62401D02*
X357401D01*
Y62499D01*
X357499D01*
Y62401D01*
D02*
G37*
G36*
X354100Y62400D02*
X354000D01*
Y62500D01*
X354100D01*
Y62400D01*
D02*
G37*
G36*
X354300Y62400D02*
X354200D01*
Y62500D01*
X354300D01*
Y62400D01*
D02*
G37*
G36*
X354100Y62300D02*
X354000D01*
Y62400D01*
X354100D01*
Y62300D01*
D02*
G37*
G36*
X354300Y62300D02*
X354200D01*
Y62400D01*
X354300D01*
Y62300D01*
D02*
G37*
G36*
X354100Y62200D02*
X354000D01*
Y62300D01*
X354100D01*
Y62200D01*
D02*
G37*
G36*
X354300Y62200D02*
X354200D01*
Y62300D01*
X354300D01*
Y62200D01*
D02*
G37*
G36*
X357799Y62101D02*
X357701D01*
Y62199D01*
X357799D01*
Y62101D01*
D02*
G37*
G36*
X357500Y62100D02*
X357400D01*
Y62199D01*
X357500D01*
Y62100D01*
D02*
G37*
G36*
X354100Y62100D02*
X354000D01*
Y62200D01*
X354100D01*
Y62100D01*
D02*
G37*
G36*
X354300Y62100D02*
X354200D01*
Y62200D01*
X354300D01*
Y62100D01*
D02*
G37*
G36*
X357500Y63800D02*
X357600D01*
Y63700D01*
X357800D01*
Y63600D01*
X357900D01*
Y63700D01*
X357800D01*
Y63800D01*
X357900D01*
Y63700D01*
X358000D01*
Y63600D01*
Y63500D01*
X358100D01*
Y63400D01*
X358200D01*
Y63300D01*
X358300D01*
Y63200D01*
Y63100D01*
Y63000D01*
X358200D01*
Y62900D01*
Y62800D01*
X358100D01*
Y62700D01*
X358000D01*
Y62600D01*
Y62500D01*
X357900D01*
Y62400D01*
X357800D01*
Y62300D01*
Y62200D01*
X357700D01*
Y62100D01*
X357500D01*
Y62200D01*
X357400D01*
Y62300D01*
Y62400D01*
X357500D01*
Y62500D01*
Y62600D01*
Y62700D01*
X357600D01*
Y62800D01*
Y62900D01*
X357700D01*
Y63000D01*
X357800D01*
Y63100D01*
Y63200D01*
X357900D01*
Y63300D01*
X357800D01*
Y63400D01*
X357700D01*
Y63500D01*
Y63600D01*
X357600D01*
Y63700D01*
X357500D01*
Y63800D01*
X357400D01*
Y63900D01*
X357500D01*
Y63800D01*
D02*
G37*
G36*
X357497Y62003D02*
X357403D01*
Y62097D01*
X357497D01*
Y62003D01*
D02*
G37*
G36*
X357699Y62001D02*
X357601D01*
Y62099D01*
X357699D01*
Y62001D01*
D02*
G37*
G36*
X354100Y62000D02*
X354000D01*
Y62100D01*
X354100D01*
Y62000D01*
D02*
G37*
G36*
X354300Y62000D02*
X354200D01*
Y62100D01*
X354300D01*
Y62000D01*
D02*
G37*
G36*
X357600Y62000D02*
X357500D01*
Y62100D01*
X357600D01*
Y62000D01*
D02*
G37*
G36*
X357493Y61906D02*
X357406D01*
Y61993D01*
X357493D01*
Y61906D01*
D02*
G37*
G36*
X357595Y61905D02*
X357505D01*
Y61995D01*
X357595D01*
Y61905D01*
D02*
G37*
G36*
X357695Y61905D02*
X357605D01*
Y61995D01*
X357695D01*
Y61905D01*
D02*
G37*
G36*
X354100Y61900D02*
X354000D01*
Y62000D01*
X354100D01*
Y61900D01*
D02*
G37*
G36*
X354300Y61900D02*
X354200D01*
Y62000D01*
X354300D01*
Y61900D01*
D02*
G37*
G36*
X357591Y61809D02*
X357509D01*
Y61891D01*
X357591D01*
Y61809D01*
D02*
G37*
G36*
X354100Y61800D02*
X354000D01*
Y61900D01*
X354100D01*
Y61800D01*
D02*
G37*
G36*
X354300Y61800D02*
X354200D01*
Y61900D01*
X354300D01*
Y61800D01*
D02*
G37*
G36*
X354100Y61700D02*
X354000D01*
Y61800D01*
X354100D01*
Y61700D01*
D02*
G37*
G36*
X354300Y61700D02*
X354200D01*
Y61800D01*
X354300D01*
Y61700D01*
D02*
G37*
G36*
X354299Y61601D02*
X354201D01*
Y61699D01*
X354299D01*
Y61601D01*
D02*
G37*
G36*
X354100Y61600D02*
X354000D01*
Y61700D01*
X354100D01*
Y61600D01*
D02*
G37*
G36*
X354299Y61501D02*
X354201D01*
Y61599D01*
X354299D01*
Y61501D01*
D02*
G37*
G36*
X354100Y61500D02*
X354000D01*
Y61600D01*
X354100D01*
Y61500D01*
D02*
G37*
G36*
X354299Y61401D02*
X354201D01*
Y61499D01*
X354299D01*
Y61401D01*
D02*
G37*
G36*
X354100Y61400D02*
X354000D01*
Y61500D01*
X354100D01*
Y61400D01*
D02*
G37*
G36*
X354299Y61301D02*
X354201D01*
Y61399D01*
X354299D01*
Y61301D01*
D02*
G37*
G36*
X353996Y61203D02*
X353904D01*
Y61296D01*
X353996D01*
Y61203D01*
D02*
G37*
G36*
X354299Y61200D02*
X354201D01*
Y61300D01*
X354299D01*
Y61200D01*
D02*
G37*
G36*
X353996Y61103D02*
X353904D01*
Y61197D01*
X353996D01*
Y61103D01*
D02*
G37*
G36*
X354299Y61101D02*
X354201D01*
Y61199D01*
X354299D01*
Y61101D01*
D02*
G37*
G36*
X353997Y61003D02*
X353903D01*
Y61097D01*
X353997D01*
Y61003D01*
D02*
G37*
G36*
X354299Y61001D02*
X354201D01*
Y61099D01*
X354299D01*
Y61001D01*
D02*
G37*
G36*
X353998Y60902D02*
X353902D01*
Y60998D01*
X353998D01*
Y60902D01*
D02*
G37*
G36*
X354299Y60900D02*
X354201D01*
Y61000D01*
X354299D01*
Y60900D01*
D02*
G37*
G36*
X353999Y60801D02*
X353901D01*
Y60899D01*
X353999D01*
Y60801D01*
D02*
G37*
G36*
X354299Y60800D02*
X354201D01*
Y60900D01*
X354299D01*
Y60800D01*
D02*
G37*
G36*
X353999Y60701D02*
X353901D01*
Y60799D01*
X353999D01*
Y60701D01*
D02*
G37*
G36*
X354300Y60700D02*
X354200D01*
Y60800D01*
X354300D01*
Y60700D01*
D02*
G37*
G36*
X353598Y60602D02*
X353502D01*
Y60698D01*
X353598D01*
Y60602D01*
D02*
G37*
G36*
X353699Y60601D02*
X353601D01*
Y60699D01*
X353699D01*
Y60601D01*
D02*
G37*
G36*
X353298Y60502D02*
X353202D01*
Y60598D01*
X353298D01*
Y60502D01*
D02*
G37*
G36*
X354299Y60501D02*
X354201D01*
Y60599D01*
X354299D01*
Y60501D01*
D02*
G37*
G36*
X354295Y60405D02*
X354205D01*
Y60495D01*
X354295D01*
Y60405D01*
D02*
G37*
G36*
X353097Y60403D02*
X353003D01*
Y60497D01*
X353097D01*
Y60403D01*
D02*
G37*
G36*
X353199Y60401D02*
X353101D01*
Y60499D01*
X353199D01*
Y60401D01*
D02*
G37*
G36*
X352995Y60305D02*
X352905D01*
Y60395D01*
X352995D01*
Y60305D01*
D02*
G37*
G36*
X354098Y60302D02*
X354002D01*
Y60398D01*
X354098D01*
Y60302D01*
D02*
G37*
G36*
X353098Y60302D02*
X353002D01*
Y60398D01*
X353098D01*
Y60302D01*
D02*
G37*
G36*
X353999Y60301D02*
X353901D01*
Y60399D01*
X353999D01*
Y60301D01*
D02*
G37*
G36*
X353699Y60301D02*
X353601D01*
Y60399D01*
X353699D01*
Y60301D01*
D02*
G37*
G36*
X353899Y60301D02*
X353801D01*
Y60399D01*
X353899D01*
Y60301D01*
D02*
G37*
G36*
X353799D02*
X353701D01*
Y60399D01*
X353799D01*
Y60301D01*
D02*
G37*
G36*
X353600Y60300D02*
X353500D01*
Y60400D01*
X353600D01*
Y60300D01*
D02*
G37*
G36*
X352890Y60210D02*
X352810D01*
Y60290D01*
X352890D01*
Y60210D01*
D02*
G37*
G36*
X352994Y60206D02*
X352906D01*
Y60294D01*
X352994D01*
Y60206D01*
D02*
G37*
G36*
X353097Y60203D02*
X353003D01*
Y60297D01*
X353097D01*
Y60203D01*
D02*
G37*
G36*
X353199Y60201D02*
X353101D01*
Y60299D01*
X353199D01*
Y60201D01*
D02*
G37*
G36*
X353299Y60201D02*
X353201D01*
Y60299D01*
X353299D01*
Y60201D01*
D02*
G37*
G36*
X352888Y60113D02*
X352813D01*
Y60188D01*
X352888D01*
Y60113D01*
D02*
G37*
G36*
X352994Y60106D02*
X352906D01*
Y60194D01*
X352994D01*
Y60106D01*
D02*
G37*
%LPC*%
G36*
X351400Y91300D02*
X351300D01*
Y91200D01*
X351400D01*
Y91300D01*
D02*
G37*
G36*
X351700Y91800D02*
X351600D01*
Y91700D01*
X351500D01*
Y91600D01*
Y91500D01*
X351400D01*
Y91400D01*
X351500D01*
Y91300D01*
Y91200D01*
Y91100D01*
X351700D01*
Y91000D01*
X351800D01*
Y91100D01*
X352000D01*
Y91200D01*
X352100D01*
Y91300D01*
Y91400D01*
X352200D01*
Y91500D01*
Y91600D01*
X352100D01*
Y91700D01*
X351800D01*
Y91600D01*
X351700D01*
Y91700D01*
Y91800D01*
D02*
G37*
%LPD*%
G36*
X351400Y91200D02*
X351300D01*
Y91300D01*
X351400D01*
Y91200D01*
D02*
G37*
G36*
X351700Y91700D02*
X351600D01*
Y91800D01*
X351700D01*
Y91700D01*
D02*
G37*
G36*
X351688Y91512D02*
X351612D01*
Y91588D01*
X351688D01*
Y91512D01*
D02*
G37*
G36*
X351600Y91500D02*
X351500D01*
Y91600D01*
X351600D01*
Y91500D01*
D02*
G37*
G36*
X352100Y91500D02*
X352000D01*
Y91600D01*
X352100D01*
Y91500D01*
D02*
G37*
G36*
X351591Y91409D02*
X351509D01*
Y91491D01*
X351591D01*
Y91409D01*
D02*
G37*
G36*
X351500Y91400D02*
X351400D01*
Y91500D01*
X351500D01*
Y91400D01*
D02*
G37*
G36*
X351587Y91313D02*
X351513D01*
Y91387D01*
X351587D01*
Y91313D01*
D02*
G37*
G36*
X351590Y91210D02*
X351510D01*
Y91290D01*
X351590D01*
Y91210D01*
D02*
G37*
G36*
X351777Y91123D02*
X351723D01*
Y91177D01*
X351777D01*
Y91123D01*
D02*
G37*
G36*
X351880Y91120D02*
X351820D01*
Y91180D01*
X351880D01*
Y91120D01*
D02*
G37*
G36*
X351686Y91114D02*
X351614D01*
Y91186D01*
X351686D01*
Y91114D01*
D02*
G37*
G36*
X351991Y91109D02*
X351909D01*
Y91191D01*
X351991D01*
Y91109D01*
D02*
G37*
G36*
X351599Y91101D02*
X351501D01*
Y91199D01*
X351599D01*
Y91101D01*
D02*
G37*
G36*
X351799Y91001D02*
X351701D01*
Y91098D01*
X351799D01*
Y91001D01*
D02*
G37*
%LPC*%
G36*
X348900Y90900D02*
X348800D01*
Y90800D01*
X348900D01*
Y90700D01*
X349000D01*
Y90600D01*
X349100D01*
Y90700D01*
X349000D01*
Y90800D01*
X348900D01*
Y90900D01*
D02*
G37*
%LPD*%
G36*
X348898Y90802D02*
X348802D01*
Y90898D01*
X348898D01*
Y90802D01*
D02*
G37*
G36*
X348998Y90702D02*
X348902D01*
Y90798D01*
X348998D01*
Y90702D01*
D02*
G37*
G36*
X349099Y90601D02*
X349001D01*
Y90699D01*
X349099D01*
Y90601D01*
D02*
G37*
D10*
X335492Y259844D02*
G03*
X335492Y259844I-492J0D01*
G01*
X192059Y161583D02*
G03*
X192059Y161583I-492J0D01*
G01*
X4035Y60453D02*
G03*
X4035Y60453I-492J0D01*
G01*
X88111Y99154D02*
G03*
X88111Y99154I-492J0D01*
G01*
X39584Y208703D02*
G03*
X39584Y208703I-492J0D01*
G01*
X17743Y220398D02*
G03*
X17743Y220398I-492J0D01*
G01*
X37138Y155841D02*
G03*
X37138Y155841I-492J0D01*
G01*
Y201500D02*
G03*
X37138Y201500I-492J0D01*
G01*
X187429Y118895D02*
G03*
X187429Y118895I-492J0D01*
G01*
X274776Y251847D02*
G03*
X274776Y251847I-492J0D01*
G01*
D11*
X137894Y73791D02*
G03*
X137894Y73791I-394J0D01*
G01*
X56425Y179654D02*
X59575D01*
X51425Y190854D02*
X54575D01*
X231840Y108914D02*
Y113914D01*
X86032Y206441D02*
Y211559D01*
Y206441D02*
X89969D01*
X86032Y211559D02*
X89969D01*
X86032Y215441D02*
Y220559D01*
Y215441D02*
X89969D01*
X86032Y220559D02*
X89969D01*
X211441Y96925D02*
X216559D01*
Y100862D01*
X211441Y96925D02*
Y100862D01*
X152004Y66327D02*
X157122D01*
X152004Y62390D02*
Y66327D01*
X157122Y62390D02*
Y66327D01*
X85390Y192441D02*
Y197559D01*
Y192441D02*
X89327D01*
X85390Y197559D02*
X89327D01*
X249031Y25441D02*
Y30559D01*
Y25441D02*
X252969D01*
X249031Y30559D02*
X252969D01*
X59257Y169776D02*
X59985D01*
X59257Y169048D02*
Y169776D01*
Y154224D02*
X59985D01*
X59257D02*
Y154953D01*
X78744Y154224D02*
Y154953D01*
X78016Y154224D02*
X78744D01*
X78016Y169776D02*
X78744D01*
Y167079D02*
Y169776D01*
X326500Y245000D02*
X331500D01*
X162236Y155874D02*
X191764D01*
X162236Y140126D02*
X191764D01*
Y155874D01*
X162236Y140126D02*
Y155874D01*
X40000Y30748D02*
X44252D01*
X5748Y69252D02*
X44252D01*
Y30748D02*
Y69252D01*
X5748Y30748D02*
X10000D01*
X5748D02*
Y69252D01*
X262893Y104709D02*
X264559D01*
Y93291D02*
Y96386D01*
Y101614D02*
Y104709D01*
X262893Y93291D02*
X264559D01*
X259441Y97874D02*
Y100126D01*
X237500Y61000D02*
X242500D01*
X227500D02*
X232500D01*
X217500D02*
X222500D01*
X207500D02*
X212500D01*
X244500Y170495D02*
X249500D01*
X106409Y179705D02*
X267590D01*
X106409D02*
Y190295D01*
X267590D01*
Y179705D02*
Y190295D01*
X91654Y73169D02*
Y87736D01*
X65276Y73169D02*
X69508D01*
X87422D02*
X91654D01*
X65276D02*
Y87736D01*
X73839D02*
X74036D01*
X82894D02*
X83091D01*
X262247Y238500D02*
X267247D01*
X201021Y131917D02*
Y136917D01*
X244500Y199000D02*
X249500D01*
X236500D02*
X241500D01*
X211500D02*
X216500D01*
X203500D02*
X208500D01*
X190441Y193291D02*
X192107D01*
X190441Y201614D02*
Y204709D01*
Y193291D02*
Y196386D01*
Y204709D02*
X192107D01*
X195559Y197874D02*
Y200126D01*
X111000Y157374D02*
Y160524D01*
X108425Y138486D02*
X111575D01*
X59075Y206932D02*
X64075D01*
X67500Y215000D02*
X72500D01*
X99500Y204654D02*
X104500D01*
X72425Y182346D02*
X75575D01*
X67425D02*
X70575D01*
X62425D02*
X65575D01*
X51425Y180146D02*
X54575D01*
X47881Y210672D02*
X48298D01*
X47881Y199254D02*
Y210672D01*
Y199254D02*
X48298D01*
Y210672D01*
X43654Y179500D02*
Y184500D01*
X88346Y166425D02*
Y169575D01*
Y160425D02*
Y163575D01*
Y154425D02*
Y157575D01*
X81425Y142347D02*
X84575D01*
X86425D02*
X89575D01*
X91425D02*
X94575D01*
X86000Y183425D02*
Y186575D01*
Y178425D02*
Y181575D01*
X68425Y143854D02*
X71575D01*
X63425D02*
X66575D01*
X58425D02*
X61575D01*
X51425Y157994D02*
X54575D01*
X45425D02*
X48575D01*
X39425D02*
X42575D01*
X45425Y144687D02*
X48575D01*
X51425D02*
X54575D01*
X39425D02*
X42575D01*
X83815Y114500D02*
Y119500D01*
X260500Y40000D02*
X265500D01*
X104173Y93118D02*
X121988D01*
X104173Y86622D02*
Y93118D01*
Y71465D02*
Y77961D01*
Y71465D02*
X121988D01*
X125827Y86622D02*
Y89280D01*
X121988Y93118D02*
X125827Y89280D01*
X121988Y71465D02*
X125827Y75303D01*
Y77961D01*
X83815Y102339D02*
Y107339D01*
X111000Y163374D02*
Y166524D01*
X166720Y55500D02*
Y60500D01*
X169339Y85571D02*
X174339D01*
X160500D02*
X165500D01*
X199500Y107653D02*
X204500D01*
X175500Y102595D02*
X180500D01*
X167500Y102595D02*
X172500D01*
X133973Y105875D02*
X138972D01*
X141390Y105875D02*
X146390D01*
X149669Y105875D02*
X154669D01*
X160500Y102595D02*
X165500D01*
X177500Y197882D02*
X182500D01*
X169500D02*
X174500D01*
X153480D02*
X158480D01*
X108425Y149917D02*
X111575D01*
X278874Y185559D02*
X281126D01*
X274291Y180441D02*
Y182107D01*
X282614Y180441D02*
X285709D01*
X274291D02*
X277386D01*
X285709D02*
Y182107D01*
X44717Y231913D02*
Y246087D01*
X40780Y231913D02*
X44717D01*
X40780Y246087D02*
X44717D01*
X9284Y231913D02*
X13220D01*
X9284D02*
Y246087D01*
X13220D01*
X161500Y197882D02*
X166500D01*
X121000Y98791D02*
Y103791D01*
X5040Y163455D02*
X34961D01*
Y159518D02*
Y163455D01*
X5040Y140226D02*
Y163455D01*
X5040Y140226D02*
X34962D01*
X34961Y140226D02*
Y144163D01*
X5040Y209114D02*
X34961D01*
Y205177D02*
Y209114D01*
X5040Y185886D02*
Y209114D01*
X5040Y185885D02*
X34962D01*
X34961Y185886D02*
Y189823D01*
X190224Y117162D02*
X193433D01*
Y114564D02*
Y117162D01*
X190224Y105666D02*
X193433D01*
Y108265D01*
X9858Y128874D02*
Y131126D01*
X13310Y124291D02*
X14976D01*
Y132614D02*
Y135709D01*
Y124291D02*
Y127386D01*
X13310Y135709D02*
X14976D01*
X279795Y210331D02*
Y251669D01*
X304205Y210331D02*
Y251669D01*
X279795D02*
X304205D01*
X279795Y210331D02*
X304205D01*
X366000Y14000D02*
Y24000D01*
X276000Y14000D02*
X366000D01*
X276000D02*
Y24000D01*
X366000D01*
X228559Y197874D02*
Y200126D01*
X223441Y204709D02*
X225107D01*
X223441Y193291D02*
Y196386D01*
Y201614D02*
Y204709D01*
Y193291D02*
X225107D01*
D12*
X189008Y151937D02*
G03*
X189008Y151937I-1181J0D01*
G01*
X284913Y247732D02*
G03*
X284913Y247732I-1181J0D01*
G01*
D13*
X51622Y99000D02*
G03*
X51622Y99000I-23622J0D01*
G01*
X136929Y92362D02*
X138764D01*
X153071Y90527D02*
Y92362D01*
X136929Y76221D02*
Y78055D01*
X153071Y76221D02*
Y78055D01*
X151236Y92362D02*
X153071D01*
X136929Y90527D02*
Y92362D01*
Y76221D02*
X138764D01*
X151236D02*
X153071D01*
X96575Y246344D02*
X97517Y245402D01*
Y244459D01*
X96575D01*
X95632Y245402D01*
X96339Y244695D01*
X97282Y245637D01*
X95161Y244930D02*
X96575Y243517D01*
X95868Y242810D01*
X95397D01*
X94925Y243281D01*
Y243752D01*
X95632Y244459D01*
X95161Y243988D02*
X94218D01*
Y241160D02*
X95161Y242103D01*
X93747Y243517D01*
X92805Y242574D01*
X94454Y242810D02*
X93983Y242338D01*
X92805Y239746D02*
X93747Y240689D01*
X93040Y241396D01*
X92569Y240925D01*
X93040Y241396D01*
X92334Y242103D01*
X76810Y244223D02*
X77282D01*
X77753Y244695D01*
X77753Y245166D01*
X77517Y245402D01*
X77046Y245402D01*
X76575Y244930D01*
X76104Y244930D01*
X75868Y245166D01*
X75868Y245637D01*
X76339Y246108D01*
X76810D01*
X75397Y242810D02*
X75868D01*
X76339Y243281D01*
X76339Y243752D01*
X75397Y244695D01*
X74925D01*
X74454Y244223D01*
Y243752D01*
X75161Y242103D02*
X73747Y243517D01*
X72805Y242574D01*
X106810Y244223D02*
X107282D01*
X107753Y244695D01*
X107753Y245166D01*
X106810Y246108D01*
X106339D01*
X105868Y245637D01*
X105868Y245166D01*
X106339Y244695D01*
X106810Y245166D01*
X105161Y244930D02*
X106575Y243517D01*
X104218Y243988D01*
X105632Y242574D01*
X105161Y242103D02*
X103747Y243517D01*
X103040Y242810D01*
X103040Y242338D01*
X103983Y241396D01*
X104454D01*
X105161Y242103D01*
X117989Y244930D02*
X117517Y244459D01*
X117753Y244695D01*
X116339Y246108D01*
X116575Y246344D01*
X116103Y245873D01*
X116103Y243045D02*
X116575Y243517D01*
X116575Y243988D01*
X115632Y244930D01*
X115161D01*
X114690Y244459D01*
Y243988D01*
X115632Y243045D01*
X116103D01*
X113983Y243752D02*
X113512Y243281D01*
X113747Y243517D01*
X115161Y242103D01*
X115161Y242574D01*
X113983Y241396D02*
Y240925D01*
X113512Y240453D01*
X113040D01*
X112805Y240689D01*
Y241160D01*
X113040Y241396D01*
X112805Y241160D01*
X112334Y241160D01*
X112098Y241396D01*
X112098Y241867D01*
X112569Y242338D01*
X113040D01*
X127989Y244930D02*
X127517Y244459D01*
X127753Y244695D01*
X126339Y246108D01*
X126575Y246344D01*
X126103Y245873D01*
X126103Y243045D02*
X126575Y243517D01*
X126575Y243988D01*
X125632Y244930D01*
X125161D01*
X124690Y244459D01*
Y243988D01*
X125632Y243045D01*
X126103D01*
X123983Y243752D02*
X123512Y243281D01*
X123747Y243517D01*
X125161Y242103D01*
X125161Y242574D01*
X121862Y241632D02*
X122805Y242574D01*
Y240689D01*
X123040Y240453D01*
X123512D01*
X123983Y240925D01*
Y241396D01*
X137989Y244930D02*
X137517Y244459D01*
X137753Y244695D01*
X136339Y246108D01*
X136575Y246344D01*
X136103Y245873D01*
X136103Y243045D02*
X136575Y243517D01*
X136575Y243988D01*
X135632Y244930D01*
X135161D01*
X134690Y244459D01*
Y243988D01*
X135632Y243045D01*
X136103D01*
X133983Y243752D02*
X133512Y243281D01*
X133747Y243517D01*
X135161Y242103D01*
X135161Y242574D01*
X132805D02*
X132334Y242103D01*
X132569Y242338D01*
X133983Y240925D01*
Y241396D01*
X131391Y238804D02*
X131391Y238333D01*
X130920Y237861D01*
X130920Y237390D01*
X147989Y245637D02*
X147517Y245166D01*
X147753Y245402D01*
X146339Y246815D01*
X146575Y247051D01*
X146104Y246580D01*
X146104Y243752D02*
X146575Y244224D01*
X146575Y244695D01*
X145632Y245637D01*
X145161D01*
X144690Y245166D01*
Y244695D01*
X145632Y243752D01*
X146104D01*
X143983Y244459D02*
X143512Y243988D01*
X143747Y244224D01*
X145161Y242810D01*
X145161Y243281D01*
X143983Y242103D02*
Y241632D01*
X143512Y241160D01*
X143040D01*
X142098Y242103D01*
X142098Y242574D01*
X142569Y243045D01*
X143040D01*
X143983Y242103D01*
X141155Y239276D02*
X141155Y238804D01*
X140684Y238333D01*
X140684Y237862D01*
X157989Y245637D02*
X157517Y245166D01*
X157753Y245402D01*
X156339Y246815D01*
X156575Y247051D01*
X156104Y246580D01*
X156104Y243752D02*
X156575Y244224D01*
X156575Y244695D01*
X155632Y245637D01*
X155161D01*
X154690Y245166D01*
Y244695D01*
X155632Y243752D01*
X156104D01*
X154218Y244224D02*
X153747D01*
X153276Y243752D01*
X153276Y243281D01*
X154218Y242339D01*
X154690D01*
X155161Y242810D01*
X155161Y243281D01*
X154925Y243517D01*
X154454Y243517D01*
X153747Y242810D01*
X152333Y240454D02*
X152333Y239982D01*
X151862Y239511D01*
X151862Y239040D01*
X167989Y245637D02*
X167517Y245166D01*
X167753Y245402D01*
X166339Y246815D01*
X166575Y247051D01*
X166103Y246580D01*
X166103Y243752D02*
X166575Y244224D01*
X166575Y244695D01*
X165632Y245637D01*
X165161D01*
X164690Y245166D01*
Y244695D01*
X165632Y243752D01*
X166103D01*
X165161Y243281D02*
X165161Y242810D01*
X164690Y242339D01*
X164218D01*
X163983Y242574D01*
Y243045D01*
X163512Y243045D01*
X163276Y243281D01*
X163276Y243752D01*
X163747Y244224D01*
X164218D01*
X164454Y243988D01*
Y243517D01*
X164925Y243517D01*
X165161Y243281D01*
X164454Y243517D02*
X163983Y243045D01*
X86810Y244723D02*
X87282D01*
X87753Y245195D01*
X87753Y245666D01*
X87517Y245902D01*
X87046Y245902D01*
X86575Y245430D01*
X86103Y245430D01*
X85868Y245666D01*
X85868Y246137D01*
X86339Y246608D01*
X86810D01*
X86575Y244017D02*
X85161Y245430D01*
X84454Y244723D01*
Y244252D01*
X85397Y243310D01*
X85868D01*
X86575Y244017D01*
X83747D02*
X84690Y243074D01*
Y242132D01*
X83747D01*
X82805Y243074D01*
X83512Y242367D01*
X84454Y243310D01*
X118086Y50121D02*
X118558Y50592D01*
X118322Y50357D01*
X119736Y48943D01*
X119500Y48707D01*
X119971Y49178D01*
X119971Y52006D02*
X119500Y51535D01*
X119500Y51063D01*
X120442Y50121D01*
X120914D01*
X121385Y50592D01*
Y51063D01*
X120442Y52006D01*
X119971D01*
X122092Y51299D02*
X120678Y52713D01*
X121385Y53420D01*
X121856D01*
X122327Y52948D01*
Y52477D01*
X121621Y51770D01*
X122092Y52241D02*
X123034D01*
Y55069D02*
X122092Y54127D01*
X123506Y52713D01*
X124448Y53655D01*
X122799Y53420D02*
X123270Y53891D01*
X124448Y56483D02*
X123506Y55540D01*
X124213Y54833D01*
X124684Y55305D01*
X124213Y54833D01*
X124919Y54127D01*
X130000Y48707D02*
X128586Y50121D01*
X129293Y50828D01*
X129764D01*
X130236Y50357D01*
X130236Y49885D01*
X129529Y49178D01*
X130000Y49650D02*
X130942D01*
Y52477D02*
X130000Y51535D01*
X131414Y50121D01*
X132356Y51063D01*
X130707Y50828D02*
X131178Y51299D01*
X132592Y53655D02*
X132121D01*
X131649Y53184D01*
Y52713D01*
X131885Y52477D01*
X132356Y52477D01*
X132827Y52948D01*
X133299Y52948D01*
X133534Y52713D01*
X133534Y52241D01*
X133063Y51770D01*
X132592D01*
X133770Y55305D02*
X132827Y54362D01*
X134241Y52948D01*
X135184Y53891D01*
X133534Y53655D02*
X134006Y54127D01*
X134241Y55776D02*
X135184Y56718D01*
X134713Y56247D01*
X136126Y54833D01*
X138822Y49885D02*
X138822Y50357D01*
X139293Y50828D01*
X139764D01*
X140000Y50592D01*
Y50121D01*
X139764Y49885D01*
X140000Y50121D01*
X140471Y50121D01*
X140707Y49885D01*
X140707Y49414D01*
X140236Y48943D01*
X139764D01*
X140471Y51063D02*
X141885Y50592D01*
X141414Y52006D01*
X141649Y52713D02*
Y53184D01*
X142121Y53655D01*
X142592D01*
X142827Y53420D01*
Y52948D01*
X142592Y52713D01*
X142827Y52948D01*
X143299Y52948D01*
X143534Y52713D01*
X143534Y52241D01*
X143063Y51770D01*
X142592D01*
X149529Y51063D02*
X148586Y50121D01*
X149293Y49414D01*
X149529Y50121D01*
X149764Y50357D01*
X150236D01*
X150707Y49885D01*
X150707Y49414D01*
X150236Y48943D01*
X149764D01*
X150471Y51063D02*
X151885Y50592D01*
X151414Y52006D01*
X159764Y50828D02*
X159293D01*
X158822Y50357D01*
X158822Y49885D01*
X159764Y48943D01*
X160236D01*
X160707Y49414D01*
X160707Y49885D01*
X160236Y50357D01*
X159764Y49885D01*
X161414Y50121D02*
X160000Y51535D01*
X162356Y51063D01*
X160942Y52477D01*
X161414Y52948D02*
X162828Y51535D01*
X163534Y52241D01*
X163534Y52713D01*
X162592Y53655D01*
X162121D01*
X161414Y52948D01*
X169764Y50828D02*
X169293D01*
X168822Y50357D01*
X168822Y49885D01*
X169764Y48943D01*
X170236D01*
X170707Y49414D01*
X170707Y49885D01*
X170236Y50357D01*
X169764Y49885D01*
X171414Y50121D02*
X170000Y51535D01*
X172356Y51063D01*
X170942Y52477D01*
X171414Y52948D02*
X172827Y51535D01*
X173534Y52241D01*
X173534Y52713D01*
X172592Y53655D01*
X172121D01*
X171414Y52948D01*
X178586Y50121D02*
X179529Y49178D01*
X180471D01*
Y50121D01*
X179529Y51063D01*
X181414Y50121D02*
X181885Y50592D01*
X181649Y50357D01*
X180707Y51299D01*
X180471Y51063D01*
X182592Y51299D02*
X181649Y52241D01*
X182356Y52948D01*
X182827D01*
X183534Y52241D01*
X200000Y48707D02*
X199057Y49650D01*
Y50592D01*
X200000D01*
X200942Y49650D01*
X200236Y50357D01*
X199293Y49414D01*
X200000Y51535D02*
X201414Y50121D01*
X202121Y50828D01*
Y51299D01*
X201178Y52241D01*
X200707D01*
X200000Y51535D01*
X201649Y52713D02*
Y53184D01*
X202121Y53655D01*
X202592D01*
X203534Y52713D01*
X203534Y52241D01*
X203063Y51770D01*
X202592D01*
X201649Y52713D01*
X210000Y48707D02*
X209057Y49650D01*
Y50592D01*
X210000D01*
X210943Y49650D01*
X210236Y50357D01*
X209293Y49414D01*
X210000Y51535D02*
X211414Y50121D01*
X212121Y50828D01*
Y51299D01*
X211178Y52241D01*
X210707D01*
X210000Y51535D01*
X212827D02*
X213299Y52006D01*
X213063Y51770D01*
X211649Y53184D01*
Y52713D01*
X220000Y48707D02*
X219057Y49650D01*
Y50592D01*
X220000D01*
X220942Y49650D01*
X220236Y50357D01*
X219293Y49414D01*
X220000Y51535D02*
X221414Y50121D01*
X222121Y50828D01*
Y51299D01*
X221178Y52241D01*
X220707D01*
X220000Y51535D01*
X223770Y52477D02*
X222828Y51535D01*
Y53420D01*
X222592Y53655D01*
X222121D01*
X221649Y53184D01*
Y52713D01*
X230000Y48707D02*
X229058Y49650D01*
Y50592D01*
X230000D01*
X230943Y49650D01*
X230236Y50357D01*
X229293Y49414D01*
X230000Y51535D02*
X231414Y50121D01*
X232121Y50828D01*
Y51299D01*
X231178Y52241D01*
X230707D01*
X230000Y51535D01*
X231649Y52713D02*
Y53184D01*
X232121Y53655D01*
X232592D01*
X232827Y53420D01*
Y52948D01*
X232592Y52713D01*
X232827Y52948D01*
X233299Y52948D01*
X233534Y52713D01*
X233534Y52241D01*
X233063Y51770D01*
X232592D01*
X240000Y48707D02*
X239057Y49650D01*
Y50592D01*
X240000D01*
X240943Y49650D01*
X240236Y50357D01*
X239293Y49414D01*
X240000Y51535D02*
X241414Y50121D01*
X242121Y50828D01*
Y51299D01*
X241178Y52241D01*
X240707D01*
X240000Y51535D01*
X243534Y52241D02*
X242121Y53655D01*
Y52241D01*
X243063Y53184D01*
X250000Y48707D02*
X249058Y49650D01*
Y50592D01*
X250000D01*
X250942Y49650D01*
X250236Y50357D01*
X249293Y49414D01*
X250000Y51535D02*
X251414Y50121D01*
X252121Y50828D01*
Y51299D01*
X251178Y52241D01*
X250707D01*
X250000Y51535D01*
X252356Y53891D02*
X251414Y52948D01*
X252121Y52241D01*
X252356Y52948D01*
X252592Y53184D01*
X253063D01*
X253534Y52713D01*
X253534Y52241D01*
X253063Y51770D01*
X252592D01*
X251914Y219879D02*
X251443Y219408D01*
X251678Y219643D01*
X250264Y221057D01*
X250500Y221293D01*
X250029Y220822D01*
X250029Y217994D02*
X250500Y218465D01*
X250500Y218937D01*
X249557Y219879D01*
X249086D01*
X248615Y219408D01*
Y218937D01*
X249557Y217994D01*
X250029D01*
X249086Y217523D02*
X249086Y217052D01*
X248615Y216580D01*
X248144D01*
X247201Y217523D01*
X247201Y217994D01*
X247673Y218465D01*
X248144D01*
X249086Y217523D01*
X241914Y219879D02*
X241442Y219408D01*
X241678Y219643D01*
X240264Y221057D01*
X240500Y221293D01*
X240029Y220822D01*
X240029Y217994D02*
X240500Y218465D01*
X240500Y218937D01*
X239558Y219879D01*
X239086D01*
X238615Y219408D01*
Y218937D01*
X239558Y217994D01*
X240029D01*
X237908Y218701D02*
X237437Y218230D01*
X237672Y218465D01*
X239086Y217052D01*
X239086Y217523D01*
X231914Y219879D02*
X231442Y219408D01*
X231678Y219643D01*
X230264Y221057D01*
X230500Y221293D01*
X230029Y220822D01*
X230029Y217994D02*
X230500Y218465D01*
X230500Y218937D01*
X229557Y219879D01*
X229086D01*
X228615Y219408D01*
Y218937D01*
X229557Y217994D01*
X230029D01*
X226966Y217758D02*
X227908Y218701D01*
Y216816D01*
X228144Y216580D01*
X228615D01*
X229086Y217052D01*
X229086Y217523D01*
X221914Y219879D02*
X221443Y219408D01*
X221678Y219643D01*
X220264Y221057D01*
X220500Y221293D01*
X220029Y220822D01*
X220029Y217994D02*
X220500Y218465D01*
X220500Y218937D01*
X219557Y219879D01*
X219086D01*
X218615Y219408D01*
Y218937D01*
X219557Y217994D01*
X220029D01*
X219086Y217523D02*
X219086Y217052D01*
X218615Y216580D01*
X218144D01*
X217908Y216816D01*
Y217287D01*
X218144Y217523D01*
X217908Y217287D01*
X217437Y217287D01*
X217201Y217523D01*
X217201Y217994D01*
X217672Y218465D01*
X218144D01*
X216259Y214695D02*
X216259Y214224D01*
X215788Y213753D01*
X215788Y213282D01*
X211914Y219879D02*
X211442Y219408D01*
X211678Y219643D01*
X210264Y221057D01*
X210500Y221293D01*
X210029Y220822D01*
X210029Y217994D02*
X210500Y218465D01*
X210500Y218937D01*
X209558Y219879D01*
X209086D01*
X208615Y219408D01*
Y218937D01*
X209558Y217994D01*
X210029D01*
X207201D02*
X208615Y216580D01*
Y217994D01*
X207673Y217052D01*
X201914Y219879D02*
X201443Y219408D01*
X201678Y219643D01*
X200264Y221057D01*
X200500Y221293D01*
X200029Y220822D01*
X200029Y217994D02*
X200500Y218465D01*
X200500Y218937D01*
X199557Y219879D01*
X199086D01*
X198615Y219408D01*
Y218937D01*
X199557Y217994D01*
X200029D01*
X198379Y216345D02*
X199322Y217287D01*
X198615Y217994D01*
X198379Y217287D01*
X198144Y217052D01*
X197672D01*
X197201Y217523D01*
X197201Y217994D01*
X197672Y218465D01*
X198144D01*
X196259Y214695D02*
X196259Y214224D01*
X195788Y213753D01*
X195788Y213282D01*
X191914Y219879D02*
X191443Y219408D01*
X191678Y219643D01*
X190264Y221057D01*
X190500Y221293D01*
X190029Y220822D01*
X190029Y217994D02*
X190500Y218465D01*
X190500Y218937D01*
X189558Y219879D01*
X189086D01*
X188615Y219408D01*
Y218937D01*
X189558Y217994D01*
X190029D01*
X188379Y216345D02*
X188615Y217052D01*
Y217994D01*
X188144Y218465D01*
X187672D01*
X187201Y217994D01*
X187201Y217523D01*
X187437Y217287D01*
X187908Y217287D01*
X188615Y217994D01*
X186259Y214695D02*
X186259Y214224D01*
X185787Y213753D01*
X185787Y213282D01*
X181914Y219879D02*
X181442Y219408D01*
X181678Y219643D01*
X180264Y221057D01*
X180500Y221293D01*
X180029Y220822D01*
X180029Y217994D02*
X180500Y218465D01*
X180500Y218937D01*
X179558Y219879D01*
X179086D01*
X178615Y219408D01*
Y218937D01*
X179558Y217994D01*
X180029D01*
X179322Y217287D02*
X178379Y216345D01*
X178144Y216580D01*
Y218465D01*
X177908Y218701D01*
D14*
X130945Y71465D02*
Y93119D01*
D15*
X248051Y154803D02*
X265551D01*
X245551Y152303D02*
X248051Y154803D01*
X245551Y124803D02*
Y152303D01*
X255551Y144803D02*
Y154803D01*
X245551Y144803D02*
X255551D01*
X265551Y124803D02*
Y154803D01*
X245551Y124803D02*
X265551D01*
X175000Y35000D02*
Y45000D01*
X105000D02*
X185000D01*
X105000Y35000D02*
Y45000D01*
Y35000D02*
X185000D01*
Y45000D01*
X245000Y225000D02*
Y235000D01*
X175000D02*
X255000D01*
X175000Y225000D02*
Y235000D01*
Y225000D02*
X255000D01*
Y235000D01*
X159000D02*
X169000D01*
X69000Y225000D02*
X159000D01*
X69000D02*
Y235000D01*
X159000D01*
Y225000D02*
Y235000D01*
Y225000D02*
X169000D01*
Y235000D01*
X195000Y35000D02*
Y40000D01*
Y35000D02*
X205000D01*
Y45000D01*
X255000D01*
Y35000D02*
Y45000D01*
X205000Y35000D02*
X255000D01*
X195000Y45000D02*
X205000D01*
X195000Y40000D02*
Y45000D01*
X278500Y52500D02*
Y57498D01*
X281832Y52500D01*
Y57498D01*
X284331Y55832D02*
X285998D01*
X286831Y54999D01*
Y52500D01*
X284331D01*
X283498Y53333D01*
X284331Y54166D01*
X286831D01*
X289330Y56665D02*
Y55832D01*
X288497D01*
X290163D01*
X289330D01*
Y53333D01*
X290163Y52500D01*
X292662Y57498D02*
Y52500D01*
Y54999D01*
X293495Y55832D01*
X295161D01*
X295994Y54999D01*
Y52500D01*
X298494Y55832D02*
X300160D01*
X300993Y54999D01*
Y52500D01*
X298494D01*
X297660Y53333D01*
X298494Y54166D01*
X300993D01*
X302659Y52500D02*
Y55832D01*
X305158D01*
X305991Y54999D01*
Y52500D01*
X307657D02*
X309323D01*
X308490D01*
Y55832D01*
X307657D01*
X314322Y52500D02*
X312656D01*
X311823Y53333D01*
Y54999D01*
X312656Y55832D01*
X314322D01*
X315155Y54999D01*
Y54166D01*
X311823D01*
X316821Y52500D02*
X318487D01*
X317654D01*
Y57498D01*
X316821D01*
X325985D02*
Y52500D01*
Y54999D01*
X329317D01*
Y57498D01*
Y52500D01*
X330983Y55832D02*
Y53333D01*
X331816Y52500D01*
X334315D01*
Y55832D01*
X339314Y57498D02*
Y52500D01*
X336814D01*
X335981Y53333D01*
Y54999D01*
X336814Y55832D01*
X339314D01*
X340980Y52500D02*
X343479D01*
X344312Y53333D01*
X343479Y54166D01*
X341813D01*
X340980Y54999D01*
X341813Y55832D01*
X344312D01*
X346811Y52500D02*
X348477D01*
X349310Y53333D01*
Y54999D01*
X348477Y55832D01*
X346811D01*
X345978Y54999D01*
Y53333D01*
X346811Y52500D01*
X350976D02*
Y55832D01*
X353476D01*
X354309Y54999D01*
Y52500D01*
X281832Y44500D02*
X278500D01*
X281832Y47832D01*
Y48665D01*
X280999Y49498D01*
X279333D01*
X278500Y48665D01*
X283498D02*
X284331Y49498D01*
X285998D01*
X286831Y48665D01*
Y45333D01*
X285998Y44500D01*
X284331D01*
X283498Y45333D01*
Y48665D01*
X291829Y44500D02*
X288497D01*
X291829Y47832D01*
Y48665D01*
X290996Y49498D01*
X289330D01*
X288497Y48665D01*
X293495Y44500D02*
X295161D01*
X294328D01*
Y49498D01*
X293495Y48665D01*
X297660Y46999D02*
X300993D01*
X302659Y48665D02*
X303492Y49498D01*
X305158D01*
X305991Y48665D01*
Y45333D01*
X305158Y44500D01*
X303492D01*
X302659Y45333D01*
Y48665D01*
X310156Y44500D02*
Y49498D01*
X307657Y46999D01*
X310989D01*
X312656D02*
X315988D01*
X317654Y48665D02*
X318487Y49498D01*
X320153D01*
X320986Y48665D01*
Y45333D01*
X320153Y44500D01*
X318487D01*
X317654Y45333D01*
Y48665D01*
X322652D02*
X323485Y49498D01*
X325151D01*
X325985Y48665D01*
Y47832D01*
X325151Y46999D01*
X325985Y46166D01*
Y45333D01*
X325151Y44500D01*
X323485D01*
X322652Y45333D01*
Y46166D01*
X323485Y46999D01*
X322652Y47832D01*
Y48665D01*
X323485Y46999D02*
X325151D01*
X278500Y60500D02*
Y65498D01*
X280999D01*
X281832Y64665D01*
Y62999D01*
X280999Y62166D01*
X278500D01*
X280166D02*
X281832Y60500D01*
X285998D02*
X284331D01*
X283498Y61333D01*
Y62999D01*
X284331Y63832D01*
X285998D01*
X286831Y62999D01*
Y62166D01*
X283498D01*
X288497Y63832D02*
X290163Y60500D01*
X291829Y63832D01*
X293495Y60500D02*
Y61333D01*
X294328D01*
Y60500D01*
X293495D01*
X302659D02*
X304325D01*
X303492D01*
Y65498D01*
X302659Y64665D01*
X306824Y60500D02*
Y61333D01*
X307657D01*
Y60500D01*
X306824D01*
X310989Y64665D02*
X311823Y65498D01*
X313489D01*
X314322Y64665D01*
Y61333D01*
X313489Y60500D01*
X311823D01*
X310989Y61333D01*
Y64665D01*
X281832Y74331D02*
X280999Y75165D01*
X279333D01*
X278500Y74331D01*
Y70999D01*
X279333Y70166D01*
X280999D01*
X281832Y70999D01*
Y72665D01*
X280166D01*
X285998Y70166D02*
X284331D01*
X283498Y70999D01*
Y72665D01*
X284331Y73498D01*
X285998D01*
X286831Y72665D01*
Y71832D01*
X283498D01*
X289330Y74331D02*
Y73498D01*
X288497D01*
X290163D01*
X289330D01*
Y70999D01*
X290163Y70166D01*
X292662Y73498D02*
Y70999D01*
X293495Y70166D01*
X295994D01*
Y73498D01*
X297660Y68500D02*
Y73498D01*
X300160D01*
X300993Y72665D01*
Y70999D01*
X300160Y70166D01*
X297660D01*
X302659Y71832D02*
Y75998D01*
Y70999D02*
Y70166D01*
X312656Y74331D02*
X311823Y75165D01*
X310156D01*
X309323Y74331D01*
Y73498D01*
X310156Y72665D01*
X311823D01*
X312656Y71832D01*
Y70999D01*
X311823Y70166D01*
X310156D01*
X309323Y70999D01*
X314322Y75165D02*
Y70166D01*
Y72665D01*
X315155Y73498D01*
X316821D01*
X317654Y72665D01*
Y70166D01*
X319320D02*
X320986D01*
X320153D01*
Y73498D01*
X319320D01*
X325985Y70166D02*
X324319D01*
X323485Y70999D01*
Y72665D01*
X324319Y73498D01*
X325985D01*
X326818Y72665D01*
Y71832D01*
X323485D01*
X328484Y70166D02*
X330150D01*
X329317D01*
Y75165D01*
X328484D01*
X335981D02*
Y70166D01*
X333482D01*
X332649Y70999D01*
Y72665D01*
X333482Y73498D01*
X335981D01*
X59803Y185212D02*
X55804D01*
Y187211D01*
X56470Y187878D01*
X57803D01*
X58470Y187211D01*
Y185212D01*
Y186545D02*
X59803Y187878D01*
Y191876D02*
Y189210D01*
X57137Y191876D01*
X56470D01*
X55804Y191210D01*
Y189877D01*
X56470Y189210D01*
X59803Y195875D02*
Y193209D01*
X57137Y195875D01*
X56470D01*
X55804Y195209D01*
Y193876D01*
X56470Y193209D01*
X38363Y191709D02*
Y195708D01*
X40363D01*
X41029Y195042D01*
Y193709D01*
X40363Y193042D01*
X38363D01*
X39696D02*
X41029Y191709D01*
X45028D02*
X42362D01*
X45028Y194375D01*
Y195042D01*
X44361Y195708D01*
X43028D01*
X42362Y195042D01*
X46361D02*
X47027Y195708D01*
X48360D01*
X49027Y195042D01*
Y192376D01*
X48360Y191709D01*
X47027D01*
X46361Y192376D01*
Y195042D01*
X226885Y116915D02*
Y120914D01*
X228884D01*
X229551Y120247D01*
Y118914D01*
X228884Y118248D01*
X226885D01*
X228218D02*
X229551Y116915D01*
X230884Y120247D02*
X231550Y120914D01*
X232883D01*
X233549Y120247D01*
Y119581D01*
X232883Y118914D01*
X232217D01*
X232883D01*
X233549Y118248D01*
Y117581D01*
X232883Y116915D01*
X231550D01*
X230884Y117581D01*
X234882Y120247D02*
X235549Y120914D01*
X236882D01*
X237548Y120247D01*
Y119581D01*
X236882Y118914D01*
X236215D01*
X236882D01*
X237548Y118248D01*
Y117581D01*
X236882Y116915D01*
X235549D01*
X234882Y117581D01*
X242429Y22999D02*
Y19001D01*
X244428D01*
X245094Y19667D01*
Y22333D01*
X244428Y22999D01*
X242429D01*
X246427Y19001D02*
X247760D01*
X247094D01*
Y22999D01*
X246427Y22333D01*
X98645Y196999D02*
Y193001D01*
X100644D01*
X101310Y193667D01*
Y196333D01*
X100644Y196999D01*
X98645D01*
X105309Y193001D02*
X102643D01*
X105309Y195667D01*
Y196333D01*
X104643Y196999D01*
X103310D01*
X102643Y196333D01*
X143668Y64999D02*
Y61001D01*
X145667D01*
X146334Y61667D01*
Y64333D01*
X145667Y64999D01*
X143668D01*
X147667Y64333D02*
X148333Y64999D01*
X149666D01*
X150332Y64333D01*
Y63666D01*
X149666Y63000D01*
X148999D01*
X149666D01*
X150332Y62334D01*
Y61667D01*
X149666Y61001D01*
X148333D01*
X147667Y61667D01*
X210900Y115187D02*
Y111188D01*
X212899D01*
X213566Y111855D01*
Y114520D01*
X212899Y115187D01*
X210900D01*
X216898Y111188D02*
Y115187D01*
X214899Y113188D01*
X217565D01*
X98668Y222397D02*
Y218398D01*
X100667D01*
X101334Y219065D01*
Y221730D01*
X100667Y222397D01*
X98668D01*
X105332D02*
X102666D01*
Y220398D01*
X103999Y221064D01*
X104666D01*
X105332Y220398D01*
Y219065D01*
X104666Y218398D01*
X103333D01*
X102666Y219065D01*
X98668Y215999D02*
Y212001D01*
X100667D01*
X101334Y212667D01*
Y215333D01*
X100667Y215999D01*
X98668D01*
X105332D02*
X103999Y215333D01*
X102666Y214000D01*
Y212667D01*
X103333Y212001D01*
X104666D01*
X105332Y212667D01*
Y213334D01*
X104666Y214000D01*
X102666D01*
X17354Y104198D02*
X13618D01*
X42000Y105495D02*
X38660D01*
X40330Y103825D02*
Y107165D01*
X335000Y267799D02*
Y264466D01*
X335666Y263800D01*
X336999D01*
X337666Y264466D01*
Y267799D01*
X341665Y263800D02*
X338999D01*
X341665Y266466D01*
Y267132D01*
X340998Y267799D01*
X339665D01*
X338999Y267132D01*
X3550Y73050D02*
Y79048D01*
X6549D01*
X7549Y78048D01*
Y76049D01*
X6549Y75049D01*
X3550D01*
X5549D02*
X7549Y73050D01*
X9548D02*
X11547D01*
X10548D01*
Y79048D01*
X9548Y78048D01*
X200000Y143333D02*
X199334Y143999D01*
X198001D01*
X197334Y143333D01*
Y140667D01*
X198001Y140001D01*
X199334D01*
X200000Y140667D01*
X201333Y140001D02*
X202666D01*
X201999D01*
Y143999D01*
X201333Y143333D01*
X38363Y186001D02*
Y189999D01*
X40363D01*
X41029Y189333D01*
Y188000D01*
X40363Y187334D01*
X38363D01*
X39696D02*
X41029Y186001D01*
X45028D02*
X42362D01*
X45028Y188666D01*
Y189333D01*
X44361Y189999D01*
X43028D01*
X42362Y189333D01*
X46361D02*
X47027Y189999D01*
X48360D01*
X49027Y189333D01*
Y188666D01*
X48360Y188000D01*
X47694D01*
X48360D01*
X49027Y187334D01*
Y186667D01*
X48360Y186001D01*
X47027D01*
X46361Y186667D01*
X140668Y70999D02*
Y67667D01*
X141334Y67001D01*
X142667D01*
X143333Y67667D01*
Y70999D01*
X147332D02*
X144667D01*
Y69000D01*
X145999Y69666D01*
X146666D01*
X147332Y69000D01*
Y67667D01*
X146666Y67001D01*
X145333D01*
X144667Y67667D01*
X40757Y218222D02*
Y214890D01*
X41424Y214224D01*
X42757D01*
X43423Y214890D01*
Y218222D01*
X44756D02*
X47422D01*
Y217556D01*
X44756Y214890D01*
Y214224D01*
X59368Y104528D02*
Y101195D01*
X60035Y100529D01*
X61368D01*
X62034Y101195D01*
Y104528D01*
X66033D02*
X64700Y103861D01*
X63367Y102528D01*
Y101195D01*
X64034Y100529D01*
X65367D01*
X66033Y101195D01*
Y101862D01*
X65367Y102528D01*
X63367D01*
X72780Y150999D02*
Y147667D01*
X73446Y147001D01*
X74779D01*
X75446Y147667D01*
Y150999D01*
X78778Y147001D02*
Y150999D01*
X76779Y149000D01*
X79444D01*
X270900Y259799D02*
Y256466D01*
X271566Y255800D01*
X272899D01*
X273566Y256466D01*
Y259799D01*
X274899Y259132D02*
X275565Y259799D01*
X276898D01*
X277565Y259132D01*
Y258466D01*
X276898Y257799D01*
X276232D01*
X276898D01*
X277565Y257133D01*
Y256466D01*
X276898Y255800D01*
X275565D01*
X274899Y256466D01*
X194103Y154999D02*
Y151667D01*
X194770Y151001D01*
X196103D01*
X196769Y151667D01*
Y154999D01*
X198102Y151001D02*
X199435D01*
X198769D01*
Y154999D01*
X198102Y154333D01*
X12166Y261832D02*
X11499Y262499D01*
X10166D01*
X9500Y261832D01*
Y261166D01*
X10166Y260499D01*
X11499D01*
X12166Y259833D01*
Y259166D01*
X11499Y258500D01*
X10166D01*
X9500Y259166D01*
X13499Y262499D02*
Y258500D01*
X14832Y259833D01*
X16164Y258500D01*
Y262499D01*
X17497Y258500D02*
X18830D01*
X18164D01*
Y262499D01*
X17497Y261832D01*
X210334Y19333D02*
X209667Y19999D01*
X208334D01*
X207668Y19333D01*
Y18666D01*
X208334Y18000D01*
X209667D01*
X210334Y17334D01*
Y16667D01*
X209667Y16001D01*
X208334D01*
X207668Y16667D01*
X213666Y16001D02*
Y19999D01*
X211666Y18000D01*
X214332D01*
X133334Y19333D02*
X132667Y19999D01*
X131334D01*
X130668Y19333D01*
Y18666D01*
X131334Y18000D01*
X132667D01*
X133334Y17334D01*
Y16667D01*
X132667Y16001D01*
X131334D01*
X130668Y16667D01*
X134667Y19333D02*
X135333Y19999D01*
X136666D01*
X137332Y19333D01*
Y18666D01*
X136666Y18000D01*
X135999D01*
X136666D01*
X137332Y17334D01*
Y16667D01*
X136666Y16001D01*
X135333D01*
X134667Y16667D01*
X118333Y19333D02*
X117667Y19999D01*
X116334D01*
X115668Y19333D01*
Y18666D01*
X116334Y18000D01*
X117667D01*
X118333Y17334D01*
Y16667D01*
X117667Y16001D01*
X116334D01*
X115668Y16667D01*
X122332Y16001D02*
X119667D01*
X122332Y18666D01*
Y19333D01*
X121666Y19999D01*
X120333D01*
X119667Y19333D01*
X42000D02*
X41334Y19999D01*
X40001D01*
X39334Y19333D01*
Y18666D01*
X40001Y18000D01*
X41334D01*
X42000Y17334D01*
Y16667D01*
X41334Y16001D01*
X40001D01*
X39334Y16667D01*
X43333Y16001D02*
X44666D01*
X43999D01*
Y19999D01*
X43333Y19333D01*
X107003Y204668D02*
Y208667D01*
X109002D01*
X109668Y208001D01*
Y206668D01*
X109002Y206001D01*
X107003D01*
X108335D02*
X109668Y204668D01*
X111001Y208001D02*
X111668Y208667D01*
X113001D01*
X113667Y208001D01*
Y207334D01*
X113001Y206668D01*
X112334D01*
X113001D01*
X113667Y206001D01*
Y205335D01*
X113001Y204668D01*
X111668D01*
X111001Y205335D01*
X115000Y208667D02*
X117666D01*
Y208001D01*
X115000Y205335D01*
Y204668D01*
X71393Y197668D02*
X67394D01*
Y199668D01*
X68061Y200334D01*
X69394D01*
X70060Y199668D01*
Y197668D01*
Y199001D02*
X71393Y200334D01*
X68061Y201667D02*
X67394Y202333D01*
Y203666D01*
X68061Y204333D01*
X68727D01*
X69394Y203666D01*
Y203000D01*
Y203666D01*
X70060Y204333D01*
X70727D01*
X71393Y203666D01*
Y202333D01*
X70727Y201667D01*
X67394Y208332D02*
X68061Y206999D01*
X69394Y205666D01*
X70727D01*
X71393Y206332D01*
Y207665D01*
X70727Y208332D01*
X70060D01*
X69394Y207665D01*
Y205666D01*
X26668Y179965D02*
Y183964D01*
X28668D01*
X29334Y183297D01*
Y181965D01*
X28668Y181298D01*
X26668D01*
X28001D02*
X29334Y179965D01*
X30667Y183297D02*
X31334Y183964D01*
X32666D01*
X33333Y183297D01*
Y182631D01*
X32666Y181965D01*
X32000D01*
X32666D01*
X33333Y181298D01*
Y180631D01*
X32666Y179965D01*
X31334D01*
X30667Y180631D01*
X37332Y183964D02*
X34666D01*
Y181965D01*
X35999Y182631D01*
X36665D01*
X37332Y181965D01*
Y180631D01*
X36665Y179965D01*
X35332D01*
X34666Y180631D01*
X203999Y115668D02*
X200001D01*
Y117668D01*
X200667Y118334D01*
X202000D01*
X202666Y117668D01*
Y115668D01*
Y117001D02*
X203999Y118334D01*
X200667Y119667D02*
X200001Y120334D01*
Y121667D01*
X200667Y122333D01*
X201333D01*
X202000Y121667D01*
Y121000D01*
Y121667D01*
X202666Y122333D01*
X203333D01*
X203999Y121667D01*
Y120334D01*
X203333Y119667D01*
X203999Y125665D02*
X200001D01*
X202000Y123666D01*
Y126332D01*
X138338Y114948D02*
X134339D01*
Y116948D01*
X135006Y117614D01*
X136339D01*
X137005Y116948D01*
Y114948D01*
Y116281D02*
X138338Y117614D01*
X135006Y118947D02*
X134339Y119613D01*
Y120946D01*
X135006Y121613D01*
X135672D01*
X136339Y120946D01*
Y120280D01*
Y120946D01*
X137005Y121613D01*
X137671D01*
X138338Y120946D01*
Y119613D01*
X137671Y118947D01*
X138338Y125611D02*
Y122946D01*
X135672Y125611D01*
X135006D01*
X134339Y124945D01*
Y123612D01*
X135006Y122946D01*
X165397Y113335D02*
X161398D01*
Y115334D01*
X162065Y116001D01*
X163398D01*
X164064Y115334D01*
Y113335D01*
Y114668D02*
X165397Y116001D01*
X162065Y117334D02*
X161398Y118000D01*
Y119333D01*
X162065Y119999D01*
X162731D01*
X163398Y119333D01*
Y118667D01*
Y119333D01*
X164064Y119999D01*
X164731D01*
X165397Y119333D01*
Y118000D01*
X164731Y117334D01*
X165397Y121332D02*
Y122665D01*
Y121999D01*
X161398D01*
X162065Y121332D01*
X147169Y115948D02*
X143170D01*
Y117948D01*
X143836Y118614D01*
X145169D01*
X145836Y117948D01*
Y115948D01*
Y117281D02*
X147169Y118614D01*
X143836Y119947D02*
X143170Y120613D01*
Y121946D01*
X143836Y122613D01*
X144503D01*
X145169Y121946D01*
Y121280D01*
Y121946D01*
X145836Y122613D01*
X146502D01*
X147169Y121946D01*
Y120613D01*
X146502Y119947D01*
X143836Y123946D02*
X143170Y124612D01*
Y125945D01*
X143836Y126611D01*
X146502D01*
X147169Y125945D01*
Y124612D01*
X146502Y123946D01*
X143836D01*
X154169Y115948D02*
X150170D01*
Y117948D01*
X150836Y118614D01*
X152169D01*
X152836Y117948D01*
Y115948D01*
Y117281D02*
X154169Y118614D01*
Y122613D02*
Y119947D01*
X151503Y122613D01*
X150836D01*
X150170Y121946D01*
Y120613D01*
X150836Y119947D01*
X153502Y123946D02*
X154169Y124612D01*
Y125945D01*
X153502Y126611D01*
X150836D01*
X150170Y125945D01*
Y124612D01*
X150836Y123946D01*
X151503D01*
X152169Y124612D01*
Y126611D01*
X172999Y112668D02*
X169001D01*
Y114668D01*
X169667Y115334D01*
X171000D01*
X171667Y114668D01*
Y112668D01*
Y114001D02*
X172999Y115334D01*
Y119333D02*
Y116667D01*
X170334Y119333D01*
X169667D01*
X169001Y118667D01*
Y117333D01*
X169667Y116667D01*
Y120666D02*
X169001Y121332D01*
Y122665D01*
X169667Y123332D01*
X170334D01*
X171000Y122665D01*
X171667Y123332D01*
X172333D01*
X172999Y122665D01*
Y121332D01*
X172333Y120666D01*
X171667D01*
X171000Y121332D01*
X170334Y120666D01*
X169667D01*
X171000Y121332D02*
Y122665D01*
X181515Y112668D02*
X177516D01*
Y114668D01*
X178183Y115334D01*
X179516D01*
X180182Y114668D01*
Y112668D01*
Y114001D02*
X181515Y115334D01*
Y119333D02*
Y116667D01*
X178849Y119333D01*
X178183D01*
X177516Y118667D01*
Y117333D01*
X178183Y116667D01*
X177516Y120666D02*
Y123332D01*
X178183D01*
X180849Y120666D01*
X181515D01*
X173668Y55962D02*
Y59961D01*
X175668D01*
X176334Y59295D01*
Y57962D01*
X175668Y57295D01*
X173668D01*
X175001D02*
X176334Y55962D01*
X180333D02*
X177667D01*
X180333Y58628D01*
Y59295D01*
X179666Y59961D01*
X178333D01*
X177667Y59295D01*
X184332Y59961D02*
X182999Y59295D01*
X181666Y57962D01*
Y56629D01*
X182332Y55962D01*
X183665D01*
X184332Y56629D01*
Y57295D01*
X183665Y57962D01*
X181666D01*
X113668Y139341D02*
Y143340D01*
X115668D01*
X116334Y142674D01*
Y141341D01*
X115668Y140674D01*
X113668D01*
X115001D02*
X116334Y139341D01*
X120333D02*
X117667D01*
X120333Y142007D01*
Y142674D01*
X119667Y143340D01*
X118333D01*
X117667Y142674D01*
X124332Y143340D02*
X121666D01*
Y141341D01*
X122999Y142007D01*
X123665D01*
X124332Y141341D01*
Y140008D01*
X123665Y139341D01*
X122332D01*
X121666Y140008D01*
X113668Y148841D02*
Y152840D01*
X115668D01*
X116334Y152173D01*
Y150840D01*
X115668Y150174D01*
X113668D01*
X115001D02*
X116334Y148841D01*
X120333D02*
X117667D01*
X120333Y151507D01*
Y152173D01*
X119667Y152840D01*
X118333D01*
X117667Y152173D01*
X123665Y148841D02*
Y152840D01*
X121666Y150840D01*
X124332D01*
X66999Y127335D02*
X63001D01*
Y129334D01*
X63667Y130001D01*
X65000D01*
X65666Y129334D01*
Y127335D01*
Y128668D02*
X66999Y130001D01*
Y133999D02*
Y131334D01*
X64333Y133999D01*
X63667D01*
X63001Y133333D01*
Y132000D01*
X63667Y131334D01*
X66999Y135332D02*
Y136665D01*
Y135999D01*
X63001D01*
X63667Y135332D01*
X72393Y127002D02*
X68394D01*
Y129001D01*
X69061Y129667D01*
X70394D01*
X71060Y129001D01*
Y127002D01*
Y128334D02*
X72393Y129667D01*
Y131000D02*
Y132333D01*
Y131667D01*
X68394D01*
X69061Y131000D01*
X71727Y134333D02*
X72393Y134999D01*
Y136332D01*
X71727Y136998D01*
X69061D01*
X68394Y136332D01*
Y134999D01*
X69061Y134333D01*
X69727D01*
X70394Y134999D01*
Y136998D01*
X61535Y127002D02*
X57536D01*
Y129001D01*
X58203Y129667D01*
X59536D01*
X60202Y129001D01*
Y127002D01*
Y128334D02*
X61535Y129667D01*
Y131000D02*
Y132333D01*
Y131667D01*
X57536D01*
X58203Y131000D01*
Y134333D02*
X57536Y134999D01*
Y136332D01*
X58203Y136998D01*
X58869D01*
X59536Y136332D01*
X60202Y136998D01*
X60869D01*
X61535Y136332D01*
Y134999D01*
X60869Y134333D01*
X60202D01*
X59536Y134999D01*
X58869Y134333D01*
X58203D01*
X59536Y134999D02*
Y136332D01*
X117002Y156950D02*
Y160949D01*
X119001D01*
X119667Y160282D01*
Y158949D01*
X119001Y158283D01*
X117002D01*
X118334D02*
X119667Y156950D01*
X121000D02*
X122333D01*
X121667D01*
Y160949D01*
X121000Y160282D01*
X124333Y160949D02*
X126998D01*
Y160282D01*
X124333Y157616D01*
Y156950D01*
X117002Y163165D02*
Y167164D01*
X119001D01*
X119667Y166497D01*
Y165164D01*
X119001Y164498D01*
X117002D01*
X118334D02*
X119667Y163165D01*
X121000D02*
X122333D01*
X121667D01*
Y167164D01*
X121000Y166497D01*
X126998Y167164D02*
X125665Y166497D01*
X124333Y165164D01*
Y163832D01*
X124999Y163165D01*
X126332D01*
X126998Y163832D01*
Y164498D01*
X126332Y165164D01*
X124333D01*
X207999Y206002D02*
X204001D01*
Y208001D01*
X204667Y208667D01*
X206000D01*
X206666Y208001D01*
Y206002D01*
Y207334D02*
X207999Y208667D01*
Y210000D02*
Y211333D01*
Y210667D01*
X204001D01*
X204667Y210000D01*
X204001Y215998D02*
Y213333D01*
X206000D01*
X205334Y214666D01*
Y215332D01*
X206000Y215998D01*
X207333D01*
X207999Y215332D01*
Y213999D01*
X207333Y213333D01*
X213999Y206002D02*
X210001D01*
Y208001D01*
X210667Y208667D01*
X212000D01*
X212666Y208001D01*
Y206002D01*
Y207334D02*
X213999Y208667D01*
Y210000D02*
Y211333D01*
Y210667D01*
X210001D01*
X210667Y210000D01*
X213999Y215332D02*
X210001D01*
X212000Y213333D01*
Y215998D01*
X240999Y206002D02*
X237001D01*
Y208001D01*
X237667Y208667D01*
X239000D01*
X239666Y208001D01*
Y206002D01*
Y207334D02*
X240999Y208667D01*
Y210000D02*
Y211333D01*
Y210667D01*
X237001D01*
X237667Y210000D01*
Y213333D02*
X237001Y213999D01*
Y215332D01*
X237667Y215998D01*
X238334D01*
X239000Y215332D01*
Y214666D01*
Y215332D01*
X239666Y215998D01*
X240333D01*
X240999Y215332D01*
Y213999D01*
X240333Y213333D01*
X249393Y206002D02*
X245394D01*
Y208001D01*
X246061Y208667D01*
X247394D01*
X248060Y208001D01*
Y206002D01*
Y207334D02*
X249393Y208667D01*
Y210000D02*
Y211333D01*
Y210667D01*
X245394D01*
X246061Y210000D01*
X249393Y215998D02*
Y213333D01*
X246727Y215998D01*
X246061D01*
X245394Y215332D01*
Y213999D01*
X246061Y213333D01*
X241999Y72168D02*
X238001D01*
Y74167D01*
X238667Y74834D01*
X240000D01*
X240666Y74167D01*
Y72168D01*
Y73501D02*
X241999Y74834D01*
Y76167D02*
Y77500D01*
Y76833D01*
X238001D01*
X238667Y76167D01*
X241999Y79499D02*
Y80832D01*
Y80165D01*
X238001D01*
X238667Y79499D01*
X231999Y72002D02*
X228001D01*
Y74001D01*
X228667Y74667D01*
X230000D01*
X230666Y74001D01*
Y72002D01*
Y73334D02*
X231999Y74667D01*
Y76000D02*
Y77333D01*
Y76667D01*
X228001D01*
X228667Y76000D01*
Y79333D02*
X228001Y79999D01*
Y81332D01*
X228667Y81998D01*
X231333D01*
X231999Y81332D01*
Y79999D01*
X231333Y79333D01*
X228667D01*
X221999Y71959D02*
X218001D01*
Y73958D01*
X218667Y74625D01*
X220000D01*
X220666Y73958D01*
Y71959D01*
Y73292D02*
X221999Y74625D01*
X221333Y75958D02*
X221999Y76624D01*
Y77957D01*
X221333Y78624D01*
X218667D01*
X218001Y77957D01*
Y76624D01*
X218667Y75958D01*
X219334D01*
X220000Y76624D01*
Y78624D01*
X211999Y71959D02*
X208001D01*
Y73958D01*
X208667Y74625D01*
X210000D01*
X210666Y73958D01*
Y71959D01*
Y73292D02*
X211999Y74625D01*
X208667Y75958D02*
X208001Y76624D01*
Y77957D01*
X208667Y78624D01*
X209334D01*
X210000Y77957D01*
X210666Y78624D01*
X211333D01*
X211999Y77957D01*
Y76624D01*
X211333Y75958D01*
X210666D01*
X210000Y76624D01*
X209334Y75958D01*
X208667D01*
X210000Y76624D02*
Y77957D01*
X235668Y171842D02*
Y175840D01*
X237667D01*
X238334Y175174D01*
Y173841D01*
X237667Y173175D01*
X235668D01*
X237001D02*
X238334Y171842D01*
X242332Y175840D02*
X240999Y175174D01*
X239667Y173841D01*
Y172508D01*
X240333Y171842D01*
X241666D01*
X242332Y172508D01*
Y173175D01*
X241666Y173841D01*
X239667D01*
X260668Y47001D02*
Y50999D01*
X262667D01*
X263334Y50333D01*
Y49000D01*
X262667Y48334D01*
X260668D01*
X262001D02*
X263334Y47001D01*
X264667Y50999D02*
X267332D01*
Y50333D01*
X264667Y47667D01*
Y47001D01*
X157979Y206668D02*
X153980D01*
Y208667D01*
X154647Y209334D01*
X155980D01*
X156646Y208667D01*
Y206668D01*
Y208001D02*
X157979Y209334D01*
X153980Y213332D02*
Y210666D01*
X155980D01*
X155313Y211999D01*
Y212666D01*
X155980Y213332D01*
X157313D01*
X157979Y212666D01*
Y211333D01*
X157313Y210666D01*
X182761Y206668D02*
X178763D01*
Y208667D01*
X179429Y209334D01*
X180762D01*
X181429Y208667D01*
Y206668D01*
Y208001D02*
X182761Y209334D01*
Y212666D02*
X178763D01*
X180762Y210666D01*
Y213332D01*
X173999Y206668D02*
X170001D01*
Y208667D01*
X170667Y209334D01*
X172000D01*
X172667Y208667D01*
Y206668D01*
Y208001D02*
X173999Y209334D01*
X170667Y210666D02*
X170001Y211333D01*
Y212666D01*
X170667Y213332D01*
X171334D01*
X172000Y212666D01*
Y211999D01*
Y212666D01*
X172667Y213332D01*
X173333D01*
X173999Y212666D01*
Y211333D01*
X173333Y210666D01*
X161703Y206660D02*
Y210658D01*
X163702D01*
X164369Y209992D01*
Y208659D01*
X163702Y207992D01*
X161703D01*
X163036D02*
X164369Y206660D01*
X168368D02*
X165702D01*
X168368Y209325D01*
Y209992D01*
X167701Y210658D01*
X166368D01*
X165702Y209992D01*
X188366Y123566D02*
Y126232D01*
X187699Y126899D01*
X186366D01*
X185700Y126232D01*
Y123566D01*
X186366Y122900D01*
X187699D01*
X187033Y124233D02*
X188366Y122900D01*
X187699D02*
X188366Y123566D01*
X192365Y126899D02*
X191032Y126232D01*
X189699Y124899D01*
Y123566D01*
X190365Y122900D01*
X191698D01*
X192365Y123566D01*
Y124233D01*
X191698Y124899D01*
X189699D01*
X188666Y209766D02*
Y212432D01*
X187999Y213099D01*
X186667D01*
X186000Y212432D01*
Y209766D01*
X186667Y209100D01*
X187999D01*
X187333Y210433D02*
X188666Y209100D01*
X187999D02*
X188666Y209766D01*
X192665Y213099D02*
X189999D01*
Y211099D01*
X191332Y211766D01*
X191998D01*
X192665Y211099D01*
Y209766D01*
X191998Y209100D01*
X190665D01*
X189999Y209766D01*
X221666D02*
Y212432D01*
X220999Y213099D01*
X219666D01*
X219000Y212432D01*
Y209766D01*
X219666Y209100D01*
X220999D01*
X220333Y210433D02*
X221666Y209100D01*
X220999D02*
X221666Y209766D01*
X224998Y209100D02*
Y213099D01*
X222999Y211099D01*
X225664D01*
X8082Y140767D02*
Y143432D01*
X7416Y144099D01*
X6083D01*
X5417Y143432D01*
Y140767D01*
X6083Y140100D01*
X7416D01*
X6750Y141433D02*
X8082Y140100D01*
X7416D02*
X8082Y140767D01*
X9415Y143432D02*
X10082Y144099D01*
X11415D01*
X12081Y143432D01*
Y142766D01*
X11415Y142099D01*
X10748D01*
X11415D01*
X12081Y141433D01*
Y140767D01*
X11415Y140100D01*
X10082D01*
X9415Y140767D01*
X261334Y86667D02*
Y89333D01*
X260667Y89999D01*
X259334D01*
X258668Y89333D01*
Y86667D01*
X259334Y86001D01*
X260667D01*
X260001Y87334D02*
X261334Y86001D01*
X260667D02*
X261334Y86667D01*
X265332Y86001D02*
X262667D01*
X265332Y88666D01*
Y89333D01*
X264666Y89999D01*
X263333D01*
X262667Y89333D01*
X276566Y194650D02*
Y197316D01*
X275899Y197983D01*
X274566D01*
X273900Y197316D01*
Y194650D01*
X274566Y193984D01*
X275899D01*
X275233Y195317D02*
X276566Y193984D01*
X275899D02*
X276566Y194650D01*
X277899Y193984D02*
X279232D01*
X278565D01*
Y197983D01*
X277899Y197316D01*
X5500Y212600D02*
Y216599D01*
X7499D01*
X8166Y215932D01*
Y214599D01*
X7499Y213933D01*
X5500D01*
X12165Y216599D02*
X9499D01*
Y214599D01*
X10832Y215266D01*
X11498D01*
X12165Y214599D01*
Y213266D01*
X11498Y212600D01*
X10165D01*
X9499Y213266D01*
X5500Y166941D02*
Y170939D01*
X7499D01*
X8166Y170273D01*
Y168940D01*
X7499Y168273D01*
X5500D01*
X11498Y166941D02*
Y170939D01*
X9499Y168940D01*
X12165D01*
X276600Y27400D02*
Y31399D01*
X278599D01*
X279266Y30732D01*
Y29399D01*
X278599Y28733D01*
X276600D01*
X280599Y30732D02*
X281265Y31399D01*
X282598D01*
X283264Y30732D01*
Y30066D01*
X282598Y29399D01*
X281932D01*
X282598D01*
X283264Y28733D01*
Y28066D01*
X282598Y27400D01*
X281265D01*
X280599Y28066D01*
X299999Y112668D02*
X296001D01*
Y114667D01*
X296667Y115333D01*
X298000D01*
X298666Y114667D01*
Y112668D01*
X299999Y119332D02*
Y116666D01*
X297334Y119332D01*
X296667D01*
X296001Y118666D01*
Y117333D01*
X296667Y116666D01*
X112334Y193001D02*
Y196999D01*
X114333D01*
X115000Y196333D01*
Y195000D01*
X114333Y194334D01*
X112334D01*
X116333Y193001D02*
X117666D01*
X116999D01*
Y196999D01*
X116333Y196333D01*
X47819Y120999D02*
Y117001D01*
X50485D01*
X54483Y120333D02*
X53817Y120999D01*
X52484D01*
X51818Y120333D01*
Y119667D01*
X52484Y119000D01*
X53817D01*
X54483Y118333D01*
Y117667D01*
X53817Y117001D01*
X52484D01*
X51818Y117667D01*
X55816Y117001D02*
X57149D01*
X56483D01*
Y120999D01*
X55816Y120333D01*
X181988Y69169D02*
Y65170D01*
X184653D01*
X185986D02*
X187319D01*
X186653D01*
Y69169D01*
X185986Y68502D01*
X56547Y219333D02*
X55880Y219999D01*
X54547D01*
X53881Y219333D01*
Y216667D01*
X54547Y216001D01*
X55880D01*
X56547Y216667D01*
X60545Y216001D02*
X57880D01*
X60545Y218666D01*
Y219333D01*
X59879Y219999D01*
X58546D01*
X57880Y219333D01*
X61878Y219999D02*
X64544D01*
Y219333D01*
X61878Y216667D01*
Y216001D01*
X161643Y69334D02*
X160976Y68668D01*
Y67335D01*
X161643Y66668D01*
X164309D01*
X164975Y67335D01*
Y68668D01*
X164309Y69334D01*
X164975Y73333D02*
Y70667D01*
X162309Y73333D01*
X161643D01*
X160976Y72666D01*
Y71334D01*
X161643Y70667D01*
X160976Y77332D02*
X161643Y75999D01*
X162976Y74666D01*
X164309D01*
X164975Y75332D01*
Y76665D01*
X164309Y77332D01*
X163642D01*
X162976Y76665D01*
Y74666D01*
X170667Y69334D02*
X170001Y68668D01*
Y67335D01*
X170667Y66668D01*
X173333D01*
X173999Y67335D01*
Y68668D01*
X173333Y69334D01*
X173999Y73333D02*
Y70667D01*
X171334Y73333D01*
X170667D01*
X170001Y72667D01*
Y71334D01*
X170667Y70667D01*
X170001Y77332D02*
Y74666D01*
X172000D01*
X171334Y75999D01*
Y76665D01*
X172000Y77332D01*
X173333D01*
X173999Y76665D01*
Y75332D01*
X173333Y74666D01*
X97334Y106333D02*
X96668Y106999D01*
X95335D01*
X94668Y106333D01*
Y103667D01*
X95335Y103001D01*
X96668D01*
X97334Y103667D01*
X101333Y103001D02*
X98667D01*
X101333Y105666D01*
Y106333D01*
X100666Y106999D01*
X99334D01*
X98667Y106333D01*
X104665Y103001D02*
Y106999D01*
X102666Y105000D01*
X105332D01*
X97334Y118333D02*
X96668Y118999D01*
X95335D01*
X94668Y118333D01*
Y115667D01*
X95335Y115001D01*
X96668D01*
X97334Y115667D01*
X101333Y115001D02*
X98667D01*
X101333Y117666D01*
Y118333D01*
X100666Y118999D01*
X99334D01*
X98667Y118333D01*
X102666D02*
X103332Y118999D01*
X104665D01*
X105332Y118333D01*
Y117666D01*
X104665Y117000D01*
X103999D01*
X104665D01*
X105332Y116333D01*
Y115667D01*
X104665Y115001D01*
X103332D01*
X102666Y115667D01*
X96667Y91334D02*
X96001Y90668D01*
Y89335D01*
X96667Y88668D01*
X99333D01*
X99999Y89335D01*
Y90668D01*
X99333Y91334D01*
X99999Y95333D02*
Y92667D01*
X97334Y95333D01*
X96667D01*
X96001Y94666D01*
Y93334D01*
X96667Y92667D01*
X99999Y99332D02*
Y96666D01*
X97334Y99332D01*
X96667D01*
X96001Y98665D01*
Y97332D01*
X96667Y96666D01*
X118066Y110832D02*
X117399Y111499D01*
X116067D01*
X115400Y110832D01*
Y108167D01*
X116067Y107500D01*
X117399D01*
X118066Y108167D01*
X122064Y107500D02*
X119399D01*
X122064Y110166D01*
Y110832D01*
X121398Y111499D01*
X120065D01*
X119399Y110832D01*
X123397Y107500D02*
X124730D01*
X124064D01*
Y111499D01*
X123397Y110832D01*
X86222Y127334D02*
X85556Y126668D01*
Y125335D01*
X86222Y124668D01*
X88888D01*
X89555Y125335D01*
Y126668D01*
X88888Y127334D01*
X89555Y131333D02*
Y128667D01*
X86889Y131333D01*
X86222D01*
X85556Y130666D01*
Y129333D01*
X86222Y128667D01*
Y132666D02*
X85556Y133332D01*
Y134665D01*
X86222Y135332D01*
X88888D01*
X89555Y134665D01*
Y133332D01*
X88888Y132666D01*
X86222D01*
X37667Y129205D02*
X37001Y128538D01*
Y127206D01*
X37667Y126539D01*
X40333D01*
X40999Y127206D01*
Y128538D01*
X40333Y129205D01*
X40999Y130538D02*
Y131871D01*
Y131204D01*
X37001D01*
X37667Y130538D01*
X40333Y133870D02*
X40999Y134536D01*
Y135869D01*
X40333Y136536D01*
X37667D01*
X37001Y135869D01*
Y134536D01*
X37667Y133870D01*
X38334D01*
X39000Y134536D01*
Y136536D01*
X44667Y129205D02*
X44001Y128538D01*
Y127206D01*
X44667Y126539D01*
X47333D01*
X47999Y127206D01*
Y128538D01*
X47333Y129205D01*
X47999Y130538D02*
Y131871D01*
Y131204D01*
X44001D01*
X44667Y130538D01*
Y133870D02*
X44001Y134536D01*
Y135869D01*
X44667Y136536D01*
X45334D01*
X46000Y135869D01*
X46666Y136536D01*
X47333D01*
X47999Y135869D01*
Y134536D01*
X47333Y133870D01*
X46666D01*
X46000Y134536D01*
X45334Y133870D01*
X44667D01*
X46000Y134536D02*
Y135869D01*
X51376Y129205D02*
X50709Y128538D01*
Y127206D01*
X51376Y126539D01*
X54042D01*
X54708Y127206D01*
Y128538D01*
X54042Y129205D01*
X54708Y130538D02*
Y131871D01*
Y131204D01*
X50709D01*
X51376Y130538D01*
X50709Y133870D02*
Y136536D01*
X51376D01*
X54042Y133870D01*
X54708D01*
X80552Y127667D02*
X79886Y127001D01*
Y125668D01*
X80552Y125002D01*
X83218D01*
X83885Y125668D01*
Y127001D01*
X83218Y127667D01*
X83885Y129000D02*
Y130333D01*
Y129667D01*
X79886D01*
X80552Y129000D01*
X79886Y134998D02*
X80552Y133666D01*
X81885Y132333D01*
X83218D01*
X83885Y132999D01*
Y134332D01*
X83218Y134998D01*
X82551D01*
X81885Y134332D01*
Y132333D01*
X91667Y127667D02*
X91001Y127001D01*
Y125668D01*
X91667Y125002D01*
X94333D01*
X94999Y125668D01*
Y127001D01*
X94333Y127667D01*
X94999Y129000D02*
Y130333D01*
Y129667D01*
X91001D01*
X91667Y129000D01*
X91001Y134998D02*
Y132333D01*
X93000D01*
X92334Y133666D01*
Y134332D01*
X93000Y134998D01*
X94333D01*
X94999Y134332D01*
Y132999D01*
X94333Y132333D01*
X51667Y167188D02*
X51001Y166521D01*
Y165188D01*
X51667Y164522D01*
X54333D01*
X54999Y165188D01*
Y166521D01*
X54333Y167188D01*
X54999Y168520D02*
Y169853D01*
Y169187D01*
X51001D01*
X51667Y168520D01*
X54999Y173852D02*
X51001D01*
X53000Y171853D01*
Y174518D01*
X73415Y191615D02*
X72749Y190948D01*
Y189615D01*
X73415Y188949D01*
X76081D01*
X76748Y189615D01*
Y190948D01*
X76081Y191615D01*
X76748Y192948D02*
Y194281D01*
Y193614D01*
X72749D01*
X73415Y192948D01*
Y196280D02*
X72749Y196946D01*
Y198279D01*
X73415Y198946D01*
X74082D01*
X74748Y198279D01*
Y197613D01*
Y198279D01*
X75415Y198946D01*
X76081D01*
X76748Y198279D01*
Y196946D01*
X76081Y196280D01*
X45667Y167667D02*
X45001Y167001D01*
Y165668D01*
X45667Y165002D01*
X48333D01*
X48999Y165668D01*
Y167001D01*
X48333Y167667D01*
X48999Y169000D02*
Y170333D01*
Y169667D01*
X45001D01*
X45667Y169000D01*
X48999Y174998D02*
Y172333D01*
X46334Y174998D01*
X45667D01*
X45001Y174332D01*
Y172999D01*
X45667Y172333D01*
X62648Y193531D02*
X61981Y192864D01*
Y191531D01*
X62648Y190865D01*
X65314D01*
X65980Y191531D01*
Y192864D01*
X65314Y193531D01*
X65980Y194864D02*
Y196196D01*
Y195530D01*
X61981D01*
X62648Y194864D01*
X65980Y198196D02*
Y199529D01*
Y198862D01*
X61981D01*
X62648Y198196D01*
X97953Y157111D02*
X97287Y157777D01*
X95954D01*
X95288Y157111D01*
Y154445D01*
X95954Y153778D01*
X97287D01*
X97953Y154445D01*
X99286Y153778D02*
X100619D01*
X99953D01*
Y157777D01*
X99286Y157111D01*
X102619D02*
X103285Y157777D01*
X104618D01*
X105284Y157111D01*
Y154445D01*
X104618Y153778D01*
X103285D01*
X102619Y154445D01*
Y157111D01*
X98334Y169333D02*
X97667Y169999D01*
X96334D01*
X95668Y169333D01*
Y166667D01*
X96334Y166001D01*
X97667D01*
X98334Y166667D01*
X99667D02*
X100333Y166001D01*
X101666D01*
X102332Y166667D01*
Y169333D01*
X101666Y169999D01*
X100333D01*
X99667Y169333D01*
Y168667D01*
X100333Y168000D01*
X102332D01*
X98334Y163333D02*
X97667Y163999D01*
X96334D01*
X95668Y163333D01*
Y160667D01*
X96334Y160001D01*
X97667D01*
X98334Y160667D01*
X99667Y163333D02*
X100333Y163999D01*
X101666D01*
X102332Y163333D01*
Y162666D01*
X101666Y162000D01*
X102332Y161334D01*
Y160667D01*
X101666Y160001D01*
X100333D01*
X99667Y160667D01*
Y161334D01*
X100333Y162000D01*
X99667Y162666D01*
Y163333D01*
X100333Y162000D02*
X101666D01*
X39462Y167333D02*
X38796Y166667D01*
Y165334D01*
X39462Y164668D01*
X42128D01*
X42795Y165334D01*
Y166667D01*
X42128Y167333D01*
X38796Y168667D02*
Y171332D01*
X39462D01*
X42128Y168667D01*
X42795D01*
X68061Y192389D02*
X67394Y191722D01*
Y190389D01*
X68061Y189723D01*
X70727D01*
X71393Y190389D01*
Y191722D01*
X70727Y192389D01*
X67394Y196387D02*
X68061Y195054D01*
X69394Y193722D01*
X70727D01*
X71393Y194388D01*
Y195721D01*
X70727Y196387D01*
X70060D01*
X69394Y195721D01*
Y193722D01*
X96334Y180986D02*
X95667Y181653D01*
X94334D01*
X93668Y180986D01*
Y178321D01*
X94334Y177654D01*
X95667D01*
X96334Y178321D01*
X100332Y181653D02*
X97667D01*
Y179654D01*
X98999Y180320D01*
X99666D01*
X100332Y179654D01*
Y178321D01*
X99666Y177654D01*
X98333D01*
X97667Y178321D01*
X96334Y186829D02*
X95667Y187495D01*
X94334D01*
X93668Y186829D01*
Y184163D01*
X94334Y183497D01*
X95667D01*
X96334Y184163D01*
X99666Y183497D02*
Y187495D01*
X97667Y185496D01*
X100332D01*
X265213Y251432D02*
X264546Y252099D01*
X263213D01*
X262547Y251432D01*
Y248766D01*
X263213Y248100D01*
X264546D01*
X265213Y248766D01*
X266546Y251432D02*
X267212Y252099D01*
X268545D01*
X269211Y251432D01*
Y250766D01*
X268545Y250099D01*
X267878D01*
X268545D01*
X269211Y249433D01*
Y248766D01*
X268545Y248100D01*
X267212D01*
X266546Y248766D01*
X320334Y249833D02*
X319667Y250499D01*
X318334D01*
X317668Y249833D01*
Y247167D01*
X318334Y246501D01*
X319667D01*
X320334Y247167D01*
X324332Y246501D02*
X321667D01*
X324332Y249166D01*
Y249833D01*
X323666Y250499D01*
X322333D01*
X321667Y249833D01*
X246001Y162252D02*
X247334D01*
X246668D01*
Y158253D01*
X246001D01*
X247334D01*
X251999Y161585D02*
X251333Y162252D01*
X250000D01*
X249334Y161585D01*
Y158920D01*
X250000Y158253D01*
X251333D01*
X251999Y158920D01*
X255998Y161585D02*
X255331Y162252D01*
X253999D01*
X253332Y161585D01*
Y160919D01*
X253999Y160252D01*
X255331D01*
X255998Y159586D01*
Y158920D01*
X255331Y158253D01*
X253999D01*
X253332Y158920D01*
X257331Y158253D02*
Y162252D01*
X259330D01*
X259997Y161585D01*
Y160252D01*
X259330Y159586D01*
X257331D01*
X261330Y158253D02*
X262663D01*
X261996D01*
Y162252D01*
X261330Y161585D01*
X112000Y58583D02*
Y62581D01*
X113999D01*
X114666Y61915D01*
Y60582D01*
X113999Y59916D01*
X112000D01*
X117998Y62581D02*
X116665D01*
X115999Y61915D01*
Y59249D01*
X116665Y58583D01*
X117998D01*
X118665Y59249D01*
Y61915D01*
X117998Y62581D01*
X119997D02*
Y58583D01*
X121330Y59916D01*
X122663Y58583D01*
Y62581D01*
X126662D02*
X123996D01*
Y58583D01*
X126662D01*
X123996Y60582D02*
X125329D01*
X127995Y58583D02*
Y62581D01*
X129994D01*
X130661Y61915D01*
Y60582D01*
X129994Y59916D01*
X127995D01*
X129328D02*
X130661Y58583D01*
X131994D02*
X133326D01*
X132660D01*
Y62581D01*
X131994Y61915D01*
X212000Y237501D02*
X210667D01*
X211334D01*
Y241500D01*
X212000D01*
X210667D01*
X206668Y237501D02*
X208001D01*
X208668Y238168D01*
Y240834D01*
X208001Y241500D01*
X206668D01*
X206002Y240834D01*
Y238168D01*
X206668Y237501D01*
X204669D02*
Y241500D01*
X202003D01*
X200670D02*
X199337D01*
X200004D01*
Y237501D01*
X200670Y238168D01*
X194480Y57653D02*
Y60319D01*
X195813Y61652D01*
X197146Y60319D01*
Y57653D01*
Y59653D01*
X194480D01*
X198479Y61652D02*
Y57653D01*
X200478D01*
X201145Y58320D01*
Y60986D01*
X200478Y61652D01*
X198479D01*
X202478Y57653D02*
X203811D01*
X203144D01*
Y61652D01*
X202478Y60986D01*
D16*
X259520Y191693D02*
X260853D01*
X260186D01*
Y195692D01*
X259520Y195025D01*
X265518Y195692D02*
X264185Y195025D01*
X262852Y193692D01*
Y192359D01*
X263518Y191693D01*
X264851D01*
X265518Y192359D01*
Y193026D01*
X264851Y193692D01*
X262852D01*
D17*
X86598Y208941D02*
D03*
Y217941D02*
D03*
X85957Y194941D02*
D03*
X249598Y27941D02*
D03*
D18*
X214059Y97492D02*
D03*
X154504Y65760D02*
D03*
M02*
