G04*
G04 #@! TF.GenerationSoftware,Altium Limited,Altium Designer,20.1.14 (287)*
G04*
G04 Layer_Physical_Order=2*
G04 Layer_Color=16711680*
%FSLAX25Y25*%
%MOIN*%
G70*
G04*
G04 #@! TF.SameCoordinates,0E931F91-B317-41B1-A8FB-8677B043815F*
G04*
G04*
G04 #@! TF.FilePolarity,Positive*
G04*
G01*
G75*
%ADD13C,0.00500*%
%ADD15C,0.01000*%
%ADD56R,0.04921X0.04921*%
%ADD57C,0.04921*%
%ADD95C,0.02000*%
%ADD97C,0.06000*%
%ADD98C,0.06299*%
%ADD99R,0.06299X0.06299*%
%ADD100C,0.05543*%
%ADD101C,0.04724*%
%ADD102R,0.04724X0.04724*%
%ADD103R,0.05906X0.05906*%
%ADD104C,0.05906*%
%ADD105C,0.07000*%
%ADD106R,0.06000X0.06000*%
%ADD107C,0.12598*%
%ADD108C,0.02362*%
%ADD109C,0.10000*%
G36*
X183077Y268518D02*
X179279Y264721D01*
X179058Y264390D01*
X178980Y264000D01*
Y233366D01*
X178235Y233057D01*
X177504Y232496D01*
X176943Y231765D01*
X176590Y230914D01*
X176470Y230000D01*
X176590Y229086D01*
X176943Y228235D01*
X177504Y227504D01*
X178235Y226943D01*
X179086Y226590D01*
X180000Y226470D01*
X180914Y226590D01*
X181765Y226943D01*
X182480Y227492D01*
X182662Y227465D01*
X182980Y227357D01*
Y225422D01*
X181578Y224020D01*
X171422D01*
X167500Y227942D01*
Y233500D01*
X160500D01*
Y226500D01*
X166058D01*
X170038Y222520D01*
X169831Y222020D01*
X143422D01*
X137101Y228341D01*
X137410Y229086D01*
X137530Y230000D01*
X137410Y230914D01*
X137057Y231765D01*
X136496Y232496D01*
X135765Y233057D01*
X134914Y233410D01*
X134000Y233530D01*
X133086Y233410D01*
X132235Y233057D01*
X131504Y232496D01*
X130943Y231765D01*
X130590Y230914D01*
X130470Y230000D01*
X130590Y229086D01*
X130943Y228235D01*
X131504Y227504D01*
X132235Y226943D01*
X133086Y226590D01*
X134000Y226470D01*
X134914Y226590D01*
X135659Y226899D01*
X142039Y220520D01*
X141831Y220020D01*
X127422D01*
X125020Y222422D01*
Y226634D01*
X125765Y226943D01*
X126496Y227504D01*
X127057Y228235D01*
X127410Y229086D01*
X127530Y230000D01*
X127410Y230914D01*
X127057Y231765D01*
X126496Y232496D01*
X125765Y233057D01*
X124914Y233410D01*
X124000Y233530D01*
X123086Y233410D01*
X122235Y233057D01*
X121504Y232496D01*
X120943Y231765D01*
X120590Y230914D01*
X120470Y230000D01*
X120590Y229086D01*
X120943Y228235D01*
X121504Y227504D01*
X122235Y226943D01*
X122980Y226634D01*
Y222000D01*
X123058Y221610D01*
X123279Y221279D01*
X126279Y218279D01*
X126610Y218058D01*
X127000Y217980D01*
X199000D01*
X199390Y218058D01*
X199721Y218279D01*
X205721Y224279D01*
X205942Y224610D01*
X206020Y225000D01*
Y229589D01*
X206520Y229622D01*
X206590Y229086D01*
X206943Y228235D01*
X207504Y227504D01*
X208235Y226943D01*
X209086Y226590D01*
X210000Y226470D01*
X210914Y226590D01*
X211765Y226943D01*
X212480Y227492D01*
X212662Y227465D01*
X212980Y227357D01*
Y223619D01*
X206381Y217020D01*
X117422D01*
X115020Y219422D01*
Y226634D01*
X115765Y226943D01*
X116496Y227504D01*
X117057Y228235D01*
X117410Y229086D01*
X117530Y230000D01*
X117410Y230914D01*
X117057Y231765D01*
X116496Y232496D01*
X115765Y233057D01*
X114914Y233410D01*
X114000Y233530D01*
X113086Y233410D01*
X112235Y233057D01*
X111504Y232496D01*
X110943Y231765D01*
X110590Y230914D01*
X110470Y230000D01*
X110590Y229086D01*
X110943Y228235D01*
X111504Y227504D01*
X112235Y226943D01*
X112980Y226634D01*
Y219000D01*
X113058Y218610D01*
X113279Y218279D01*
X116279Y215279D01*
X116610Y215058D01*
X117000Y214980D01*
X206803D01*
X207193Y215058D01*
X207524Y215279D01*
X214721Y222476D01*
X214942Y222807D01*
X215020Y223197D01*
Y233578D01*
X242422Y260980D01*
X349578D01*
X352980Y257578D01*
Y152422D01*
X280279Y79721D01*
X280058Y79390D01*
X279980Y79000D01*
Y22453D01*
X277547D01*
Y15547D01*
X284453D01*
Y22453D01*
X282020D01*
Y78578D01*
X354721Y151279D01*
X354942Y151610D01*
X355020Y152000D01*
Y257831D01*
X355465Y258052D01*
X355502Y258056D01*
X355980Y257578D01*
Y145422D01*
X290279Y79721D01*
X290058Y79390D01*
X289980Y79000D01*
Y22315D01*
X289259Y22016D01*
X288538Y21463D01*
X287984Y20741D01*
X287636Y19901D01*
X287517Y19000D01*
X287636Y18099D01*
X287984Y17259D01*
X288538Y16537D01*
X289259Y15984D01*
X290099Y15636D01*
X291000Y15518D01*
X291901Y15636D01*
X292741Y15984D01*
X293462Y16537D01*
X294016Y17259D01*
X294364Y18099D01*
X294482Y19000D01*
X294364Y19901D01*
X294016Y20741D01*
X293462Y21463D01*
X292741Y22016D01*
X292020Y22315D01*
Y78578D01*
X357721Y144279D01*
X357942Y144610D01*
X358020Y145000D01*
Y258000D01*
X357942Y258390D01*
X357721Y258721D01*
X352424Y264019D01*
X352615Y264480D01*
X353078D01*
X359980Y257578D01*
Y139422D01*
X300279Y79721D01*
X300058Y79390D01*
X299980Y79000D01*
Y22315D01*
X299259Y22016D01*
X298537Y21463D01*
X297984Y20741D01*
X297636Y19901D01*
X297517Y19000D01*
X297636Y18099D01*
X297984Y17259D01*
X298537Y16537D01*
X299259Y15984D01*
X300099Y15636D01*
X301000Y15518D01*
X301901Y15636D01*
X302741Y15984D01*
X303463Y16537D01*
X304016Y17259D01*
X304364Y18099D01*
X304483Y19000D01*
X304364Y19901D01*
X304016Y20741D01*
X303463Y21463D01*
X302741Y22016D01*
X302020Y22315D01*
Y78578D01*
X361721Y138279D01*
X361942Y138610D01*
X362020Y139000D01*
Y258000D01*
X361942Y258390D01*
X361721Y258721D01*
X354924Y265518D01*
X355115Y265980D01*
X355578D01*
X363980Y257578D01*
Y133422D01*
X310279Y79721D01*
X310058Y79390D01*
X309980Y79000D01*
Y22315D01*
X309259Y22016D01*
X308538Y21463D01*
X307984Y20741D01*
X307636Y19901D01*
X307518Y19000D01*
X307636Y18099D01*
X307984Y17259D01*
X308538Y16537D01*
X309259Y15984D01*
X310099Y15636D01*
X311000Y15518D01*
X311901Y15636D01*
X312741Y15984D01*
X313462Y16537D01*
X314016Y17259D01*
X314364Y18099D01*
X314482Y19000D01*
X314364Y19901D01*
X314016Y20741D01*
X313462Y21463D01*
X312741Y22016D01*
X312020Y22315D01*
Y78578D01*
X365721Y132279D01*
X365942Y132610D01*
X366020Y133000D01*
Y257831D01*
X366465Y258052D01*
X366502Y258056D01*
X366980Y257578D01*
Y126422D01*
X320279Y79721D01*
X320058Y79390D01*
X319980Y79000D01*
Y22315D01*
X319259Y22016D01*
X318537Y21463D01*
X317984Y20741D01*
X317636Y19901D01*
X317517Y19000D01*
X317636Y18099D01*
X317984Y17259D01*
X318537Y16537D01*
X319259Y15984D01*
X320099Y15636D01*
X321000Y15518D01*
X321901Y15636D01*
X322741Y15984D01*
X323463Y16537D01*
X324016Y17259D01*
X324364Y18099D01*
X324482Y19000D01*
X324364Y19901D01*
X324016Y20741D01*
X323463Y21463D01*
X322741Y22016D01*
X322020Y22315D01*
Y78578D01*
X368480Y125039D01*
X368980Y124831D01*
Y7922D01*
X362078Y1020D01*
X7922D01*
X1020Y7922D01*
Y23038D01*
X1520Y23190D01*
X1788Y22788D01*
X2344Y22416D01*
X3000Y22286D01*
X3656Y22416D01*
X4212Y22788D01*
X4584Y23344D01*
X4714Y24000D01*
X4584Y24656D01*
X4529Y24737D01*
Y213367D01*
X7980Y216817D01*
X36105D01*
X36187Y216763D01*
X36843Y216632D01*
X37499Y216763D01*
X38054Y217134D01*
X38426Y217690D01*
X38557Y218347D01*
X38426Y219002D01*
X38054Y219559D01*
X37499Y219930D01*
X36843Y220060D01*
X36187Y219930D01*
X36105Y219876D01*
X7346D01*
X6761Y219759D01*
X6265Y219428D01*
X1919Y215081D01*
X1587Y214585D01*
X1520Y214246D01*
X1020Y214296D01*
Y262078D01*
X7922Y268980D01*
X182885D01*
X183077Y268518D01*
D02*
G37*
%LPC*%
G36*
X253500Y233500D02*
X246500D01*
Y226500D01*
X253500D01*
Y233500D01*
D02*
G37*
G36*
X240000Y233530D02*
X239086Y233410D01*
X238235Y233057D01*
X237504Y232496D01*
X236943Y231765D01*
X236590Y230914D01*
X236470Y230000D01*
X236590Y229086D01*
X236943Y228235D01*
X237504Y227504D01*
X238235Y226943D01*
X239086Y226590D01*
X240000Y226470D01*
X240914Y226590D01*
X241765Y226943D01*
X242496Y227504D01*
X243057Y228235D01*
X243410Y229086D01*
X243530Y230000D01*
X243410Y230914D01*
X243057Y231765D01*
X242496Y232496D01*
X241765Y233057D01*
X240914Y233410D01*
X240000Y233530D01*
D02*
G37*
G36*
X230000D02*
X229086Y233410D01*
X228235Y233057D01*
X227504Y232496D01*
X226943Y231765D01*
X226590Y230914D01*
X226470Y230000D01*
X226590Y229086D01*
X226943Y228235D01*
X227504Y227504D01*
X228235Y226943D01*
X229086Y226590D01*
X230000Y226470D01*
X230914Y226590D01*
X231765Y226943D01*
X232496Y227504D01*
X233057Y228235D01*
X233410Y229086D01*
X233530Y230000D01*
X233410Y230914D01*
X233057Y231765D01*
X232496Y232496D01*
X231765Y233057D01*
X230914Y233410D01*
X230000Y233530D01*
D02*
G37*
G36*
X220000D02*
X219086Y233410D01*
X218235Y233057D01*
X217504Y232496D01*
X216943Y231765D01*
X216590Y230914D01*
X216470Y230000D01*
X216590Y229086D01*
X216943Y228235D01*
X217504Y227504D01*
X218235Y226943D01*
X219086Y226590D01*
X220000Y226470D01*
X220914Y226590D01*
X221765Y226943D01*
X222496Y227504D01*
X223057Y228235D01*
X223410Y229086D01*
X223530Y230000D01*
X223410Y230914D01*
X223057Y231765D01*
X222496Y232496D01*
X221765Y233057D01*
X220914Y233410D01*
X220000Y233530D01*
D02*
G37*
G36*
X154000D02*
X153086Y233410D01*
X152235Y233057D01*
X151504Y232496D01*
X150943Y231765D01*
X150590Y230914D01*
X150470Y230000D01*
X150590Y229086D01*
X150943Y228235D01*
X151504Y227504D01*
X152235Y226943D01*
X153086Y226590D01*
X154000Y226470D01*
X154914Y226590D01*
X155765Y226943D01*
X156496Y227504D01*
X157057Y228235D01*
X157410Y229086D01*
X157530Y230000D01*
X157410Y230914D01*
X157057Y231765D01*
X156496Y232496D01*
X155765Y233057D01*
X154914Y233410D01*
X154000Y233530D01*
D02*
G37*
G36*
X144000D02*
X143086Y233410D01*
X142235Y233057D01*
X141504Y232496D01*
X140943Y231765D01*
X140590Y230914D01*
X140470Y230000D01*
X140590Y229086D01*
X140943Y228235D01*
X141504Y227504D01*
X142235Y226943D01*
X143086Y226590D01*
X144000Y226470D01*
X144914Y226590D01*
X145765Y226943D01*
X146496Y227504D01*
X147057Y228235D01*
X147410Y229086D01*
X147530Y230000D01*
X147410Y230914D01*
X147057Y231765D01*
X146496Y232496D01*
X145765Y233057D01*
X144914Y233410D01*
X144000Y233530D01*
D02*
G37*
G36*
X104000D02*
X103086Y233410D01*
X102235Y233057D01*
X101504Y232496D01*
X100943Y231765D01*
X100590Y230914D01*
X100470Y230000D01*
X100590Y229086D01*
X100943Y228235D01*
X101504Y227504D01*
X102235Y226943D01*
X103086Y226590D01*
X104000Y226470D01*
X104914Y226590D01*
X105765Y226943D01*
X106496Y227504D01*
X107057Y228235D01*
X107410Y229086D01*
X107530Y230000D01*
X107410Y230914D01*
X107057Y231765D01*
X106496Y232496D01*
X105765Y233057D01*
X104914Y233410D01*
X104000Y233530D01*
D02*
G37*
G36*
X94000D02*
X93086Y233410D01*
X92235Y233057D01*
X91504Y232496D01*
X90943Y231765D01*
X90590Y230914D01*
X90470Y230000D01*
X90590Y229086D01*
X90943Y228235D01*
X91504Y227504D01*
X92235Y226943D01*
X93086Y226590D01*
X94000Y226470D01*
X94914Y226590D01*
X95765Y226943D01*
X96496Y227504D01*
X97057Y228235D01*
X97410Y229086D01*
X97530Y230000D01*
X97410Y230914D01*
X97057Y231765D01*
X96496Y232496D01*
X95765Y233057D01*
X94914Y233410D01*
X94000Y233530D01*
D02*
G37*
G36*
X84000D02*
X83086Y233410D01*
X82235Y233057D01*
X81504Y232496D01*
X80943Y231765D01*
X80590Y230914D01*
X80470Y230000D01*
X80590Y229086D01*
X80943Y228235D01*
X81504Y227504D01*
X82235Y226943D01*
X83086Y226590D01*
X84000Y226470D01*
X84914Y226590D01*
X85765Y226943D01*
X86496Y227504D01*
X87057Y228235D01*
X87410Y229086D01*
X87530Y230000D01*
X87410Y230914D01*
X87057Y231765D01*
X86496Y232496D01*
X85765Y233057D01*
X84914Y233410D01*
X84000Y233530D01*
D02*
G37*
G36*
X60000Y237319D02*
X58572Y237178D01*
X57199Y236762D01*
X55934Y236085D01*
X54825Y235175D01*
X53915Y234066D01*
X53238Y232801D01*
X52822Y231428D01*
X52681Y230000D01*
X52822Y228572D01*
X53238Y227199D01*
X53915Y225934D01*
X54825Y224825D01*
X55934Y223915D01*
X57199Y223238D01*
X58572Y222822D01*
X60000Y222681D01*
X61428Y222822D01*
X62801Y223238D01*
X64066Y223915D01*
X65175Y224825D01*
X66085Y225934D01*
X66762Y227199D01*
X67178Y228572D01*
X67319Y230000D01*
X67178Y231428D01*
X66762Y232801D01*
X66085Y234066D01*
X65175Y235175D01*
X64066Y236085D01*
X62801Y236762D01*
X61428Y237178D01*
X60000Y237319D01*
D02*
G37*
G36*
X260000Y217454D02*
X259344Y217324D01*
X258788Y216952D01*
X258416Y216396D01*
X258286Y215740D01*
X258416Y215084D01*
X258788Y214528D01*
X259344Y214157D01*
X260000Y214026D01*
X260656Y214157D01*
X261212Y214528D01*
X261584Y215084D01*
X261714Y215740D01*
X261584Y216396D01*
X261212Y216952D01*
X260656Y217324D01*
X260000Y217454D01*
D02*
G37*
G36*
X252000Y215214D02*
X251344Y215084D01*
X250788Y214712D01*
X250416Y214156D01*
X250286Y213500D01*
X250416Y212844D01*
X250788Y212288D01*
X251344Y211916D01*
X252000Y211786D01*
X252656Y211916D01*
X253212Y212288D01*
X253584Y212844D01*
X253714Y213500D01*
X253584Y214156D01*
X253212Y214712D01*
X252656Y215084D01*
X252000Y215214D01*
D02*
G37*
G36*
X32508Y204299D02*
X26783D01*
Y198575D01*
X32508D01*
Y204299D01*
D02*
G37*
G36*
X29896Y196417D02*
Y193813D01*
X32500D01*
X32434Y194310D01*
X32146Y195006D01*
X31687Y195604D01*
X31089Y196063D01*
X30393Y196352D01*
X29896Y196417D01*
D02*
G37*
G36*
X29396Y196417D02*
X28899Y196352D01*
X28202Y196063D01*
X27604Y195604D01*
X27145Y195006D01*
X26857Y194310D01*
X26792Y193813D01*
X29396D01*
Y196417D01*
D02*
G37*
G36*
Y193313D02*
X26792D01*
X26857Y192816D01*
X27145Y192120D01*
X27604Y191522D01*
X28202Y191063D01*
X28899Y190775D01*
X29396Y190709D01*
Y193313D01*
D02*
G37*
G36*
X32500D02*
X29896D01*
Y190709D01*
X30393Y190775D01*
X31089Y191063D01*
X31687Y191522D01*
X32146Y192120D01*
X32434Y192816D01*
X32500Y193313D01*
D02*
G37*
G36*
X65000Y191714D02*
X64344Y191584D01*
X63788Y191212D01*
X63416Y190656D01*
X63286Y190000D01*
X63391Y189472D01*
X57459Y183541D01*
X57293Y183293D01*
X57235Y183000D01*
Y173511D01*
X56788Y173212D01*
X56416Y172656D01*
X56286Y172000D01*
X56416Y171344D01*
X56788Y170788D01*
X57344Y170416D01*
X58000Y170286D01*
X58656Y170416D01*
X59212Y170788D01*
X59584Y171344D01*
X59714Y172000D01*
X59584Y172656D01*
X59212Y173212D01*
X58765Y173511D01*
Y182683D01*
X64472Y188391D01*
X65000Y188286D01*
X65656Y188416D01*
X66212Y188788D01*
X66584Y189344D01*
X66714Y190000D01*
X66584Y190656D01*
X66212Y191212D01*
X65656Y191584D01*
X65000Y191714D01*
D02*
G37*
G36*
X74000Y233530D02*
X73086Y233410D01*
X72235Y233057D01*
X71504Y232496D01*
X70943Y231765D01*
X70590Y230914D01*
X70470Y230000D01*
X70590Y229086D01*
X70943Y228235D01*
X71504Y227504D01*
X72235Y226943D01*
X73086Y226590D01*
X74000Y226470D01*
X74914Y226590D01*
X75659Y226899D01*
X92279Y210279D01*
X92610Y210058D01*
X93000Y209980D01*
X144704D01*
X144754Y209480D01*
X144415Y209413D01*
X143919Y209081D01*
X123264Y188427D01*
X122953Y188556D01*
X122000Y188681D01*
X121047Y188556D01*
X120159Y188188D01*
X119397Y187603D01*
X118812Y186840D01*
X118444Y185953D01*
X118319Y185000D01*
X118444Y184047D01*
X118812Y183159D01*
X119397Y182397D01*
X120159Y181812D01*
X120471Y181683D01*
Y118838D01*
X120587Y118253D01*
X120919Y117757D01*
X123113Y115562D01*
X123157Y115344D01*
X123528Y114788D01*
X124084Y114416D01*
X124740Y114286D01*
X125396Y114416D01*
X125952Y114788D01*
X126324Y115344D01*
X126454Y116000D01*
X126324Y116656D01*
X125952Y117212D01*
X125461Y117541D01*
X123529Y119472D01*
Y181683D01*
X123840Y181812D01*
X124603Y182397D01*
X125188Y183159D01*
X125556Y184047D01*
X125681Y185000D01*
X125556Y185953D01*
X125427Y186264D01*
X145633Y206471D01*
X205263D01*
X205344Y206416D01*
X205440Y206397D01*
X206600Y205238D01*
X207096Y204906D01*
X207681Y204789D01*
X232055D01*
X232640Y204906D01*
X233137Y205238D01*
X235242Y207343D01*
X235626Y207302D01*
X235629Y207298D01*
X235918Y206840D01*
X235821Y206350D01*
Y186619D01*
X235321Y186519D01*
X235188Y186840D01*
X234603Y187603D01*
X233840Y188188D01*
X232953Y188556D01*
X232000Y188681D01*
X231047Y188556D01*
X230159Y188188D01*
X229397Y187603D01*
X228812Y186840D01*
X228444Y185953D01*
X228319Y185000D01*
X228444Y184047D01*
X228812Y183159D01*
X229397Y182397D01*
X230159Y181812D01*
X231047Y181444D01*
X232000Y181319D01*
X232953Y181444D01*
X233840Y181812D01*
X234603Y182397D01*
X235188Y183159D01*
X235321Y183481D01*
X235821Y183381D01*
Y177337D01*
X235937Y176751D01*
X236269Y176255D01*
X239471Y173054D01*
Y164737D01*
X239416Y164656D01*
X239286Y164000D01*
X239416Y163344D01*
X239788Y162788D01*
X240344Y162416D01*
X241000Y162286D01*
X241656Y162416D01*
X242212Y162788D01*
X242584Y163344D01*
X242714Y164000D01*
X242584Y164656D01*
X242529Y164737D01*
Y173687D01*
X242413Y174272D01*
X242081Y174769D01*
X238880Y177970D01*
Y182293D01*
X239353Y182454D01*
X239397Y182397D01*
X240160Y181812D01*
X241047Y181444D01*
X242000Y181319D01*
X242953Y181444D01*
X243841Y181812D01*
X244603Y182397D01*
X245188Y183159D01*
X245556Y184047D01*
X245681Y185000D01*
X245556Y185953D01*
X245188Y186840D01*
X244603Y187603D01*
X243841Y188188D01*
X242953Y188556D01*
X242000Y188681D01*
X241047Y188556D01*
X240160Y188188D01*
X239397Y187603D01*
X239353Y187546D01*
X238880Y187706D01*
Y205717D01*
X240560Y207397D01*
X240656Y207416D01*
X241212Y207788D01*
X241584Y208344D01*
X241714Y209000D01*
X241584Y209656D01*
X241212Y210212D01*
X240656Y210584D01*
X240000Y210714D01*
X239344Y210584D01*
X239263Y210529D01*
X234736D01*
X234151Y210413D01*
X233655Y210081D01*
X231422Y207848D01*
X229783D01*
X229547Y208289D01*
X229584Y208344D01*
X229714Y209000D01*
X229584Y209656D01*
X229212Y210212D01*
X228656Y210584D01*
X228000Y210714D01*
X227773Y210669D01*
X226721Y211721D01*
X226390Y211942D01*
X226000Y212020D01*
X93422D01*
X77101Y228341D01*
X77410Y229086D01*
X77530Y230000D01*
X77410Y230914D01*
X77057Y231765D01*
X76496Y232496D01*
X75765Y233057D01*
X74914Y233410D01*
X74000Y233530D01*
D02*
G37*
G36*
X152250Y188648D02*
Y185250D01*
X155648D01*
X155556Y185953D01*
X155188Y186840D01*
X154603Y187603D01*
X153840Y188188D01*
X152953Y188556D01*
X152250Y188648D01*
D02*
G37*
G36*
X151750D02*
X151047Y188556D01*
X150160Y188188D01*
X149397Y187603D01*
X148812Y186840D01*
X148444Y185953D01*
X148352Y185250D01*
X151750D01*
Y188648D01*
D02*
G37*
G36*
X115650Y188650D02*
X112250D01*
Y185250D01*
X115650D01*
Y188650D01*
D02*
G37*
G36*
X111750D02*
X108350D01*
Y185250D01*
X111750D01*
Y188650D01*
D02*
G37*
G36*
X155648Y184750D02*
X152250D01*
Y181352D01*
X152953Y181444D01*
X153840Y181812D01*
X154603Y182397D01*
X155188Y183159D01*
X155556Y184047D01*
X155648Y184750D01*
D02*
G37*
G36*
X151750D02*
X148352D01*
X148444Y184047D01*
X148812Y183159D01*
X149397Y182397D01*
X150160Y181812D01*
X151047Y181444D01*
X151750Y181352D01*
Y184750D01*
D02*
G37*
G36*
X115650D02*
X112250D01*
Y181350D01*
X115650D01*
Y184750D01*
D02*
G37*
G36*
X111750D02*
X108350D01*
Y181350D01*
X111750D01*
Y184750D01*
D02*
G37*
G36*
X262000Y188681D02*
X261047Y188556D01*
X260159Y188188D01*
X259397Y187603D01*
X258812Y186840D01*
X258444Y185953D01*
X258319Y185000D01*
X258444Y184047D01*
X258812Y183159D01*
X259397Y182397D01*
X260159Y181812D01*
X261047Y181444D01*
X262000Y181319D01*
X262953Y181444D01*
X263841Y181812D01*
X264603Y182397D01*
X265188Y183159D01*
X265556Y184047D01*
X265681Y185000D01*
X265556Y185953D01*
X265188Y186840D01*
X264603Y187603D01*
X263841Y188188D01*
X262953Y188556D01*
X262000Y188681D01*
D02*
G37*
G36*
X252000D02*
X251047Y188556D01*
X250160Y188188D01*
X249397Y187603D01*
X248812Y186840D01*
X248444Y185953D01*
X248319Y185000D01*
X248444Y184047D01*
X248812Y183159D01*
X249397Y182397D01*
X250160Y181812D01*
X251047Y181444D01*
X252000Y181319D01*
X252953Y181444D01*
X253840Y181812D01*
X254603Y182397D01*
X255188Y183159D01*
X255556Y184047D01*
X255681Y185000D01*
X255556Y185953D01*
X255188Y186840D01*
X254603Y187603D01*
X253840Y188188D01*
X252953Y188556D01*
X252000Y188681D01*
D02*
G37*
G36*
X222000D02*
X221047Y188556D01*
X220160Y188188D01*
X219397Y187603D01*
X218812Y186840D01*
X218444Y185953D01*
X218319Y185000D01*
X218444Y184047D01*
X218812Y183159D01*
X219397Y182397D01*
X220160Y181812D01*
X221047Y181444D01*
X222000Y181319D01*
X222953Y181444D01*
X223840Y181812D01*
X224603Y182397D01*
X225188Y183159D01*
X225556Y184047D01*
X225681Y185000D01*
X225556Y185953D01*
X225188Y186840D01*
X224603Y187603D01*
X223840Y188188D01*
X222953Y188556D01*
X222000Y188681D01*
D02*
G37*
G36*
X212000D02*
X211047Y188556D01*
X210159Y188188D01*
X209397Y187603D01*
X208812Y186840D01*
X208444Y185953D01*
X208319Y185000D01*
X208444Y184047D01*
X208812Y183159D01*
X209397Y182397D01*
X210159Y181812D01*
X211047Y181444D01*
X212000Y181319D01*
X212953Y181444D01*
X213841Y181812D01*
X214603Y182397D01*
X215188Y183159D01*
X215556Y184047D01*
X215681Y185000D01*
X215556Y185953D01*
X215188Y186840D01*
X214603Y187603D01*
X213841Y188188D01*
X212953Y188556D01*
X212000Y188681D01*
D02*
G37*
G36*
X202000D02*
X201047Y188556D01*
X200160Y188188D01*
X199397Y187603D01*
X198812Y186840D01*
X198444Y185953D01*
X198319Y185000D01*
X198444Y184047D01*
X198812Y183159D01*
X199397Y182397D01*
X200160Y181812D01*
X201047Y181444D01*
X202000Y181319D01*
X202953Y181444D01*
X203840Y181812D01*
X204603Y182397D01*
X205188Y183159D01*
X205556Y184047D01*
X205681Y185000D01*
X205556Y185953D01*
X205188Y186840D01*
X204603Y187603D01*
X203840Y188188D01*
X202953Y188556D01*
X202000Y188681D01*
D02*
G37*
G36*
X192000D02*
X191047Y188556D01*
X190159Y188188D01*
X189397Y187603D01*
X188812Y186840D01*
X188444Y185953D01*
X188319Y185000D01*
X188444Y184047D01*
X188812Y183159D01*
X189397Y182397D01*
X190159Y181812D01*
X191047Y181444D01*
X192000Y181319D01*
X192953Y181444D01*
X193841Y181812D01*
X194603Y182397D01*
X195188Y183159D01*
X195556Y184047D01*
X195681Y185000D01*
X195556Y185953D01*
X195188Y186840D01*
X194603Y187603D01*
X193841Y188188D01*
X192953Y188556D01*
X192000Y188681D01*
D02*
G37*
G36*
X182000D02*
X181047Y188556D01*
X180159Y188188D01*
X179397Y187603D01*
X178812Y186840D01*
X178444Y185953D01*
X178319Y185000D01*
X178444Y184047D01*
X178812Y183159D01*
X179397Y182397D01*
X180159Y181812D01*
X181047Y181444D01*
X182000Y181319D01*
X182953Y181444D01*
X183841Y181812D01*
X184603Y182397D01*
X185188Y183159D01*
X185556Y184047D01*
X185681Y185000D01*
X185556Y185953D01*
X185188Y186840D01*
X184603Y187603D01*
X183841Y188188D01*
X182953Y188556D01*
X182000Y188681D01*
D02*
G37*
G36*
X172000D02*
X171047Y188556D01*
X170159Y188188D01*
X169397Y187603D01*
X168812Y186840D01*
X168444Y185953D01*
X168319Y185000D01*
X168444Y184047D01*
X168812Y183159D01*
X169397Y182397D01*
X170159Y181812D01*
X171047Y181444D01*
X172000Y181319D01*
X172953Y181444D01*
X173840Y181812D01*
X174603Y182397D01*
X175188Y183159D01*
X175556Y184047D01*
X175681Y185000D01*
X175556Y185953D01*
X175188Y186840D01*
X174603Y187603D01*
X173840Y188188D01*
X172953Y188556D01*
X172000Y188681D01*
D02*
G37*
G36*
X162000D02*
X161047Y188556D01*
X160160Y188188D01*
X159397Y187603D01*
X158812Y186840D01*
X158444Y185953D01*
X158319Y185000D01*
X158444Y184047D01*
X158812Y183159D01*
X159397Y182397D01*
X160160Y181812D01*
X161047Y181444D01*
X162000Y181319D01*
X162953Y181444D01*
X163840Y181812D01*
X164603Y182397D01*
X165188Y183159D01*
X165556Y184047D01*
X165681Y185000D01*
X165556Y185953D01*
X165188Y186840D01*
X164603Y187603D01*
X163840Y188188D01*
X162953Y188556D01*
X162000Y188681D01*
D02*
G37*
G36*
X142000D02*
X141047Y188556D01*
X140159Y188188D01*
X139397Y187603D01*
X138812Y186840D01*
X138444Y185953D01*
X138319Y185000D01*
X138444Y184047D01*
X138812Y183159D01*
X139397Y182397D01*
X140159Y181812D01*
X141047Y181444D01*
X142000Y181319D01*
X142953Y181444D01*
X143841Y181812D01*
X144603Y182397D01*
X145188Y183159D01*
X145556Y184047D01*
X145681Y185000D01*
X145556Y185953D01*
X145188Y186840D01*
X144603Y187603D01*
X143841Y188188D01*
X142953Y188556D01*
X142000Y188681D01*
D02*
G37*
G36*
X132000D02*
X131047Y188556D01*
X130159Y188188D01*
X129397Y187603D01*
X128812Y186840D01*
X128444Y185953D01*
X128319Y185000D01*
X128444Y184047D01*
X128812Y183159D01*
X129397Y182397D01*
X130159Y181812D01*
X131047Y181444D01*
X132000Y181319D01*
X132953Y181444D01*
X133841Y181812D01*
X134603Y182397D01*
X135188Y183159D01*
X135556Y184047D01*
X135681Y185000D01*
X135556Y185953D01*
X135188Y186840D01*
X134603Y187603D01*
X133841Y188188D01*
X132953Y188556D01*
X132000Y188681D01*
D02*
G37*
G36*
X67000Y203151D02*
X66344Y203021D01*
X65788Y202649D01*
X65416Y202093D01*
X65286Y201437D01*
X65416Y200781D01*
X65788Y200225D01*
X66344Y199853D01*
X66440Y199834D01*
X70471Y195803D01*
Y174737D01*
X70416Y174656D01*
X70286Y174000D01*
X70416Y173344D01*
X70788Y172788D01*
X71344Y172416D01*
X72000Y172286D01*
X72656Y172416D01*
X73212Y172788D01*
X73341Y172980D01*
X87659D01*
X87788Y172788D01*
X88344Y172416D01*
X89000Y172286D01*
X89656Y172416D01*
X90212Y172788D01*
X90584Y173344D01*
X90714Y174000D01*
X90584Y174656D01*
X90212Y175212D01*
X89656Y175584D01*
X89000Y175714D01*
X88344Y175584D01*
X87788Y175212D01*
X87659Y175020D01*
X73529D01*
Y196437D01*
X73413Y197022D01*
X73081Y197519D01*
X68603Y201997D01*
X68584Y202093D01*
X68212Y202649D01*
X67656Y203021D01*
X67000Y203151D01*
D02*
G37*
G36*
X196583Y178945D02*
X195928Y178814D01*
X195371Y178443D01*
X195000Y177887D01*
X194869Y177231D01*
X195000Y176575D01*
X195371Y176019D01*
X195928Y175647D01*
X196583Y175517D01*
X196965Y175593D01*
X203279Y169279D01*
X203610Y169058D01*
X204000Y168980D01*
X214877D01*
X214919Y168919D01*
X230471Y153366D01*
Y106737D01*
X230416Y106656D01*
X230286Y106000D01*
X230416Y105344D01*
X230788Y104788D01*
X231344Y104416D01*
X232000Y104286D01*
X232656Y104416D01*
X233212Y104788D01*
X233584Y105344D01*
X233714Y106000D01*
X233584Y106656D01*
X233529Y106737D01*
Y154000D01*
X233413Y154585D01*
X233081Y155081D01*
X219644Y168518D01*
X219836Y168980D01*
X223178D01*
X223196Y168969D01*
X223586Y168891D01*
X224069D01*
X224460Y168969D01*
X224790Y169190D01*
X227773Y172172D01*
X228000Y172127D01*
X228656Y172258D01*
X229212Y172629D01*
X229584Y173185D01*
X229714Y173841D01*
X229584Y174497D01*
X229212Y175053D01*
X228656Y175425D01*
X228000Y175555D01*
X227344Y175425D01*
X226788Y175053D01*
X226416Y174497D01*
X226286Y173841D01*
X226331Y173614D01*
X223697Y170980D01*
X223496Y171020D01*
X217143D01*
X217081Y171081D01*
X216585Y171413D01*
X216000Y171529D01*
X215415Y171413D01*
X214919Y171081D01*
X214877Y171020D01*
X204422D01*
X198283Y177159D01*
X198297Y177231D01*
X198167Y177887D01*
X197795Y178443D01*
X197239Y178814D01*
X196583Y178945D01*
D02*
G37*
G36*
X260000Y177319D02*
X258572Y177178D01*
X257199Y176762D01*
X255934Y176085D01*
X254825Y175175D01*
X253915Y174066D01*
X253238Y172801D01*
X252822Y171428D01*
X252681Y170000D01*
X252822Y168572D01*
X253238Y167199D01*
X253915Y165934D01*
X254825Y164825D01*
X255934Y163915D01*
X257199Y163238D01*
X258572Y162822D01*
X260000Y162681D01*
X261428Y162822D01*
X262801Y163238D01*
X264066Y163915D01*
X265175Y164825D01*
X266085Y165934D01*
X266762Y167199D01*
X267178Y168572D01*
X267319Y170000D01*
X267178Y171428D01*
X266762Y172801D01*
X266085Y174066D01*
X265175Y175175D01*
X264066Y176085D01*
X262801Y176762D01*
X261428Y177178D01*
X260000Y177319D01*
D02*
G37*
G36*
X32508Y158640D02*
X26783D01*
Y152915D01*
X32508D01*
Y158640D01*
D02*
G37*
G36*
X97000Y154714D02*
X96344Y154584D01*
X95788Y154212D01*
X95416Y153656D01*
X95286Y153000D01*
X95391Y152472D01*
X94524Y151605D01*
X93511D01*
X93212Y152052D01*
X92656Y152424D01*
X92000Y152555D01*
X91344Y152424D01*
X90788Y152052D01*
X90416Y151496D01*
X90286Y150840D01*
X90416Y150185D01*
X90788Y149628D01*
X91344Y149257D01*
X92000Y149126D01*
X92656Y149257D01*
X93212Y149628D01*
X93511Y150076D01*
X94840D01*
X95133Y150134D01*
X95381Y150300D01*
X96472Y151391D01*
X97000Y151286D01*
X97656Y151416D01*
X98212Y151788D01*
X98584Y152344D01*
X98714Y153000D01*
X98584Y153656D01*
X98212Y154212D01*
X97656Y154584D01*
X97000Y154714D01*
D02*
G37*
G36*
X102000D02*
X101344Y154584D01*
X100788Y154212D01*
X100416Y153656D01*
X100286Y153000D01*
X100331Y152773D01*
X92578Y145020D01*
X78341D01*
X78212Y145212D01*
X77656Y145584D01*
X77000Y145714D01*
X76344Y145584D01*
X75788Y145212D01*
X75416Y144656D01*
X75286Y144000D01*
X75416Y143344D01*
X75788Y142788D01*
X76344Y142416D01*
X77000Y142286D01*
X77656Y142416D01*
X78212Y142788D01*
X78341Y142980D01*
X93000D01*
X93390Y143058D01*
X93721Y143279D01*
X101773Y151331D01*
X102000Y151286D01*
X102656Y151416D01*
X103212Y151788D01*
X103584Y152344D01*
X103714Y153000D01*
X103584Y153656D01*
X103212Y154212D01*
X102656Y154584D01*
X102000Y154714D01*
D02*
G37*
G36*
X260551Y153838D02*
X259507Y153700D01*
X258534Y153297D01*
X257698Y152656D01*
X257057Y151820D01*
X256654Y150847D01*
X256517Y149803D01*
X256654Y148759D01*
X257057Y147786D01*
X257698Y146950D01*
X258534Y146309D01*
X259507Y145906D01*
X260551Y145769D01*
X261595Y145906D01*
X262568Y146309D01*
X263404Y146950D01*
X264045Y147786D01*
X264448Y148759D01*
X264586Y149803D01*
X264448Y150847D01*
X264045Y151820D01*
X263404Y152656D01*
X262568Y153297D01*
X261595Y153700D01*
X260551Y153838D01*
D02*
G37*
G36*
X250551D02*
X249507Y153700D01*
X248534Y153297D01*
X247698Y152656D01*
X247057Y151820D01*
X246654Y150847D01*
X246517Y149803D01*
X246654Y148759D01*
X247057Y147786D01*
X247698Y146950D01*
X248534Y146309D01*
X249507Y145906D01*
X250551Y145769D01*
X251595Y145906D01*
X252569Y146309D01*
X253404Y146950D01*
X254045Y147786D01*
X254448Y148759D01*
X254586Y149803D01*
X254448Y150847D01*
X254045Y151820D01*
X253404Y152656D01*
X252569Y153297D01*
X251595Y153700D01*
X250551Y153838D01*
D02*
G37*
G36*
X29646Y150791D02*
X28899Y150692D01*
X28202Y150404D01*
X27604Y149945D01*
X27145Y149347D01*
X26857Y148651D01*
X26759Y147904D01*
X26857Y147156D01*
X27145Y146460D01*
X27604Y145862D01*
X28202Y145403D01*
X28899Y145115D01*
X29646Y145017D01*
X30393Y145115D01*
X31089Y145403D01*
X31687Y145862D01*
X32146Y146460D01*
X32434Y147156D01*
X32533Y147904D01*
X32434Y148651D01*
X32146Y149347D01*
X31687Y149945D01*
X31089Y150404D01*
X30393Y150692D01*
X29646Y150791D01*
D02*
G37*
G36*
X260551Y143838D02*
X259507Y143700D01*
X258534Y143297D01*
X257698Y142656D01*
X257057Y141820D01*
X256654Y140847D01*
X256517Y139803D01*
X256654Y138759D01*
X257057Y137786D01*
X257698Y136950D01*
X258534Y136309D01*
X259507Y135906D01*
X260551Y135769D01*
X261595Y135906D01*
X262568Y136309D01*
X263404Y136950D01*
X264045Y137786D01*
X264448Y138759D01*
X264586Y139803D01*
X264448Y140847D01*
X264045Y141820D01*
X263404Y142656D01*
X262568Y143297D01*
X261595Y143700D01*
X260551Y143838D01*
D02*
G37*
G36*
X250551D02*
X249507Y143700D01*
X248534Y143297D01*
X247698Y142656D01*
X247057Y141820D01*
X246654Y140847D01*
X246517Y139803D01*
X246654Y138759D01*
X247057Y137786D01*
X247698Y136950D01*
X248534Y136309D01*
X249507Y135906D01*
X250551Y135769D01*
X251595Y135906D01*
X252569Y136309D01*
X253404Y136950D01*
X254045Y137786D01*
X254448Y138759D01*
X254586Y139803D01*
X254448Y140847D01*
X254045Y141820D01*
X253404Y142656D01*
X252569Y143297D01*
X251595Y143700D01*
X250551Y143838D01*
D02*
G37*
G36*
X260551Y133838D02*
X259507Y133700D01*
X258534Y133297D01*
X257698Y132656D01*
X257057Y131820D01*
X256654Y130847D01*
X256517Y129803D01*
X256654Y128759D01*
X257057Y127786D01*
X257698Y126950D01*
X258534Y126309D01*
X259507Y125906D01*
X260551Y125769D01*
X261595Y125906D01*
X262568Y126309D01*
X263404Y126950D01*
X264045Y127786D01*
X264448Y128759D01*
X264586Y129803D01*
X264448Y130847D01*
X264045Y131820D01*
X263404Y132656D01*
X262568Y133297D01*
X261595Y133700D01*
X260551Y133838D01*
D02*
G37*
G36*
X250551D02*
X249507Y133700D01*
X248534Y133297D01*
X247698Y132656D01*
X247057Y131820D01*
X246654Y130847D01*
X246517Y129803D01*
X246654Y128759D01*
X247057Y127786D01*
X247698Y126950D01*
X248534Y126309D01*
X249507Y125906D01*
X250551Y125769D01*
X251595Y125906D01*
X252569Y126309D01*
X253404Y126950D01*
X254045Y127786D01*
X254448Y128759D01*
X254586Y129803D01*
X254448Y130847D01*
X254045Y131820D01*
X253404Y132656D01*
X252569Y133297D01*
X251595Y133700D01*
X250551Y133838D01*
D02*
G37*
G36*
X15205Y102300D02*
X14351Y102187D01*
X13555Y101858D01*
X12871Y101333D01*
X12347Y100650D01*
X12017Y99854D01*
X11905Y99000D01*
X12017Y98146D01*
X12347Y97350D01*
X12871Y96667D01*
X13555Y96142D01*
X14351Y95813D01*
X15205Y95700D01*
X16059Y95813D01*
X16855Y96142D01*
X17538Y96667D01*
X18063Y97350D01*
X18392Y98146D01*
X18505Y99000D01*
X18392Y99854D01*
X18063Y100650D01*
X17538Y101333D01*
X16855Y101858D01*
X16059Y102187D01*
X15205Y102300D01*
D02*
G37*
G36*
X40795D02*
X39941Y102187D01*
X39145Y101858D01*
X38462Y101333D01*
X37938Y100650D01*
X37608Y99854D01*
X37495Y99000D01*
X37608Y98146D01*
X37938Y97350D01*
X38462Y96667D01*
X39145Y96142D01*
X39266Y96092D01*
Y81205D01*
X39382Y80619D01*
X39714Y80123D01*
X47397Y72440D01*
X47416Y72344D01*
X47788Y71788D01*
X48344Y71416D01*
X49000Y71286D01*
X49656Y71416D01*
X50212Y71788D01*
X50584Y72344D01*
X50714Y73000D01*
X50584Y73656D01*
X50212Y74212D01*
X49656Y74584D01*
X49560Y74603D01*
X42325Y81838D01*
Y96092D01*
X42445Y96142D01*
X43129Y96667D01*
X43653Y97350D01*
X43983Y98146D01*
X44095Y99000D01*
X43983Y99854D01*
X43653Y100650D01*
X43129Y101333D01*
X42445Y101858D01*
X41649Y102187D01*
X40795Y102300D01*
D02*
G37*
G36*
X260000Y67319D02*
X258572Y67178D01*
X257199Y66762D01*
X255934Y66085D01*
X254825Y65175D01*
X253915Y64066D01*
X253238Y62801D01*
X252822Y61428D01*
X252681Y60000D01*
X252822Y58572D01*
X253238Y57199D01*
X253915Y55934D01*
X254825Y54825D01*
X255934Y53915D01*
X257199Y53238D01*
X258572Y52822D01*
X260000Y52681D01*
X261428Y52822D01*
X262801Y53238D01*
X264066Y53915D01*
X265175Y54825D01*
X266085Y55934D01*
X266762Y57199D01*
X267178Y58572D01*
X267319Y60000D01*
X267178Y61428D01*
X266762Y62801D01*
X266085Y64066D01*
X265175Y65175D01*
X264066Y66085D01*
X262801Y66762D01*
X261428Y67178D01*
X260000Y67319D01*
D02*
G37*
G36*
X43000Y178714D02*
X42344Y178584D01*
X41788Y178212D01*
X41416Y177656D01*
X41286Y177000D01*
X41416Y176344D01*
X41788Y175788D01*
X42344Y175416D01*
X43000Y175286D01*
X43528Y175391D01*
X54235Y164683D01*
Y63000D01*
X54294Y62707D01*
X54459Y62459D01*
X62391Y54528D01*
X62286Y54000D01*
X62416Y53344D01*
X62788Y52788D01*
X63344Y52416D01*
X64000Y52286D01*
X64656Y52416D01*
X65212Y52788D01*
X65584Y53344D01*
X65714Y54000D01*
X65584Y54656D01*
X65212Y55212D01*
X64656Y55584D01*
X64000Y55714D01*
X63472Y55609D01*
X55765Y63317D01*
Y165000D01*
X55707Y165293D01*
X55541Y165541D01*
X44609Y176472D01*
X44714Y177000D01*
X44584Y177656D01*
X44212Y178212D01*
X43656Y178584D01*
X43000Y178714D01*
D02*
G37*
G36*
X170250Y43497D02*
Y40250D01*
X173497D01*
X173410Y40914D01*
X173057Y41765D01*
X172496Y42496D01*
X171765Y43057D01*
X170914Y43410D01*
X170250Y43497D01*
D02*
G37*
G36*
X160250D02*
Y40250D01*
X163497D01*
X163410Y40914D01*
X163057Y41765D01*
X162496Y42496D01*
X161765Y43057D01*
X160914Y43410D01*
X160250Y43497D01*
D02*
G37*
G36*
X169750D02*
X169086Y43410D01*
X168235Y43057D01*
X167504Y42496D01*
X166943Y41765D01*
X166590Y40914D01*
X166503Y40250D01*
X169750D01*
Y43497D01*
D02*
G37*
G36*
X159750D02*
X159086Y43410D01*
X158235Y43057D01*
X157504Y42496D01*
X156943Y41765D01*
X156590Y40914D01*
X156503Y40250D01*
X159750D01*
Y43497D01*
D02*
G37*
G36*
X173497Y39750D02*
X170250D01*
Y36503D01*
X170914Y36590D01*
X171765Y36943D01*
X172496Y37504D01*
X173057Y38235D01*
X173410Y39086D01*
X173497Y39750D01*
D02*
G37*
G36*
X163497D02*
X160250D01*
Y36503D01*
X160914Y36590D01*
X161765Y36943D01*
X162496Y37504D01*
X163057Y38235D01*
X163410Y39086D01*
X163497Y39750D01*
D02*
G37*
G36*
X169750D02*
X166503D01*
X166590Y39086D01*
X166943Y38235D01*
X167504Y37504D01*
X168235Y36943D01*
X169086Y36590D01*
X169750Y36503D01*
Y39750D01*
D02*
G37*
G36*
X159750D02*
X156503D01*
X156590Y39086D01*
X156943Y38235D01*
X157504Y37504D01*
X158235Y36943D01*
X159086Y36590D01*
X159750Y36503D01*
Y39750D01*
D02*
G37*
G36*
X203500Y43500D02*
X196500D01*
Y36500D01*
X203500D01*
Y43500D01*
D02*
G37*
G36*
X183500D02*
X176500D01*
Y36500D01*
X183500D01*
Y43500D01*
D02*
G37*
G36*
X250000Y43530D02*
X249086Y43410D01*
X248235Y43057D01*
X247504Y42496D01*
X246943Y41765D01*
X246590Y40914D01*
X246470Y40000D01*
X246590Y39086D01*
X246943Y38235D01*
X247504Y37504D01*
X248235Y36943D01*
X249086Y36590D01*
X250000Y36470D01*
X250914Y36590D01*
X251765Y36943D01*
X252496Y37504D01*
X253057Y38235D01*
X253410Y39086D01*
X253530Y40000D01*
X253410Y40914D01*
X253057Y41765D01*
X252496Y42496D01*
X251765Y43057D01*
X250914Y43410D01*
X250000Y43530D01*
D02*
G37*
G36*
X240000D02*
X239086Y43410D01*
X238235Y43057D01*
X237504Y42496D01*
X236943Y41765D01*
X236590Y40914D01*
X236470Y40000D01*
X236590Y39086D01*
X236943Y38235D01*
X237504Y37504D01*
X238235Y36943D01*
X239086Y36590D01*
X240000Y36470D01*
X240914Y36590D01*
X241765Y36943D01*
X242496Y37504D01*
X243057Y38235D01*
X243410Y39086D01*
X243530Y40000D01*
X243410Y40914D01*
X243057Y41765D01*
X242496Y42496D01*
X241765Y43057D01*
X240914Y43410D01*
X240000Y43530D01*
D02*
G37*
G36*
X230000D02*
X229086Y43410D01*
X228235Y43057D01*
X227504Y42496D01*
X226943Y41765D01*
X226590Y40914D01*
X226470Y40000D01*
X226590Y39086D01*
X226943Y38235D01*
X227504Y37504D01*
X228235Y36943D01*
X229086Y36590D01*
X230000Y36470D01*
X230914Y36590D01*
X231765Y36943D01*
X232496Y37504D01*
X233057Y38235D01*
X233410Y39086D01*
X233530Y40000D01*
X233410Y40914D01*
X233057Y41765D01*
X232496Y42496D01*
X231765Y43057D01*
X230914Y43410D01*
X230000Y43530D01*
D02*
G37*
G36*
X220000D02*
X219086Y43410D01*
X218235Y43057D01*
X217504Y42496D01*
X216943Y41765D01*
X216590Y40914D01*
X216470Y40000D01*
X216590Y39086D01*
X216943Y38235D01*
X217504Y37504D01*
X218235Y36943D01*
X219086Y36590D01*
X220000Y36470D01*
X220914Y36590D01*
X221765Y36943D01*
X222496Y37504D01*
X223057Y38235D01*
X223410Y39086D01*
X223530Y40000D01*
X223410Y40914D01*
X223057Y41765D01*
X222496Y42496D01*
X221765Y43057D01*
X220914Y43410D01*
X220000Y43530D01*
D02*
G37*
G36*
X210000D02*
X209086Y43410D01*
X208235Y43057D01*
X207504Y42496D01*
X206943Y41765D01*
X206590Y40914D01*
X206470Y40000D01*
X206590Y39086D01*
X206943Y38235D01*
X207504Y37504D01*
X208235Y36943D01*
X209086Y36590D01*
X210000Y36470D01*
X210914Y36590D01*
X211765Y36943D01*
X212496Y37504D01*
X213057Y38235D01*
X213410Y39086D01*
X213530Y40000D01*
X213410Y40914D01*
X213057Y41765D01*
X212496Y42496D01*
X211765Y43057D01*
X210914Y43410D01*
X210000Y43530D01*
D02*
G37*
G36*
X145038Y59895D02*
X144382Y59765D01*
X143826Y59393D01*
X143455Y58837D01*
X143324Y58181D01*
X143455Y57525D01*
X143826Y56969D01*
X143955Y56883D01*
X143957Y56880D01*
X148471Y52367D01*
Y43155D01*
X148235Y43057D01*
X147504Y42496D01*
X146943Y41765D01*
X146590Y40914D01*
X146470Y40000D01*
X146590Y39086D01*
X146943Y38235D01*
X147504Y37504D01*
X148235Y36943D01*
X149086Y36590D01*
X150000Y36470D01*
X150914Y36590D01*
X151765Y36943D01*
X152496Y37504D01*
X153057Y38235D01*
X153410Y39086D01*
X153530Y40000D01*
X153410Y40914D01*
X153057Y41765D01*
X152496Y42496D01*
X151765Y43057D01*
X151529Y43155D01*
Y53000D01*
X151413Y53585D01*
X151081Y54081D01*
X146695Y58468D01*
X146622Y58837D01*
X146250Y59393D01*
X145694Y59765D01*
X145038Y59895D01*
D02*
G37*
G36*
X140000Y43530D02*
X139086Y43410D01*
X138235Y43057D01*
X137504Y42496D01*
X136943Y41765D01*
X136590Y40914D01*
X136470Y40000D01*
X136590Y39086D01*
X136943Y38235D01*
X137504Y37504D01*
X138235Y36943D01*
X139086Y36590D01*
X140000Y36470D01*
X140914Y36590D01*
X141765Y36943D01*
X142496Y37504D01*
X143057Y38235D01*
X143410Y39086D01*
X143530Y40000D01*
X143410Y40914D01*
X143057Y41765D01*
X142496Y42496D01*
X141765Y43057D01*
X140914Y43410D01*
X140000Y43530D01*
D02*
G37*
G36*
X130000D02*
X129086Y43410D01*
X128235Y43057D01*
X127504Y42496D01*
X126943Y41765D01*
X126590Y40914D01*
X126470Y40000D01*
X126590Y39086D01*
X126943Y38235D01*
X127504Y37504D01*
X128235Y36943D01*
X129086Y36590D01*
X130000Y36470D01*
X130914Y36590D01*
X131765Y36943D01*
X132496Y37504D01*
X133057Y38235D01*
X133410Y39086D01*
X133530Y40000D01*
X133410Y40914D01*
X133057Y41765D01*
X132496Y42496D01*
X131765Y43057D01*
X130914Y43410D01*
X130000Y43530D01*
D02*
G37*
G36*
X110000D02*
X109086Y43410D01*
X108235Y43057D01*
X107504Y42496D01*
X106943Y41765D01*
X106590Y40914D01*
X106470Y40000D01*
X106590Y39086D01*
X106943Y38235D01*
X107504Y37504D01*
X108235Y36943D01*
X109086Y36590D01*
X110000Y36470D01*
X110914Y36590D01*
X111765Y36943D01*
X112496Y37504D01*
X113057Y38235D01*
X113410Y39086D01*
X113530Y40000D01*
X113410Y40914D01*
X113057Y41765D01*
X112496Y42496D01*
X111765Y43057D01*
X110914Y43410D01*
X110000Y43530D01*
D02*
G37*
G36*
X35250Y35953D02*
Y33250D01*
X37953D01*
X37884Y33773D01*
X37586Y34493D01*
X37111Y35111D01*
X36493Y35586D01*
X35773Y35884D01*
X35250Y35953D01*
D02*
G37*
G36*
X34750D02*
X34227Y35884D01*
X33507Y35586D01*
X32888Y35111D01*
X32414Y34493D01*
X32116Y33773D01*
X32047Y33250D01*
X34750D01*
Y35953D01*
D02*
G37*
G36*
X55000Y47319D02*
X53572Y47178D01*
X52199Y46762D01*
X50934Y46085D01*
X49825Y45175D01*
X48915Y44066D01*
X48238Y42801D01*
X47822Y41428D01*
X47681Y40000D01*
X47822Y38572D01*
X48238Y37199D01*
X48915Y35934D01*
X49825Y34825D01*
X50934Y33915D01*
X52199Y33238D01*
X53572Y32822D01*
X55000Y32681D01*
X56428Y32822D01*
X57801Y33238D01*
X59066Y33915D01*
X60175Y34825D01*
X61085Y35934D01*
X61762Y37199D01*
X62178Y38572D01*
X62319Y40000D01*
X62178Y41428D01*
X61762Y42801D01*
X61085Y44066D01*
X60175Y45175D01*
X59066Y46085D01*
X57801Y46762D01*
X56428Y47178D01*
X55000Y47319D01*
D02*
G37*
G36*
X247000Y52714D02*
X246344Y52584D01*
X245788Y52212D01*
X245416Y51656D01*
X245397Y51560D01*
X242367Y48529D01*
X191000D01*
X190415Y48413D01*
X189919Y48081D01*
X187919Y46081D01*
X187587Y45585D01*
X187471Y45000D01*
Y34633D01*
X185366Y32529D01*
X127634D01*
X125412Y34751D01*
Y35397D01*
X125296Y35983D01*
X124964Y36479D01*
X123101Y38342D01*
X123410Y39086D01*
X123530Y40000D01*
X123410Y40914D01*
X123057Y41765D01*
X122496Y42496D01*
X121765Y43057D01*
X120914Y43410D01*
X120000Y43530D01*
X119086Y43410D01*
X118235Y43057D01*
X117504Y42496D01*
X116943Y41765D01*
X116590Y40914D01*
X116470Y40000D01*
X116590Y39086D01*
X116943Y38235D01*
X117504Y37504D01*
X118235Y36943D01*
X118471Y36845D01*
Y16000D01*
X118587Y15415D01*
X118919Y14919D01*
X124397Y9440D01*
X124416Y9344D01*
X124788Y8788D01*
X125344Y8416D01*
X126000Y8286D01*
X126656Y8416D01*
X127212Y8788D01*
X127584Y9344D01*
X127714Y10000D01*
X127584Y10656D01*
X127212Y11212D01*
X126656Y11584D01*
X126560Y11603D01*
X121529Y16634D01*
Y34935D01*
X121991Y35126D01*
X122353Y34764D01*
Y34117D01*
X122470Y33532D01*
X122801Y33036D01*
X125919Y29919D01*
X126415Y29587D01*
X127000Y29471D01*
X186000D01*
X186585Y29587D01*
X187081Y29919D01*
X190081Y32919D01*
X190413Y33415D01*
X190529Y34000D01*
Y44366D01*
X191633Y45471D01*
X243000D01*
X243585Y45587D01*
X244081Y45919D01*
X247560Y49397D01*
X247656Y49416D01*
X248212Y49788D01*
X248584Y50344D01*
X248714Y51000D01*
X248584Y51656D01*
X248212Y52212D01*
X247656Y52584D01*
X247000Y52714D01*
D02*
G37*
G36*
X37953Y32750D02*
X35250D01*
Y30047D01*
X35773Y30116D01*
X36493Y30414D01*
X37111Y30889D01*
X37586Y31507D01*
X37884Y32227D01*
X37953Y32750D01*
D02*
G37*
G36*
X34750D02*
X32047D01*
X32116Y32227D01*
X32414Y31507D01*
X32888Y30889D01*
X33507Y30414D01*
X34227Y30116D01*
X34750Y30047D01*
Y32750D01*
D02*
G37*
G36*
X17961Y35961D02*
X12039D01*
Y30039D01*
X17961D01*
Y35961D01*
D02*
G37*
G36*
X25000Y35986D02*
X24227Y35884D01*
X23507Y35586D01*
X22888Y35111D01*
X22414Y34493D01*
X22116Y33773D01*
X22014Y33000D01*
X22116Y32227D01*
X22414Y31507D01*
X22888Y30889D01*
X23507Y30414D01*
X24227Y30116D01*
X25000Y30014D01*
X25773Y30116D01*
X26493Y30414D01*
X27112Y30889D01*
X27586Y31507D01*
X27884Y32227D01*
X27986Y33000D01*
X27884Y33773D01*
X27586Y34493D01*
X27112Y35111D01*
X26493Y35586D01*
X25773Y35884D01*
X25000Y35986D01*
D02*
G37*
G36*
X351250Y22450D02*
Y19250D01*
X354450D01*
X354364Y19901D01*
X354016Y20741D01*
X353463Y21463D01*
X352741Y22016D01*
X351901Y22364D01*
X351250Y22450D01*
D02*
G37*
G36*
X350750D02*
X350099Y22364D01*
X349259Y22016D01*
X348537Y21463D01*
X347984Y20741D01*
X347636Y19901D01*
X347550Y19250D01*
X350750D01*
Y22450D01*
D02*
G37*
G36*
X354450Y18750D02*
X351250D01*
Y15550D01*
X351901Y15636D01*
X352741Y15984D01*
X353463Y16537D01*
X354016Y17259D01*
X354364Y18099D01*
X354450Y18750D01*
D02*
G37*
G36*
X350750D02*
X347550D01*
X347636Y18099D01*
X347984Y17259D01*
X348537Y16537D01*
X349259Y15984D01*
X350099Y15636D01*
X350750Y15550D01*
Y18750D01*
D02*
G37*
G36*
X361000Y22482D02*
X360099Y22364D01*
X359259Y22016D01*
X358538Y21463D01*
X357984Y20741D01*
X357636Y19901D01*
X357518Y19000D01*
X357636Y18099D01*
X357984Y17259D01*
X358538Y16537D01*
X359259Y15984D01*
X360099Y15636D01*
X361000Y15518D01*
X361901Y15636D01*
X362741Y15984D01*
X363462Y16537D01*
X364016Y17259D01*
X364364Y18099D01*
X364482Y19000D01*
X364364Y19901D01*
X364016Y20741D01*
X363462Y21463D01*
X362741Y22016D01*
X361901Y22364D01*
X361000Y22482D01*
D02*
G37*
G36*
X341000D02*
X340099Y22364D01*
X339259Y22016D01*
X338538Y21463D01*
X337984Y20741D01*
X337636Y19901D01*
X337517Y19000D01*
X337636Y18099D01*
X337984Y17259D01*
X338538Y16537D01*
X339259Y15984D01*
X340099Y15636D01*
X341000Y15518D01*
X341901Y15636D01*
X342741Y15984D01*
X343462Y16537D01*
X344016Y17259D01*
X344364Y18099D01*
X344482Y19000D01*
X344364Y19901D01*
X344016Y20741D01*
X343462Y21463D01*
X342741Y22016D01*
X341901Y22364D01*
X341000Y22482D01*
D02*
G37*
G36*
X331000D02*
X330099Y22364D01*
X329259Y22016D01*
X328538Y21463D01*
X327984Y20741D01*
X327636Y19901D01*
X327518Y19000D01*
X327636Y18099D01*
X327984Y17259D01*
X328538Y16537D01*
X329259Y15984D01*
X330099Y15636D01*
X331000Y15518D01*
X331901Y15636D01*
X332741Y15984D01*
X333463Y16537D01*
X334016Y17259D01*
X334364Y18099D01*
X334483Y19000D01*
X334364Y19901D01*
X334016Y20741D01*
X333463Y21463D01*
X332741Y22016D01*
X331901Y22364D01*
X331000Y22482D01*
D02*
G37*
G36*
X95788Y73599D02*
X94352Y73410D01*
X93014Y72855D01*
X91865Y71974D01*
X90984Y70825D01*
X90430Y69487D01*
X90241Y68051D01*
Y54086D01*
X57077Y20923D01*
X56196Y19774D01*
X55642Y18436D01*
X55453Y17000D01*
X55642Y15564D01*
X56196Y14226D01*
X57077Y13077D01*
X58226Y12196D01*
X59564Y11642D01*
X61000Y11452D01*
X62436Y11642D01*
X63774Y12196D01*
X64923Y13077D01*
X99711Y47865D01*
X100592Y49014D01*
X101146Y50352D01*
X101336Y51788D01*
Y68051D01*
X101146Y69487D01*
X100592Y70825D01*
X99711Y71974D01*
X98562Y72855D01*
X97224Y73410D01*
X95788Y73599D01*
D02*
G37*
%LPD*%
D13*
X55000Y63000D02*
X64000Y54000D01*
X58000Y172000D02*
Y183000D01*
X65000Y190000D01*
X55000Y63000D02*
Y165000D01*
X43000Y177000D02*
X55000Y165000D01*
X92000Y150840D02*
X94840D01*
X97000Y153000D01*
D15*
X216000Y170000D02*
X223496D01*
X204000D02*
X216000D01*
X223496D02*
X223586Y169911D01*
X224069D02*
X228000Y173841D01*
X223586Y169911D02*
X224069D01*
X196583Y177231D02*
X196769D01*
X204000Y170000D01*
X281000Y19000D02*
Y79000D01*
X354000Y152000D01*
X291000Y19000D02*
Y79000D01*
X357000Y145000D01*
Y258000D01*
X354000Y152000D02*
Y258000D01*
X351000Y264000D02*
X357000Y258000D01*
X301000Y79000D02*
X361000Y139000D01*
X353500Y265500D02*
X361000Y258000D01*
X356000Y267000D02*
X365000Y258000D01*
Y133000D02*
Y258000D01*
X311000Y79000D02*
X365000Y133000D01*
X361000Y139000D02*
Y258000D01*
X350000Y262000D02*
X354000Y258000D01*
X321000Y19000D02*
Y79000D01*
X311000Y19000D02*
Y79000D01*
X301000Y19000D02*
Y79000D01*
X93000Y211000D02*
X226000D01*
X228000Y209000D01*
X74000Y230000D02*
X93000Y211000D01*
X114000Y219000D02*
Y230000D01*
Y219000D02*
X117000Y216000D01*
X124000Y222000D02*
X127000Y219000D01*
X143000Y221000D02*
X192803D01*
X199000Y219000D02*
X205000Y225000D01*
X127000Y219000D02*
X199000D01*
X134000Y230000D02*
X143000Y221000D01*
X124000Y222000D02*
Y230000D01*
X206803Y216000D02*
X214000Y223197D01*
X117000Y216000D02*
X206803D01*
X214000Y223197D02*
Y234000D01*
X238343Y264000D02*
X351000D01*
X205000Y225000D02*
Y230657D01*
X238343Y264000D01*
X227500Y265500D02*
X353500D01*
X195000Y233000D02*
X227500Y265500D01*
X195000Y223197D02*
Y233000D01*
X214000Y234000D02*
X242000Y262000D01*
X192803Y221000D02*
X195000Y223197D01*
X184000Y225000D02*
Y234000D01*
X217000Y267000D01*
X356000D01*
X164000Y230000D02*
X171000Y223000D01*
X182000D01*
X184000Y225000D01*
X180000Y230000D02*
Y264000D01*
X184500Y268500D01*
X357500D01*
X368000Y258000D01*
Y126000D02*
Y258000D01*
X242000Y262000D02*
X350000D01*
X321000Y79000D02*
X368000Y126000D01*
X93000Y144000D02*
X102000Y153000D01*
X77000Y144000D02*
X93000D01*
X72000Y174000D02*
X89000D01*
D56*
X15000Y33000D02*
D03*
D57*
X35000D02*
D03*
X25000D02*
D03*
D95*
X40795Y81205D02*
X49000Y73000D01*
X40795Y81205D02*
Y99000D01*
X120000Y39280D02*
Y40000D01*
Y16000D02*
Y39280D01*
X123883Y35397D01*
Y34117D02*
Y35397D01*
Y34117D02*
X127000Y31000D01*
X186000D01*
X189000Y34000D01*
Y45000D01*
X191000Y47000D01*
X243000D01*
X247000Y51000D01*
X232000Y106000D02*
Y154000D01*
X216000Y170000D02*
X232000Y154000D01*
X120000Y16000D02*
X126000Y10000D01*
X3000Y24000D02*
Y214000D01*
X7346Y218347D01*
X36843D01*
X145038Y57962D02*
X150000Y53000D01*
X145038Y57962D02*
Y58181D01*
X122000Y185000D02*
X145000Y208000D01*
X206000D01*
X122000Y118838D02*
Y185000D01*
Y118838D02*
X124740Y116098D01*
Y116000D02*
Y116098D01*
X207681Y206319D02*
X232055D01*
X206000Y208000D02*
X207681Y206319D01*
X234736Y209000D02*
X240000D01*
X232055Y206319D02*
X234736Y209000D01*
X241000Y164000D02*
Y173687D01*
X237350Y177337D02*
X241000Y173687D01*
X237350Y177337D02*
Y206350D01*
X240000Y209000D01*
X72000Y174000D02*
Y196437D01*
X67000Y201437D02*
X72000Y196437D01*
X150000Y40000D02*
Y53000D01*
D97*
X250000Y40000D02*
D03*
X210000D02*
D03*
X220000D02*
D03*
X230000D02*
D03*
X240000D02*
D03*
X160000D02*
D03*
X170000D02*
D03*
X110000D02*
D03*
X120000D02*
D03*
X130000D02*
D03*
X140000D02*
D03*
X150000D02*
D03*
X230000Y230000D02*
D03*
X240000D02*
D03*
X180000D02*
D03*
X190000D02*
D03*
X200000D02*
D03*
X210000D02*
D03*
X220000D02*
D03*
X74000D02*
D03*
X84000D02*
D03*
X94000D02*
D03*
X104000D02*
D03*
X114000D02*
D03*
X124000D02*
D03*
X134000D02*
D03*
X144000D02*
D03*
X154000D02*
D03*
D98*
X242000Y185000D02*
D03*
X232000D02*
D03*
X192000D02*
D03*
X162000D02*
D03*
X142000D02*
D03*
X122000D02*
D03*
X132000D02*
D03*
X152000D02*
D03*
X172000D02*
D03*
X182000D02*
D03*
X202000D02*
D03*
X212000D02*
D03*
X222000D02*
D03*
X252000D02*
D03*
X262000D02*
D03*
D99*
X112000D02*
D03*
D100*
X15205Y99000D02*
D03*
X40795D02*
D03*
D101*
X29646Y147904D02*
D03*
Y193563D02*
D03*
D102*
Y155778D02*
D03*
Y201437D02*
D03*
D103*
X281000Y19000D02*
D03*
D104*
X301000D02*
D03*
X311000D02*
D03*
X321000D02*
D03*
X331000D02*
D03*
X341000D02*
D03*
X351000D02*
D03*
X361000D02*
D03*
X291000D02*
D03*
D105*
X260551Y129803D02*
D03*
X250551D02*
D03*
X260551Y139803D02*
D03*
X250551D02*
D03*
X260551Y149803D02*
D03*
X250551D02*
D03*
D106*
X180000Y40000D02*
D03*
X250000Y230000D02*
D03*
X164000D02*
D03*
X200000Y40000D02*
D03*
D107*
X60000Y230000D02*
D03*
X55000Y40000D02*
D03*
X260000Y170000D02*
D03*
Y60000D02*
D03*
D108*
X252000Y213500D02*
D03*
X260000Y215740D02*
D03*
X95788Y63933D02*
D03*
X93000Y66000D02*
D03*
X98000D02*
D03*
X95788Y68051D02*
D03*
X61000Y16000D02*
D03*
X64000Y17500D02*
D03*
X61000Y19693D02*
D03*
X58500Y17500D02*
D03*
X69000Y165051D02*
D03*
X74020Y162000D02*
D03*
X69000Y158949D02*
D03*
X63981Y162000D02*
D03*
X72000Y174000D02*
D03*
X92000Y150840D02*
D03*
X170000Y64000D02*
D03*
X147000Y86291D02*
D03*
X143000Y82291D02*
D03*
X49000Y73000D02*
D03*
X247000Y51000D02*
D03*
X240000Y70031D02*
D03*
X230000D02*
D03*
X232000Y106000D02*
D03*
X228000Y173841D02*
D03*
X196583Y177231D02*
D03*
X87538Y98847D02*
D03*
X136303Y113000D02*
D03*
X162976Y109819D02*
D03*
X214000Y87000D02*
D03*
X220000Y70031D02*
D03*
X210000D02*
D03*
X126000Y10000D02*
D03*
X172000Y205047D02*
D03*
X75717Y211653D02*
D03*
X61575Y215819D02*
D03*
X84890Y171819D02*
D03*
X83000Y189000D02*
D03*
X3000Y24000D02*
D03*
X145038Y58181D02*
D03*
X64000Y54000D02*
D03*
X36843Y218347D02*
D03*
X274000Y99000D02*
D03*
X124740Y116000D02*
D03*
X206000Y208000D02*
D03*
X240000Y209000D02*
D03*
X168043Y169496D02*
D03*
X334059Y141950D02*
D03*
X323000Y134000D02*
D03*
X344070Y156000D02*
D03*
X329000Y253693D02*
D03*
X104000Y136000D02*
D03*
X241000Y164000D02*
D03*
X335192Y168000D02*
D03*
X309717D02*
D03*
Y143000D02*
D03*
X301000Y154303D02*
D03*
X323000Y177628D02*
D03*
Y156000D02*
D03*
X228000Y209000D02*
D03*
X27000Y130000D02*
D03*
X274284Y206716D02*
D03*
X212000Y134417D02*
D03*
X309000Y206000D02*
D03*
X102000Y153000D02*
D03*
X67000Y201437D02*
D03*
X41000Y216000D02*
D03*
X65000Y190000D02*
D03*
X58000Y172000D02*
D03*
X108000Y97291D02*
D03*
X43000Y177000D02*
D03*
X77000Y144000D02*
D03*
X89000Y174000D02*
D03*
X81418Y162000D02*
D03*
X97000Y153000D02*
D03*
X65000Y137000D02*
D03*
D109*
X95788Y51788D02*
Y68051D01*
X61000Y17000D02*
X95788Y51788D01*
M02*
