G04*
G04 #@! TF.GenerationSoftware,Altium Limited,Altium Designer,20.1.14 (287)*
G04*
G04 Layer_Physical_Order=1*
G04 Layer_Color=255*
%FSLAX25Y25*%
%MOIN*%
G70*
G04*
G04 #@! TF.SameCoordinates,0E931F91-B317-41B1-A8FB-8677B043815F*
G04*
G04*
G04 #@! TF.FilePolarity,Positive*
G04*
G01*
G75*
%ADD13C,0.00500*%
%ADD15C,0.01000*%
G04:AMPARAMS|DCode=24|XSize=11.81mil|YSize=11.81mil|CornerRadius=1.95mil|HoleSize=0mil|Usage=FLASHONLY|Rotation=180.000|XOffset=0mil|YOffset=0mil|HoleType=Round|Shape=RoundedRectangle|*
%AMROUNDEDRECTD24*
21,1,0.01181,0.00791,0,0,180.0*
21,1,0.00791,0.01181,0,0,180.0*
1,1,0.00390,-0.00396,0.00396*
1,1,0.00390,0.00396,0.00396*
1,1,0.00390,0.00396,-0.00396*
1,1,0.00390,-0.00396,-0.00396*
%
%ADD24ROUNDEDRECTD24*%
%ADD34R,0.06001X0.02275*%
G04:AMPARAMS|DCode=35|XSize=60.01mil|YSize=22.75mil|CornerRadius=11.38mil|HoleSize=0mil|Usage=FLASHONLY|Rotation=0.000|XOffset=0mil|YOffset=0mil|HoleType=Round|Shape=RoundedRectangle|*
%AMROUNDEDRECTD35*
21,1,0.06001,0.00000,0,0,0.0*
21,1,0.03725,0.02275,0,0,0.0*
1,1,0.02275,0.01863,0.00000*
1,1,0.02275,-0.01863,0.00000*
1,1,0.02275,-0.01863,0.00000*
1,1,0.02275,0.01863,0.00000*
%
%ADD35ROUNDEDRECTD35*%
%ADD37R,0.05906X0.07874*%
%ADD38R,0.14961X0.07874*%
%ADD42R,0.05269X0.02275*%
G04:AMPARAMS|DCode=43|XSize=52.69mil|YSize=22.75mil|CornerRadius=11.38mil|HoleSize=0mil|Usage=FLASHONLY|Rotation=0.000|XOffset=0mil|YOffset=0mil|HoleType=Round|Shape=RoundedRectangle|*
%AMROUNDEDRECTD43*
21,1,0.05269,0.00000,0,0,0.0*
21,1,0.02993,0.02275,0,0,0.0*
1,1,0.02275,0.01497,0.00000*
1,1,0.02275,-0.01497,0.00000*
1,1,0.02275,-0.01497,0.00000*
1,1,0.02275,0.01497,0.00000*
%
%ADD43ROUNDEDRECTD43*%
G04:AMPARAMS|DCode=48|XSize=60.01mil|YSize=22.75mil|CornerRadius=11.38mil|HoleSize=0mil|Usage=FLASHONLY|Rotation=270.000|XOffset=0mil|YOffset=0mil|HoleType=Round|Shape=RoundedRectangle|*
%AMROUNDEDRECTD48*
21,1,0.06001,0.00000,0,0,270.0*
21,1,0.03725,0.02275,0,0,270.0*
1,1,0.02275,0.00000,-0.01863*
1,1,0.02275,0.00000,0.01863*
1,1,0.02275,0.00000,0.01863*
1,1,0.02275,0.00000,-0.01863*
%
%ADD48ROUNDEDRECTD48*%
%ADD49R,0.02275X0.06001*%
%ADD50R,0.04724X0.09843*%
%ADD56R,0.04921X0.04921*%
%ADD57C,0.04921*%
%ADD69R,0.03543X0.03150*%
%ADD70R,0.03937X0.04724*%
%ADD71R,0.05512X0.05906*%
%ADD72R,0.05906X0.05512*%
G04:AMPARAMS|DCode=73|XSize=9.45mil|YSize=43.62mil|CornerRadius=1.98mil|HoleSize=0mil|Usage=FLASHONLY|Rotation=180.000|XOffset=0mil|YOffset=0mil|HoleType=Round|Shape=RoundedRectangle|*
%AMROUNDEDRECTD73*
21,1,0.00945,0.03965,0,0,180.0*
21,1,0.00548,0.04362,0,0,180.0*
1,1,0.00397,-0.00274,0.01983*
1,1,0.00397,0.00274,0.01983*
1,1,0.00397,0.00274,-0.01983*
1,1,0.00397,-0.00274,-0.01983*
%
%ADD73ROUNDEDRECTD73*%
G04:AMPARAMS|DCode=74|XSize=9.45mil|YSize=43.62mil|CornerRadius=1.98mil|HoleSize=0mil|Usage=FLASHONLY|Rotation=90.000|XOffset=0mil|YOffset=0mil|HoleType=Round|Shape=RoundedRectangle|*
%AMROUNDEDRECTD74*
21,1,0.00945,0.03965,0,0,90.0*
21,1,0.00548,0.04362,0,0,90.0*
1,1,0.00397,0.01983,0.00274*
1,1,0.00397,0.01983,-0.00274*
1,1,0.00397,-0.01983,-0.00274*
1,1,0.00397,-0.01983,0.00274*
%
%ADD74ROUNDEDRECTD74*%
%ADD75O,0.02165X0.06508*%
%ADD76O,0.06508X0.02165*%
%ADD77O,0.02165X0.06508*%
%ADD78R,0.05906X0.05118*%
G04:AMPARAMS|DCode=79|XSize=13.39mil|YSize=51.89mil|CornerRadius=2.01mil|HoleSize=0mil|Usage=FLASHONLY|Rotation=0.000|XOffset=0mil|YOffset=0mil|HoleType=Round|Shape=RoundedRectangle|*
%AMROUNDEDRECTD79*
21,1,0.01339,0.04787,0,0,0.0*
21,1,0.00937,0.05189,0,0,0.0*
1,1,0.00402,0.00469,-0.02394*
1,1,0.00402,-0.00469,-0.02394*
1,1,0.00402,-0.00469,0.02394*
1,1,0.00402,0.00469,0.02394*
%
%ADD79ROUNDEDRECTD79*%
G04:AMPARAMS|DCode=80|XSize=13.39mil|YSize=51.89mil|CornerRadius=2.01mil|HoleSize=0mil|Usage=FLASHONLY|Rotation=270.000|XOffset=0mil|YOffset=0mil|HoleType=Round|Shape=RoundedRectangle|*
%AMROUNDEDRECTD80*
21,1,0.01339,0.04787,0,0,270.0*
21,1,0.00937,0.05189,0,0,270.0*
1,1,0.00402,-0.02394,-0.00469*
1,1,0.00402,-0.02394,0.00469*
1,1,0.00402,0.02394,0.00469*
1,1,0.00402,0.02394,-0.00469*
%
%ADD80ROUNDEDRECTD80*%
%ADD81R,0.10630X0.10630*%
%ADD82O,0.01772X0.08268*%
%ADD83R,0.04724X0.03937*%
%ADD84R,0.05118X0.05906*%
%ADD85R,0.03150X0.03543*%
%ADD86R,0.03937X0.04331*%
%ADD87R,0.04331X0.03937*%
%ADD88R,0.11024X0.06299*%
%ADD89R,0.11024X0.03937*%
%ADD90R,0.23622X0.07874*%
G04:AMPARAMS|DCode=91|XSize=69mil|YSize=220mil|CornerRadius=17.25mil|HoleSize=0mil|Usage=FLASHONLY|Rotation=90.000|XOffset=0mil|YOffset=0mil|HoleType=Round|Shape=RoundedRectangle|*
%AMROUNDEDRECTD91*
21,1,0.06900,0.18550,0,0,90.0*
21,1,0.03450,0.22000,0,0,90.0*
1,1,0.03450,0.09275,0.01725*
1,1,0.03450,0.09275,-0.01725*
1,1,0.03450,-0.09275,-0.01725*
1,1,0.03450,-0.09275,0.01725*
%
%ADD91ROUNDEDRECTD91*%
%ADD92C,0.60000*%
%ADD93R,0.03543X0.03150*%
%ADD94O,0.07874X0.02362*%
%ADD95C,0.02000*%
%ADD96C,0.05000*%
%ADD97C,0.06000*%
%ADD98C,0.06299*%
%ADD99R,0.06299X0.06299*%
%ADD100C,0.05543*%
%ADD101C,0.04724*%
%ADD102R,0.04724X0.04724*%
%ADD103R,0.05906X0.05906*%
%ADD104C,0.05906*%
%ADD105C,0.07000*%
%ADD106R,0.06000X0.06000*%
%ADD107C,0.12598*%
%ADD108C,0.02362*%
G36*
X344965Y250541D02*
X344973Y250507D01*
X344659Y250036D01*
X344536Y249419D01*
X344659Y248801D01*
X345009Y248278D01*
X345208Y248145D01*
Y247543D01*
X345009Y247410D01*
X344659Y246887D01*
X344536Y246269D01*
X344659Y245652D01*
X345009Y245128D01*
X345208Y244995D01*
Y244394D01*
X345009Y244261D01*
X344659Y243737D01*
X344536Y243120D01*
X344659Y242502D01*
X345009Y241979D01*
X345043Y241407D01*
X345003Y241365D01*
X344557Y241374D01*
X344487Y241381D01*
X344141Y241898D01*
X343618Y242248D01*
X343250Y242321D01*
Y238586D01*
X342750D01*
Y242321D01*
X342383Y242248D01*
X341859Y241898D01*
X341509Y241375D01*
X341463Y241146D01*
X340940D01*
X340792Y241244D01*
Y241845D01*
X340991Y241979D01*
X341341Y242502D01*
X341464Y243120D01*
X341341Y243737D01*
X340991Y244261D01*
X340792Y244394D01*
Y244995D01*
X340991Y245128D01*
X341341Y245652D01*
X341464Y246269D01*
X341341Y246887D01*
X340991Y247410D01*
X340792Y247543D01*
Y248145D01*
X340991Y248278D01*
X341341Y248801D01*
X341464Y249419D01*
X341341Y250036D01*
X341153Y250319D01*
X341420Y250819D01*
X344070D01*
X344655Y250935D01*
X344965Y250541D01*
D02*
G37*
G36*
X25038Y268480D02*
X8112Y251554D01*
X7891Y251223D01*
X7814Y250833D01*
Y135378D01*
X5333D01*
Y132102D01*
X12334D01*
Y135378D01*
X9853D01*
Y250411D01*
X13833Y254391D01*
X14295Y254200D01*
Y244406D01*
X20020D01*
Y255248D01*
X15343D01*
X15152Y255710D01*
X26422Y266980D01*
X181578D01*
X216899Y231659D01*
X216590Y230914D01*
X216470Y230000D01*
X216590Y229086D01*
X216943Y228235D01*
X217504Y227504D01*
X218235Y226943D01*
X219086Y226590D01*
X220000Y226470D01*
X220914Y226590D01*
X221765Y226943D01*
X222480Y227492D01*
X222662Y227465D01*
X222980Y227357D01*
Y224020D01*
X197422D01*
X193101Y228341D01*
X193410Y229086D01*
X193530Y230000D01*
X193410Y230914D01*
X193057Y231765D01*
X192496Y232496D01*
X191765Y233057D01*
X190914Y233410D01*
X190000Y233530D01*
X189086Y233410D01*
X188235Y233057D01*
X187504Y232496D01*
X186943Y231765D01*
X186590Y230914D01*
X186470Y230000D01*
X186590Y229086D01*
X186943Y228235D01*
X187504Y227504D01*
X188235Y226943D01*
X189086Y226590D01*
X190000Y226470D01*
X190914Y226590D01*
X191659Y226899D01*
X196279Y222279D01*
X196610Y222058D01*
X197000Y221980D01*
X223414D01*
X223804Y222058D01*
X224135Y222279D01*
X224721Y222865D01*
X224942Y223196D01*
X225020Y223586D01*
Y238834D01*
X230721Y244535D01*
X230942Y244866D01*
X231020Y245256D01*
Y261089D01*
X231922Y261992D01*
X261940D01*
X262132Y261530D01*
X257279Y256678D01*
X257058Y256347D01*
X256980Y255957D01*
Y219922D01*
X252227Y215169D01*
X252000Y215214D01*
X251344Y215084D01*
X250788Y214712D01*
X250659Y214520D01*
X225547D01*
X225157Y214442D01*
X224826Y214221D01*
X215420Y204815D01*
X211138D01*
Y201320D01*
X209838Y200020D01*
X208862D01*
Y204815D01*
X207529D01*
Y207263D01*
X207584Y207344D01*
X207714Y208000D01*
X207584Y208656D01*
X207212Y209212D01*
X206656Y209584D01*
X206000Y209714D01*
X205344Y209584D01*
X204788Y209212D01*
X204416Y208656D01*
X204286Y208000D01*
X204416Y207344D01*
X204471Y207263D01*
Y204815D01*
X203138D01*
Y200020D01*
X202609D01*
X200078Y202550D01*
X200116Y202740D01*
X199989Y203379D01*
X199627Y203921D01*
X199085Y204283D01*
X198446Y204410D01*
X194721D01*
X194531Y204372D01*
X176229Y222674D01*
X175898Y222895D01*
X175508Y222972D01*
X92470D01*
X87101Y228341D01*
X87410Y229086D01*
X87530Y230000D01*
X87410Y230914D01*
X87057Y231765D01*
X86496Y232496D01*
X85765Y233057D01*
X84914Y233410D01*
X84000Y233530D01*
X83086Y233410D01*
X82235Y233057D01*
X81504Y232496D01*
X80943Y231765D01*
X80590Y230914D01*
X80470Y230000D01*
X80590Y229086D01*
X80943Y228235D01*
X81504Y227504D01*
X82235Y226943D01*
X83086Y226590D01*
X84000Y226470D01*
X84914Y226590D01*
X85659Y226899D01*
X90783Y221775D01*
X90650Y221453D01*
X90650D01*
Y214547D01*
X97161D01*
Y216980D01*
X101578D01*
X108980Y209578D01*
Y198422D01*
X106578Y196020D01*
X96520D01*
Y198453D01*
X90008D01*
Y192989D01*
X88626Y191607D01*
X88405Y191276D01*
X88327Y190886D01*
Y187469D01*
X86681D01*
Y182531D01*
X86681D01*
Y182468D01*
X86681D01*
Y177532D01*
X87980D01*
Y175341D01*
X87788Y175212D01*
X87416Y174656D01*
X87286Y174000D01*
X87416Y173344D01*
X87788Y172788D01*
X88344Y172416D01*
X89000Y172286D01*
X89656Y172416D01*
X90212Y172788D01*
X90584Y173344D01*
X90714Y174000D01*
X90584Y174656D01*
X90212Y175212D01*
X90020Y175341D01*
Y177532D01*
X92012D01*
Y182468D01*
X92012D01*
Y182531D01*
X92012D01*
Y187469D01*
X90366D01*
Y190463D01*
X91450Y191547D01*
X96520D01*
Y193980D01*
X107000D01*
X107390Y194058D01*
X107721Y194279D01*
X110721Y197279D01*
X110942Y197610D01*
X111020Y198000D01*
Y210000D01*
X110942Y210390D01*
X110721Y210721D01*
X102721Y218721D01*
X102390Y218942D01*
X102000Y219020D01*
X97161D01*
Y220933D01*
X175086D01*
X193089Y202930D01*
X193051Y202740D01*
X193178Y202101D01*
X193540Y201559D01*
X194082Y201197D01*
X194721Y201070D01*
X198446D01*
X198636Y201108D01*
X201465Y198279D01*
X201796Y198058D01*
X202186Y197980D01*
X203138D01*
Y196673D01*
X202165D01*
X199117Y199721D01*
X198786Y199942D01*
X198396Y200020D01*
X192568D01*
X192460Y200181D01*
X191918Y200543D01*
X191279Y200670D01*
X187554D01*
X186915Y200543D01*
X186373Y200181D01*
X186011Y199639D01*
X185884Y199000D01*
X186011Y198361D01*
X186373Y197819D01*
X186831Y197513D01*
Y188133D01*
X186369Y187942D01*
X184440Y189871D01*
X184109Y190092D01*
X183719Y190169D01*
X181020D01*
Y192067D01*
X182862D01*
Y197004D01*
X177138D01*
Y192067D01*
X178980D01*
Y189735D01*
X178582Y189458D01*
X178527Y189450D01*
X174875Y193103D01*
X174862Y193166D01*
Y197004D01*
X169138D01*
Y192067D01*
X173065D01*
X173141Y191952D01*
X176540Y188554D01*
X176527Y188490D01*
X175985Y188326D01*
X173696Y190614D01*
X173366Y190835D01*
X172976Y190912D01*
X169459D01*
X166862Y193509D01*
Y197004D01*
X161138D01*
Y192067D01*
X165420D01*
X168315Y189172D01*
X168646Y188951D01*
X169036Y188873D01*
X170508D01*
X170607Y188373D01*
X170159Y188188D01*
X169397Y187603D01*
X168812Y186840D01*
X168626Y186391D01*
X168036Y186274D01*
X163697Y190614D01*
X163366Y190835D01*
X162976Y190912D01*
X161438D01*
X158842Y193509D01*
Y197004D01*
X153117D01*
Y192067D01*
X157400D01*
X160295Y189172D01*
X160626Y188951D01*
X160672Y188942D01*
X160724Y188422D01*
X160160Y188188D01*
X159397Y187603D01*
X158812Y186840D01*
X158444Y185953D01*
X158319Y185000D01*
X158444Y184047D01*
X158812Y183159D01*
X159397Y182397D01*
X160160Y181812D01*
X160980Y181472D01*
Y155199D01*
X161058Y154809D01*
X161279Y154478D01*
X172142Y143615D01*
Y138838D01*
X171695Y138628D01*
X171573Y138683D01*
X171143Y138971D01*
X170773Y139044D01*
X143020Y166798D01*
Y181472D01*
X143841Y181812D01*
X144603Y182397D01*
X145188Y183159D01*
X145556Y184047D01*
X145681Y185000D01*
X145556Y185953D01*
X145188Y186840D01*
X144603Y187603D01*
X143841Y188188D01*
X142953Y188556D01*
X142000Y188681D01*
X141047Y188556D01*
X140159Y188188D01*
X139397Y187603D01*
X138812Y186840D01*
X138444Y185953D01*
X138319Y185000D01*
X138444Y184047D01*
X138812Y183159D01*
X139397Y182397D01*
X140159Y181812D01*
X140980Y181472D01*
Y166376D01*
X141058Y165985D01*
X141279Y165655D01*
X167494Y139440D01*
X167355Y138872D01*
X167044Y138664D01*
X167014Y138619D01*
X166514D01*
X166483Y138664D01*
X166025Y138971D01*
X165484Y139078D01*
X164944Y138971D01*
X164485Y138664D01*
X164179Y138206D01*
X164071Y137665D01*
Y131169D01*
X164179Y130629D01*
X164485Y130170D01*
X164944Y129864D01*
X165484Y129756D01*
X166025Y129864D01*
X166483Y130170D01*
X166514Y130216D01*
X167014D01*
X167044Y130170D01*
X167503Y129864D01*
X168043Y129756D01*
X168584Y129864D01*
X169042Y130170D01*
X169073Y130216D01*
X169573D01*
X169603Y130170D01*
X170062Y129864D01*
X170602Y129756D01*
X171143Y129864D01*
X171601Y130170D01*
X171632Y130216D01*
X172132D01*
X172162Y130170D01*
X172621Y129864D01*
X173161Y129756D01*
X173702Y129864D01*
X174161Y130170D01*
X174191Y130216D01*
X174691D01*
X174721Y130170D01*
X175180Y129864D01*
X175721Y129756D01*
X176261Y129864D01*
X176720Y130170D01*
X176750Y130216D01*
X177250D01*
X177280Y130170D01*
X177739Y129864D01*
X178279Y129756D01*
X178820Y129864D01*
X179279Y130170D01*
X179309Y130216D01*
X179809D01*
X179840Y130170D01*
X180298Y129864D01*
X180839Y129756D01*
X181379Y129864D01*
X181838Y130170D01*
X181868Y130216D01*
X182368D01*
X182398Y130170D01*
X182857Y129864D01*
X183398Y129756D01*
X183938Y129864D01*
X184397Y130170D01*
X184427Y130216D01*
X184927D01*
X184958Y130170D01*
X185260Y129968D01*
X185396Y129397D01*
X180683Y124684D01*
X131895D01*
X131310Y124568D01*
X130813Y124236D01*
X124180Y117603D01*
X124084Y117584D01*
X123528Y117212D01*
X123157Y116656D01*
X123026Y116000D01*
X123157Y115344D01*
X123211Y115263D01*
Y106031D01*
X122749Y105839D01*
X102507Y126081D01*
X102011Y126413D01*
X101425Y126529D01*
X84172D01*
X83586Y126413D01*
X83090Y126081D01*
X80552Y123544D01*
X80221Y123048D01*
X80105Y122462D01*
Y120453D01*
X77016D01*
Y115710D01*
X68328Y107023D01*
X67997Y106527D01*
X67880Y105941D01*
Y97291D01*
X65957D01*
Y91447D01*
X56418D01*
X55832Y91330D01*
X55336Y90999D01*
X29958Y65621D01*
X29626Y65124D01*
X29510Y64539D01*
Y30593D01*
X26195Y27277D01*
X22885D01*
X17961Y32202D01*
Y35961D01*
X12039D01*
Y30039D01*
X15798D01*
X21170Y24667D01*
X21667Y24335D01*
X22252Y24219D01*
X26828D01*
X27414Y24335D01*
X27910Y24667D01*
X32121Y28877D01*
X32452Y29374D01*
X32569Y29959D01*
Y30518D01*
X33069Y30750D01*
X33507Y30414D01*
X34227Y30116D01*
X35000Y30014D01*
X35773Y30116D01*
X36493Y30414D01*
X37111Y30889D01*
X37586Y31507D01*
X37884Y32227D01*
X37971Y32882D01*
X38471Y32849D01*
Y24633D01*
X36729Y22892D01*
X6271D01*
X4603Y24560D01*
X4584Y24656D01*
X4212Y25212D01*
X3656Y25584D01*
X3000Y25714D01*
X2344Y25584D01*
X1788Y25212D01*
X1520Y24810D01*
X1020Y24962D01*
Y262078D01*
X7922Y268980D01*
X24831D01*
X25038Y268480D01*
D02*
G37*
G36*
X368980Y262078D02*
Y7922D01*
X362078Y1020D01*
X7922D01*
X1020Y7922D01*
Y23038D01*
X1520Y23190D01*
X1788Y22788D01*
X2344Y22416D01*
X2440Y22397D01*
X4556Y20281D01*
X5052Y19949D01*
X5638Y19833D01*
X37362D01*
X37947Y19949D01*
X38444Y20281D01*
X41081Y22919D01*
X41413Y23415D01*
X41529Y24000D01*
Y39831D01*
X60169Y58471D01*
X119433D01*
X125325Y52578D01*
X125821Y52247D01*
X126407Y52130D01*
X186937D01*
X187522Y52247D01*
X188018Y52578D01*
X208081Y72641D01*
X208413Y73137D01*
X208529Y73723D01*
Y78229D01*
X208413Y78815D01*
X208081Y79311D01*
X202994Y84398D01*
Y88272D01*
X202965Y88419D01*
Y95646D01*
X187957D01*
Y105599D01*
X189209D01*
Y109749D01*
X184665D01*
Y105599D01*
X185917D01*
Y95646D01*
X179020D01*
Y96780D01*
X180862D01*
Y101717D01*
X175138D01*
Y96780D01*
X176980D01*
Y95501D01*
X173849Y92370D01*
X168602D01*
X168395Y92870D01*
X168859Y93334D01*
X169080Y93665D01*
X169157Y94055D01*
Y96780D01*
X172862D01*
Y101717D01*
X167531D01*
X167324Y102217D01*
X168580Y103473D01*
X172862D01*
Y108410D01*
X167138D01*
Y104915D01*
X166324Y104101D01*
X165862Y104292D01*
Y108410D01*
X164517D01*
Y109100D01*
X164559Y109163D01*
X164690Y109819D01*
X164559Y110475D01*
X164516Y110539D01*
X164752Y110980D01*
X173578D01*
X175118Y109440D01*
Y107410D01*
X175138Y107311D01*
Y103473D01*
X180862D01*
Y108410D01*
X177157D01*
Y109862D01*
X177080Y110252D01*
X176859Y110583D01*
X174721Y112721D01*
X174390Y112942D01*
X174000Y113020D01*
X159629D01*
X159239Y112942D01*
X158908Y112721D01*
X158323Y112136D01*
X158321Y112136D01*
X157823Y112287D01*
Y112923D01*
X158880Y113980D01*
X184665D01*
Y113080D01*
X189209D01*
Y117229D01*
X184665D01*
Y116020D01*
X158458D01*
X158067Y115942D01*
X157737Y115721D01*
X156082Y114067D01*
X155861Y113736D01*
X155783Y113346D01*
Y100109D01*
X155475Y99924D01*
X155032Y100188D01*
Y104997D01*
X149307D01*
X149193Y105449D01*
Y106300D01*
X149307Y106753D01*
X149693Y106753D01*
X155032D01*
Y111690D01*
X151470D01*
X146078Y117081D01*
X145582Y117413D01*
X144997Y117529D01*
X129086D01*
X128894Y117991D01*
X132528Y121625D01*
X181316D01*
X181901Y121742D01*
X182398Y122073D01*
X189483Y129159D01*
X189815Y129655D01*
X189931Y130240D01*
Y133398D01*
X194222D01*
Y130965D01*
X200340D01*
Y137870D01*
X194222D01*
Y135437D01*
X189929D01*
Y137665D01*
X189821Y138206D01*
X189515Y138664D01*
X189440Y139296D01*
X189574Y139466D01*
X232607D01*
X232997Y139544D01*
X233328Y139765D01*
X246847Y153284D01*
X247739D01*
X247899Y152810D01*
X247698Y152656D01*
X247057Y151820D01*
X246654Y150847D01*
X246517Y149803D01*
X246654Y148759D01*
X247057Y147786D01*
X247698Y146950D01*
X248534Y146309D01*
X249507Y145906D01*
X250551Y145769D01*
X251595Y145906D01*
X252569Y146309D01*
X253404Y146950D01*
X254045Y147786D01*
X254448Y148759D01*
X254586Y149803D01*
X254448Y150847D01*
X254045Y151820D01*
X253404Y152656D01*
X253203Y152810D01*
X253364Y153284D01*
X255311D01*
X255701Y153361D01*
X256031Y153582D01*
X272223Y169774D01*
X272444Y170105D01*
X272522Y170495D01*
Y175382D01*
X277868Y180729D01*
X278330Y180537D01*
Y177554D01*
X278457Y176915D01*
X278819Y176373D01*
X279361Y176011D01*
X279478Y175988D01*
X293138Y162328D01*
X292644Y159420D01*
X292452Y156000D01*
X292644Y152580D01*
X293218Y149202D01*
X294166Y145911D01*
X295477Y142746D01*
X297134Y139748D01*
X299117Y136954D01*
X301399Y134399D01*
X303954Y132117D01*
X306747Y130134D01*
X309746Y128477D01*
X312911Y127166D01*
X316202Y126218D01*
X319580Y125644D01*
X323000Y125452D01*
X326420Y125644D01*
X329798Y126218D01*
X333089Y127166D01*
X336254Y128477D01*
X339253Y130134D01*
X342046Y132117D01*
X344601Y134399D01*
X346883Y136954D01*
X348866Y139748D01*
X350523Y142746D01*
X351834Y145911D01*
X352782Y149202D01*
X353356Y152580D01*
X353548Y156000D01*
X353356Y159420D01*
X352782Y162798D01*
X351834Y166089D01*
X350523Y169254D01*
X348866Y172253D01*
X346883Y175046D01*
X344601Y177601D01*
X342046Y179883D01*
X339253Y181866D01*
X336254Y183523D01*
X333089Y184834D01*
X329798Y185782D01*
X326420Y186356D01*
X323000Y186548D01*
X319580Y186356D01*
X316202Y185782D01*
X312911Y184834D01*
X309746Y183523D01*
X306747Y181866D01*
X303954Y179883D01*
X301399Y177601D01*
X299117Y175046D01*
X297134Y172253D01*
X295477Y169254D01*
X294237Y166261D01*
X293704Y166087D01*
X281670Y178121D01*
Y181279D01*
X281543Y181918D01*
X281181Y182460D01*
X281026Y182563D01*
X281178Y183063D01*
X283102D01*
X283201Y183083D01*
X285378D01*
Y190084D01*
X282102D01*
Y185102D01*
X279780D01*
X279390Y185025D01*
X279059Y184804D01*
X278306Y184051D01*
X277845Y184297D01*
X277930Y184721D01*
Y188446D01*
X277803Y189085D01*
X277441Y189627D01*
X276899Y189989D01*
X276260Y190116D01*
X275621Y189989D01*
X275079Y189627D01*
X274717Y189085D01*
X274590Y188446D01*
Y188113D01*
X264747D01*
X264161Y187996D01*
X264123Y187971D01*
X263841Y188188D01*
X262953Y188556D01*
X262000Y188681D01*
X261047Y188556D01*
X260159Y188188D01*
X259397Y187603D01*
X258812Y186840D01*
X258444Y185953D01*
X258319Y185000D01*
X258444Y184047D01*
X258812Y183159D01*
X259397Y182397D01*
X260159Y181812D01*
X261047Y181444D01*
X262000Y181319D01*
X262953Y181444D01*
X263841Y181812D01*
X264603Y182397D01*
X265188Y183159D01*
X265556Y184047D01*
X265681Y185000D01*
X265728Y185054D01*
X274590D01*
Y184721D01*
X274717Y184082D01*
X275079Y183540D01*
X275621Y183178D01*
X276260Y183051D01*
X276684Y183135D01*
X276930Y182674D01*
X270781Y176526D01*
X270560Y176195D01*
X270483Y175805D01*
Y170917D01*
X267510Y167945D01*
X267068Y168210D01*
X267178Y168572D01*
X267319Y170000D01*
X267178Y171428D01*
X266762Y172801D01*
X266085Y174066D01*
X265175Y175175D01*
X264066Y176085D01*
X262801Y176762D01*
X261428Y177178D01*
X260000Y177319D01*
X258572Y177178D01*
X257199Y176762D01*
X255934Y176085D01*
X254825Y175175D01*
X253915Y174066D01*
X253238Y172801D01*
X252822Y171428D01*
X252681Y170000D01*
X252822Y168572D01*
X253238Y167199D01*
X253915Y165934D01*
X254825Y164825D01*
X255934Y163915D01*
X257199Y163238D01*
X258572Y162822D01*
X260000Y162681D01*
X261428Y162822D01*
X261790Y162932D01*
X262055Y162490D01*
X254888Y155323D01*
X246424D01*
X246034Y155245D01*
X245704Y155024D01*
X240300Y149621D01*
X239839Y149812D01*
Y162224D01*
X240280Y162460D01*
X240344Y162416D01*
X241000Y162286D01*
X241656Y162416D01*
X241841Y162540D01*
X243527D01*
X244113Y162656D01*
X244609Y162988D01*
X246301Y164680D01*
X249862D01*
Y169617D01*
X244138D01*
Y166843D01*
X242894Y165599D01*
X241580D01*
X241000Y165714D01*
X240344Y165584D01*
X240280Y165540D01*
X239839Y165776D01*
Y181183D01*
X240377Y181722D01*
X241047Y181444D01*
X242000Y181319D01*
X242953Y181444D01*
X243841Y181812D01*
X244603Y182397D01*
X245188Y183159D01*
X245556Y184047D01*
X245681Y185000D01*
X245556Y185953D01*
X245188Y186840D01*
X244603Y187603D01*
X243841Y188188D01*
X242953Y188556D01*
X242000Y188681D01*
X241047Y188556D01*
X240160Y188188D01*
X239397Y187603D01*
X238812Y186840D01*
X238444Y185953D01*
X238319Y185000D01*
X238444Y184047D01*
X238812Y183159D01*
X238864Y183092D01*
X238098Y182326D01*
X237877Y181996D01*
X237799Y181606D01*
Y149241D01*
X232578Y144020D01*
X189234D01*
X189027Y144520D01*
X189488Y144980D01*
X226000D01*
X226390Y145058D01*
X226721Y145279D01*
X232721Y151279D01*
X232942Y151610D01*
X233020Y152000D01*
Y181472D01*
X233840Y181812D01*
X234603Y182397D01*
X235188Y183159D01*
X235556Y184047D01*
X235681Y185000D01*
X235556Y185953D01*
X235188Y186840D01*
X234603Y187603D01*
X233840Y188188D01*
X232953Y188556D01*
X232000Y188681D01*
X231047Y188556D01*
X230159Y188188D01*
X229397Y187603D01*
X229343Y187533D01*
X228870Y187694D01*
Y193622D01*
X231642D01*
X233300Y191964D01*
X233631Y191743D01*
X234021Y191665D01*
X243638D01*
X244028Y191743D01*
X244359Y191964D01*
X245580Y193185D01*
X249862D01*
Y198122D01*
X244531D01*
X244324Y198622D01*
X245580Y199878D01*
X249862D01*
Y203716D01*
X249882Y203815D01*
Y204180D01*
X259773Y214071D01*
X260000Y214026D01*
X260656Y214157D01*
X261212Y214528D01*
X261584Y215084D01*
X261714Y215740D01*
X261584Y216396D01*
X261212Y216952D01*
X261020Y217081D01*
Y231314D01*
X261294Y231701D01*
X261520Y231701D01*
X266037D01*
X270046Y227691D01*
X270316Y227288D01*
X270872Y226916D01*
X271528Y226786D01*
X272754D01*
Y225214D01*
X271528D01*
X270872Y225084D01*
X270316Y224712D01*
X269944Y224156D01*
X269813Y223500D01*
X269944Y222844D01*
X270316Y222288D01*
X270872Y221916D01*
X271528Y221786D01*
X272754D01*
Y220214D01*
X271528D01*
X270872Y220084D01*
X270316Y219712D01*
X269944Y219156D01*
X269813Y218500D01*
X269944Y217844D01*
X270316Y217288D01*
X270872Y216916D01*
X271528Y216786D01*
X272754D01*
Y215214D01*
X271528D01*
X270872Y215084D01*
X270316Y214712D01*
X269944Y214156D01*
X269813Y213500D01*
X269944Y212844D01*
X270316Y212288D01*
X270872Y211916D01*
X271528Y211786D01*
X272754D01*
Y207453D01*
X272700Y207372D01*
X272569Y206716D01*
X272700Y206061D01*
X273072Y205504D01*
X273627Y205133D01*
X274284Y205002D01*
X274939Y205133D01*
X275496Y205504D01*
X275867Y206061D01*
X275997Y206716D01*
X275867Y207372D01*
X275813Y207453D01*
Y211786D01*
X277039D01*
X277695Y211916D01*
X278251Y212288D01*
X278623Y212844D01*
X278753Y213500D01*
X278623Y214156D01*
X278251Y214712D01*
X277695Y215084D01*
X277039Y215214D01*
X275813D01*
Y216786D01*
X277039D01*
X277695Y216916D01*
X278251Y217288D01*
X278623Y217844D01*
X278753Y218500D01*
X278623Y219156D01*
X278251Y219712D01*
X277695Y220084D01*
X277039Y220214D01*
X275813D01*
Y221786D01*
X277039D01*
X277695Y221916D01*
X278251Y222288D01*
X278623Y222844D01*
X278753Y223500D01*
X278623Y224156D01*
X278251Y224712D01*
X277695Y225084D01*
X277039Y225214D01*
X275813D01*
Y226786D01*
X277039D01*
X277695Y226916D01*
X278251Y227288D01*
X278623Y227844D01*
X278753Y228500D01*
X278623Y229156D01*
X278251Y229712D01*
X277695Y230084D01*
X277039Y230214D01*
X271849D01*
X270499Y231564D01*
X270818Y231952D01*
X270872Y231916D01*
X271528Y231786D01*
X277039D01*
X277695Y231916D01*
X278251Y232288D01*
X278623Y232844D01*
X278753Y233500D01*
X278623Y234156D01*
X278251Y234712D01*
X277695Y235084D01*
X277039Y235214D01*
X271528D01*
X270872Y235084D01*
X270316Y234712D01*
X269944Y234156D01*
X269813Y233500D01*
X269944Y232844D01*
X269980Y232791D01*
X269591Y232472D01*
X268199Y233864D01*
Y237819D01*
X261520D01*
X261294Y237819D01*
X261020Y238205D01*
Y238795D01*
X261294Y239181D01*
X261520Y239181D01*
X264497D01*
Y242240D01*
Y245299D01*
X261520D01*
X261294Y245299D01*
X261020Y245686D01*
Y254578D01*
X263379Y256937D01*
X306578D01*
X308697Y254818D01*
Y250214D01*
X306961D01*
X306305Y250084D01*
X305749Y249712D01*
X305377Y249156D01*
X305247Y248500D01*
X305377Y247844D01*
X305749Y247288D01*
X306305Y246916D01*
X306961Y246786D01*
X312472D01*
X313128Y246916D01*
X313685Y247288D01*
X314056Y247844D01*
X314187Y248500D01*
X314056Y249156D01*
X313685Y249712D01*
X313128Y250084D01*
X312472Y250214D01*
X310736D01*
Y255240D01*
X310659Y255630D01*
X310437Y255961D01*
X309924Y256475D01*
X310115Y256937D01*
X323788D01*
X323995Y256437D01*
X322279Y254721D01*
X322058Y254390D01*
X321980Y254000D01*
Y246866D01*
X322058Y246476D01*
X322279Y246145D01*
X325547Y242877D01*
Y241510D01*
X329000D01*
Y241260D01*
X329250D01*
Y238201D01*
X332453D01*
Y240240D01*
X333514D01*
X333894Y239970D01*
X334017Y239352D01*
X334367Y238829D01*
X334890Y238479D01*
X335508Y238356D01*
X337429D01*
Y239970D01*
X337929D01*
Y238356D01*
X339850D01*
X340468Y238479D01*
X340886Y238759D01*
X341258Y238632D01*
X341386Y238537D01*
Y236415D01*
X341509Y235797D01*
X341859Y235274D01*
X342239Y235020D01*
X342088Y234520D01*
X329285D01*
X326066Y237739D01*
X326257Y238201D01*
X328750D01*
Y241010D01*
X325547D01*
Y238911D01*
X325085Y238720D01*
X319584Y244221D01*
X319253Y244442D01*
X318863Y244520D01*
X313813D01*
X313685Y244712D01*
X313128Y245084D01*
X312472Y245214D01*
X306961D01*
X306305Y245084D01*
X305749Y244712D01*
X305377Y244156D01*
X305247Y243500D01*
X305377Y242844D01*
X305749Y242288D01*
X306305Y241916D01*
X306961Y241786D01*
X312472D01*
X313128Y241916D01*
X313685Y242288D01*
X313813Y242480D01*
X318441D01*
X328142Y232779D01*
X328473Y232558D01*
X328863Y232480D01*
X352728D01*
X353118Y232558D01*
X353449Y232779D01*
X354035Y233365D01*
X354256Y233696D01*
X354333Y234086D01*
Y255288D01*
X354256Y255678D01*
X354035Y256009D01*
X353449Y256595D01*
X353118Y256816D01*
X352728Y256894D01*
X351582D01*
X351110Y257209D01*
X350492Y257332D01*
X347669D01*
Y258725D01*
X347592Y259115D01*
X347371Y259446D01*
X345286Y261530D01*
X345478Y261992D01*
X360566D01*
X363980Y258578D01*
Y133422D01*
X334318Y103760D01*
X261917D01*
Y104378D01*
X254916D01*
Y101102D01*
X261917D01*
Y101721D01*
X334740D01*
X335130Y101798D01*
X335461Y102019D01*
X365721Y132279D01*
X365942Y132610D01*
X366020Y133000D01*
Y259000D01*
X365942Y259390D01*
X365721Y259721D01*
X361709Y263733D01*
X361378Y263954D01*
X360988Y264031D01*
X231500D01*
X231110Y263954D01*
X230779Y263733D01*
X229279Y262233D01*
X229058Y261902D01*
X228980Y261512D01*
Y245678D01*
X223279Y239977D01*
X223058Y239646D01*
X222980Y239256D01*
Y232643D01*
X222662Y232535D01*
X222480Y232508D01*
X221765Y233057D01*
X220914Y233410D01*
X220000Y233530D01*
X219086Y233410D01*
X218341Y233101D01*
X182961Y268480D01*
X183169Y268980D01*
X362078D01*
X368980Y262078D01*
D02*
G37*
G36*
X119056Y105206D02*
X118865Y104744D01*
X114201D01*
Y102821D01*
X112000D01*
X111415Y102704D01*
X110919Y102373D01*
X107440Y98894D01*
X107344Y98875D01*
X106788Y98503D01*
X106416Y97947D01*
X106397Y97852D01*
X105919Y97373D01*
X105587Y96877D01*
X105471Y96291D01*
Y85941D01*
X100524D01*
Y78642D01*
X112547D01*
Y85941D01*
X108529D01*
Y95658D01*
X108560Y95689D01*
X108656Y95708D01*
X109212Y96079D01*
X109584Y96635D01*
X109603Y96731D01*
X112634Y99762D01*
X114201D01*
Y97839D01*
X120319D01*
Y103290D01*
X120781Y103481D01*
X121681Y102581D01*
Y97839D01*
X123211D01*
Y85941D01*
X117453D01*
Y78642D01*
X129476D01*
Y80762D01*
X133195D01*
Y79984D01*
X133249Y79711D01*
X133404Y79479D01*
X133636Y79324D01*
X133909Y79270D01*
X134640D01*
Y76122D01*
Y66794D01*
X134756Y66209D01*
X135088Y65713D01*
X143701Y57100D01*
X143770Y57053D01*
X143826Y56969D01*
X144382Y56598D01*
X145038Y56467D01*
X145059Y56471D01*
X145061Y56471D01*
X145647Y56587D01*
X145649Y56589D01*
X145694Y56598D01*
X146182Y56923D01*
X151110D01*
Y55197D01*
X150614Y55189D01*
X127040D01*
X121148Y61081D01*
X120651Y61413D01*
X120066Y61529D01*
X59536D01*
X58950Y61413D01*
X58454Y61081D01*
X38919Y41546D01*
X38587Y41050D01*
X38471Y40464D01*
Y33151D01*
X37971Y33118D01*
X37884Y33773D01*
X37586Y34493D01*
X37111Y35111D01*
X36493Y35586D01*
X35773Y35884D01*
X35000Y35986D01*
X34227Y35884D01*
X33507Y35586D01*
X33069Y35250D01*
X32569Y35482D01*
Y63906D01*
X57051Y88388D01*
X67457D01*
X67605Y88417D01*
X72862D01*
Y97291D01*
X70939D01*
Y105308D01*
X79179Y113547D01*
X83134D01*
Y118018D01*
X83163Y118165D01*
Y121829D01*
X84805Y123471D01*
X100792D01*
X119056Y105206D01*
D02*
G37*
%LPC*%
G36*
X39705Y255248D02*
X33980D01*
Y244406D01*
X39705D01*
Y255248D01*
D02*
G37*
G36*
X29862D02*
X24138D01*
Y244406D01*
X29862D01*
Y255248D01*
D02*
G37*
G36*
X253500Y233500D02*
X246500D01*
Y226500D01*
X253500D01*
Y233500D01*
D02*
G37*
G36*
X167500D02*
X160500D01*
Y226500D01*
X167500D01*
Y233500D01*
D02*
G37*
G36*
X240000Y233530D02*
X239086Y233410D01*
X238235Y233057D01*
X237504Y232496D01*
X236943Y231765D01*
X236590Y230914D01*
X236470Y230000D01*
X236590Y229086D01*
X236943Y228235D01*
X237504Y227504D01*
X238235Y226943D01*
X239086Y226590D01*
X240000Y226470D01*
X240914Y226590D01*
X241765Y226943D01*
X242496Y227504D01*
X243057Y228235D01*
X243410Y229086D01*
X243530Y230000D01*
X243410Y230914D01*
X243057Y231765D01*
X242496Y232496D01*
X241765Y233057D01*
X240914Y233410D01*
X240000Y233530D01*
D02*
G37*
G36*
X230000D02*
X229086Y233410D01*
X228235Y233057D01*
X227504Y232496D01*
X226943Y231765D01*
X226590Y230914D01*
X226470Y230000D01*
X226590Y229086D01*
X226943Y228235D01*
X227504Y227504D01*
X228235Y226943D01*
X229086Y226590D01*
X230000Y226470D01*
X230914Y226590D01*
X231765Y226943D01*
X232496Y227504D01*
X233057Y228235D01*
X233410Y229086D01*
X233530Y230000D01*
X233410Y230914D01*
X233057Y231765D01*
X232496Y232496D01*
X231765Y233057D01*
X230914Y233410D01*
X230000Y233530D01*
D02*
G37*
G36*
X210000D02*
X209086Y233410D01*
X208235Y233057D01*
X207504Y232496D01*
X206943Y231765D01*
X206590Y230914D01*
X206470Y230000D01*
X206590Y229086D01*
X206943Y228235D01*
X207504Y227504D01*
X208235Y226943D01*
X209086Y226590D01*
X210000Y226470D01*
X210914Y226590D01*
X211765Y226943D01*
X212496Y227504D01*
X213057Y228235D01*
X213410Y229086D01*
X213530Y230000D01*
X213410Y230914D01*
X213057Y231765D01*
X212496Y232496D01*
X211765Y233057D01*
X210914Y233410D01*
X210000Y233530D01*
D02*
G37*
G36*
X200000D02*
X199086Y233410D01*
X198235Y233057D01*
X197504Y232496D01*
X196943Y231765D01*
X196590Y230914D01*
X196470Y230000D01*
X196590Y229086D01*
X196943Y228235D01*
X197504Y227504D01*
X198235Y226943D01*
X199086Y226590D01*
X200000Y226470D01*
X200914Y226590D01*
X201765Y226943D01*
X202496Y227504D01*
X203057Y228235D01*
X203410Y229086D01*
X203530Y230000D01*
X203410Y230914D01*
X203057Y231765D01*
X202496Y232496D01*
X201765Y233057D01*
X200914Y233410D01*
X200000Y233530D01*
D02*
G37*
G36*
X180000D02*
X179086Y233410D01*
X178235Y233057D01*
X177504Y232496D01*
X176943Y231765D01*
X176590Y230914D01*
X176470Y230000D01*
X176590Y229086D01*
X176943Y228235D01*
X177504Y227504D01*
X178235Y226943D01*
X179086Y226590D01*
X180000Y226470D01*
X180914Y226590D01*
X181765Y226943D01*
X182496Y227504D01*
X183057Y228235D01*
X183410Y229086D01*
X183530Y230000D01*
X183410Y230914D01*
X183057Y231765D01*
X182496Y232496D01*
X181765Y233057D01*
X180914Y233410D01*
X180000Y233530D01*
D02*
G37*
G36*
X154000D02*
X153086Y233410D01*
X152235Y233057D01*
X151504Y232496D01*
X150943Y231765D01*
X150590Y230914D01*
X150470Y230000D01*
X150590Y229086D01*
X150943Y228235D01*
X151504Y227504D01*
X152235Y226943D01*
X153086Y226590D01*
X154000Y226470D01*
X154914Y226590D01*
X155765Y226943D01*
X156496Y227504D01*
X157057Y228235D01*
X157410Y229086D01*
X157530Y230000D01*
X157410Y230914D01*
X157057Y231765D01*
X156496Y232496D01*
X155765Y233057D01*
X154914Y233410D01*
X154000Y233530D01*
D02*
G37*
G36*
X144000D02*
X143086Y233410D01*
X142235Y233057D01*
X141504Y232496D01*
X140943Y231765D01*
X140590Y230914D01*
X140470Y230000D01*
X140590Y229086D01*
X140943Y228235D01*
X141504Y227504D01*
X142235Y226943D01*
X143086Y226590D01*
X144000Y226470D01*
X144914Y226590D01*
X145765Y226943D01*
X146496Y227504D01*
X147057Y228235D01*
X147410Y229086D01*
X147530Y230000D01*
X147410Y230914D01*
X147057Y231765D01*
X146496Y232496D01*
X145765Y233057D01*
X144914Y233410D01*
X144000Y233530D01*
D02*
G37*
G36*
X134000D02*
X133086Y233410D01*
X132235Y233057D01*
X131504Y232496D01*
X130943Y231765D01*
X130590Y230914D01*
X130470Y230000D01*
X130590Y229086D01*
X130943Y228235D01*
X131504Y227504D01*
X132235Y226943D01*
X133086Y226590D01*
X134000Y226470D01*
X134914Y226590D01*
X135765Y226943D01*
X136496Y227504D01*
X137057Y228235D01*
X137410Y229086D01*
X137530Y230000D01*
X137410Y230914D01*
X137057Y231765D01*
X136496Y232496D01*
X135765Y233057D01*
X134914Y233410D01*
X134000Y233530D01*
D02*
G37*
G36*
X124000D02*
X123086Y233410D01*
X122235Y233057D01*
X121504Y232496D01*
X120943Y231765D01*
X120590Y230914D01*
X120470Y230000D01*
X120590Y229086D01*
X120943Y228235D01*
X121504Y227504D01*
X122235Y226943D01*
X123086Y226590D01*
X124000Y226470D01*
X124914Y226590D01*
X125765Y226943D01*
X126496Y227504D01*
X127057Y228235D01*
X127410Y229086D01*
X127530Y230000D01*
X127410Y230914D01*
X127057Y231765D01*
X126496Y232496D01*
X125765Y233057D01*
X124914Y233410D01*
X124000Y233530D01*
D02*
G37*
G36*
X114000D02*
X113086Y233410D01*
X112235Y233057D01*
X111504Y232496D01*
X110943Y231765D01*
X110590Y230914D01*
X110470Y230000D01*
X110590Y229086D01*
X110943Y228235D01*
X111504Y227504D01*
X112235Y226943D01*
X113086Y226590D01*
X114000Y226470D01*
X114914Y226590D01*
X115765Y226943D01*
X116496Y227504D01*
X117057Y228235D01*
X117410Y229086D01*
X117530Y230000D01*
X117410Y230914D01*
X117057Y231765D01*
X116496Y232496D01*
X115765Y233057D01*
X114914Y233410D01*
X114000Y233530D01*
D02*
G37*
G36*
X104000D02*
X103086Y233410D01*
X102235Y233057D01*
X101504Y232496D01*
X100943Y231765D01*
X100590Y230914D01*
X100470Y230000D01*
X100590Y229086D01*
X100943Y228235D01*
X101504Y227504D01*
X102235Y226943D01*
X103086Y226590D01*
X104000Y226470D01*
X104914Y226590D01*
X105765Y226943D01*
X106496Y227504D01*
X107057Y228235D01*
X107410Y229086D01*
X107530Y230000D01*
X107410Y230914D01*
X107057Y231765D01*
X106496Y232496D01*
X105765Y233057D01*
X104914Y233410D01*
X104000Y233530D01*
D02*
G37*
G36*
X94000D02*
X93086Y233410D01*
X92235Y233057D01*
X91504Y232496D01*
X90943Y231765D01*
X90590Y230914D01*
X90470Y230000D01*
X90590Y229086D01*
X90943Y228235D01*
X91504Y227504D01*
X92235Y226943D01*
X93086Y226590D01*
X94000Y226470D01*
X94914Y226590D01*
X95765Y226943D01*
X96496Y227504D01*
X97057Y228235D01*
X97410Y229086D01*
X97530Y230000D01*
X97410Y230914D01*
X97057Y231765D01*
X96496Y232496D01*
X95765Y233057D01*
X94914Y233410D01*
X94000Y233530D01*
D02*
G37*
G36*
X74000D02*
X73086Y233410D01*
X72235Y233057D01*
X71504Y232496D01*
X70943Y231765D01*
X70590Y230914D01*
X70470Y230000D01*
X70590Y229086D01*
X70943Y228235D01*
X71504Y227504D01*
X72235Y226943D01*
X73086Y226590D01*
X74000Y226470D01*
X74914Y226590D01*
X75765Y226943D01*
X76496Y227504D01*
X77057Y228235D01*
X77410Y229086D01*
X77530Y230000D01*
X77410Y230914D01*
X77057Y231765D01*
X76496Y232496D01*
X75765Y233057D01*
X74914Y233410D01*
X74000Y233530D01*
D02*
G37*
G36*
X20020Y233594D02*
X14295D01*
Y222752D01*
X20020D01*
Y233594D01*
D02*
G37*
G36*
X60000Y237319D02*
X58572Y237178D01*
X57199Y236762D01*
X55934Y236085D01*
X54825Y235175D01*
X53915Y234066D01*
X53238Y232801D01*
X52822Y231428D01*
X52681Y230000D01*
X52822Y228572D01*
X53238Y227199D01*
X53915Y225934D01*
X54825Y224825D01*
X55934Y223915D01*
X57199Y223238D01*
X58572Y222822D01*
X60000Y222681D01*
X61428Y222822D01*
X62801Y223238D01*
X64066Y223915D01*
X65175Y224825D01*
X66085Y225934D01*
X66762Y227199D01*
X67178Y228572D01*
X67319Y230000D01*
X67178Y231428D01*
X66762Y232801D01*
X66085Y234066D01*
X65175Y235175D01*
X64066Y236085D01*
X62801Y236762D01*
X61428Y237178D01*
X60000Y237319D01*
D02*
G37*
G36*
X39705Y233594D02*
X33980D01*
Y222752D01*
X35313D01*
Y219083D01*
X35259Y219002D01*
X35129Y218347D01*
X35259Y217690D01*
X35313Y217610D01*
Y206127D01*
X35430Y205541D01*
X35761Y205045D01*
X38322Y202484D01*
X38818Y202153D01*
X39177Y202081D01*
X40651Y200607D01*
X40655Y200584D01*
X41017Y200042D01*
X41559Y199680D01*
X42198Y199553D01*
X45191D01*
X45800Y199674D01*
X45907Y199674D01*
X46300Y199463D01*
Y195465D01*
X45919Y195083D01*
X45587Y194587D01*
X45471Y194002D01*
Y184862D01*
X44532D01*
Y179138D01*
X49468D01*
Y183370D01*
X49488Y183468D01*
X49468Y183567D01*
Y184862D01*
X48529D01*
Y193368D01*
X48911Y193750D01*
X49242Y194246D01*
X49359Y194831D01*
Y199812D01*
X49622Y199948D01*
X49859Y200007D01*
X50348Y199680D01*
X50987Y199553D01*
X53981D01*
X54620Y199680D01*
X54640Y199694D01*
X59213D01*
X59798Y199810D01*
X60280Y200132D01*
X62592D01*
X62740Y200103D01*
X65971D01*
X66344Y199853D01*
X67000Y199723D01*
X67656Y199853D01*
X68212Y200225D01*
X68584Y200781D01*
X68714Y201437D01*
X68584Y202093D01*
X68212Y202649D01*
X67656Y203021D01*
X67000Y203151D01*
X66880Y203127D01*
X66707Y203162D01*
X65027D01*
Y206251D01*
X58122D01*
Y202752D01*
X54640D01*
X54620Y202766D01*
X53981Y202893D01*
X50987D01*
X50348Y202766D01*
X49859Y202438D01*
X49622Y202498D01*
X49359Y202633D01*
Y204912D01*
X51480Y207033D01*
X53981D01*
X54620Y207161D01*
X55161Y207523D01*
X55523Y208064D01*
X55650Y208703D01*
X55523Y209342D01*
X55161Y209884D01*
X54620Y210246D01*
X53981Y210373D01*
X50987D01*
X50348Y210246D01*
X49806Y209884D01*
X49445Y209342D01*
X49440Y209319D01*
X47329Y207208D01*
X46829Y207415D01*
X46829Y207421D01*
Y209243D01*
X46849Y209341D01*
Y212420D01*
X51410Y216980D01*
X59799D01*
X60034Y216539D01*
X59991Y216475D01*
X59861Y215819D01*
X59991Y215163D01*
X60045Y215082D01*
Y213731D01*
X58122D01*
Y207613D01*
X65027D01*
Y213731D01*
X63104D01*
Y215082D01*
X63158Y215163D01*
X63289Y215819D01*
X63288Y215823D01*
X63749Y216069D01*
X67138Y212680D01*
Y209185D01*
X71420D01*
X76279Y204326D01*
X76610Y204105D01*
X77000Y204028D01*
X81463D01*
X84904Y200586D01*
X85235Y200365D01*
X85625Y200288D01*
X99138D01*
Y198839D01*
X104862D01*
Y203776D01*
X99138D01*
Y202327D01*
X86048D01*
X83289Y205085D01*
X83480Y205547D01*
X85350D01*
Y212453D01*
X78839D01*
Y211348D01*
X78377Y211157D01*
X77319Y212214D01*
X77300Y212310D01*
X76929Y212865D01*
X76373Y213237D01*
X75717Y213368D01*
X75061Y213237D01*
X74505Y212865D01*
X74133Y212310D01*
X74003Y211653D01*
X74133Y210998D01*
X74505Y210442D01*
X75061Y210070D01*
X75156Y210051D01*
X77289Y207919D01*
X77785Y207587D01*
X78370Y207471D01*
X78839D01*
Y206067D01*
X77422D01*
X72862Y210627D01*
Y214122D01*
X68580D01*
X67324Y215378D01*
X67531Y215878D01*
X72862D01*
Y217327D01*
X78839D01*
Y214547D01*
X85350D01*
Y221453D01*
X78839D01*
Y219366D01*
X72862D01*
Y220815D01*
X67138D01*
Y216271D01*
X66638Y216064D01*
X63981Y218721D01*
X63650Y218942D01*
X63260Y219020D01*
X50987D01*
X50597Y218942D01*
X50266Y218721D01*
X45108Y213563D01*
X44887Y213232D01*
X44810Y212842D01*
Y210341D01*
X41090D01*
Y213829D01*
X41720Y214459D01*
X42212Y214788D01*
X42584Y215344D01*
X42714Y216000D01*
X42584Y216656D01*
X42212Y217212D01*
X41656Y217584D01*
X41000Y217714D01*
X40344Y217584D01*
X39788Y217212D01*
X39416Y216656D01*
X39373Y216438D01*
X38872Y215937D01*
X38372Y216144D01*
Y217610D01*
X38426Y217690D01*
X38557Y218347D01*
X38426Y219002D01*
X38372Y219083D01*
Y222752D01*
X39705D01*
Y233594D01*
D02*
G37*
G36*
X97161Y212453D02*
X90650D01*
Y205547D01*
X97161D01*
Y206980D01*
X99138D01*
Y205532D01*
X104862D01*
Y210469D01*
X99138D01*
Y209020D01*
X97161D01*
Y212453D01*
D02*
G37*
G36*
X172000Y206761D02*
X171344Y206631D01*
X170788Y206259D01*
X170416Y205703D01*
X170286Y205047D01*
X170416Y204391D01*
X170546Y204197D01*
X170279Y203697D01*
X169138D01*
Y202248D01*
X166862D01*
Y203697D01*
X161138D01*
Y198760D01*
X166862D01*
Y200209D01*
X169138D01*
Y198760D01*
X174862D01*
Y200209D01*
X177138D01*
Y198760D01*
X182862D01*
Y203697D01*
X177138D01*
Y202248D01*
X174862D01*
Y203697D01*
X173721D01*
X173454Y204197D01*
X173584Y204391D01*
X173714Y205047D01*
X173584Y205703D01*
X173212Y206259D01*
X172656Y206631D01*
X172000Y206761D01*
D02*
G37*
G36*
X158842Y203697D02*
X153117D01*
Y202758D01*
X138228D01*
X137643Y202641D01*
X137147Y202310D01*
X123264Y188427D01*
X122953Y188556D01*
X122000Y188681D01*
X121047Y188556D01*
X120159Y188188D01*
X119397Y187603D01*
X118812Y186840D01*
X118444Y185953D01*
X118319Y185000D01*
X118444Y184047D01*
X118812Y183159D01*
X119397Y182397D01*
X120159Y181812D01*
X121047Y181444D01*
X122000Y181319D01*
X122953Y181444D01*
X123840Y181812D01*
X124603Y182397D01*
X125188Y183159D01*
X125556Y184047D01*
X125681Y185000D01*
X125556Y185953D01*
X125427Y186264D01*
X138862Y199699D01*
X153117D01*
Y198760D01*
X158842D01*
Y203697D01*
D02*
G37*
G36*
X29862Y233594D02*
X24138D01*
Y222752D01*
X25471D01*
Y204083D01*
X25587Y203497D01*
X25919Y203001D01*
X26783Y202136D01*
Y198575D01*
X32508D01*
Y204299D01*
X28946D01*
X28529Y204716D01*
Y222752D01*
X29862D01*
Y233594D01*
D02*
G37*
G36*
X84709Y198453D02*
X78197D01*
Y195765D01*
X74000D01*
X73707Y195706D01*
X73459Y195541D01*
X70614Y192696D01*
X64517D01*
X62963Y194249D01*
X62715Y194415D01*
X62423Y194473D01*
X55272D01*
Y195783D01*
X50728D01*
Y191634D01*
X55272D01*
Y192944D01*
X62106D01*
X63475Y191575D01*
X63655Y191367D01*
X63553Y190860D01*
X63416Y190656D01*
X63286Y190000D01*
X63416Y189344D01*
X63741Y188858D01*
X63661Y188576D01*
X63531Y188358D01*
X61532D01*
Y183028D01*
X66469D01*
Y183028D01*
X66531D01*
Y183028D01*
X71469D01*
Y183028D01*
X71531D01*
Y183028D01*
X75387D01*
X76249Y182165D01*
X76042Y181665D01*
X71531D01*
Y181665D01*
X71469D01*
Y181665D01*
X66531D01*
Y181665D01*
X66469D01*
Y181665D01*
X61532D01*
Y180711D01*
X61070Y180520D01*
X60272Y181318D01*
Y184583D01*
X57696D01*
X55272Y187007D01*
Y190075D01*
X50728D01*
Y185925D01*
X54190D01*
X54579Y185537D01*
X54387Y185075D01*
X53250D01*
Y183000D01*
Y180925D01*
X55272D01*
Y180925D01*
X55728Y180821D01*
Y180433D01*
X58993D01*
X60052Y179374D01*
X59845Y178874D01*
X55728D01*
Y178874D01*
X55272Y178979D01*
Y179366D01*
X50728D01*
Y177765D01*
X44511D01*
X44212Y178212D01*
X43656Y178584D01*
X43114Y178691D01*
X43000Y178714D01*
X42902Y178765D01*
X42776Y179179D01*
X42776Y179552D01*
Y184862D01*
X40001D01*
X32321Y192543D01*
X32434Y192816D01*
X32533Y193563D01*
X32434Y194310D01*
X32146Y195006D01*
X31687Y195604D01*
X31089Y196063D01*
X30393Y196352D01*
X29646Y196450D01*
X28899Y196352D01*
X28202Y196063D01*
X27604Y195604D01*
X27145Y195006D01*
X26857Y194310D01*
X26759Y193563D01*
X26857Y192816D01*
X27145Y192120D01*
X27604Y191522D01*
X28202Y191063D01*
X28899Y190775D01*
X29646Y190676D01*
X29837Y190701D01*
X37839Y182699D01*
Y179138D01*
X42293D01*
X42307Y179138D01*
X42308Y179138D01*
X42568Y179138D01*
X42617Y178638D01*
X42344Y178584D01*
X41788Y178212D01*
X41416Y177656D01*
X41286Y177000D01*
X41416Y176344D01*
X41788Y175788D01*
X42344Y175416D01*
X43000Y175286D01*
X43656Y175416D01*
X44212Y175788D01*
X44511Y176235D01*
X50728D01*
Y175216D01*
X55272D01*
Y175216D01*
X55728Y175112D01*
Y174724D01*
X60272D01*
Y175785D01*
X60640Y175941D01*
X60772Y175952D01*
X64033Y172691D01*
X63826Y172191D01*
X63805D01*
X63532Y172137D01*
X63301Y171983D01*
X62888D01*
X62657Y172137D01*
X62384Y172191D01*
X61836D01*
X61564Y172137D01*
X61333Y171983D01*
X61178Y171752D01*
X61124Y171479D01*
Y169665D01*
X61091Y169496D01*
X61118Y169358D01*
Y166726D01*
X61175Y166439D01*
X60986Y166088D01*
X60860Y165939D01*
X59704D01*
X59536Y165972D01*
X59170D01*
X59001Y165939D01*
X57553D01*
X57124Y166336D01*
Y169989D01*
X57141Y170022D01*
X57566Y170372D01*
X58000Y170286D01*
X58656Y170416D01*
X59212Y170788D01*
X59584Y171344D01*
X59714Y172000D01*
X59584Y172656D01*
X59212Y173212D01*
X58656Y173584D01*
X58000Y173714D01*
X57344Y173584D01*
X56788Y173212D01*
X56416Y172656D01*
X56286Y172000D01*
X56359Y171630D01*
X55818Y171089D01*
X55653Y170841D01*
X55595Y170549D01*
Y164454D01*
X55468Y164006D01*
X55095Y164006D01*
X50532D01*
Y162105D01*
X49468D01*
Y164006D01*
X44532D01*
Y162105D01*
X43468D01*
Y164006D01*
X38532D01*
Y162105D01*
X35209D01*
X35209Y162105D01*
X34916Y162047D01*
X34668Y161881D01*
X34668Y161881D01*
X31426Y158640D01*
X26783D01*
Y152915D01*
X32508D01*
Y157558D01*
X35525Y160576D01*
X38532D01*
Y158675D01*
X43468D01*
Y160576D01*
X44532D01*
Y158675D01*
X49468D01*
Y160576D01*
X50532D01*
Y158675D01*
X55042D01*
X55249Y158175D01*
X54387Y157313D01*
X50532D01*
Y155412D01*
X49468D01*
Y157313D01*
X44532D01*
Y155412D01*
X43468D01*
Y157313D01*
X38532D01*
Y151982D01*
X40235D01*
Y150699D01*
X38532D01*
Y145368D01*
X43468D01*
Y150699D01*
X41765D01*
Y151982D01*
X43468D01*
Y153883D01*
X44532D01*
Y151982D01*
X46235D01*
Y150699D01*
X44532D01*
Y145368D01*
X49468D01*
Y150699D01*
X47765D01*
Y151982D01*
X49468D01*
Y153883D01*
X50532D01*
Y151982D01*
X52235D01*
Y150699D01*
X50532D01*
Y145368D01*
X55468D01*
Y150699D01*
X53765D01*
Y151982D01*
X55468D01*
Y156232D01*
X56900Y157663D01*
X57066Y157911D01*
X57553Y158061D01*
X58771D01*
Y153169D01*
X56938Y151336D01*
X56772Y151088D01*
X56714Y150795D01*
Y144823D01*
X56772Y144530D01*
X56938Y144282D01*
X57377Y143843D01*
X57625Y143677D01*
X57918Y143619D01*
X62478D01*
X62771Y143677D01*
X63019Y143843D01*
X63810Y144634D01*
X67272D01*
X67272Y144634D01*
X67728D01*
Y144634D01*
X67772Y144634D01*
X71190D01*
X72249Y143575D01*
X72100Y143119D01*
X72066Y143075D01*
X71836Y143075D01*
X71836Y143075D01*
X71836Y143075D01*
X67772D01*
X67728Y143075D01*
X67272D01*
X67228Y143075D01*
X62772D01*
X62728Y143075D01*
X62272D01*
X62228Y143075D01*
X57728D01*
Y138925D01*
X59235D01*
Y136000D01*
X59294Y135707D01*
X59459Y135459D01*
X61459Y133459D01*
X61707Y133293D01*
X61852Y133265D01*
X61803Y132765D01*
X61317D01*
X55764Y138318D01*
X55468Y138675D01*
X55468D01*
X55468Y138675D01*
Y144006D01*
X50532D01*
Y142105D01*
X49468D01*
Y144006D01*
X44532D01*
Y142105D01*
X43468D01*
Y144006D01*
X38532D01*
Y142105D01*
X36525D01*
X32153Y146478D01*
X32434Y147156D01*
X32533Y147904D01*
X32434Y148651D01*
X32146Y149347D01*
X31687Y149945D01*
X31089Y150404D01*
X30393Y150692D01*
X29646Y150791D01*
X28899Y150692D01*
X28202Y150404D01*
X27604Y149945D01*
X27145Y149347D01*
X26857Y148651D01*
X26759Y147904D01*
X26857Y147156D01*
X27145Y146460D01*
X27604Y145862D01*
X28202Y145403D01*
X28899Y145115D01*
X29646Y145017D01*
X30393Y145115D01*
X31072Y145396D01*
X35668Y140800D01*
X35916Y140634D01*
X36209Y140576D01*
X38532D01*
Y138675D01*
X43468D01*
Y140576D01*
X44532D01*
Y138675D01*
X49468D01*
Y140576D01*
X50532D01*
Y138675D01*
X53243D01*
X60459Y131459D01*
X60707Y131293D01*
X61000Y131235D01*
X76000D01*
X76293Y131293D01*
X76541Y131459D01*
X81416Y136335D01*
X85469D01*
Y136335D01*
X85532D01*
Y136335D01*
X90469D01*
Y136335D01*
X90531D01*
Y136335D01*
X95468D01*
Y140584D01*
X96541Y141656D01*
X96706Y141904D01*
X96765Y142197D01*
Y149707D01*
X96706Y150000D01*
X96541Y150248D01*
X95375Y151414D01*
X95561Y151935D01*
X95682Y151947D01*
X95788Y151788D01*
X96344Y151416D01*
X97000Y151286D01*
X97656Y151416D01*
X98212Y151788D01*
X98584Y152344D01*
X98714Y153000D01*
X98584Y153656D01*
X98212Y154212D01*
X97656Y154584D01*
X97000Y154714D01*
X96344Y154584D01*
X95788Y154212D01*
X95623Y153965D01*
X95049Y153922D01*
X94358Y154613D01*
Y158468D01*
X92712D01*
Y159531D01*
X94358D01*
Y163597D01*
X94858Y163987D01*
X94890Y163980D01*
X106071D01*
Y162678D01*
X110221D01*
Y167221D01*
X106071D01*
Y166020D01*
X95312D01*
X94358Y166973D01*
Y170468D01*
X89028D01*
Y165532D01*
X90673D01*
Y164469D01*
X89028D01*
Y159531D01*
X90673D01*
Y158468D01*
X89028D01*
Y153536D01*
X87665D01*
Y158468D01*
X86020D01*
Y159531D01*
X87665D01*
Y164469D01*
X86020D01*
Y165532D01*
X87665D01*
Y170468D01*
X86611D01*
X86343Y170968D01*
X86473Y171163D01*
X86604Y171819D01*
X86473Y172475D01*
X86102Y173031D01*
X85546Y173403D01*
X84890Y173533D01*
X84234Y173403D01*
X83678Y173031D01*
X83306Y172475D01*
X83176Y171819D01*
X83306Y171163D01*
X83436Y170968D01*
X83169Y170468D01*
X82335D01*
Y165532D01*
X83980D01*
Y164469D01*
X82335D01*
Y163965D01*
X81888Y163666D01*
X81380Y163783D01*
X81166Y164174D01*
Y164925D01*
X81160Y164955D01*
Y165227D01*
X81106Y165499D01*
X80951Y165730D01*
X80720Y165885D01*
X80448Y165939D01*
X80287D01*
X80118Y165972D01*
X78465D01*
X78297Y165939D01*
X76482D01*
X76210Y165885D01*
X76045Y165775D01*
X75771Y165850D01*
X75545Y165981D01*
Y166035D01*
X75423Y166330D01*
X75541Y166620D01*
X75656Y166802D01*
X76164D01*
X76436Y166856D01*
X76667Y167010D01*
X76822Y167241D01*
X76876Y167514D01*
Y171479D01*
X76822Y171752D01*
X76667Y171983D01*
X76654Y171991D01*
Y174573D01*
X78541Y176459D01*
X78707Y176707D01*
X78765Y177000D01*
Y181496D01*
X78707Y181789D01*
X78541Y182037D01*
X78541Y182037D01*
X76468Y184109D01*
Y188358D01*
X71531D01*
Y188358D01*
X71469D01*
Y188358D01*
X66531D01*
Y188358D01*
X66469D01*
X66339Y188575D01*
X66259Y188858D01*
X66584Y189344D01*
X66714Y190000D01*
X66584Y190656D01*
X66537Y190725D01*
X66773Y191166D01*
X70931D01*
X71224Y191225D01*
X71472Y191390D01*
X74317Y194235D01*
X78197D01*
Y191547D01*
X84709D01*
Y198453D01*
D02*
G37*
G36*
X52750Y185075D02*
X50728D01*
Y183250D01*
X52750D01*
Y185075D01*
D02*
G37*
G36*
X115650Y188650D02*
X108350D01*
Y181350D01*
X115650D01*
Y188650D01*
D02*
G37*
G36*
X152000Y188681D02*
X151047Y188556D01*
X150160Y188188D01*
X149397Y187603D01*
X148812Y186840D01*
X148444Y185953D01*
X148319Y185000D01*
X148444Y184047D01*
X148812Y183159D01*
X149397Y182397D01*
X150160Y181812D01*
X151047Y181444D01*
X152000Y181319D01*
X152953Y181444D01*
X153840Y181812D01*
X154603Y182397D01*
X155188Y183159D01*
X155556Y184047D01*
X155681Y185000D01*
X155556Y185953D01*
X155188Y186840D01*
X154603Y187603D01*
X153840Y188188D01*
X152953Y188556D01*
X152000Y188681D01*
D02*
G37*
G36*
X132000D02*
X131047Y188556D01*
X130159Y188188D01*
X129397Y187603D01*
X128812Y186840D01*
X128444Y185953D01*
X128319Y185000D01*
X128444Y184047D01*
X128573Y183736D01*
X126292Y181454D01*
X125960Y180958D01*
X125844Y180373D01*
Y134438D01*
X122935Y131529D01*
X79020D01*
X78435Y131413D01*
X77939Y131081D01*
X61387Y114529D01*
X38000D01*
X37415Y114413D01*
X36919Y114081D01*
X23919Y101081D01*
X23587Y100585D01*
X23471Y100000D01*
Y35558D01*
X22888Y35111D01*
X22414Y34493D01*
X22116Y33773D01*
X22014Y33000D01*
X22116Y32227D01*
X22414Y31507D01*
X22888Y30889D01*
X23507Y30414D01*
X24227Y30116D01*
X25000Y30014D01*
X25773Y30116D01*
X26493Y30414D01*
X27112Y30889D01*
X27586Y31507D01*
X27884Y32227D01*
X27986Y33000D01*
X27884Y33773D01*
X27586Y34493D01*
X27112Y35111D01*
X26529Y35558D01*
Y99366D01*
X38633Y111471D01*
X62020D01*
X62605Y111587D01*
X63101Y111919D01*
X79654Y128471D01*
X123569D01*
X124154Y128587D01*
X124650Y128919D01*
X128454Y132723D01*
X128786Y133219D01*
X128902Y133804D01*
Y179739D01*
X130736Y181573D01*
X131047Y181444D01*
X132000Y181319D01*
X132953Y181444D01*
X133841Y181812D01*
X134603Y182397D01*
X135188Y183159D01*
X135556Y184047D01*
X135681Y185000D01*
X135556Y185953D01*
X135188Y186840D01*
X134603Y187603D01*
X133841Y188188D01*
X132953Y188556D01*
X132000Y188681D01*
D02*
G37*
G36*
X52750Y182750D02*
X50728D01*
Y180925D01*
X52750D01*
Y182750D01*
D02*
G37*
G36*
X83000Y190714D02*
X82344Y190584D01*
X81788Y190212D01*
X81416Y189656D01*
X81286Y189000D01*
X81416Y188344D01*
X81667Y187969D01*
X81435Y187469D01*
X79988D01*
Y182531D01*
X79988D01*
Y182468D01*
X79988D01*
Y177532D01*
X85319D01*
Y182468D01*
X85319D01*
Y182531D01*
X85319D01*
Y187469D01*
X84565D01*
X84333Y187969D01*
X84584Y188344D01*
X84714Y189000D01*
X84584Y189656D01*
X84212Y190212D01*
X83656Y190584D01*
X83000Y190714D01*
D02*
G37*
G36*
X115929Y167221D02*
X111779D01*
Y162678D01*
X112835D01*
Y161221D01*
X111779D01*
Y156677D01*
X115929D01*
Y161221D01*
X114874D01*
Y162678D01*
X115929D01*
Y167221D01*
D02*
G37*
G36*
X110221Y161221D02*
X106071D01*
Y158119D01*
X102555Y154604D01*
X102000Y154714D01*
X101344Y154584D01*
X100788Y154212D01*
X100416Y153656D01*
X100286Y153000D01*
X100416Y152344D01*
X100788Y151788D01*
X101344Y151416D01*
X102000Y151286D01*
X102656Y151416D01*
X103212Y151788D01*
X103584Y152344D01*
X103684Y152849D01*
X106664Y155829D01*
X107126Y155638D01*
Y154429D01*
X107204Y154039D01*
X107425Y153708D01*
X107728Y153404D01*
Y150697D01*
X112272D01*
Y154846D01*
X109170D01*
X109165Y154851D01*
Y156677D01*
X110221D01*
Y161221D01*
D02*
G37*
G36*
X112272Y149138D02*
X107728D01*
Y144988D01*
X108980D01*
Y143415D01*
X107728D01*
Y139266D01*
X112272D01*
Y143415D01*
X111020D01*
Y144988D01*
X112272D01*
Y149138D01*
D02*
G37*
G36*
X104000Y137714D02*
X103344Y137584D01*
X102788Y137212D01*
X102416Y136656D01*
X102286Y136000D01*
X102416Y135344D01*
X102788Y134788D01*
X103344Y134416D01*
X104000Y134286D01*
X104656Y134416D01*
X105212Y134788D01*
X105341Y134980D01*
X107728D01*
Y133557D01*
X112272D01*
Y137707D01*
X107728D01*
Y137020D01*
X105341D01*
X105212Y137212D01*
X104656Y137584D01*
X104000Y137714D01*
D02*
G37*
G36*
X27000Y131714D02*
X26344Y131584D01*
X26263Y131529D01*
X18522D01*
X18502Y131543D01*
X17863Y131670D01*
X14137D01*
X13498Y131543D01*
X12957Y131181D01*
X12595Y130639D01*
X12467Y130000D01*
X12595Y129361D01*
X12957Y128819D01*
X13498Y128457D01*
X14137Y128330D01*
X17863D01*
X18502Y128457D01*
X18522Y128471D01*
X26263D01*
X26344Y128416D01*
X27000Y128286D01*
X27656Y128416D01*
X28212Y128788D01*
X28584Y129344D01*
X28714Y130000D01*
X28584Y130656D01*
X28212Y131212D01*
X27656Y131584D01*
X27000Y131714D01*
D02*
G37*
G36*
X41045Y102267D02*
Y99250D01*
X44062D01*
X43983Y99854D01*
X43653Y100650D01*
X43129Y101333D01*
X42445Y101858D01*
X41649Y102187D01*
X41045Y102267D01*
D02*
G37*
G36*
X40545D02*
X39941Y102187D01*
X39145Y101858D01*
X38462Y101333D01*
X37938Y100650D01*
X37608Y99854D01*
X37528Y99250D01*
X40545D01*
Y102267D01*
D02*
G37*
G36*
X44062Y98750D02*
X41045D01*
Y95733D01*
X41649Y95813D01*
X42445Y96142D01*
X43129Y96667D01*
X43653Y97350D01*
X43983Y98146D01*
X44062Y98750D01*
D02*
G37*
G36*
X40545D02*
X37528D01*
X37608Y98146D01*
X37938Y97350D01*
X38462Y96667D01*
X39145Y96142D01*
X39941Y95813D01*
X40545Y95733D01*
Y98750D01*
D02*
G37*
G36*
X10696Y127930D02*
X6971D01*
X6331Y127803D01*
X5790Y127441D01*
X5428Y126899D01*
X5301Y126260D01*
X5428Y125621D01*
X5790Y125079D01*
X6331Y124717D01*
X6971Y124590D01*
X7304D01*
Y105372D01*
X7420Y104786D01*
X7752Y104290D01*
X12067Y99975D01*
X12017Y99854D01*
X11905Y99000D01*
X12017Y98146D01*
X12347Y97350D01*
X12871Y96667D01*
X13555Y96142D01*
X14351Y95813D01*
X15205Y95700D01*
X16059Y95813D01*
X16855Y96142D01*
X17538Y96667D01*
X18063Y97350D01*
X18392Y98146D01*
X18505Y99000D01*
X18392Y99854D01*
X18063Y100650D01*
X17538Y101333D01*
X16855Y101858D01*
X16059Y102187D01*
X15205Y102300D01*
X14351Y102187D01*
X14230Y102137D01*
X10363Y106005D01*
Y124590D01*
X10696D01*
X11335Y124717D01*
X11877Y125079D01*
X12239Y125621D01*
X12366Y126260D01*
X12239Y126899D01*
X11877Y127441D01*
X11335Y127803D01*
X10696Y127930D01*
D02*
G37*
%LPD*%
G36*
X75004Y163535D02*
X77859Y163535D01*
Y162630D01*
X76579Y162630D01*
Y161370D01*
X77859Y161370D01*
Y160465D01*
X75004Y160465D01*
Y157965D01*
X62996D01*
Y160465D01*
X60142Y160465D01*
Y161370D01*
X61421Y161370D01*
Y162630D01*
X60142Y162630D01*
Y163535D01*
X62996Y163535D01*
Y166035D01*
X75004D01*
Y163535D01*
D02*
G37*
%LPC*%
G36*
X277039Y250214D02*
X271528D01*
X270872Y250084D01*
X270316Y249712D01*
X269944Y249156D01*
X269813Y248500D01*
X269944Y247844D01*
X270316Y247288D01*
X270872Y246916D01*
X271528Y246786D01*
X277039D01*
X277695Y246916D01*
X278251Y247288D01*
X278623Y247844D01*
X278753Y248500D01*
X278623Y249156D01*
X278251Y249712D01*
X277695Y250084D01*
X277039Y250214D01*
D02*
G37*
G36*
Y245214D02*
X274534D01*
Y243750D01*
X278704D01*
X278623Y244156D01*
X278251Y244712D01*
X277695Y245084D01*
X277039Y245214D01*
D02*
G37*
G36*
X278704Y243250D02*
X274534D01*
Y241786D01*
X277039D01*
X277695Y241916D01*
X278251Y242288D01*
X278623Y242844D01*
X278704Y243250D01*
D02*
G37*
G36*
X264997Y245299D02*
Y242240D01*
Y239181D01*
X268199D01*
Y240711D01*
X270189D01*
X270774Y240827D01*
X271270Y241159D01*
X271897Y241786D01*
X274033D01*
Y243500D01*
Y245214D01*
X271528D01*
X270872Y245084D01*
X270316Y244712D01*
X269949Y244163D01*
X269555Y243770D01*
X268199D01*
Y245299D01*
X264997D01*
D02*
G37*
G36*
X277039Y240214D02*
X271528D01*
X270872Y240084D01*
X270316Y239712D01*
X269944Y239156D01*
X269813Y238500D01*
X269944Y237844D01*
X270316Y237288D01*
X270872Y236916D01*
X271528Y236786D01*
X277039D01*
X277695Y236916D01*
X278251Y237288D01*
X278623Y237844D01*
X278753Y238500D01*
X278623Y239156D01*
X278251Y239712D01*
X277695Y240084D01*
X277039Y240214D01*
D02*
G37*
G36*
X312472D02*
X306961D01*
X306305Y240084D01*
X305749Y239712D01*
X305377Y239156D01*
X305247Y238500D01*
X305377Y237844D01*
X305749Y237288D01*
X306305Y236916D01*
X306961Y236786D01*
X311926D01*
X313116Y235596D01*
X312869Y235135D01*
X312472Y235214D01*
X306961D01*
X306305Y235084D01*
X305749Y234712D01*
X305377Y234156D01*
X305247Y233500D01*
X305377Y232844D01*
X305749Y232288D01*
X306305Y231916D01*
X306961Y231786D01*
X308187D01*
Y230214D01*
X306961D01*
X306305Y230084D01*
X305749Y229712D01*
X305377Y229156D01*
X305247Y228500D01*
X305377Y227844D01*
X305749Y227288D01*
X306305Y226916D01*
X306961Y226786D01*
X308187D01*
Y225214D01*
X306961D01*
X306305Y225084D01*
X305749Y224712D01*
X305377Y224156D01*
X305247Y223500D01*
X305377Y222844D01*
X305749Y222288D01*
X306305Y221916D01*
X306961Y221786D01*
X308187D01*
Y220214D01*
X306961D01*
X306305Y220084D01*
X305749Y219712D01*
X305377Y219156D01*
X305247Y218500D01*
X305377Y217844D01*
X305749Y217288D01*
X306305Y216916D01*
X306961Y216786D01*
X308187D01*
Y215214D01*
X306961D01*
X306305Y215084D01*
X305749Y214712D01*
X305377Y214156D01*
X305247Y213500D01*
X305377Y212844D01*
X305749Y212288D01*
X306305Y211916D01*
X306961Y211786D01*
X308187D01*
Y207479D01*
X307788Y207212D01*
X307416Y206656D01*
X307286Y206000D01*
X307416Y205344D01*
X307788Y204788D01*
X308344Y204416D01*
X309000Y204286D01*
X309656Y204416D01*
X310212Y204788D01*
X310584Y205344D01*
X310603Y205440D01*
X310798Y205635D01*
X311129Y206131D01*
X311246Y206716D01*
Y211786D01*
X312472D01*
X313128Y211916D01*
X313183Y211953D01*
X313624Y211717D01*
Y202473D01*
X312857Y202321D01*
X312121Y201829D01*
X311629Y201093D01*
X311456Y200225D01*
Y196775D01*
X311629Y195907D01*
X312121Y195171D01*
X312857Y194679D01*
X313725Y194506D01*
X330264D01*
X355974Y168797D01*
Y143203D01*
X330264Y117494D01*
X313725D01*
X312857Y117321D01*
X312121Y116829D01*
X311629Y116093D01*
X311456Y115225D01*
Y111775D01*
X311629Y110907D01*
X312121Y110171D01*
X312857Y109679D01*
X313725Y109506D01*
X332275D01*
X333143Y109679D01*
X333879Y110171D01*
X334371Y110907D01*
X334544Y111775D01*
Y113214D01*
X361140Y139810D01*
X361140Y139810D01*
X361620Y140437D01*
X361923Y141167D01*
X362026Y141950D01*
X362026Y141950D01*
Y170050D01*
X362026Y170050D01*
X361923Y170833D01*
X361620Y171563D01*
X361140Y172190D01*
X361140Y172190D01*
X334544Y198786D01*
Y200225D01*
X334371Y201093D01*
X333879Y201829D01*
X333143Y202321D01*
X332275Y202494D01*
X316683D01*
Y235721D01*
X316566Y236306D01*
X316235Y236802D01*
X314099Y238938D01*
X314056Y239156D01*
X313685Y239712D01*
X313128Y240084D01*
X312472Y240214D01*
D02*
G37*
G36*
X252000Y188681D02*
X251047Y188556D01*
X250160Y188188D01*
X249397Y187603D01*
X248812Y186840D01*
X248444Y185953D01*
X248319Y185000D01*
X248444Y184047D01*
X248573Y183736D01*
X245919Y181081D01*
X245587Y180585D01*
X245471Y180000D01*
Y176310D01*
X244138D01*
Y171373D01*
X249862D01*
Y176310D01*
X248529D01*
Y179367D01*
X250736Y181573D01*
X251047Y181444D01*
X252000Y181319D01*
X252953Y181444D01*
X253840Y181812D01*
X254603Y182397D01*
X255188Y183159D01*
X255556Y184047D01*
X255681Y185000D01*
X255556Y185953D01*
X255188Y186840D01*
X254603Y187603D01*
X253840Y188188D01*
X252953Y188556D01*
X252000Y188681D01*
D02*
G37*
G36*
X260551Y153838D02*
X259507Y153700D01*
X258534Y153297D01*
X257698Y152656D01*
X257057Y151820D01*
X256654Y150847D01*
X256517Y149803D01*
X256654Y148759D01*
X257057Y147786D01*
X257698Y146950D01*
X258534Y146309D01*
X259507Y145906D01*
X260551Y145769D01*
X261595Y145906D01*
X262568Y146309D01*
X263404Y146950D01*
X264045Y147786D01*
X264448Y148759D01*
X264586Y149803D01*
X264448Y150847D01*
X264045Y151820D01*
X263404Y152656D01*
X262568Y153297D01*
X261595Y153700D01*
X260551Y153838D01*
D02*
G37*
G36*
Y143838D02*
X259507Y143700D01*
X258534Y143297D01*
X257698Y142656D01*
X257057Y141820D01*
X256654Y140847D01*
X256517Y139803D01*
X256654Y138759D01*
X257057Y137786D01*
X257698Y136950D01*
X258534Y136309D01*
X259507Y135906D01*
X260551Y135769D01*
X261595Y135906D01*
X262568Y136309D01*
X263404Y136950D01*
X264045Y137786D01*
X264448Y138759D01*
X264586Y139803D01*
X264448Y140847D01*
X264045Y141820D01*
X263404Y142656D01*
X262568Y143297D01*
X261595Y143700D01*
X260551Y143838D01*
D02*
G37*
G36*
X250551D02*
X249507Y143700D01*
X248534Y143297D01*
X247698Y142656D01*
X247057Y141820D01*
X246654Y140847D01*
X246517Y139803D01*
X246654Y138759D01*
X247057Y137786D01*
X247698Y136950D01*
X248534Y136309D01*
X249507Y135906D01*
X250551Y135769D01*
X251595Y135906D01*
X252569Y136309D01*
X253404Y136950D01*
X254045Y137786D01*
X254448Y138759D01*
X254586Y139803D01*
X254448Y140847D01*
X254045Y141820D01*
X253404Y142656D01*
X252569Y143297D01*
X251595Y143700D01*
X250551Y143838D01*
D02*
G37*
G36*
X207820Y137870D02*
X201702D01*
Y130965D01*
X207820D01*
Y133398D01*
X210659D01*
X210788Y133205D01*
X211344Y132834D01*
X212000Y132703D01*
X212656Y132834D01*
X213212Y133205D01*
X213584Y133761D01*
X213714Y134417D01*
X213584Y135073D01*
X213212Y135629D01*
X212656Y136001D01*
X212000Y136131D01*
X211344Y136001D01*
X210788Y135629D01*
X210659Y135437D01*
X207820D01*
Y137870D01*
D02*
G37*
G36*
X260551Y133838D02*
X259507Y133700D01*
X258534Y133297D01*
X257698Y132656D01*
X257057Y131820D01*
X256654Y130847D01*
X256517Y129803D01*
X256654Y128759D01*
X257057Y127786D01*
X257698Y126950D01*
X258534Y126309D01*
X259507Y125906D01*
X260551Y125769D01*
X261595Y125906D01*
X262568Y126309D01*
X263404Y126950D01*
X264045Y127786D01*
X264448Y128759D01*
X264586Y129803D01*
X264448Y130847D01*
X264045Y131820D01*
X263404Y132656D01*
X262568Y133297D01*
X261595Y133700D01*
X260551Y133838D01*
D02*
G37*
G36*
X250551D02*
X249507Y133700D01*
X248534Y133297D01*
X247698Y132656D01*
X247057Y131820D01*
X246654Y130847D01*
X246517Y129803D01*
X246654Y128759D01*
X247057Y127786D01*
X247698Y126950D01*
X248534Y126309D01*
X249507Y125906D01*
X250551Y125769D01*
X251595Y125906D01*
X252569Y126309D01*
X253404Y126950D01*
X254045Y127786D01*
X254448Y128759D01*
X254586Y129803D01*
X254448Y130847D01*
X254045Y131820D01*
X253404Y132656D01*
X252569Y133297D01*
X251595Y133700D01*
X250551Y133838D01*
D02*
G37*
G36*
X229777Y114520D02*
X229387Y114442D01*
X229139Y114276D01*
X226025D01*
Y112020D01*
X204862D01*
Y113469D01*
X199138D01*
Y112434D01*
X197083D01*
Y113489D01*
X192539D01*
Y109339D01*
X197083D01*
Y110395D01*
X199138D01*
Y108531D01*
X204862D01*
Y109980D01*
X226025D01*
Y108552D01*
X230962D01*
Y114276D01*
X230415D01*
X230167Y114442D01*
X229777Y114520D01*
D02*
G37*
G36*
X217453Y108055D02*
X210547D01*
Y105327D01*
X204862D01*
Y106776D01*
X199138D01*
Y101839D01*
X204862D01*
Y103287D01*
X210547D01*
Y101543D01*
X217453D01*
Y108055D01*
D02*
G37*
G36*
X274000Y100714D02*
X273344Y100584D01*
X273263Y100529D01*
X268105D01*
X268085Y100543D01*
X267446Y100670D01*
X263721D01*
X263082Y100543D01*
X262540Y100181D01*
X262178Y99639D01*
X262051Y99000D01*
X262178Y98361D01*
X262540Y97819D01*
X263082Y97457D01*
X263721Y97330D01*
X267446D01*
X268085Y97457D01*
X268105Y97471D01*
X273263D01*
X273344Y97416D01*
X274000Y97286D01*
X274656Y97416D01*
X275212Y97788D01*
X275584Y98344D01*
X275714Y99000D01*
X275584Y99656D01*
X275212Y100212D01*
X274656Y100584D01*
X274000Y100714D01*
D02*
G37*
G36*
X217453Y96244D02*
X210547D01*
Y89732D01*
X212471D01*
Y87737D01*
X212416Y87656D01*
X212286Y87000D01*
X212416Y86344D01*
X212788Y85788D01*
X213344Y85416D01*
X214000Y85286D01*
X214656Y85416D01*
X215212Y85788D01*
X215584Y86344D01*
X215714Y87000D01*
X215584Y87656D01*
X215529Y87737D01*
Y89732D01*
X217453D01*
Y96244D01*
D02*
G37*
G36*
X237655Y114276D02*
X232718D01*
Y108552D01*
X237655D01*
Y109772D01*
X238155Y109979D01*
X248697Y99437D01*
Y81513D01*
X248197Y81361D01*
X248081Y81534D01*
X233529Y96086D01*
Y105263D01*
X233584Y105344D01*
X233714Y106000D01*
X233584Y106656D01*
X233212Y107212D01*
X232656Y107584D01*
X232000Y107714D01*
X231344Y107584D01*
X230788Y107212D01*
X230416Y106656D01*
X230286Y106000D01*
X230416Y105344D01*
X230471Y105263D01*
Y95453D01*
X230587Y94867D01*
X230919Y94371D01*
X245471Y79819D01*
Y51737D01*
X245416Y51656D01*
X245286Y51000D01*
X245416Y50344D01*
X245788Y49788D01*
X246344Y49416D01*
X247000Y49286D01*
X247656Y49416D01*
X248197Y49778D01*
X248289Y49760D01*
X248697Y49614D01*
Y43249D01*
X248235Y43057D01*
X247504Y42496D01*
X246943Y41765D01*
X246590Y40914D01*
X246470Y40000D01*
X246590Y39086D01*
X246943Y38235D01*
X247504Y37504D01*
X248235Y36943D01*
X249086Y36590D01*
X250000Y36470D01*
X250573Y36545D01*
X250806Y36072D01*
X246187Y31453D01*
X242260D01*
X241930Y31453D01*
X241540Y31770D01*
D01*
X241539Y31770D01*
X241529Y32232D01*
Y36845D01*
X241765Y36943D01*
X242496Y37504D01*
X243057Y38235D01*
X243410Y39086D01*
X243530Y40000D01*
X243410Y40914D01*
X243057Y41765D01*
X242496Y42496D01*
X241765Y43057D01*
X241529Y43155D01*
Y55185D01*
X242862D01*
Y60122D01*
X237138D01*
Y55185D01*
X238471D01*
Y43155D01*
X238235Y43057D01*
X237504Y42496D01*
X236943Y41765D01*
X236590Y40914D01*
X236470Y40000D01*
X236590Y39086D01*
X236943Y38235D01*
X237504Y37504D01*
X238235Y36943D01*
X238471Y36845D01*
Y32634D01*
X223729Y17892D01*
X217172D01*
X216981Y18353D01*
X231081Y32454D01*
X231413Y32950D01*
X231529Y33536D01*
Y36845D01*
X231765Y36943D01*
X232496Y37504D01*
X233057Y38235D01*
X233410Y39086D01*
X233530Y40000D01*
X233410Y40914D01*
X233057Y41765D01*
X232496Y42496D01*
X231765Y43057D01*
X231529Y43155D01*
Y55185D01*
X232862D01*
Y60122D01*
X227138D01*
Y55185D01*
X228471D01*
Y43155D01*
X228235Y43057D01*
X227504Y42496D01*
X226943Y41765D01*
X226590Y40914D01*
X226470Y40000D01*
X226590Y39086D01*
X226943Y38235D01*
X227504Y37504D01*
X228235Y36943D01*
X228471Y36845D01*
Y34169D01*
X214693Y20392D01*
X210846D01*
X210654Y20854D01*
X221081Y31281D01*
X221413Y31777D01*
X221529Y32362D01*
Y36845D01*
X221765Y36943D01*
X222496Y37504D01*
X223057Y38235D01*
X223410Y39086D01*
X223530Y40000D01*
X223410Y40914D01*
X223057Y41765D01*
X222496Y42496D01*
X221765Y43057D01*
X221529Y43155D01*
Y55185D01*
X222862D01*
Y60122D01*
X217138D01*
Y55185D01*
X218471D01*
Y43155D01*
X218235Y43057D01*
X217504Y42496D01*
X216943Y41765D01*
X216590Y40914D01*
X216470Y40000D01*
X216590Y39086D01*
X216943Y38235D01*
X217504Y37504D01*
X218235Y36943D01*
X218471Y36845D01*
Y32996D01*
X209308Y23833D01*
X208846Y24025D01*
Y26054D01*
X211081Y28289D01*
X211413Y28785D01*
X211529Y29370D01*
Y36845D01*
X211765Y36943D01*
X212496Y37504D01*
X213057Y38235D01*
X213410Y39086D01*
X213530Y40000D01*
X213410Y40914D01*
X213057Y41765D01*
X212496Y42496D01*
X211765Y43057D01*
X211529Y43155D01*
Y55185D01*
X212862D01*
Y60122D01*
X207138D01*
Y55185D01*
X208471D01*
Y43155D01*
X208235Y43057D01*
X207504Y42496D01*
X206943Y41765D01*
X206590Y40914D01*
X206470Y40000D01*
X206590Y39086D01*
X206943Y38235D01*
X207504Y37504D01*
X208235Y36943D01*
X208471Y36845D01*
Y30004D01*
X206684Y28216D01*
X196823D01*
Y27277D01*
X186012D01*
Y28216D01*
X173988D01*
Y23508D01*
X173488Y23301D01*
X171346Y25442D01*
Y28216D01*
X159323D01*
Y27277D01*
X148512D01*
Y28216D01*
X136488D01*
Y24974D01*
X136026Y24783D01*
X133980Y26829D01*
X133484Y27161D01*
X132898Y27277D01*
X116347D01*
Y28216D01*
X104323D01*
Y27277D01*
X93512D01*
Y28216D01*
X81488D01*
Y23280D01*
X81434Y23202D01*
X80802Y23152D01*
X78512Y25442D01*
Y28216D01*
X66488D01*
Y27277D01*
X55677D01*
Y28216D01*
X43654D01*
Y23280D01*
X55677D01*
Y24219D01*
X66488D01*
Y23280D01*
X76349D01*
X79348Y20281D01*
X79844Y19949D01*
X80429Y19833D01*
X133115D01*
X135167Y17781D01*
X135663Y17449D01*
X136249Y17333D01*
X168059D01*
X170111Y15281D01*
X170607Y14949D01*
X171193Y14833D01*
X224362D01*
X224948Y14949D01*
X225444Y15281D01*
X241081Y30918D01*
X241339Y31303D01*
X241839Y31187D01*
X241839Y30998D01*
X241839Y30998D01*
X241839Y30991D01*
Y24547D01*
X248350D01*
Y29290D01*
X255581Y36521D01*
X255913Y37017D01*
X256029Y37602D01*
Y53297D01*
X256529Y53597D01*
X257199Y53238D01*
X258572Y52822D01*
X260000Y52681D01*
X261428Y52822D01*
X262801Y53238D01*
X264066Y53915D01*
X265175Y54825D01*
X266085Y55934D01*
X266762Y57199D01*
X267178Y58572D01*
X267319Y60000D01*
X267178Y61428D01*
X266762Y62801D01*
X266085Y64066D01*
X265175Y65175D01*
X264066Y66085D01*
X262801Y66762D01*
X261428Y67178D01*
X260000Y67319D01*
X258572Y67178D01*
X257199Y66762D01*
X255934Y66085D01*
X254825Y65175D01*
X253915Y64066D01*
X253731Y63722D01*
X253246Y63844D01*
Y71867D01*
X259498Y78119D01*
X259830Y78615D01*
X259946Y79201D01*
Y93590D01*
X260279D01*
X260918Y93717D01*
X261460Y94079D01*
X261822Y94621D01*
X261949Y95260D01*
X261822Y95899D01*
X261460Y96441D01*
X260918Y96803D01*
X260279Y96930D01*
X256554D01*
X255915Y96803D01*
X255373Y96441D01*
X255011Y95899D01*
X254884Y95260D01*
X255011Y94621D01*
X255373Y94079D01*
X255915Y93717D01*
X256554Y93590D01*
X256887D01*
Y79834D01*
X251198Y74145D01*
X250736Y74336D01*
Y99860D01*
X250658Y100250D01*
X250437Y100581D01*
X238883Y112135D01*
X238552Y112356D01*
X238162Y112434D01*
X237655D01*
Y114276D01*
D02*
G37*
G36*
X240000Y71746D02*
X239344Y71615D01*
X238788Y71244D01*
X238416Y70687D01*
X238286Y70031D01*
X238416Y69376D01*
X238471Y69295D01*
Y66815D01*
X237138D01*
Y61878D01*
X242862D01*
Y66815D01*
X241529D01*
Y69295D01*
X241584Y69376D01*
X241714Y70031D01*
X241584Y70687D01*
X241212Y71244D01*
X240656Y71615D01*
X240000Y71746D01*
D02*
G37*
G36*
X230000D02*
X229344Y71615D01*
X228788Y71244D01*
X228416Y70687D01*
X228286Y70031D01*
X228416Y69376D01*
X228471Y69295D01*
Y66815D01*
X227138D01*
Y61878D01*
X232862D01*
Y66815D01*
X231529D01*
Y69295D01*
X231584Y69376D01*
X231714Y70031D01*
X231584Y70687D01*
X231212Y71244D01*
X230656Y71615D01*
X230000Y71746D01*
D02*
G37*
G36*
X220000D02*
X219344Y71615D01*
X218788Y71244D01*
X218416Y70687D01*
X218286Y70031D01*
X218416Y69376D01*
X218471Y69295D01*
Y66815D01*
X217138D01*
Y61878D01*
X222862D01*
Y66815D01*
X221529D01*
Y69295D01*
X221584Y69376D01*
X221714Y70031D01*
X221584Y70687D01*
X221212Y71244D01*
X220656Y71615D01*
X220000Y71746D01*
D02*
G37*
G36*
X210000D02*
X209344Y71615D01*
X208788Y71244D01*
X208416Y70687D01*
X208286Y70031D01*
X208416Y69376D01*
X208471Y69295D01*
Y66815D01*
X207138D01*
Y61878D01*
X212862D01*
Y66815D01*
X211529D01*
Y69295D01*
X211584Y69376D01*
X211714Y70031D01*
X211584Y70687D01*
X211212Y71244D01*
X210656Y71615D01*
X210000Y71746D01*
D02*
G37*
G36*
X265862Y45815D02*
X263250D01*
Y43596D01*
X265862D01*
Y45815D01*
D02*
G37*
G36*
X262750D02*
X260138D01*
Y43596D01*
X262750D01*
Y45815D01*
D02*
G37*
G36*
X265862Y43096D02*
X263250D01*
Y40878D01*
X265862D01*
Y43096D01*
D02*
G37*
G36*
X262750D02*
X260138D01*
Y40878D01*
X262750D01*
Y43096D01*
D02*
G37*
G36*
X64000Y55714D02*
X63344Y55584D01*
X62788Y55212D01*
X62416Y54656D01*
X62286Y54000D01*
X62416Y53344D01*
X62788Y52788D01*
X63344Y52416D01*
X64000Y52286D01*
X64528Y52391D01*
X67459Y49459D01*
X67459Y49459D01*
X67707Y49294D01*
X68000Y49235D01*
X189683D01*
X196500Y42419D01*
Y36500D01*
X203500D01*
Y43500D01*
X197581D01*
X190541Y50541D01*
X190293Y50706D01*
X190000Y50765D01*
X68317D01*
X65609Y53472D01*
X65714Y54000D01*
X65584Y54656D01*
X65212Y55212D01*
X64656Y55584D01*
X64000Y55714D01*
D02*
G37*
G36*
X183500Y43500D02*
X176500D01*
Y36500D01*
X183500D01*
Y43500D01*
D02*
G37*
G36*
X170000Y43530D02*
X169086Y43410D01*
X168235Y43057D01*
X167504Y42496D01*
X166943Y41765D01*
X166590Y40914D01*
X166470Y40000D01*
X166590Y39086D01*
X166943Y38235D01*
X167504Y37504D01*
X168235Y36943D01*
X169086Y36590D01*
X170000Y36470D01*
X170914Y36590D01*
X171765Y36943D01*
X172496Y37504D01*
X173057Y38235D01*
X173410Y39086D01*
X173530Y40000D01*
X173410Y40914D01*
X173057Y41765D01*
X172496Y42496D01*
X171765Y43057D01*
X170914Y43410D01*
X170000Y43530D01*
D02*
G37*
G36*
X160000D02*
X159086Y43410D01*
X158235Y43057D01*
X157504Y42496D01*
X156943Y41765D01*
X156590Y40914D01*
X156470Y40000D01*
X156590Y39086D01*
X156943Y38235D01*
X157504Y37504D01*
X158235Y36943D01*
X159086Y36590D01*
X160000Y36470D01*
X160914Y36590D01*
X161765Y36943D01*
X162496Y37504D01*
X163057Y38235D01*
X163410Y39086D01*
X163530Y40000D01*
X163410Y40914D01*
X163057Y41765D01*
X162496Y42496D01*
X161765Y43057D01*
X160914Y43410D01*
X160000Y43530D01*
D02*
G37*
G36*
X150000D02*
X149086Y43410D01*
X148235Y43057D01*
X147504Y42496D01*
X146943Y41765D01*
X146590Y40914D01*
X146470Y40000D01*
X146590Y39086D01*
X146943Y38235D01*
X147504Y37504D01*
X148235Y36943D01*
X149086Y36590D01*
X150000Y36470D01*
X150914Y36590D01*
X151765Y36943D01*
X152496Y37504D01*
X153057Y38235D01*
X153410Y39086D01*
X153530Y40000D01*
X153410Y40914D01*
X153057Y41765D01*
X152496Y42496D01*
X151765Y43057D01*
X150914Y43410D01*
X150000Y43530D01*
D02*
G37*
G36*
X140000D02*
X139086Y43410D01*
X138235Y43057D01*
X137504Y42496D01*
X136943Y41765D01*
X136590Y40914D01*
X136470Y40000D01*
X136590Y39086D01*
X136943Y38235D01*
X137504Y37504D01*
X138235Y36943D01*
X139086Y36590D01*
X140000Y36470D01*
X140914Y36590D01*
X141765Y36943D01*
X142496Y37504D01*
X143057Y38235D01*
X143410Y39086D01*
X143530Y40000D01*
X143410Y40914D01*
X143057Y41765D01*
X142496Y42496D01*
X141765Y43057D01*
X140914Y43410D01*
X140000Y43530D01*
D02*
G37*
G36*
X130000D02*
X129086Y43410D01*
X128235Y43057D01*
X127504Y42496D01*
X126943Y41765D01*
X126590Y40914D01*
X126470Y40000D01*
X126590Y39086D01*
X126943Y38235D01*
X127504Y37504D01*
X128235Y36943D01*
X129086Y36590D01*
X130000Y36470D01*
X130914Y36590D01*
X131765Y36943D01*
X132496Y37504D01*
X133057Y38235D01*
X133410Y39086D01*
X133530Y40000D01*
X133410Y40914D01*
X133057Y41765D01*
X132496Y42496D01*
X131765Y43057D01*
X130914Y43410D01*
X130000Y43530D01*
D02*
G37*
G36*
X120000D02*
X119086Y43410D01*
X118235Y43057D01*
X117504Y42496D01*
X116943Y41765D01*
X116590Y40914D01*
X116470Y40000D01*
X116590Y39086D01*
X116943Y38235D01*
X117504Y37504D01*
X118235Y36943D01*
X119086Y36590D01*
X120000Y36470D01*
X120914Y36590D01*
X121765Y36943D01*
X122496Y37504D01*
X123057Y38235D01*
X123410Y39086D01*
X123530Y40000D01*
X123410Y40914D01*
X123057Y41765D01*
X122496Y42496D01*
X121765Y43057D01*
X120914Y43410D01*
X120000Y43530D01*
D02*
G37*
G36*
X110000D02*
X109086Y43410D01*
X108235Y43057D01*
X107504Y42496D01*
X106943Y41765D01*
X106590Y40914D01*
X106470Y40000D01*
X106590Y39086D01*
X106943Y38235D01*
X107504Y37504D01*
X108235Y36943D01*
X109086Y36590D01*
X110000Y36470D01*
X110914Y36590D01*
X111765Y36943D01*
X112496Y37504D01*
X113057Y38235D01*
X113410Y39086D01*
X113530Y40000D01*
X113410Y40914D01*
X113057Y41765D01*
X112496Y42496D01*
X111765Y43057D01*
X110914Y43410D01*
X110000Y43530D01*
D02*
G37*
G36*
X55000Y47319D02*
X53572Y47178D01*
X52199Y46762D01*
X50934Y46085D01*
X49825Y45175D01*
X48915Y44066D01*
X48238Y42801D01*
X47822Y41428D01*
X47681Y40000D01*
X47822Y38572D01*
X48238Y37199D01*
X48915Y35934D01*
X49825Y34825D01*
X50934Y33915D01*
X52199Y33238D01*
X53572Y32822D01*
X55000Y32681D01*
X56428Y32822D01*
X57801Y33238D01*
X59066Y33915D01*
X60175Y34825D01*
X61085Y35934D01*
X61762Y37199D01*
X62178Y38572D01*
X62319Y40000D01*
X62178Y41428D01*
X61762Y42801D01*
X61085Y44066D01*
X60175Y45175D01*
X59066Y46085D01*
X57801Y46762D01*
X56428Y47178D01*
X55000Y47319D01*
D02*
G37*
G36*
X265862Y39122D02*
X260138D01*
Y36348D01*
X257580Y33790D01*
X257248Y33294D01*
X257132Y32709D01*
Y31453D01*
X253650D01*
Y24547D01*
X260161D01*
Y29608D01*
X260191Y29756D01*
Y32075D01*
X262301Y34185D01*
X265862D01*
Y39122D01*
D02*
G37*
G36*
X361250Y22450D02*
Y19250D01*
X364450D01*
X364364Y19901D01*
X364016Y20741D01*
X363462Y21463D01*
X362741Y22016D01*
X361901Y22364D01*
X361250Y22450D01*
D02*
G37*
G36*
X360750D02*
X360099Y22364D01*
X359259Y22016D01*
X358538Y21463D01*
X357984Y20741D01*
X357636Y19901D01*
X357550Y19250D01*
X360750D01*
Y22450D01*
D02*
G37*
G36*
X364450Y18750D02*
X361250D01*
Y15550D01*
X361901Y15636D01*
X362741Y15984D01*
X363462Y16537D01*
X364016Y17259D01*
X364364Y18099D01*
X364450Y18750D01*
D02*
G37*
G36*
X360750D02*
X357550D01*
X357636Y18099D01*
X357984Y17259D01*
X358538Y16537D01*
X359259Y15984D01*
X360099Y15636D01*
X360750Y15550D01*
Y18750D01*
D02*
G37*
G36*
X284453Y22453D02*
X277547D01*
Y15547D01*
X284453D01*
Y22453D01*
D02*
G37*
G36*
X351000Y22482D02*
X350099Y22364D01*
X349259Y22016D01*
X348537Y21463D01*
X347984Y20741D01*
X347636Y19901D01*
X347517Y19000D01*
X347636Y18099D01*
X347984Y17259D01*
X348537Y16537D01*
X349259Y15984D01*
X350099Y15636D01*
X351000Y15518D01*
X351901Y15636D01*
X352741Y15984D01*
X353463Y16537D01*
X354016Y17259D01*
X354364Y18099D01*
X354483Y19000D01*
X354364Y19901D01*
X354016Y20741D01*
X353463Y21463D01*
X352741Y22016D01*
X351901Y22364D01*
X351000Y22482D01*
D02*
G37*
G36*
X341000D02*
X340099Y22364D01*
X339259Y22016D01*
X338538Y21463D01*
X337984Y20741D01*
X337636Y19901D01*
X337517Y19000D01*
X337636Y18099D01*
X337984Y17259D01*
X338538Y16537D01*
X339259Y15984D01*
X340099Y15636D01*
X341000Y15518D01*
X341901Y15636D01*
X342741Y15984D01*
X343462Y16537D01*
X344016Y17259D01*
X344364Y18099D01*
X344482Y19000D01*
X344364Y19901D01*
X344016Y20741D01*
X343462Y21463D01*
X342741Y22016D01*
X341901Y22364D01*
X341000Y22482D01*
D02*
G37*
G36*
X331000D02*
X330099Y22364D01*
X329259Y22016D01*
X328538Y21463D01*
X327984Y20741D01*
X327636Y19901D01*
X327518Y19000D01*
X327636Y18099D01*
X327984Y17259D01*
X328538Y16537D01*
X329259Y15984D01*
X330099Y15636D01*
X331000Y15518D01*
X331901Y15636D01*
X332741Y15984D01*
X333463Y16537D01*
X334016Y17259D01*
X334364Y18099D01*
X334483Y19000D01*
X334364Y19901D01*
X334016Y20741D01*
X333463Y21463D01*
X332741Y22016D01*
X331901Y22364D01*
X331000Y22482D01*
D02*
G37*
G36*
X321000D02*
X320099Y22364D01*
X319259Y22016D01*
X318537Y21463D01*
X317984Y20741D01*
X317636Y19901D01*
X317517Y19000D01*
X317636Y18099D01*
X317984Y17259D01*
X318537Y16537D01*
X319259Y15984D01*
X320099Y15636D01*
X321000Y15518D01*
X321901Y15636D01*
X322741Y15984D01*
X323463Y16537D01*
X324016Y17259D01*
X324364Y18099D01*
X324482Y19000D01*
X324364Y19901D01*
X324016Y20741D01*
X323463Y21463D01*
X322741Y22016D01*
X321901Y22364D01*
X321000Y22482D01*
D02*
G37*
G36*
X311000D02*
X310099Y22364D01*
X309259Y22016D01*
X308538Y21463D01*
X307984Y20741D01*
X307636Y19901D01*
X307518Y19000D01*
X307636Y18099D01*
X307984Y17259D01*
X308538Y16537D01*
X309259Y15984D01*
X310099Y15636D01*
X311000Y15518D01*
X311901Y15636D01*
X312741Y15984D01*
X313462Y16537D01*
X314016Y17259D01*
X314364Y18099D01*
X314482Y19000D01*
X314364Y19901D01*
X314016Y20741D01*
X313462Y21463D01*
X312741Y22016D01*
X311901Y22364D01*
X311000Y22482D01*
D02*
G37*
G36*
X301000D02*
X300099Y22364D01*
X299259Y22016D01*
X298537Y21463D01*
X297984Y20741D01*
X297636Y19901D01*
X297517Y19000D01*
X297636Y18099D01*
X297984Y17259D01*
X298537Y16537D01*
X299259Y15984D01*
X300099Y15636D01*
X301000Y15518D01*
X301901Y15636D01*
X302741Y15984D01*
X303463Y16537D01*
X304016Y17259D01*
X304364Y18099D01*
X304483Y19000D01*
X304364Y19901D01*
X304016Y20741D01*
X303463Y21463D01*
X302741Y22016D01*
X301901Y22364D01*
X301000Y22482D01*
D02*
G37*
G36*
X291000D02*
X290099Y22364D01*
X289259Y22016D01*
X288538Y21463D01*
X287984Y20741D01*
X287636Y19901D01*
X287517Y19000D01*
X287636Y18099D01*
X287984Y17259D01*
X288538Y16537D01*
X289259Y15984D01*
X290099Y15636D01*
X291000Y15518D01*
X291901Y15636D01*
X292741Y15984D01*
X293462Y16537D01*
X294016Y17259D01*
X294364Y18099D01*
X294482Y19000D01*
X294364Y19901D01*
X294016Y20741D01*
X293462Y21463D01*
X292741Y22016D01*
X291901Y22364D01*
X291000Y22482D01*
D02*
G37*
G36*
X208846Y12468D02*
X196823D01*
Y11529D01*
X186012D01*
Y12468D01*
X173988D01*
Y11529D01*
X171346D01*
Y12468D01*
X159323D01*
Y11529D01*
X148512D01*
Y12468D01*
X136488D01*
Y11529D01*
X126737D01*
X126656Y11584D01*
X126000Y11714D01*
X125344Y11584D01*
X125263Y11529D01*
X116347D01*
Y12468D01*
X104323D01*
Y11529D01*
X93512D01*
Y12468D01*
X81488D01*
Y11529D01*
X78512D01*
Y12468D01*
X66488D01*
Y11529D01*
X55677D01*
Y12468D01*
X43654D01*
Y7531D01*
X55677D01*
Y8471D01*
X66488D01*
Y7531D01*
X78512D01*
Y8471D01*
X81488D01*
Y7531D01*
X93512D01*
Y8471D01*
X104323D01*
Y7531D01*
X116347D01*
Y8471D01*
X125263D01*
X125344Y8416D01*
X126000Y8286D01*
X126656Y8416D01*
X126737Y8471D01*
X136488D01*
Y7531D01*
X148512D01*
Y8471D01*
X159323D01*
Y7531D01*
X171346D01*
Y8471D01*
X173988D01*
Y7531D01*
X186012D01*
Y8471D01*
X196823D01*
Y7531D01*
X208846D01*
Y12468D01*
D02*
G37*
G36*
X83134Y108291D02*
X80325D01*
Y105089D01*
X83134D01*
Y108291D01*
D02*
G37*
G36*
X79825D02*
X77016D01*
Y105089D01*
X79825D01*
Y108291D01*
D02*
G37*
G36*
X83134Y104589D02*
X80075D01*
X77016D01*
Y103238D01*
X76935Y102835D01*
Y97291D01*
X75012D01*
Y93104D01*
X78465D01*
X81918D01*
Y97291D01*
X79994D01*
Y101386D01*
X83134D01*
Y104589D01*
D02*
G37*
G36*
X90614Y120453D02*
X84496D01*
Y113547D01*
X86026D01*
Y108291D01*
X84496D01*
Y101386D01*
X86008D01*
Y99584D01*
X85954Y99502D01*
X85824Y98847D01*
X85954Y98190D01*
X86008Y98110D01*
Y97291D01*
X84067D01*
Y88417D01*
X90973D01*
Y97291D01*
X89067D01*
Y98110D01*
X89121Y98190D01*
X89252Y98847D01*
X89121Y99502D01*
X89067Y99584D01*
Y101386D01*
X90614D01*
Y108291D01*
X89085D01*
Y113547D01*
X90614D01*
Y120453D01*
D02*
G37*
G36*
X81918Y92604D02*
X78465D01*
X75012D01*
Y88417D01*
X76935D01*
Y72488D01*
X70485D01*
Y68301D01*
X78465D01*
X86445D01*
Y72488D01*
X79994D01*
Y88417D01*
X81918D01*
Y92604D01*
D02*
G37*
G36*
X86445Y67801D02*
X78715D01*
Y63614D01*
X86445D01*
Y67801D01*
D02*
G37*
G36*
X78215D02*
X70485D01*
Y63614D01*
X78215D01*
Y67801D01*
D02*
G37*
%LPD*%
D13*
X57655Y183289D02*
X58980Y181965D01*
X58000Y182508D02*
X58197D01*
X59522Y181183D01*
Y180986D02*
Y181183D01*
Y180986D02*
X61282Y179226D01*
Y176524D02*
Y179226D01*
Y176524D02*
X65825Y171981D01*
Y169719D02*
Y171981D01*
Y169719D02*
X66047Y169496D01*
X53000Y188000D02*
X53197D01*
X57655Y183542D01*
Y183289D02*
Y183542D01*
X58980Y181965D02*
X59177D01*
X53000Y193709D02*
X62423D01*
X64200Y191931D01*
X54036Y176256D02*
X59177D01*
X53000Y177291D02*
X54036Y176256D01*
X73931Y169506D02*
Y178931D01*
X75717Y151000D02*
X91840D01*
X73921Y152796D02*
Y154504D01*
X91840Y151000D02*
X92000Y150840D01*
X73921Y169496D02*
Y171205D01*
Y152796D02*
X75717Y151000D01*
X57478Y144823D02*
X57918Y144384D01*
X62478D01*
X64803Y146709D01*
X57478Y144823D02*
Y150795D01*
X64803Y146709D02*
X65000D01*
X57478Y150795D02*
X59536Y152853D01*
Y159047D01*
X190000Y50000D02*
X200000Y40000D01*
X68000Y50000D02*
X190000D01*
X64000Y54000D02*
X68000Y50000D01*
X74000Y195000D02*
X81453D01*
X67793Y169719D02*
Y171428D01*
X64000Y175221D02*
Y179000D01*
Y175221D02*
X67793Y171428D01*
X53000Y154844D02*
X56359Y158204D01*
X64000Y185693D02*
X65000Y186693D01*
Y190000D01*
X64200Y191931D02*
X70931D01*
X74000Y195000D01*
X56359Y170549D02*
X57811Y172000D01*
X58000D01*
X56359Y158204D02*
Y170549D01*
X53000Y154648D02*
Y154844D01*
Y140000D02*
X61000Y132000D01*
X41000Y154648D02*
X47000D01*
X41000Y148033D02*
Y154648D01*
X52709Y177000D02*
X53000Y177291D01*
X43000Y177000D02*
X52709D01*
X70000Y146709D02*
X70197D01*
X69803D02*
X70000D01*
X70197D02*
X72905Y144000D01*
X77000D01*
X73507Y147608D02*
X81282D01*
X83000Y145693D02*
X84000Y146693D01*
X71025Y150091D02*
X73507Y147608D01*
X91693Y168000D02*
X91890D01*
X75890Y174890D02*
X78000Y177000D01*
X75890Y169496D02*
Y174890D01*
X73931Y178931D02*
X74000Y179000D01*
X78000Y177000D02*
Y181496D01*
X73921Y169496D02*
X73931Y169506D01*
X91693Y156000D02*
X91890D01*
X94890Y153000D01*
X97000D01*
X84890Y149000D02*
X88000Y145890D01*
X74748Y150000D02*
X88890D01*
X69984Y152796D02*
X73780Y149000D01*
X88890Y150000D02*
X93000Y145890D01*
X73780Y149000D02*
X84890D01*
X71953Y152796D02*
X74748Y150000D01*
X76112Y152771D02*
X92936D01*
X75890Y152994D02*
X76112Y152771D01*
X96000Y142197D02*
Y149707D01*
X75890Y152994D02*
Y154504D01*
X92936Y152771D02*
X96000Y149707D01*
X93000Y139000D02*
Y139197D01*
X96000Y142197D01*
X83000Y138803D02*
Y139000D01*
X81282Y137085D02*
X83000Y138803D01*
X81085Y137085D02*
X81282D01*
X76000Y132000D02*
X81085Y137085D01*
X61000Y132000D02*
X76000D01*
X83000Y139000D02*
X88000D01*
X93000D01*
X71953Y152796D02*
Y154504D01*
X93000Y145693D02*
Y145890D01*
X88000Y145693D02*
Y145890D01*
X69984Y152796D02*
Y154504D01*
X70721Y150091D02*
X71025D01*
X68000Y152811D02*
X70721Y150091D01*
X81282Y147608D02*
X83000Y145890D01*
Y145693D02*
Y145890D01*
X68000Y152811D02*
Y154489D01*
X74000Y185496D02*
X78000Y181496D01*
X73803Y185693D02*
X74000Y185496D01*
Y185693D01*
X69000D02*
X73803D01*
X64000D02*
X69000D01*
Y172189D02*
Y179000D01*
Y172189D02*
X69984Y171205D01*
Y170351D02*
Y171205D01*
X70000Y136000D02*
Y141000D01*
X68000Y134000D02*
X70000Y136000D01*
X62000Y134000D02*
X68000D01*
X60000Y136000D02*
X62000Y134000D01*
X60000Y136000D02*
Y141000D01*
X65000Y137000D02*
Y141000D01*
X66047Y151953D02*
Y154504D01*
X68478Y148033D02*
X69803Y146709D01*
X68478Y148033D02*
Y149522D01*
X66047Y151953D02*
X68478Y149522D01*
X65000Y146709D02*
Y151874D01*
X64079Y152796D02*
X65000Y151874D01*
X64079Y152796D02*
Y154504D01*
X60000Y146709D02*
Y150685D01*
X62110Y152796D01*
Y154504D01*
X35209Y161341D02*
X41000D01*
X29646Y155778D02*
X35209Y161341D01*
X41000D02*
X47000D01*
X53000D01*
X47000Y148033D02*
Y154648D01*
X53000Y148033D02*
Y154648D01*
X47000D02*
X53000D01*
X36209Y141341D02*
X41000D01*
X29646Y147904D02*
X36209Y141341D01*
X41000D02*
X47000D01*
X53000D01*
D15*
X235186Y111414D02*
X238162D01*
X249716Y99860D01*
Y40284D02*
Y99860D01*
Y40284D02*
X250000Y40000D01*
X202000Y111000D02*
X227671D01*
X229777Y113106D01*
Y113500D01*
X62138Y166726D02*
X64079Y164785D01*
X59142Y159075D02*
Y164925D01*
X59170Y164953D01*
X71976Y173976D02*
X72000Y174000D01*
X71976Y169520D02*
Y173976D01*
X59170Y159047D02*
X59536D01*
X59170Y164953D02*
X59536D01*
X71953Y169496D02*
X71976Y169520D01*
X62138Y166726D02*
Y169469D01*
X62110Y169496D02*
X62138Y169469D01*
X59142Y159075D02*
X59170Y159047D01*
X338523Y255874D02*
X338679Y255718D01*
X324874Y255874D02*
X338523D01*
X146280Y75595D02*
X148839D01*
X141161Y88130D02*
X145000Y84291D01*
X153697Y80453D02*
Y83012D01*
X145000Y84291D02*
X146280Y85571D01*
X153697Y83012D02*
Y85571D01*
X136697Y75595D02*
X141161D01*
X136169Y76122D02*
X136697Y75595D01*
X148839Y80453D02*
X153697D01*
X146280Y85571D02*
Y92988D01*
X136303Y88130D02*
X141161D01*
X145000Y84291D02*
X148839Y80453D01*
X228488Y195260D02*
X229583D01*
X227850Y194622D02*
X228488Y195260D01*
X227850Y173991D02*
Y194622D01*
Y173991D02*
X228000Y173841D01*
X196583Y177231D02*
Y195260D01*
X169606Y105941D02*
X170000D01*
X164862Y101197D02*
X169606Y105941D01*
X164862Y100717D02*
Y101197D01*
X163394Y99248D02*
X164862Y100717D01*
X163000Y99248D02*
X163394D01*
X172000Y201228D02*
Y205047D01*
X164000Y201228D02*
X172000D01*
X180000D01*
X84890Y168110D02*
X85000Y168000D01*
X84890Y168110D02*
Y171819D01*
X82653Y185000D02*
X83000Y185346D01*
Y189000D01*
X82653Y180000D02*
Y185000D01*
X172183Y89656D02*
X172528Y90000D01*
X171839Y89311D02*
X172183Y89656D01*
X176000Y91039D02*
X190374D01*
X158458Y115000D02*
X186000D01*
X156803Y113346D02*
X158458Y115000D01*
X168043Y161583D02*
Y169496D01*
X238819Y148819D02*
Y181606D01*
X242000Y184787D02*
Y185000D01*
X233000Y143000D02*
X238819Y148819D01*
Y181606D02*
X242000Y184787D01*
X224000Y223586D02*
Y239256D01*
X190000Y230000D02*
X197000Y223000D01*
X223414D01*
X224000Y223586D01*
X230000Y245256D02*
Y261512D01*
X224000Y239256D02*
X230000Y245256D01*
X360988Y263012D02*
X365000Y259000D01*
X231500Y263012D02*
X360988D01*
X230000Y261512D02*
X231500Y263012D01*
X365000Y133000D02*
Y259000D01*
X346650Y256412D02*
X347188Y255874D01*
X258000Y255957D02*
X263555Y261512D01*
X343863D02*
X346650Y258725D01*
Y256412D02*
Y258725D01*
X263555Y261512D02*
X343863D01*
X334740Y102740D02*
X365000Y133000D01*
X258417Y102740D02*
X334740D01*
X283102Y184083D02*
X283740Y184721D01*
Y186583D01*
X271502Y175805D02*
X279780Y184083D01*
X185957Y131061D02*
Y134417D01*
X279780Y184083D02*
X283102D01*
X232607Y140486D02*
X246424Y154303D01*
X255311D02*
X271502Y170495D01*
X188669Y140486D02*
X232607D01*
X246424Y154303D02*
X255311D01*
X271502Y170495D02*
Y175805D01*
X189065Y146000D02*
X226000D01*
X185957Y137773D02*
X188669Y140486D01*
X226000Y146000D02*
X232000Y152000D01*
Y185000D01*
X188624Y143000D02*
X233000D01*
X183398Y137773D02*
X188624Y143000D01*
X8833Y250833D02*
X26000Y268000D01*
X182000D02*
X220000Y230000D01*
X26000Y268000D02*
X182000D01*
X323000Y246866D02*
Y254000D01*
X324874Y255874D01*
X323000Y246866D02*
X328606Y241260D01*
X329000D02*
X334059D01*
X328606D02*
X329000D01*
X109632Y136000D02*
X110000Y135632D01*
X104000Y136000D02*
X109632D01*
X170602Y134417D02*
Y137773D01*
X142000Y166376D02*
X170602Y137773D01*
X142000Y166376D02*
Y185000D01*
X173161Y134417D02*
Y144037D01*
X162000Y155199D02*
Y185000D01*
Y155199D02*
X173161Y144037D01*
X175721Y161583D02*
Y175411D01*
X155980Y194535D02*
X156373D01*
X161016Y189893D01*
X162976D01*
X167850Y185018D01*
Y183281D02*
Y185018D01*
Y183281D02*
X175721Y175411D01*
X178279Y161583D02*
Y175805D01*
X164000Y194535D02*
X164394D01*
X169036Y189893D01*
X172976D01*
X176150Y186719D01*
Y177935D02*
Y186719D01*
Y177935D02*
X178279Y175805D01*
X183719Y189150D02*
X186150Y186719D01*
X180586Y189150D02*
X183719D01*
X173862Y192673D02*
Y193067D01*
X180839Y161583D02*
Y180293D01*
X180000Y189735D02*
Y194535D01*
Y189735D02*
X180586Y189150D01*
X173862Y192673D02*
X177850Y188685D01*
X187850Y175048D02*
Y198411D01*
X185957Y161583D02*
Y173155D01*
X183398Y177231D02*
X186150Y179983D01*
X172000Y194535D02*
X172394D01*
X177850Y183281D02*
Y188685D01*
X183398Y161583D02*
Y177231D01*
X185957Y173155D02*
X187850Y175048D01*
X186150Y179983D02*
Y186719D01*
X172394Y194535D02*
X173862Y193067D01*
X177850Y183281D02*
X180839Y180293D01*
X274284Y243500D02*
X277039D01*
X335192Y240126D02*
X342462D01*
X343000Y239588D01*
Y238742D02*
Y239588D01*
X334059Y241260D02*
X335192Y240126D01*
X309717Y248500D02*
Y255240D01*
X307000Y257957D02*
X309717Y255240D01*
X229583Y202740D02*
Y207417D01*
X228000Y209000D02*
X229583Y207417D01*
X92047Y221953D02*
X175508D01*
X194721Y202740D01*
X196583D01*
X84000Y230000D02*
X92047Y221953D01*
X8833Y133740D02*
Y250833D01*
X328863Y233500D02*
X352728D01*
X353314Y234086D01*
Y255288D01*
X318863Y243500D02*
X328863Y233500D01*
X347188Y255874D02*
X352728D01*
X353314Y255288D01*
X214000Y202346D02*
X214394D01*
X213606D02*
X214000D01*
X214394D02*
X225547Y213500D01*
X252000D01*
X258000Y219500D02*
Y255957D01*
X252000Y213500D02*
X258000Y219500D01*
X260000Y215740D02*
Y255000D01*
X248862Y204602D02*
X260000Y215740D01*
X248862Y203815D02*
Y204602D01*
X247000Y202346D02*
X247394D01*
X248862Y203815D01*
X262957Y257957D02*
X307000D01*
X260000Y255000D02*
X262957Y257957D01*
X309717Y243500D02*
X318863D01*
X307000Y257957D02*
X342462D01*
X246606Y202346D02*
X247000D01*
X204761Y134417D02*
X212000D01*
X188516D02*
X197281D01*
X185957D02*
Y137773D01*
X247000Y195653D02*
X247394D01*
X246606D02*
X247000D01*
X214000D02*
X214394D01*
X209457Y194973D02*
X210138Y195653D01*
X231446Y195260D02*
X234021Y192685D01*
X243638D01*
X246606Y195653D01*
X229583Y195260D02*
X231446D01*
X229583Y202740D02*
X231446D01*
X235186Y199000D01*
X243260D02*
X246606Y202346D01*
X235186Y199000D02*
X243260D01*
X234742Y195653D02*
X239000D01*
X231396Y199000D02*
X234742Y195653D01*
X222417Y199000D02*
X231396D01*
X221043D02*
X222417D01*
X188516Y161583D02*
X193583D01*
X207000Y175000D01*
Y185868D01*
X215560Y191469D02*
X220454Y196362D01*
X207000Y185868D02*
X212600Y191469D01*
X220454Y198411D02*
X221043Y199000D01*
X220454Y196362D02*
Y198411D01*
X212600Y191469D02*
X215560D01*
X196583Y202740D02*
X198446D01*
X202186Y199000D01*
X198396D02*
X201742Y195653D01*
X188440Y199000D02*
X198396D01*
X210260D02*
X213606Y202346D01*
X202186Y199000D02*
X210260D01*
X208776Y192685D02*
X209457Y193366D01*
Y194973D01*
X196583Y195260D02*
X198446D01*
X201021Y192685D01*
X210138Y195653D02*
X214000D01*
X201021Y192685D02*
X208776D01*
X201742Y195653D02*
X206000D01*
X187850Y198411D02*
X188440Y199000D01*
X110000Y141341D02*
Y147063D01*
X108146Y158752D02*
Y158949D01*
Y154429D02*
Y158752D01*
Y154429D02*
X109803Y152771D01*
X110000D01*
X102000Y153000D02*
X102261Y153261D01*
X102654D01*
X108146Y158752D01*
X108000Y158803D02*
X108146Y158949D01*
X69260Y212000D02*
X69653D01*
X63260Y218000D02*
X69260Y212000D01*
X50987Y218000D02*
X63260D01*
X43695Y208703D02*
X45191D01*
X45829Y209341D01*
Y212842D01*
X50987Y218000D01*
X47000Y182000D02*
X48469Y183468D01*
X93264Y195197D02*
X93461Y195000D01*
X107000D01*
X93264D02*
Y195197D01*
Y194803D02*
Y195000D01*
X89346Y185000D02*
Y190886D01*
X93264Y194803D01*
X108095Y165000D02*
X108146Y164949D01*
X94890Y165000D02*
X108095D01*
X202000Y104307D02*
X213882D01*
X214000Y104189D01*
X194811Y111414D02*
X201586D01*
X202000Y111000D01*
X186937Y94646D02*
Y107674D01*
Y94646D02*
X190374Y91209D01*
X190654D01*
X164083Y90000D02*
X171839D01*
X172921D02*
X174961D01*
X172528D02*
X172921D01*
X178000Y95079D01*
X172232Y89311D02*
X172921Y90000D01*
X178000Y95079D02*
Y99248D01*
X171839Y89311D02*
X172232D01*
X157492Y90000D02*
X164083D01*
X169606Y99248D02*
X170000D01*
X168138Y97780D02*
X169606Y99248D01*
X168138Y94055D02*
Y97780D01*
X164083Y90000D02*
X168138Y94055D01*
X174000Y112000D02*
X176138Y109862D01*
X159043Y97877D02*
Y111414D01*
X159629Y112000D02*
X174000D01*
X159043Y111414D02*
X159629Y112000D01*
X156803Y99615D02*
Y113346D01*
X155980Y98791D02*
X156803Y99615D01*
X142048Y95876D02*
X144963Y98791D01*
X155980D01*
X141161Y94913D02*
X142048Y95799D01*
X141161Y92988D02*
Y94913D01*
X142048Y95799D02*
Y95876D01*
X146022Y97291D02*
X158458D01*
X159043Y97877D01*
X161602Y98244D02*
Y99248D01*
X156346Y92988D02*
X161602Y98244D01*
X148839Y92988D02*
X156346D01*
X149177Y102528D02*
X152169D01*
X150917Y101083D02*
X153697D01*
X176138Y107410D02*
Y109862D01*
Y107410D02*
X177606Y105941D01*
X178000D01*
X143720Y92988D02*
Y94913D01*
X144606Y95799D01*
Y95876D01*
X146022Y97291D01*
X131000Y86291D02*
Y95780D01*
X134441Y99221D02*
Y99615D01*
X131000Y95780D02*
X134441Y99221D01*
X147169Y109221D02*
X148173Y108217D01*
Y103532D02*
Y108217D01*
Y103532D02*
X149177Y102528D01*
X143890Y109221D02*
X147169D01*
X134441Y99615D02*
X135909Y101083D01*
X136079Y102528D02*
X136472D01*
X143890D01*
X156803Y81831D02*
X163000D01*
X155622Y83012D02*
X156803Y81831D01*
X153697Y83012D02*
X155622D01*
X163311Y81520D02*
X171000D01*
X163000Y81831D02*
X163311Y81520D01*
X190484Y75291D02*
X190654Y75461D01*
X149008Y75291D02*
X190484D01*
X155622Y88130D02*
X157492Y90000D01*
X174961D02*
X176000Y91039D01*
X131720Y85571D02*
X136303D01*
X131000Y86291D02*
X131720Y85571D01*
X212000Y154000D02*
Y185000D01*
X209000Y151000D02*
X212000Y154000D01*
X188947Y151000D02*
X209000D01*
X178279Y137773D02*
X189278Y148772D01*
X175721Y134417D02*
Y137773D01*
X188947Y151000D01*
X189278Y148772D02*
X218772D01*
X222000Y152000D02*
Y185000D01*
X218772Y148772D02*
X222000Y152000D01*
X178279Y134417D02*
Y137773D01*
X180839Y137773D02*
X189065Y146000D01*
X180839Y134417D02*
Y137773D01*
X183398Y134417D02*
Y137773D01*
X148839Y75461D02*
X149008Y75291D01*
X148839Y75461D02*
Y75595D01*
X153697Y88130D02*
X155622D01*
X113854Y158949D02*
Y164949D01*
X91890Y168000D02*
X94890Y165000D01*
X69653Y212000D02*
X70000Y211653D01*
Y218347D02*
X81748D01*
X82095Y218000D01*
X85625Y201307D02*
X102000D01*
X81885Y205047D02*
X85625Y201307D01*
X77000Y205047D02*
X81885D01*
X70394Y211653D02*
X77000Y205047D01*
X70000Y211653D02*
X70394D01*
X94906Y208000D02*
X102000D01*
X93906Y209000D02*
X94906Y208000D01*
X110000Y198000D02*
Y210000D01*
X107000Y195000D02*
X110000Y198000D01*
X102000Y218000D02*
X110000Y210000D01*
X93906Y218000D02*
X102000D01*
X89346Y180000D02*
Y185000D01*
X89000Y179654D02*
X89346Y180000D01*
X89000Y174000D02*
Y179654D01*
X81418Y162000D02*
X85000D01*
X80146Y160728D02*
X81418Y162000D01*
X80146Y159075D02*
Y160728D01*
X80118Y159047D02*
X80146Y159075D01*
X78465Y159047D02*
X80118D01*
X80146Y163272D02*
X81418Y162000D01*
X80146Y163272D02*
Y164925D01*
X80118Y164953D02*
X80146Y164925D01*
X78465Y164953D02*
X80118D01*
X85000Y162000D02*
Y168000D01*
Y156000D02*
Y162000D01*
X91693D02*
Y168000D01*
Y156000D02*
Y162000D01*
D24*
X69000D02*
D03*
D34*
X258417Y102740D02*
D03*
X196583Y195260D02*
D03*
X8833Y133740D02*
D03*
X229583Y195260D02*
D03*
D35*
X258417Y95260D02*
D03*
X265583Y99000D02*
D03*
X196583Y202740D02*
D03*
X189417Y199000D02*
D03*
X16000Y130000D02*
D03*
X8833Y126260D02*
D03*
X222417Y199000D02*
D03*
X229583Y202740D02*
D03*
D37*
X87520Y92854D02*
D03*
X78465D02*
D03*
X69410D02*
D03*
D38*
X78465Y68051D02*
D03*
D42*
X43695Y208703D02*
D03*
D43*
Y204963D02*
D03*
Y201223D02*
D03*
X52484D02*
D03*
Y208703D02*
D03*
D48*
X280000Y179417D02*
D03*
X276260Y186583D02*
D03*
D49*
X283740D02*
D03*
D50*
X27000Y249827D02*
D03*
Y228173D02*
D03*
X17157D02*
D03*
Y249827D02*
D03*
X36843D02*
D03*
Y228173D02*
D03*
D56*
X15000Y33000D02*
D03*
D57*
X35000D02*
D03*
X25000D02*
D03*
D69*
X58000Y182508D02*
D03*
Y176799D02*
D03*
X53000Y188000D02*
D03*
Y193709D02*
D03*
X110000Y135632D02*
D03*
Y141341D02*
D03*
X53000Y183000D02*
D03*
Y177291D02*
D03*
X70000Y141000D02*
D03*
Y146709D02*
D03*
X65000D02*
D03*
Y141000D02*
D03*
X60000Y146709D02*
D03*
Y141000D02*
D03*
X110000Y147063D02*
D03*
Y152771D02*
D03*
D70*
X235186Y111414D02*
D03*
X228493D02*
D03*
X40307Y182000D02*
D03*
X47000D02*
D03*
X163374Y58000D02*
D03*
X170067D02*
D03*
D71*
X93906Y209000D02*
D03*
X82095D02*
D03*
X93906Y218000D02*
D03*
X82095D02*
D03*
X93264Y195000D02*
D03*
X81453D02*
D03*
X256906Y28000D02*
D03*
X245094D02*
D03*
D72*
X214000Y104799D02*
D03*
Y92988D02*
D03*
X154563Y58453D02*
D03*
Y70264D02*
D03*
D73*
X66047Y169496D02*
D03*
X75890Y154504D02*
D03*
X73921D02*
D03*
X71953D02*
D03*
X69984D02*
D03*
X68016D02*
D03*
X66047D02*
D03*
X64079D02*
D03*
X62110D02*
D03*
Y169496D02*
D03*
X64079D02*
D03*
X68016D02*
D03*
X69984D02*
D03*
X71953D02*
D03*
X73921D02*
D03*
X75890D02*
D03*
D74*
X78465Y164953D02*
D03*
Y159047D02*
D03*
X59536D02*
D03*
Y164953D02*
D03*
D75*
X343000Y238586D02*
D03*
D76*
X348321Y239970D02*
D03*
Y243120D02*
D03*
Y246269D02*
D03*
Y249419D02*
D03*
Y252569D02*
D03*
Y255718D02*
D03*
X337679D02*
D03*
Y252569D02*
D03*
Y249419D02*
D03*
Y246269D02*
D03*
Y243120D02*
D03*
Y239970D02*
D03*
D77*
X343000Y257102D02*
D03*
D78*
X329000Y241260D02*
D03*
Y248740D02*
D03*
X264747Y242240D02*
D03*
Y234760D02*
D03*
X61575Y203191D02*
D03*
Y210672D02*
D03*
X171839Y89311D02*
D03*
Y81831D02*
D03*
X163000Y89311D02*
D03*
Y81831D02*
D03*
D79*
X141161Y75595D02*
D03*
X143720D02*
D03*
X146280D02*
D03*
X148839D02*
D03*
Y92988D02*
D03*
X146280D02*
D03*
X143720D02*
D03*
X141161D02*
D03*
D80*
X153697Y80453D02*
D03*
Y83012D02*
D03*
Y85571D02*
D03*
Y88130D02*
D03*
X136303D02*
D03*
Y85571D02*
D03*
Y83012D02*
D03*
Y80453D02*
D03*
D81*
X145000Y84291D02*
D03*
D82*
X188516Y161583D02*
D03*
X185957D02*
D03*
X183398D02*
D03*
X180839D02*
D03*
X178279D02*
D03*
X175721D02*
D03*
X173161D02*
D03*
X170602D02*
D03*
X168043D02*
D03*
X165484D02*
D03*
X188516Y134417D02*
D03*
X185957D02*
D03*
X183398D02*
D03*
X180839D02*
D03*
X178279D02*
D03*
X175721D02*
D03*
X173161D02*
D03*
X170602D02*
D03*
X168043D02*
D03*
X165484D02*
D03*
D83*
X240000Y57653D02*
D03*
Y64346D02*
D03*
X230000Y57653D02*
D03*
Y64346D02*
D03*
X220000Y57653D02*
D03*
Y64346D02*
D03*
X210000Y57653D02*
D03*
Y64346D02*
D03*
X247000Y173841D02*
D03*
Y167148D02*
D03*
Y202346D02*
D03*
Y195653D02*
D03*
X239000Y195653D02*
D03*
Y202346D02*
D03*
X214000Y202346D02*
D03*
Y195653D02*
D03*
X206000Y195653D02*
D03*
Y202346D02*
D03*
X70000Y211653D02*
D03*
Y218347D02*
D03*
X102000Y201307D02*
D03*
Y208000D02*
D03*
X263000Y43346D02*
D03*
Y36654D02*
D03*
X202000Y111000D02*
D03*
Y104307D02*
D03*
X178000Y105941D02*
D03*
Y99248D02*
D03*
X170000D02*
D03*
Y105941D02*
D03*
X136472Y109221D02*
D03*
Y102528D02*
D03*
X143890D02*
D03*
Y109221D02*
D03*
X152169D02*
D03*
Y102528D02*
D03*
X163000Y99248D02*
D03*
Y105941D02*
D03*
X180000Y201228D02*
D03*
Y194535D02*
D03*
X172000Y201228D02*
D03*
Y194535D02*
D03*
X155980Y201228D02*
D03*
Y194535D02*
D03*
X164000D02*
D03*
Y201228D02*
D03*
D84*
X204761Y134417D02*
D03*
X197281D02*
D03*
X80075Y117000D02*
D03*
X87555D02*
D03*
X80075Y104839D02*
D03*
X87555D02*
D03*
X117260Y101291D02*
D03*
X124740D02*
D03*
D85*
X108146Y158949D02*
D03*
X113854D02*
D03*
X108146Y164949D02*
D03*
X113854D02*
D03*
D86*
X74000Y179000D02*
D03*
Y185693D02*
D03*
X69000Y179000D02*
D03*
Y185693D02*
D03*
X64000Y179000D02*
D03*
Y185693D02*
D03*
X83000Y145693D02*
D03*
Y139000D02*
D03*
X88000Y145693D02*
D03*
Y139000D02*
D03*
X93000Y145693D02*
D03*
Y139000D02*
D03*
X53000Y154648D02*
D03*
Y161341D02*
D03*
X47000Y154648D02*
D03*
Y161341D02*
D03*
X41000Y154648D02*
D03*
Y161341D02*
D03*
X47000Y148033D02*
D03*
Y141341D02*
D03*
X53000Y148033D02*
D03*
Y141341D02*
D03*
X41000Y148033D02*
D03*
Y141341D02*
D03*
D87*
X85000Y168000D02*
D03*
X91693D02*
D03*
X85000Y162000D02*
D03*
X91693D02*
D03*
X85000Y156000D02*
D03*
X91693D02*
D03*
X82653Y185000D02*
D03*
X89346D02*
D03*
X82653Y180000D02*
D03*
X89346D02*
D03*
D88*
X106535Y82291D02*
D03*
X123465D02*
D03*
D89*
X49665Y10000D02*
D03*
X72500D02*
D03*
Y25748D02*
D03*
X49665D02*
D03*
X87500Y10000D02*
D03*
X110335D02*
D03*
Y25748D02*
D03*
X87500D02*
D03*
X142500Y10000D02*
D03*
X165335D02*
D03*
Y25748D02*
D03*
X142500D02*
D03*
X180000Y10000D02*
D03*
X202835D02*
D03*
Y25748D02*
D03*
X180000D02*
D03*
D90*
X190654Y91209D02*
D03*
Y75461D02*
D03*
D91*
X323000Y198500D02*
D03*
Y113500D02*
D03*
D92*
Y156000D02*
D03*
D93*
X186937Y115154D02*
D03*
Y107674D02*
D03*
X194811Y111414D02*
D03*
D94*
X274284Y248500D02*
D03*
Y243500D02*
D03*
Y238500D02*
D03*
Y233500D02*
D03*
Y228500D02*
D03*
Y223500D02*
D03*
Y218500D02*
D03*
Y213500D02*
D03*
X309717Y248500D02*
D03*
Y243500D02*
D03*
Y238500D02*
D03*
Y233500D02*
D03*
Y228500D02*
D03*
Y223500D02*
D03*
Y218500D02*
D03*
Y213500D02*
D03*
D95*
X338679Y243120D02*
Y246269D01*
X329394Y248740D02*
X331833Y246301D01*
X329000Y248740D02*
X329394D01*
X331833Y246301D02*
X338648D01*
X338679Y246269D01*
X329394Y248740D02*
X333190Y252537D01*
X338648D01*
X338679Y252569D01*
X347289Y252537D02*
X347321Y252569D01*
X344259Y252537D02*
X347289D01*
X344070Y252348D02*
X344259Y252537D01*
X340116Y252348D02*
X344070D01*
X339895Y252569D02*
X340116Y252348D01*
X338679Y252569D02*
X339895D01*
X170067Y58000D02*
Y63933D01*
X170000Y64000D02*
X170067Y63933D01*
X136169Y76122D02*
Y80122D01*
X247000Y51000D02*
Y80453D01*
X232000Y95453D02*
Y106000D01*
Y95453D02*
X247000Y80453D01*
X240000Y64346D02*
Y70031D01*
X230000Y64346D02*
Y70031D01*
X87538Y98847D02*
Y104821D01*
Y92872D02*
Y98847D01*
X136303Y113000D02*
X136472Y112831D01*
Y109221D02*
Y112831D01*
X162988Y105954D02*
X163000Y105941D01*
X162988Y105954D02*
Y109807D01*
X162976Y109819D02*
X162988Y109807D01*
X214000Y87000D02*
Y92988D01*
X220000Y64346D02*
Y70031D01*
X210000Y64346D02*
Y70031D01*
X126000Y10000D02*
X142500D01*
X110335D02*
X126000D01*
X75717Y211653D02*
X78370Y209000D01*
X82095D01*
X61575Y210672D02*
Y215819D01*
X25000Y33000D02*
Y100000D01*
X38000Y113000D01*
X31039Y64539D02*
X56418Y89917D01*
X31039Y29959D02*
Y64539D01*
X69410Y91870D02*
Y92854D01*
X56418Y89917D02*
X67457D01*
X69410Y91870D01*
Y92854D02*
Y105941D01*
X22252Y25748D02*
X26828D01*
X31039Y29959D01*
X15000Y33000D02*
X22252Y25748D01*
X5638Y21362D02*
X37362D01*
X40000Y24000D02*
Y40464D01*
X37362Y21362D02*
X40000Y24000D01*
X3000D02*
X5638Y21362D01*
X40000Y40464D02*
X59536Y60000D01*
X120066D01*
X191043Y91209D02*
X198528D01*
X190654D02*
X191043D01*
X198528D02*
X201465Y88272D01*
Y83765D02*
Y88272D01*
Y83765D02*
X207000Y78229D01*
Y73723D02*
Y78229D01*
X36843Y218347D02*
Y228173D01*
Y206127D02*
Y218347D01*
X186937Y53660D02*
X207000Y73723D01*
X123465Y82291D02*
X133868D01*
X144782Y58181D02*
X145038D01*
X136169Y66794D02*
X144782Y58181D01*
X135039Y80783D02*
Y81120D01*
X120066Y60000D02*
X126407Y53660D01*
X133868Y82291D02*
X135039Y81120D01*
X126407Y53660D02*
X186937D01*
X265583Y99000D02*
X274000D01*
X151776Y109221D02*
X152169D01*
X144997Y116000D02*
X151776Y109221D01*
X124740Y116000D02*
X144997D01*
X188402Y134303D02*
X188516Y134417D01*
X124740Y116000D02*
X131895Y123155D01*
X188402Y130240D02*
Y134303D01*
X181316Y123155D02*
X188402Y130240D01*
X131895Y123155D02*
X181316D01*
X124740Y101685D02*
Y116000D01*
Y101291D02*
Y101685D01*
X122000Y185000D02*
X138228Y201228D01*
X155980D01*
X206000Y202346D02*
Y208000D01*
X239000Y202346D02*
X239931Y203277D01*
Y208931D01*
X240000Y209000D01*
X69410Y105941D02*
X81634Y118165D01*
X84172Y125000D02*
X101425D01*
X81634Y118165D02*
Y122462D01*
X84172Y125000D01*
X101425D02*
X124740Y101685D01*
X262606Y36654D02*
X263000D01*
X258661Y32709D02*
X262606Y36654D01*
X258661Y29756D02*
Y32709D01*
X256906Y28000D02*
X258661Y29756D01*
X258417Y79201D02*
Y95260D01*
X251716Y72501D02*
X258417Y79201D01*
X251716Y56443D02*
Y72501D01*
Y56443D02*
X254500Y53660D01*
Y37602D02*
Y53660D01*
X245094Y28197D02*
X254500Y37602D01*
X245094Y28000D02*
Y28197D01*
X240000Y32000D02*
Y57653D01*
X313628Y144000D02*
X320000D01*
X280000Y177628D02*
X313628Y144000D01*
X280000Y177628D02*
Y179417D01*
X329000Y248740D02*
Y253693D01*
X79020Y130000D02*
X123569D01*
X127373Y180373D02*
X132000Y185000D01*
X127373Y133804D02*
Y180373D01*
X123569Y130000D02*
X127373Y133804D01*
X62020Y113000D02*
X79020Y130000D01*
X38000Y113000D02*
X62020D01*
X165335Y10000D02*
X180000D01*
X142500D02*
X165335D01*
X87500D02*
X110335D01*
X72500D02*
X87500D01*
X49665D02*
X72500D01*
X180000D02*
X202835D01*
X180000Y25748D02*
X202835D01*
X171193Y16362D02*
X224362D01*
X240000Y32000D01*
X172228Y18862D02*
X215327D01*
X230000Y33536D01*
Y57653D01*
X173264Y21362D02*
X209000D01*
X220000Y32362D01*
Y40000D01*
Y57653D01*
X210000Y29370D02*
Y40000D01*
X206378Y25748D02*
X210000Y29370D01*
X202835Y25748D02*
X206378D01*
X210000Y40000D02*
Y57653D01*
X168693Y18862D02*
X171193Y16362D01*
X136249Y18862D02*
X168693D01*
X133749Y21362D02*
X136249Y18862D01*
X80429Y21362D02*
X133749D01*
X76043Y25748D02*
X80429Y21362D01*
X72500Y25748D02*
X76043D01*
X49665D02*
X72500D01*
X87500D02*
X110335D01*
X137284Y21362D02*
X169728D01*
X172228Y18862D01*
X110335Y25748D02*
X132898D01*
X137284Y21362D01*
X142500Y25748D02*
X165335D01*
X168878D01*
X173264Y21362D01*
X246606Y167148D02*
X247000D01*
X241000Y164000D02*
X241069Y164069D01*
X243527D02*
X246606Y167148D01*
X241069Y164069D02*
X243527D01*
X247000Y173841D02*
Y180000D01*
X252000Y185000D01*
X16000Y130000D02*
X27000D01*
X8833Y105372D02*
Y126260D01*
Y105372D02*
X15205Y99000D01*
X271448Y243500D02*
X274284D01*
X264747Y242240D02*
X270189D01*
X271448Y243500D01*
X274284Y206716D02*
Y213500D01*
Y223500D02*
Y228500D01*
Y218500D02*
Y223500D01*
Y213500D02*
Y218500D01*
X264747Y234760D02*
X265141D01*
X271331Y228569D01*
X274214D01*
X274284Y228500D01*
X309717D02*
Y233500D01*
Y223500D02*
Y228500D01*
Y218500D02*
Y223500D01*
Y213500D02*
Y218500D01*
Y206716D02*
Y213500D01*
X309000Y206000D02*
X309717Y206716D01*
X315154Y200895D02*
X317548Y198500D01*
X315154Y200895D02*
Y235721D01*
X312374Y238500D02*
X315154Y235721D01*
X309717Y238500D02*
X312374D01*
X317548Y198500D02*
X323000D01*
X264747Y186583D02*
X276260D01*
X263163Y185000D02*
X264747Y186583D01*
X262000Y185000D02*
X263163D01*
X61181Y203191D02*
X62740Y201632D01*
X66707D01*
X66902Y201437D01*
X67000D01*
X50987Y208703D02*
X52484D01*
X47829Y205545D02*
X50987Y208703D01*
X47829Y194831D02*
Y205545D01*
X47000Y194002D02*
X47829Y194831D01*
X47000Y182000D02*
Y194002D01*
X42124Y204963D02*
X43695D01*
X42108Y201313D02*
X43605D01*
X39404Y203566D02*
X39856D01*
X39560Y206944D02*
X40439Y206066D01*
X39560Y214462D02*
X41000Y215902D01*
X43605Y201313D02*
X43695Y201223D01*
X36843Y206127D02*
X39404Y203566D01*
X40439Y206066D02*
X41021D01*
X41000Y215902D02*
Y216000D01*
X39856Y203566D02*
X42108Y201313D01*
X41021Y206066D02*
X42124Y204963D01*
X39560Y206944D02*
Y214462D01*
X52484Y201223D02*
X59213D01*
X61181Y203191D01*
X87555Y104839D02*
Y117000D01*
X145514Y58453D02*
X154563D01*
X145061Y58000D02*
X145514Y58453D01*
X154563Y70264D02*
X154796Y70031D01*
X161602D01*
X163374Y58000D02*
Y68260D01*
X161602Y70031D02*
X163374Y68260D01*
X136169Y66794D02*
Y76122D01*
X78465Y68051D02*
Y92854D01*
Y102835D01*
X80075Y104445D01*
Y104839D01*
X87538Y104821D02*
X87555Y104839D01*
X87520Y92854D02*
X87538Y92872D01*
X107000Y82291D02*
Y96291D01*
X112000Y101291D02*
X117260D01*
X108000Y97291D02*
X112000Y101291D01*
X107000Y96291D02*
X108000Y97291D01*
X106535Y82291D02*
X107000D01*
X123465D02*
X124740Y83567D01*
Y101291D01*
X29646Y193055D02*
Y193563D01*
Y193055D02*
X40307Y182394D01*
Y182000D02*
Y182394D01*
X27000Y204083D02*
Y228173D01*
Y204083D02*
X29646Y201437D01*
Y193563D02*
X30030Y193947D01*
D96*
X330550Y198500D02*
X359000Y170050D01*
X330550Y113500D02*
X359000Y141950D01*
Y170050D01*
X323000Y113500D02*
X330550D01*
X323000Y198500D02*
X330550D01*
D97*
X250000Y40000D02*
D03*
X210000D02*
D03*
X220000D02*
D03*
X230000D02*
D03*
X240000D02*
D03*
X160000D02*
D03*
X170000D02*
D03*
X110000D02*
D03*
X120000D02*
D03*
X130000D02*
D03*
X140000D02*
D03*
X150000D02*
D03*
X230000Y230000D02*
D03*
X240000D02*
D03*
X180000D02*
D03*
X190000D02*
D03*
X200000D02*
D03*
X210000D02*
D03*
X220000D02*
D03*
X74000D02*
D03*
X84000D02*
D03*
X94000D02*
D03*
X104000D02*
D03*
X114000D02*
D03*
X124000D02*
D03*
X134000D02*
D03*
X144000D02*
D03*
X154000D02*
D03*
D98*
X242000Y185000D02*
D03*
X232000D02*
D03*
X192000D02*
D03*
X162000D02*
D03*
X142000D02*
D03*
X122000D02*
D03*
X132000D02*
D03*
X152000D02*
D03*
X172000D02*
D03*
X182000D02*
D03*
X202000D02*
D03*
X212000D02*
D03*
X222000D02*
D03*
X252000D02*
D03*
X262000D02*
D03*
D99*
X112000D02*
D03*
D100*
X15205Y99000D02*
D03*
X40795D02*
D03*
D101*
X29646Y147904D02*
D03*
Y193563D02*
D03*
D102*
Y155778D02*
D03*
Y201437D02*
D03*
D103*
X281000Y19000D02*
D03*
D104*
X301000D02*
D03*
X311000D02*
D03*
X321000D02*
D03*
X331000D02*
D03*
X341000D02*
D03*
X351000D02*
D03*
X361000D02*
D03*
X291000D02*
D03*
D105*
X260551Y129803D02*
D03*
X250551D02*
D03*
X260551Y139803D02*
D03*
X250551D02*
D03*
X260551Y149803D02*
D03*
X250551D02*
D03*
D106*
X180000Y40000D02*
D03*
X250000Y230000D02*
D03*
X164000D02*
D03*
X200000Y40000D02*
D03*
D107*
X60000Y230000D02*
D03*
X55000Y40000D02*
D03*
X260000Y170000D02*
D03*
Y60000D02*
D03*
D108*
X252000Y213500D02*
D03*
X260000Y215740D02*
D03*
X95788Y63933D02*
D03*
X93000Y66000D02*
D03*
X98000D02*
D03*
X95788Y68051D02*
D03*
X61000Y16000D02*
D03*
X64000Y17500D02*
D03*
X61000Y19693D02*
D03*
X58500Y17500D02*
D03*
X69000Y165051D02*
D03*
X74020Y162000D02*
D03*
X69000Y158949D02*
D03*
X63981Y162000D02*
D03*
X72000Y174000D02*
D03*
X92000Y150840D02*
D03*
X170000Y64000D02*
D03*
X147000Y86291D02*
D03*
X143000Y82291D02*
D03*
X49000Y73000D02*
D03*
X247000Y51000D02*
D03*
X240000Y70031D02*
D03*
X230000D02*
D03*
X232000Y106000D02*
D03*
X228000Y173841D02*
D03*
X196583Y177231D02*
D03*
X87538Y98847D02*
D03*
X136303Y113000D02*
D03*
X162976Y109819D02*
D03*
X214000Y87000D02*
D03*
X220000Y70031D02*
D03*
X210000D02*
D03*
X126000Y10000D02*
D03*
X172000Y205047D02*
D03*
X75717Y211653D02*
D03*
X61575Y215819D02*
D03*
X84890Y171819D02*
D03*
X83000Y189000D02*
D03*
X3000Y24000D02*
D03*
X145038Y58181D02*
D03*
X64000Y54000D02*
D03*
X36843Y218347D02*
D03*
X274000Y99000D02*
D03*
X124740Y116000D02*
D03*
X206000Y208000D02*
D03*
X240000Y209000D02*
D03*
X168043Y169496D02*
D03*
X334059Y141950D02*
D03*
X323000Y134000D02*
D03*
X344070Y156000D02*
D03*
X329000Y253693D02*
D03*
X104000Y136000D02*
D03*
X241000Y164000D02*
D03*
X335192Y168000D02*
D03*
X309717D02*
D03*
Y143000D02*
D03*
X301000Y154303D02*
D03*
X323000Y177628D02*
D03*
Y156000D02*
D03*
X228000Y209000D02*
D03*
X27000Y130000D02*
D03*
X274284Y206716D02*
D03*
X212000Y134417D02*
D03*
X309000Y206000D02*
D03*
X102000Y153000D02*
D03*
X67000Y201437D02*
D03*
X41000Y216000D02*
D03*
X65000Y190000D02*
D03*
X58000Y172000D02*
D03*
X108000Y97291D02*
D03*
X43000Y177000D02*
D03*
X77000Y144000D02*
D03*
X89000Y174000D02*
D03*
X81418Y162000D02*
D03*
X97000Y153000D02*
D03*
X65000Y137000D02*
D03*
M02*
